<?xml version="1.0" encoding="UTF-8" standalone="no"?>
<!-- Created with Inkscape (http://www.inkscape.org/) -->

<svg
   width="210mm"
   height="297mm"
   viewBox="0 0 210 297"
   version="1.1"
   id="svg455"
   inkscape:version="1.1 (c68e22c387, 2021-05-23)"
   sodipodi:docname="dibujo.svg"
   xmlns:inkscape="http://www.inkscape.org/namespaces/inkscape"
   xmlns:sodipodi="http://sodipodi.sourceforge.net/DTD/sodipodi-0.dtd"
   xmlns="http://www.w3.org/2000/svg"
   xmlns:svg="http://www.w3.org/2000/svg">
  <sodipodi:namedview
     id="namedview457"
     pagecolor="#ffffff"
     bordercolor="#666666"
     borderopacity="1.0"
     inkscape:pageshadow="2"
     inkscape:pageopacity="0.0"
     inkscape:pagecheckerboard="0"
     inkscape:document-units="mm"
     showgrid="false"
     inkscape:zoom="0.74118967"
     inkscape:cx="-52.61811"
     inkscape:cy="300.19306"
     inkscape:window-width="1920"
     inkscape:window-height="1017"
     inkscape:window-x="-8"
     inkscape:window-y="-8"
     inkscape:window-maximized="1"
     inkscape:current-layer="g471" />
  <defs
     id="defs452" />
  <g
     inkscape:label="Capa 1"
     inkscape:groupmode="layer"
     id="layer1">
    <g
       id="g471"
       transform="translate(48.905049,-22.132212)">
      <path
         style="fill:#b9b9b9;fill-opacity:1;stroke-width:0.264583"
         d="m 27.878926,235.31756 c -2.794672,-1.65449 -10.04443,-5.85407 -15.478124,-8.96605 -2.4010935,-1.37515 -4.6632815,-2.71336 -5.0270835,-2.97379 -0.363802,-0.26043 -1.267462,-1.52709 -2.008132,-2.81479 -3.67421,-6.38786 -6.817456,-11.83611 -10.325131,-17.89675 -2.123042,-3.66825 -5.0604205,-8.75313 -6.5275095,-11.29974 -1.467088,-2.54662 -3.584155,-6.18419 -4.704594,-8.0835 -1.120438,-1.89932 -2.352096,-4.0748 -2.737019,-4.83441 l -0.699858,-1.38111 0.02938,-13.14963 c 0.01915,-8.57054 0.125695,-13.33657 0.305966,-13.68644 0.271173,-0.52629 3.045454,-5.34624 7.618879,-13.2368 1.265174,-2.18281 3.4679055,-5.99281 4.8949595,-8.46666 1.427054,-2.47386 3.627402,-6.28386 4.889664,-8.46667 1.26226101,-2.18281 3.758055,-6.50006 5.546207,-9.59389 l 3.251187,-5.62513 2.944979,-1.67207 c 1.6197385,-0.91964 5.2666995,-3.02005 8.1043555,-4.667577 2.837657,-1.64752 6.79137,-3.92995 8.78603,-5.07206 l 3.626651,-2.07656 h 26.219225 26.21922 l 4.54996,2.61873 c 2.50247,1.44031 6.33589,3.65308 8.5187,4.91726 2.18282,1.264187 5.421092,3.125297 7.196162,4.135787 l 3.22741,1.83726 1.68588,2.96892 c 0.92723,1.6329 3.9277,6.83844 6.6677,11.56787 2.74001,4.72943 5.83935,10.08724 6.88744,11.90625 1.04808,1.81901 3.49088,6.04573 5.42844,9.39271 5.30949,9.17173 5.55355,9.61293 5.59613,10.11651 0.0217,0.25675 0.0206,6.42608 -0.002,13.70962 l -0.042,13.2428 -2.66885,4.61658 c -1.46787,2.53912 -3.9507,6.81924 -5.5174,9.51137 -1.5667,2.69214 -3.83826,6.6212 -5.04791,8.73126 -2.66884,4.65538 -6.26599,10.8858 -8.85997,15.34583 -1.05795,1.81901 -2.41712,4.16828 -3.02038,5.22061 -1.22814,2.14236 -0.3848,1.56444 -12.059442,8.26402 -2.61938,1.50315 -6.4612,3.72747 -8.53738,4.94293 l -3.77487,2.20994 -26.51992,-0.0198 -26.519914,-0.0198 z m 27.913542,0.50409 c 0,-0.24739 -0.84202,-1.73224 -7.87995,-13.89584 -1.68399,-2.91041 -3.40249,-5.90875 -3.81889,-6.66297 -0.73461,-1.33059 -0.79802,-1.37576 -2.13589,-1.52146 -2.171707,-0.2365 -23.604587,-1.25828 -24.379422,-1.16225 -0.691229,0.0857 -0.678989,0.11546 1.77496,4.3196 1.359046,2.32833 3.605054,6.19787 4.991134,8.59896 1.386078,2.40109 3.331597,5.76461 4.323374,7.47448 l 1.803231,3.10885 h 12.660723 c 8.09447,0 12.66073,-0.0935 12.66073,-0.25937 z m 27.51667,-0.1058 c 1.25045,-0.68419 4.37304,-2.47426 8.59895,-4.92951 2.32834,-1.35275 6.07839,-3.51836 8.333462,-4.81245 2.25506,-1.29409 4.21364,-2.46642 4.35239,-2.60518 0.15998,-0.15997 -4.602822,-0.25227 -13.018142,-0.25227 h -13.27042 l -7.48614,4.66107 c -10.46592,6.51634 -12.9101,8.06761 -12.9101,8.19374 0,0.0604 5.56617,0.10904 12.36927,0.10814 9.96274,-10e-4 12.49796,-0.072 13.03073,-0.36354 z m -22.29901,-2.50735 c 3.50655,-2.19037 10.95468,-6.81363 15.35322,-9.53017 0.6182,-0.3818 1.12422,-0.79054 1.12448,-0.90831 2.6e-4,-0.11776 -1.32795,-2.49901 -2.95158,-5.29166 -1.62363,-2.79265 -4.43788,-7.63739 -6.25389,-10.76609 -1.81601,-3.1287 -3.33611,-5.72917 -3.378,-5.77884 -0.0419,-0.0497 -1.54366,0.79719 -3.33726,1.8819 -5.04747,3.05254 -15.02515,9.14897 -16.42677,10.03687 l -1.25943,0.79782 0.83984,1.49206 c 0.80028,1.42177 3.19211,5.57014 9.21244,15.978 1.49411,2.583 2.75827,4.69636 2.80924,4.69636 0.051,0 1.97144,-1.17358 4.26771,-2.60794 z m -32.150217,1.21888 c -0.638066,-1.06048 -3.433969,-5.86894 -6.576803,-11.31094 -5.736291,-9.93273 -6.265677,-10.7853 -6.939243,-11.17559 -0.381757,-0.2212 -4.206449,-2.27356 -8.4993125,-4.56079 -4.292865,-2.28724 -8.809301,-4.69528 -10.036525,-5.3512 -2.025463,-1.08257 -2.191155,-1.1313 -1.795998,-0.52821 0.239425,0.36541 1.551615,2.61024 2.915979,4.98852 1.36436401,2.37828 4.032489,7.00305 5.929168,10.27727 l 3.448507,5.95312 4.4657885,2.58213 c 2.456182,1.42018 5.894538,3.40484 7.640788,4.41037 1.74625,1.00553 4.60375,2.66273 6.35,3.68266 1.74625,1.01993 3.274007,1.863 3.395016,1.87348 0.12101,0.0105 -0.01281,-0.36788 -0.297365,-0.84082 z M 106.34941,221.858 c 7.40822,-12.85324 11.51196,-19.95111 11.93091,-20.63583 l 0.52614,-0.8599 H 105.97791 93.149358 l -7.16907,10.95123 c -3.94299,6.02317 -7.16907,11.02379 -7.16907,11.1125 0,0.0887 6.10195,0.16052 13.55989,0.1596 l 13.559902,-0.002 0.4184,-0.72593 z m -26.136812,-2.75838 c 1.04825,-1.62716 4.2472,-6.53849 7.10877,-10.91406 l 5.20286,-7.95558 -0.94415,-1.71979 c -0.51929,-0.94589 -1.9234,-3.38667 -3.12025,-5.42396 -1.19685,-2.03729 -3.55383,-6.08542 -5.23773,-8.99583 -1.68389,-2.91042 -3.16444,-5.46174 -3.2901,-5.66959 -0.23807,-0.39376 -0.64784,0.19983 -7.3841,10.69667 -1.68096,2.61937 -4.00546,6.22276 -5.16554,8.00753 l -2.10925,3.24504 2.18167,3.76642 c 1.19992,2.07154 3.15695,5.4333 4.34896,7.47059 1.19201,2.0373 2.91282,5.00761 3.82402,6.60069 2.12595,3.71685 2.21144,3.85036 2.46567,3.85036 0.11729,0 1.07092,-1.33132 2.11917,-2.95849 z m -35.33303,-8.68318 c 5.16312,-8.95356 6.62742,-11.47473 7.64252,-13.15852 0.63454,-1.05255 1.15371,-1.96544 1.15371,-2.02866 0,-0.0632 0.53593,-1.02142 1.19096,-2.12935 0.79112,-1.33812 1.07981,-2.04732 0.85989,-2.11242 -0.40427,-0.11969 -21.46575,-1.24281 -24.377013,-1.29993 l -2.085544,-0.0409 -1.721707,3.0427 c -0.946941,1.67349 -2.40289,4.23334 -3.235444,5.68855 -4.688266,8.19455 -7.432275,13.16101 -7.328765,13.26452 0.06453,0.0645 2.245937,0.24102 4.847579,0.3922 18.04892,1.04882 21.147414,1.18052 21.445684,0.91151 0.17119,-0.15441 0.89485,-1.29276 1.60813,-2.52969 z m 5.48894,-1.46382 c 3.05594,-1.8613 6.74688,-4.12029 8.20208,-5.01999 1.45521,-0.8997 3.4393,-2.10085 4.4091,-2.66923 1.6539,-0.96932 1.89356,-1.23855 3.8641,-4.34071 1.15545,-1.81901 3.44528,-5.39089 5.0885,-7.9375 5.73299,-8.88482 6.64522,-10.38722 6.20418,-10.21798 -0.24135,0.0926 -2.12303,1.13971 -4.18151,2.3269 -2.05849,1.18717 -4.93332,2.83668 -6.38853,3.66557 -1.45521,0.8289 -4.48574,2.56899 -6.73451,3.86688 l -4.08868,2.35979 -1.88631,3.2989 c -1.03748,1.81439 -2.57812,4.48952 -3.42365,5.94473 -2.02555,3.4861 -5.11996,8.86827 -6.22338,10.82449 -0.48523,0.86025 -0.7732,1.50069 -0.63994,1.42321 0.13327,-0.0775 2.74261,-1.66376 5.79855,-3.52506 z M 18.2069,207.96812 c 2.468867,-4.39313 5.879671,-10.42052 8.397666,-14.8399 1.064699,-1.86867 1.935819,-3.49704 1.935819,-3.6186 0,-0.30897 -6.734376,-4.00818 -17.888396,-9.82615 l -3.4686065,-1.80924 -2.258734,3.90184 c -1.242304,2.146 -4.012372,6.93792 -6.155709,10.6487 -2.143336,3.71078 -4.019878,6.90075 -4.170092,7.08882 -0.381981,0.47824 -0.250279,0.5727 3.779038,2.71055 8.861211,4.70153 12.9940225,6.90149 15.0812495,8.028 1.236927,0.66758 2.368021,1.21537 2.513542,1.21729 0.14552,0.002 1.150921,-1.57366 2.234223,-3.50131 z M 119.02788,186.8762 v -12.95691 l -3.50572,-0.0738 c -1.92816,-0.0406 -7.76222,-0.0411 -12.96459,-0.001 l -9.458852,0.0726 v 12.95812 12.9581 h 12.964582 12.96458 v -12.9569 z m -123.3623935,9.71576 c 0.860328,-1.49159 3.152532,-5.45042 5.093789,-8.7974 1.941256,-3.34698 4.060248,-7.02255 4.708872,-8.16794 l 1.179311,-2.08252 -0.455776,-0.96019 c -0.250677,-0.5281 -1.594281,-2.92472 -2.985786,-5.32582 -6.071758,-10.47704 -7.181045,-12.40263 -8.116371,-14.08906 -0.544784,-0.98226 -1.069566,-1.78208 -1.166182,-1.77736 -0.09662,0.005 -0.860585,1.2251 -1.697708,2.71198 -0.837123,1.48687 -2.4242475,4.25122 -3.5269435,6.14299 -1.102696,1.89177 -3.255653,5.61615 -4.784349,8.2764 l -2.779448,4.83681 2.380064,4.15903 c 1.309035,2.28746 3.414307,5.94495 4.678381,8.12777 1.264074,2.18281 3.0309225,5.24732 3.9263275,6.81001 0.895405,1.5627 1.707565,2.84262 1.804799,2.84427 0.09723,0.002 0.880693,-1.21738 1.74102,-2.70897 z M 91.423598,171.5654 c -0.63311,-1.1149 -2.28776,-3.99163 -3.677,-6.39272 -1.38925,-2.4011 -3.62269,-6.27063 -4.96322,-8.59896 -1.34053,-2.32833 -2.54453,-4.34644 -2.67557,-4.48469 -0.14147,-0.14924 -0.23826,4.89102 -0.23826,12.40723 v 12.65858 l 2.16671,3.73237 c 1.19169,2.05279 3.07237,5.28017 4.17929,7.17194 1.10691,1.89177 2.95963,5.07073 4.11714,7.06436 l 2.10457,3.62478 0.0687,-12.57789 0.0687,-12.5779 z m 33.080732,18.875 c 2.60966,-4.51115 5.35985,-9.28388 6.11153,-10.60608 l 1.36669,-2.40398 0.01,-12.41268 c 0.005,-6.82698 0.008,-12.52848 0.005,-12.67 -0.009,-0.47185 -1.38767,1.86013 -10.24024,17.32293 l -2.1964,3.83646 -0.002,12.67797 c -10e-4,6.97287 0.0437,12.62834 0.0993,12.5677 0.0557,-0.0606 2.23639,-3.80118 4.84606,-8.31232 z m -69.527662,-0.22522 c -0.15848,-0.13359 -6.78359,-3.97052 -9.89983,-5.73349 -1.4552,-0.82327 -4.65155,-2.64826 -7.102989,-4.05555 l -4.45716,-2.55871 -11.020965,-0.005 c -6.06153,-0.003 -11.67531,-10e-4 -12.475065,0.003 l -1.4541005,0.007 4.2322245,2.26677 c 9.886142,5.29498 13.067389,6.98309 14.81556,7.86182 l 1.852083,0.93097 11.244792,0.65383 c 11.3774,0.66154 14.4655,0.79773 14.26545,0.62911 z m 4.03207,-1.18901 c 1.21423,-0.70507 4.17222,-2.41388 6.57331,-3.79736 2.4011,-1.38349 6.48008,-3.73858 9.06441,-5.23354 l 4.69878,-2.71811 -0.0686,-13.24091 -0.0686,-13.24091 -3.175,-1.85024 c -1.74625,-1.01764 -4.96093,-2.88776 -7.14375,-4.15584 -2.18281,-1.26807 -5.84251,-3.3974 -8.13266,-4.73184 l -4.16391,-2.42626 -6.55171,3.75984 c -3.60344,2.06791 -8.75437,5.02162 -11.446507,6.56379 l -4.894792,2.80395 -0.06856,13.23359 -0.06856,13.23359 3.11127,1.77634 c 1.711195,0.97699 6.802209,3.90737 11.313349,6.51196 4.51115,2.60458 8.33972,4.74872 8.50794,4.76475 0.16822,0.016 1.29932,-0.54774 2.51354,-1.2528 z M 32.234595,176.08674 c -0.644366,-1.08106 -3.238474,-5.56598 -6.465803,-11.17865 -1.129622,-1.96453 -2.867342,-4.95332 -3.861596,-6.64177 l -1.807737,-3.06989 -12.7343205,-0.1939 c -7.003879,-0.10664 -12.768116,-0.15394 -12.809416,-0.1051 -0.07083,0.0838 1.149094,2.22628 8.712946,15.30233 1.725623,2.98318 3.325429,5.75063 3.555127,6.14989 l 0.417632,0.72593 12.7922805,0.002 12.792278,0.002 -0.591391,-0.99219 z m -1.611622,-29.59476 c -1.331201,-2.31317 -4.02308,-7.00373 -5.981954,-10.42347 -1.958874,-3.41974 -3.668813,-6.33082 -3.799861,-6.46906 -0.141489,-0.14926 -0.238273,4.92394 -0.238273,12.48973 v 12.74109 l 3.340134,5.76652 c 5.402101,9.32635 8.20879,14.18835 8.598252,14.89464 0.314769,0.57083 0.374144,-1.08225 0.433403,-12.06611 l 0.06866,-12.72757 z m -48.061601,27.21351 c 0.645285,-1.12779 2.06959,-3.59833 3.165122,-5.4901 1.095532,-1.89177 3.319842,-5.74192 4.9429113,-8.55588 l 2.9510342,-5.1163 -0.06867,-12.65527 -0.06867,-12.65528 -3.6921225,6.39449 c -2.030667,3.51697 -4.787748,8.30778 -6.126847,10.64626 l -2.434725,4.25177 -0.05209,2.09823 c -0.0913,3.67751 -0.0015,23.1326 0.106739,23.1326 0.05724,0 0.632039,-0.92273 1.277324,-2.05052 z m 135.937348,-0.77553 c 0,-0.0991 -0.70374,-1.37904 -1.56385,-2.84427 -1.27959,-2.1798 -6.24837,-10.74411 -10.18022,-17.54687 l -0.80285,-1.38906 H 93.175258 c -7.0271,0 -12.77654,0.0619 -12.77654,0.13755 0,0.0756 0.30908,0.62717 0.68685,1.22559 0.37777,0.59843 1.43415,2.41177 2.3475,4.02964 0.91336,1.61788 2.90368,5.08472 4.42294,7.7041 1.51925,2.61937 3.29061,5.68141 3.93635,6.80452 l 1.17407,2.04203 12.766142,0.008 c 7.02138,0.005 12.76615,-0.0726 12.76615,-0.17172 z m 1.92333,-2.13489 c 0.6386,-1.12778 2.27293,-3.95552 3.63185,-6.28385 1.35893,-2.32833 3.70476,-6.39956 5.21296,-9.04716 l 2.7422,-4.81383 -2.09066,-3.65284 c -1.14987,-2.00906 -3.43801,-5.97456 -5.08476,-8.81221 -1.64675,-2.83766 -3.53742,-6.13828 -4.20149,-7.33471 -0.66406,-1.19644 -1.2891,-2.1787 -1.38897,-2.18281 -0.0999,-0.004 -0.79999,1.09385 -1.55581,2.43991 -0.75582,1.34607 -2.17254,3.81662 -3.14826,5.49011 -7.02753,12.05317 -7.98973,13.81508 -7.84885,14.37224 0.13516,0.53451 2.27906,4.30641 7.69672,13.5413 1.19518,2.03729 2.75808,4.74518 3.47312,6.01752 0.71504,1.27235 1.32275,2.31415 1.35047,2.31511 0.0277,0.001 0.57288,-0.92099 1.21148,-2.04878 z M 19.7973,153.59846 c -0.0065,-0.54642 0.02326,-6.47037 0.06615,-13.16432 l 0.07798,-12.17084 -12.8984365,-0.0687 -12.898437,-0.0687 v 13.09655 13.09655 l 11.178646,0.069 c 6.1482545,0.0379 11.9227855,0.0993 12.8322905,0.13643 l 1.653646,0.0674 -0.01183,-0.99348 z m 84.65645,-3.33974 c -0.14522,-0.12815 -6.164092,-3.23885 -14.530032,-7.50946 -6.74206,-3.44167 -6.74848,-3.44424 -8.99583,-3.6059 -1.23693,-0.089 -6.11849,-0.3986 -10.84792,-0.68805 -4.72943,-0.28944 -9.37287,-0.59811 -10.31875,-0.68591 -1.18978,-0.11046 -1.63788,-0.0747 -1.45401,0.11603 0.14618,0.15163 1.69399,1.09388 3.43958,2.0939 1.74559,1.00002 5.49552,3.17118 8.33318,4.82482 2.83766,1.65364 6.17141,3.57902 7.40833,4.27863 l 2.24896,1.27202 12.41337,5.3e-4 c 6.82735,2.7e-4 12.363762,-0.0432 12.303122,-0.0967 z m 3.53161,-3.54073 c 1.0906,-1.85539 3.3193,-5.69516 4.95266,-8.53281 1.63337,-2.83766 3.62309,-6.26971 4.42161,-7.62678 0.79852,-1.35707 1.41125,-2.50198 1.36162,-2.54424 -0.13817,-0.11766 -5.91962,-3.23464 -10.93816,-5.89714 -9.497682,-5.03883 -10.746802,-5.68416 -10.822492,-5.59121 -0.0429,0.0527 -0.94957,1.58411 -2.01478,3.40312 -1.06521,1.81901 -2.79062,4.73604 -3.83425,6.48229 -5.40454,9.04313 -7.30039,12.3642 -7.14619,12.5184 0.30757,0.30756 21.429132,11.14576 21.736772,11.15388 0.16517,0.004 1.19262,-1.51012 2.28321,-3.36551 z m -67.171672,-7.76149 7.32575,-10.87034 -1.10671,-1.89581 c -0.6087,-1.04269 -1.90221,-3.26502 -2.87449,-4.93851 -0.97228,-1.67349 -3.12018,-5.36442 -4.773101,-8.20208 -1.652927,-2.83766 -3.251145,-5.60488 -3.551598,-6.14938 -0.300455,-0.5445 -0.622498,-0.99099 -0.715653,-0.99219 -0.09315,-0.001 -3.399231,4.93957 -7.346836,10.97948 l -7.177465,10.98166 1.552421,2.71053 c 0.853832,1.49079 2.892719,5.03224 4.53086,7.8699 1.638139,2.83766 3.769376,6.55727 4.736081,8.2658 0.966706,1.70854 1.829052,3.10752 1.916322,3.10886 0.08727,0.001 3.455262,-4.88923 7.484419,-10.86792 z m 4.61809,4.40193 c 4.9974,-2.85844 9.53924,-5.48318 10.09297,-5.83273 0.77189,-0.48727 1.43872,-1.39506 2.85794,-3.89065 1.01812,-1.7903 3.19264,-5.5768 4.83225,-8.41446 4.52162,-7.82554 5.33767,-9.28847 5.23726,-9.38888 -0.0507,-0.0507 -2.05667,1.1686 -4.45772,2.70954 -2.40106,1.54094 -5.70115,3.64441 -7.33354,4.67438 -1.63239,1.02997 -4.08703,2.58705 -5.45474,3.46017 l -2.48677,1.5875 -6.98067,10.40037 c -3.839363,5.72021 -7.027004,10.53243 -7.083641,10.69382 -0.05663,0.1614 0.300553,0.047 0.79375,-0.25421 0.493199,-0.30122 4.985509,-2.8864 9.982911,-5.74485 z m 39.50166,-7.62459 c 0.96613,-1.63494 2.70304,-4.57997 3.85981,-6.5445 1.15676,-1.96453 3.32684,-5.63179 4.82239,-8.14948 1.49555,-2.51768 2.67567,-4.61667 2.62249,-4.66442 -0.37352,-0.33534 -26.11644,-1.62511 -26.39782,-1.32259 -0.22383,0.24067 -6.17128,10.49265 -10.50333,18.10524 l -2.18318,3.83646 1.10527,0.0816 c 5.32852,0.39338 23.02788,1.5832 23.85944,1.60393 l 1.05833,0.0264 1.7566,-2.97262 z M 22.63068,123.69924 c 1.395561,-2.14643 3.39421,-5.21229 4.441439,-6.81302 1.047229,-1.60073 3.115688,-4.76367 4.596577,-7.02876 1.480886,-2.26509 2.692522,-4.19986 2.692522,-4.29948 0,-0.0996 -6.101953,-0.17857 -13.559896,-0.17543 l -13.5598945,0.006 -1.081895,1.91252 c -0.595042,1.05189 -2.219542,3.87705 -3.609996,6.27815 -1.390454,2.40109 -3.782241,6.53851 -5.31508,9.19427 l -2.786982,4.82864 H 7.2703855 20.093295 Z m 27.263168,3.15345 c 0.69763,-0.41203 2.63763,-1.64648 4.31112,-2.74322 1.67349,-1.09675 5.72161,-3.69206 8.99583,-5.76737 3.27422,-2.07531 5.99037,-3.80505 6.03588,-3.84387 0.0455,-0.0388 -0.6878,-1.4224 -1.62959,-3.07463 -1.96357,-3.44479 -10.63291,-18.449057 -10.94531,-18.943347 -0.1487,-0.23529 -2.20324,0.91468 -7.21931,4.04081 -3.8563,2.40333 -8.30077,5.170707 -9.876584,6.149717 -1.575819,0.97901 -3.109717,1.96659 -3.408659,2.19462 -0.643665,0.49099 -0.797308,0.12856 2.291858,5.40623 1.192482,2.0373 3.336915,5.72823 4.765405,8.20209 4.42114,7.65652 5.28336,9.12812 5.34823,9.12812 0.0345,0 0.6335,-0.33712 1.33113,-0.74915 z m 67.708512,-1.16908 c -0.35975,-0.61846 -1.47366,-2.55322 -2.47536,-4.29947 -1.00171,-1.74625 -2.99591,-5.19907 -4.43157,-7.67292 -1.43565,-2.47386 -3.11261,-5.37324 -3.72657,-6.44307 -1.01185,-1.76318 -1.29827,-2.05006 -3.06144,-3.06641 -1.99717,-1.15124 -7.251842,-4.17663 -15.174332,-8.736657 -2.47385,-1.42391 -4.60876,-2.65411 -4.74424,-2.73379 -0.13548,-0.0797 0.0512,0.38149 0.41476,1.02482 1.10846,1.96127 8.6422,14.974617 10.78661,18.632187 l 2.01661,3.43958 2.77459,1.46344 c 1.526022,0.80489 4.977252,2.64196 7.669382,4.08238 8.34787,4.46649 10.17929,5.42284 10.39605,5.42872 0.11528,0.003 -0.0847,-0.50034 -0.44449,-1.11881 z M 96.273718,115.5906 c 0,-0.0962 -1.433,-2.59271 -9.90755,-17.260157 -1.60861,-2.78412 -3.10334,-5.31337 -3.32162,-5.62056 -0.39392,-0.55436 -0.4905,-0.55868 -12.96458,-0.58018 -6.91224,-0.0119 -12.62346,0.017 -12.69159,0.0643 -0.12528,0.0869 0.97992,2.08224 4.88388,8.817217 4.95031,8.54014 7.60273,13.0987 7.63793,13.1269 0.0527,0.0422 23.86844,1.4781 25.23905,1.5217 0.61846,0.0197 1.12448,-0.0115 1.12448,-0.0692 z m -55.20237,-14.54338 c 3.36719,-2.090247 7.96077,-4.947747 10.20797,-6.349997 l 4.0858,-2.54954 -5.40872,-0.0301 c -2.9748,-0.0165 -8.66491,-0.008 -12.644687,0.019 l -7.235965,0.049 -3.347368,1.92598 C 14.60349,101.08788 8.6923015,104.52797 8.4540995,104.7465 c -0.06063,0.0556 5.8759565,0.10114 13.1924235,0.10114 h 13.302668 z"
         id="path485" />
    </g>
  </g>
</svg>
