<?xml version="1.0" encoding="UTF-8" standalone="no"?>
<!-- Created with Inkscape (http://www.inkscape.org/) -->

<svg
   width="120"
   height="120"
   viewBox="0 0 31.75 31.75"
   version="1.1"
   id="svg858"
   inkscape:version="1.1 (c68e22c387, 2021-05-23)"
   sodipodi:docname="logo.svg"
   xmlns:inkscape="http://www.inkscape.org/namespaces/inkscape"
   xmlns:sodipodi="http://sodipodi.sourceforge.net/DTD/sodipodi-0.dtd"
   xmlns="http://www.w3.org/2000/svg"
   xmlns:svg="http://www.w3.org/2000/svg">
  <sodipodi:namedview
     id="namedview860"
     pagecolor="#ffffff"
     bordercolor="#666666"
     borderopacity="1.0"
     inkscape:pageshadow="2"
     inkscape:pageopacity="0.0"
     inkscape:pagecheckerboard="0"
     inkscape:document-units="mm"
     showgrid="false"
     width="120px"
     inkscape:zoom="5.9295174"
     inkscape:cx="45.281931"
     inkscape:cy="55.569447"
     inkscape:window-width="1920"
     inkscape:window-height="1017"
     inkscape:window-x="-8"
     inkscape:window-y="-8"
     inkscape:window-maximized="1"
     inkscape:current-layer="layer1"
     units="px" />
  <defs
     id="defs855" />
  <g
     inkscape:label="Capa 1"
     inkscape:groupmode="layer"
     id="layer1">
    <g
       id="g156"
       transform="matrix(0.21141916,0,0,-0.20705208,15.130742,4.5838153)">
      <path
         d="m 0,0 c 7.275,0 13.202,-5.967 13.202,-13.279 0,-7.314 -5.927,-13.279 -13.202,-13.279 -7.27,0 -13.202,5.965 -13.202,13.279 C -13.202,-5.967 -7.27,0 0,0"
         style="fill:#ec6707;fill-opacity:1;fill-rule:evenodd;stroke:none"
         id="path158" />
    </g>
    <g
       id="g160"
       transform="matrix(0.21141916,0,0,-0.20705208,22.173641,14.661225)">
      <path
         d="M 0,0 H -7.891 L 4.291,17.602 h 8.73 L 24.641,0 H 15.879 L 14.104,3.178 H 1.896 Z M 11.99,7.02 8.224,13.418 4.242,7.02 Z M -36.519,0 v 17.602 h 9.959 l 10.659,-11.81 v 11.81 H -8.34 V 0 H -18.67 L -28.982,11.851 V 0 Z m -24.736,0 v 17.602 h 20.954 v -3.795 h -13.086 v -2.803 h 12.101 V 7.257 H -53.387 V 3.842 h 13.584 V 0 Z m -20.141,5.815 v -0.05 c -0.045,-0.221 -0.064,-0.384 -0.064,-0.487 0,-0.686 0.39,-1.195 1.166,-1.53 0.786,-0.334 1.994,-0.5 3.629,-0.5 1.247,0 2.219,0.139 2.927,0.411 0.712,0.274 1.065,0.652 1.065,1.13 0,0.725 -1.403,1.31 -4.195,1.766 -0.327,0.054 -0.572,0.094 -0.731,0.117 -0.178,0.035 -0.443,0.077 -0.784,0.131 -4.439,0.728 -7.295,1.513 -8.555,2.364 -0.614,0.416 -1.083,0.902 -1.4,1.468 -0.306,0.564 -0.465,1.203 -0.465,1.906 0,1.737 1.02,3.058 3.059,3.966 2.039,0.906 5.023,1.359 8.952,1.359 3.883,0 6.758,-0.423 8.627,-1.273 1.869,-0.853 2.806,-2.164 2.806,-3.927 v -0.205 h -7.352 v 0.08 c 0,0.61 -0.369,1.065 -1.113,1.377 -0.744,0.313 -1.835,0.474 -3.27,0.474 -1.113,0 -1.976,-0.11 -2.574,-0.334 -0.607,-0.223 -0.909,-0.541 -0.909,-0.953 0,-0.735 1.603,-1.356 4.808,-1.875 0.617,-0.093 1.102,-0.169 1.451,-0.223 2.285,-0.382 3.909,-0.712 4.878,-0.987 0.969,-0.273 1.801,-0.597 2.505,-0.971 0.781,-0.428 1.393,-0.97 1.814,-1.623 0.425,-0.655 0.637,-1.366 0.637,-2.148 0,-1.789 -1.112,-3.164 -3.332,-4.128 -2.223,-0.964 -5.424,-1.446 -9.592,-1.446 -4.125,0 -7.11,0.465 -8.956,1.39 -1.846,0.928 -2.761,2.412 -2.761,4.46 v 0.261 z"
         style="fill:#ec6707;fill-opacity:1;fill-rule:evenodd;stroke:none"
         id="path162" />
    </g>
    <g
       id="g164"
       transform="matrix(0.21141916,0,0,-0.20705208,7.0105132,27.50947)">
      <path
         d="m 0,0 -7.03,6.608 21.399,37.14 c 1.168,2.026 -0.293,4.558 -2.631,4.558 h -35.032 v 9.288 h 56.385 z"
         style="fill:#ec6707;fill-opacity:1;fill-rule:evenodd;stroke:none"
         id="path166" />
    </g>
    <g
       id="g168"
       transform="matrix(0.21141916,0,0,-0.20705208,23.121513,27.50947)">
      <path
         d="m 0,0 7.031,6.608 -21.4,37.14 c -1.168,2.026 0.293,4.558 2.632,4.558 h 35.031 v 9.288 h -56.385 z"
         style="fill:#ec6707;fill-opacity:1;fill-rule:evenodd;stroke:none"
         id="path170" />
    </g>
    <g
       id="g172"
       transform="matrix(0.21141916,0,0,-0.20705208,15.049789,17.617267)">
      <path
         d="m 0,0 c 0.051,0.086 0.077,0.13 0.077,0.13 l 31.772,-52.517 -8.437,-4.39 -20.473,34.288 c -1.207,2.021 -4.131,2.024 -5.333,0 -6.824,-11.505 -20.34,-34.288 -20.34,-34.288 l -8.259,4.085 c 0,0 29.295,49.805 30.993,52.692"
         style="fill:#ec6707;fill-opacity:1;fill-rule:evenodd;stroke:none"
         id="path174" />
    </g>
  </g>
</svg>
