<?xml version="1.0" encoding="UTF-8" standalone="no"?>
<!-- Created with Inkscape (http://www.inkscape.org/) -->

<svg
   version="1.1"
   id="svg17876"
   width="64"
   height="64"
   viewBox="0 0 64 64"
   sodipodi:docname="Calculadora-Color.svg"
   inkscape:version="1.1 (c68e22c387, 2021-05-23)"
   xmlns:inkscape="http://www.inkscape.org/namespaces/inkscape"
   xmlns:sodipodi="http://sodipodi.sourceforge.net/DTD/sodipodi-0.dtd"
   xmlns="http://www.w3.org/2000/svg"
   xmlns:svg="http://www.w3.org/2000/svg">
  <defs
     id="defs17880" />
  <sodipodi:namedview
     id="namedview17878"
     pagecolor="#ffffff"
     bordercolor="#666666"
     borderopacity="1.0"
     inkscape:pageshadow="2"
     inkscape:pageopacity="0.0"
     inkscape:pagecheckerboard="0"
     showgrid="false"
     inkscape:zoom="6.5"
     inkscape:cx="42.538462"
     inkscape:cy="47.153846"
     inkscape:window-width="1920"
     inkscape:window-height="1017"
     inkscape:window-x="-8"
     inkscape:window-y="-8"
     inkscape:window-maximized="1"
     inkscape:current-layer="g17882" />
  <g
     inkscape:groupmode="layer"
     inkscape:label="Image"
     id="g17882">
    <g
       id="g17886"
       transform="matrix(0.16807407,0,0,0.14720055,-10.555943,-9.4518726)"
       style="fill:#ec6823;fill-opacity:1">
      <path
         style="fill:#ec6823;fill-opacity:1"
         d="m 305.36574,468.42995 c -9.94657,-1.67094 -22.3,-6.08208 -31.19919,-11.14055 L 267.5,453.5 186,453 104.5,452.5 98.797387,449.69964 C 91.308757,446.02222 84.471958,438.43129 82.481366,431.5839 81.162619,427.04757 81.0062,408.4334 81.236548,283.44782 L 81.5,140.5 83.793312,136.20494 C 87.225493,129.77693 92.517,124.41958 98.261008,121.55722 L 103.39269,119 h 94.80365 C 250.33835,119 293,118.61834 293,118.15187 c 0,-0.46646 -1.8,-1.65981 -4,-2.65187 -2.2,-0.99206 -4.01789,-2.52291 -4.03975,-3.40187 -0.0799,-3.21352 5.57503,-20.076495 6.73617,-20.087151 4.41372,-0.0405 24.67525,14.968321 30.23943,22.400001 l 3.43586,4.58902 33.56414,0.022 c 30.67798,0.0201 33.91989,0.1835 37.70116,1.90052 6.35236,2.88452 12.3627,8.91777 15.51836,15.57752 l 2.84305,6 7.9e-4,64.14379 7.9e-4,64.14379 3.89471,9.85621 c 4.71488,11.93176 7.27232,20.48288 10.27515,34.35621 2.06487,9.5399 2.2753,13.15171 2.30141,39.5 0.0339,34.17717 -0.44408,36.96012 -9.49248,55.27242 -8.98794,18.18996 -18.8796,30.16286 -33.37185,40.39347 -13.22502,9.33602 -27.37431,15.38504 -42.8573,18.32212 -9.74552,1.84869 -29.2001,1.82072 -40.3839,-0.0581 z m 41.47493,-23.49096 c 11.63271,-2.9668 21.28781,-7.14153 28.62437,-12.37679 7.59446,-5.4193 17.85751,-16.36588 22.32885,-23.81599 7.75714,-12.92488 14.0466,-38.1808 12.90353,-51.81535 C 407.00165,312.84776 369.38722,278 325.5,278 c -44.86603,0 -82.29715,35.45745 -85.19834,80.70599 -2.29345,35.77002 20.84721,71.66267 53.99721,83.75315 16.25867,5.92987 35.46081,6.83616 52.5418,2.47985 z M 297.32874,389.54224 C 293.49722,387.87556 292,385.33495 292,380.5 c 0,-4.67613 1.34955,-7.11228 4.97998,-8.98965 4.17083,-2.15682 53.72789,-2.2299 57.87499,-0.0854 7.00399,3.62191 6.76299,14.63028 -0.39466,18.02681 -4.51175,2.14096 -52.24394,2.21652 -57.13157,0.0904 z m 4.31636,-33.52377 C 294.37167,355.32361 292,352.93693 292,346.31229 c 0,-3.60292 0.56497,-5.03111 2.92308,-7.38921 L 297.84615,336 H 326 354.15385 l 2.92307,2.92308 c 4.02465,4.02465 4.07621,9.7548 0.12752,14.17414 l -2.79555,3.12877 -23.45445,0.17591 c -12.89994,0.0967 -26.08915,-0.0758 -29.30934,-0.38343 z M 240.36037,429.75 c -0.41672,-0.6875 -2.43189,-3.85097 -4.47817,-7.02994 -4.25648,-6.61261 -9.3084,-18.25733 -12.01081,-27.68498 -6.92448,-24.15684 -6.85994,-64.5735 0.14347,-89.84615 1.09183,-3.93999 1.98514,-7.62274 1.98514,-8.1839 0,-0.68548 -20.26314,-0.93575 -61.75,-0.76266 L 102.5,296.5 l -0.29393,62 c -0.2004,42.27279 0.0498,63.18906 0.78627,65.73706 2.01106,6.95752 -0.99245,6.6783 72.31668,6.7229 52.39295,0.0319 65.65455,-0.21479 65.05135,-1.20996 z M 149,390.33962 c -3.02843,-1.19962 -5.98509,-4.74323 -6.57319,-7.87807 -0.77088,-4.10915 1.0834,-7.66758 6.99298,-13.41976 C 151.93891,366.58978 154,364.09597 154,363.5 c 0,-0.59597 -2.07639,-3.08978 -4.61421,-5.54179 -8.09952,-7.82569 -9.19675,-14.41515 -3.23555,-19.43118 3.22418,-2.71297 7.54557,-3.25963 11.1655,-1.41245 1.20134,0.61302 4.53351,3.39707 7.40483,6.18677 l 5.22056,5.07219 6.44288,-6.18677 C 182.17425,336.6267 183.24864,336 186.99037,336 c 3.2684,0 4.79189,0.62841 7.08655,2.92308 5.32357,5.32356 3.54849,12.47606 -5.07679,20.45647 l -4.08263,3.77739 6.04125,6.45812 c 4.94921,5.29072 6.04125,7.07567 6.04125,9.87447 0,4.71432 -1.87826,8.39616 -5.14503,10.08547 -5.48551,2.83666 -9.66878,1.34511 -16.81318,-5.99479 -4.90222,-5.03638 -6.45279,-5.54928 -8.00545,-2.6481 -3.06027,5.71815 -13.54475,11.18671 -18.03634,9.40751 z M 264.01389,276.989 c 5.56956,-4.41117 19.37039,-11.48634 28.08467,-14.39796 23.77776,-7.94464 52.07619,-7.06459 74.73185,2.32407 7.3613,3.05057 16.99842,8.45674 22.76398,12.76997 1.70192,1.2732 3.38942,2.31492 3.75,2.31492 2.18325,0 -0.39911,-6.32259 -7.96446,-19.5 -13.37888,-23.30348 -16.64052,-31.06743 -21.90574,-52.14403 -4.29847,-17.20671 -9.42455,-28.05325 -16.79954,-35.54702 -16.19805,-16.45893 -35.7768,-12.61882 -49.11414,9.63307 -3.67397,6.12961 -5.9404,12.71286 -12.0695,35.05798 -3.74364,13.64835 -8.06418,23.15356 -19.82023,43.6046 -4.88552,8.49894 -6.67078,12.5802 -6.67078,15.25 0,2.00497 0.27274,3.6454 0.6061,3.6454 0.33335,0 2.31686,-1.35495 4.40779,-3.011 z m 38.27024,-59.69026 C 299.08813,216.68013 295,211.3904 295,207.87361 c 0,-4.10598 2.34527,-8.25426 5.47206,-9.67892 C 302.26605,197.37729 310.47644,197 326.47033,197 h 23.37622 l 3.00321,2.52703 c 3.80038,3.19781 4.71766,7.17917 2.74293,11.90537 -2.50753,6.00136 -5.22995,6.58871 -29.81057,6.43142 -11.70517,-0.0749 -22.27926,-0.32919 -23.49799,-0.56508 z m -66.30445,53.7411 C 237.94295,267.1915 238,265.31571 238,204.61127 c 0,-52.31316 -0.22838,-62.69679 -1.40482,-63.87324 -1.18508,-1.18507 -11.15705,-1.34227 -63.75,-1.00492 -42.21737,0.27079 -63.27271,0.75689 -65.21819,1.50566 -5.6469,2.1734 -5.62699,1.92544 -5.62699,70.06244 0,34.301 0.3,62.66546 0.66667,63.03212 C 103.03333,274.7 132.72419,275 168.64634,275 h 65.31301 z m -73.43641,-32.40567 c -2.50466,-2.50465 -4.03766,-10.06427 -3.38376,-16.68617 L 159.5,218.5 150.99649,217.9171 C 138.6795,217.07279 136,215.12018 136,206.98882 c 0,-3.2454 0.63311,-4.77578 2.92308,-7.06574 2.77636,-2.77636 3.35357,-2.92308 11.5,-2.92308 6.14748,0 8.60209,-0.35407 8.66578,-1.25 0.0489,-0.6875 0.0181,-3.33781 -0.0683,-5.88958 -0.44661,-13.18636 6.73728,-20.13972 15.9079,-15.39741 3.77755,1.95345 4.36952,3.55014 5.01886,13.53699 l 0.55266,8.5 8.5,0.55266 c 9.98685,0.64934 11.58354,1.24131 13.53699,5.01886 2.29466,4.4374 1.82664,8.48995 -1.39719,12.09804 -2.74893,3.0766 -3.21573,3.21812 -12,3.6381 l -9.1398,0.43698 v 8.30095 c 0,7.47141 -0.25872,8.60843 -2.58889,11.37768 -2.24969,2.6736 -3.23833,3.07673 -7.54546,3.07673 -3.8787,0 -5.47103,-0.51447 -7.32238,-2.36583 z m 230.91481,-88.54675 c -0.83825,-5.87692 -4.66543,-9.70551 -10.5455,-10.54938 -6.92512,-0.99385 -49.87313,-0.15262 -46.91709,0.91897 13.93385,5.05118 24.77731,13.67892 33.09747,26.33443 5.67006,8.62456 8.87959,16.65327 16.985,42.48842 3.31652,10.57108 6.34324,19.89514 6.72604,20.72014 0.88143,1.89964 1.50238,-73.96517 0.65408,-79.91258 z m -126.51495,54.66875 c 7.84302,-32.5633 20.00577,-51.29041 39.24644,-60.42814 3.19574,-1.51771 5.81043,-3.04688 5.81043,-3.39815 0,-0.9069 -48.03944,-2.20907 -51.30061,-1.39057 L 258,140.21682 l 0.0858,44.64159 0.0858,44.64159 2.85104,-6 c 1.56808,-3.3 4.23228,-11.73473 5.92045,-18.74383 z"
         id="path17892" />
      <path
         style="fill:#ec6823;fill-opacity:1"
         d="m 306.5,468.49525 c -10.08239,-1.64705 -20.73693,-5.34849 -31,-10.76956 l -8,-4.22569 -81,-0.51094 c -75.11795,-0.47383 -81.34091,-0.64267 -85.69453,-2.3251 -6.269481,-2.42279 -12.713996,-8.2636 -16.339172,-14.80855 L 81.5,430.5 V 286 141.5 l 2.810949,-5.72425 c 2.94089,-5.98886 8.373294,-11.39044 14.544262,-14.46173 C 102.27725,119.61086 108.36702,119.46944 198.5,119 l 96,-0.5 -4.75,-2.44927 c -2.6125,-1.34709 -4.75,-3.14598 -4.75,-3.99752 0,-0.85155 1.39712,-5.74194 3.10472,-10.86754 2.34115,-7.027325 3.46349,-9.181603 4.56353,-8.759479 6.48318,2.487828 17.0238,10.071509 24.63385,17.723359 L 326.10419,119 h 32.26977 c 36.33838,0 38.26979,0.29357 45.85427,6.96969 2.38655,2.10073 5.67401,6.22943 7.30547,9.1749 L 414.5,140.5 415,207 l 0.5,66.5 2.70517,6.11335 c 3.78639,8.55678 9.21742,27.03595 11.4288,38.88665 1.53371,8.21912 1.86603,14.89742 1.86603,37.5 0,25.64663 -0.15406,28.03916 -2.28589,35.5 -2.90327,10.16067 -11.77191,28.23094 -17.64502,35.95256 -24.70958,32.4867 -63.85043,47.77612 -105.06909,41.04269 z m 33.57378,-22.11086 c 20.33435,-3.48523 31.82017,-9.25164 45.53366,-22.86001 8.84834,-8.78051 10.68732,-11.22195 14.76229,-19.59855 18.1698,-37.35018 11.969,-75.51276 -16.65976,-102.53182 -16.60956,-15.67565 -35.61878,-23.33696 -58.00213,-23.37665 -24.17897,-0.0429 -44.7846,8.87386 -61.89643,26.78461 -16.90582,17.69512 -24.93667,39.40107 -23.49762,63.50984 0.71362,11.95548 3.33774,22.04368 8.32615,32.00919 17.70911,35.37806 52.24992,52.77935 91.43384,46.06339 z M 297.32874,389.57354 C 293.39658,387.82426 292,385.32051 292,380.02029 c 0,-4.95991 3.09375,-8.57561 8.13827,-9.5113 1.84895,-0.34295 14.76186,-0.48527 28.69536,-0.31627 l 25.33363,0.30728 2.91637,3.26578 c 3.9407,4.41283 3.94068,9.05567 -8e-5,13.46844 l -2.91646,3.26578 -26.83354,0.24216 c -21.33991,0.19259 -27.4828,-0.0467 -30.00481,-1.16862 z m 5.31715,-33.56618 c -4.7902,-0.44849 -6.28952,-1.05431 -8.25,-3.33349 -3.25494,-3.78411 -3.24795,-9.5712 0.0161,-13.36811 l 2.41205,-2.80576 27.55053,-0.29503 c 30.55218,-0.32718 32.20471,-0.049 34.64047,5.83146 1.72208,4.15747 0.31208,9.65817 -3.13042,12.21245 -2.38628,1.77058 -4.57585,1.95657 -25,2.12356 -12.31157,0.10066 -25.01902,-0.0636 -28.23878,-0.36508 z M 241,430.64827 c 0,-0.19345 -2.02898,-3.44091 -4.50885,-7.21657 C 220.18241,398.60117 214.16982,353.58043 222.00993,315 c 1.0618,-5.225 2.57592,-11.64089 3.36471,-14.25753 l 1.43416,-4.75754 -62.1544,0.25754 L 102.5,296.5 l -0.26228,63 c -0.19041,45.73612 0.0529,63.7645 0.88781,65.78983 C 105.58316,431.25135 102.43162,431 174.72251,431 211.17513,431 241,430.84172 241,430.64827 Z m -93.64691,-41.57461 c -1.87489,-1.14325 -3.61269,-3.33023 -4.29925,-5.41051 -1.56015,-4.72733 0.2443,-8.72974 6.80769,-15.09997 l 5.08652,-4.93682 -5.46825,-5.73289 c -8.45126,-8.86026 -9.38195,-14.27368 -3.32956,-19.36644 5.5214,-4.64595 10.02932,-3.38698 19.10294,5.33505 l 4.75319,4.56901 5.80846,-5.74785 c 6.68992,-6.62011 10.80916,-7.96328 16.07334,-5.24107 3.45534,1.78683 5.11183,4.93319 5.11183,9.70948 0,2.3421 -1.39107,4.47011 -6.18677,9.46434 l -6.18677,6.44288 5.07219,5.22056 c 2.7897,2.87132 5.57375,6.20349 6.18677,7.40483 1.84718,3.61993 1.30052,7.94132 -1.41245,11.1655 -5.01603,5.9612 -11.60549,4.86397 -19.43118,-3.23555 C 172.58978,381.07639 170.09597,379 169.5,379 c -0.59597,0 -3.08978,2.06109 -5.54179,4.58021 -7.40334,7.60592 -11.12273,8.8364 -16.60512,5.49345 z M 278.5,268.52655 c 34.92908,-17.27126 77.2723,-14.35051 108.38876,7.47644 3.13397,2.19836 6.01608,3.99701 6.40468,3.99701 2.14112,0 -0.0863,-5.94516 -6.3785,-17.02452 -14.77652,-26.01874 -18.21357,-34.11867 -23.53993,-55.47548 -4.33524,-17.38279 -8.86093,-26.9017 -16.50379,-34.71249 -13.8253,-14.12907 -29.32324,-13.78767 -42.96445,0.94648 -7.28964,7.87367 -11.12755,16.08397 -15.83671,33.87883 -6.28642,23.75501 -7.74639,27.25975 -21.6146,51.88718 -6.5401,11.61402 -8.19021,16.14167 -7.55678,20.73465 0.0557,0.40405 2.46382,-1.06368 5.35132,-3.26163 2.8875,-2.19795 9.3,-5.99886 14.25,-8.44647 z m 24.14255,-51.52046 c -6.23159,-1.94223 -9.10684,-8.05677 -6.61611,-14.06991 2.27665,-5.49633 4.48859,-5.93772 29.6739,-5.92144 25.42229,0.0164 26.7164,0.28886 29.62918,6.2372 1.54663,3.15847 1.6488,4.28373 0.66075,7.27753 -2.16383,6.55647 -3.7108,6.94638 -28.44299,7.16887 -12.126,0.10909 -23.33313,-0.20242 -24.90473,-0.69225 z m -66.27841,53.71048 C 237.8155,266.91625 238,259.3821 238,203.91657 c 0,-42.40132 -0.33846,-62.85503 -1.05192,-63.56849 -1.04533,-1.04533 -123.65427,-0.8255 -128.7291,0.23081 -1.25456,0.26113 -3.16538,1.92521 -4.24626,3.69795 -1.89872,3.11405 -1.96537,5.35863 -1.96898,66.30649 -0.002,34.69584 0.29626,63.38334 0.66293,63.75 C 103.03333,274.7 132.8972,275 169.03081,275 h 65.69747 z M 162.69912,238.4264 c -2.79169,-2.7917 -4.49373,-11.12427 -3.26902,-16.00392 0.95524,-3.80596 -0.78494,-5.3187 -5.40542,-4.69897 -6.32245,0.84802 -12.55678,-0.52834 -15.43634,-3.4079 -3.52155,-3.52155 -3.61029,-10.016 -0.19117,-13.99096 2.22022,-2.58115 3.07673,-2.82518 11.60278,-3.30576 l 9.20561,-0.51889 0.20469,-8.25365 c 0.16179,-6.52384 0.63189,-8.82923 2.24305,-11 3.93429,-5.30083 13.56071,-5.21935 16.63492,0.1408 C 178.9547,178.54922 179.725,183.325 180,188 l 0.5,8.5 8.5,0.5 c 4.675,0.275 9.45078,1.0453 10.61285,1.71178 3.18368,1.82594 4.87785,6.75066 3.79309,11.02599 -1.42893,5.63182 -4.93625,7.54362 -14.78791,8.0607 l -8.42802,0.44236 -0.34501,8.96684 c -0.32262,8.38514 -0.52701,9.12335 -3.15076,11.37958 -3.98634,3.42796 -10.48095,3.35331 -13.99512,-0.16085 z m 230.80575,-89.02647 c -0.39216,-2.76053 -1.57077,-5.04751 -3.60751,-7 L 386.87229,139.5 360.43615,139.18946 C 345.69374,139.01629 334,139.26726 334,139.75684 c 0,0.48285 2.40826,1.63705 5.3517,2.56489 7.62255,2.4028 16.2229,8.29235 22.99213,15.74509 8.35133,9.19461 15.00884,23.52305 23.20075,49.93318 3.66789,11.825 6.95836,21.95 7.31215,22.5 0.81674,1.26966 1.43098,-75.58937 0.64814,-81.10007 z M 262.02286,222 c 1.19124,-3.025 3.6464,-11.35 5.45591,-18.5 1.80951,-7.15 4.71756,-16.69385 6.46233,-21.20856 6.42591,-16.62746 19.11568,-31.61535 31.7889,-37.54587 3.4485,-1.61374 6.27,-3.2808 6.27,-3.70458 0,-0.97537 -49.11214,-2.45756 -51.91842,-1.56688 -2.06781,0.6563 -2.08158,0.95588 -2.08158,45.29328 0,27.47858 0.35685,44.26749 0.92848,43.68261 0.51067,-0.5225 1.90314,-3.425 3.09438,-6.45 z"
         id="path17890" />
      <path
         style="fill:#ec6823;fill-opacity:1"
         d="M 307.9389,468.53483 C 296.7654,466.90856 287.78699,463.88425 275.5,457.60802 L 265.5,452.5 h -80.01973 -80.01974 l -6.70411,-3.29979 C 91.686151,445.7202 86.198362,440.17294 83.642909,433.9229 82.471885,431.05885 82.182703,406.90787 81.871695,286 L 81.5,141.5 l 2.149166,-4.64917 c 2.590476,-5.60382 8.715016,-11.93869 14.559343,-15.05934 L 102.5,119.5 l 96,-0.5 96,-0.5 -3.32487,-2 c -7.29198,-4.38632 -7.02046,-3.21856 -3.3512,-14.41294 C 289.6424,96.539175 291.3469,92 291.61171,92 c 0.26481,0 4.17301,2.114824 8.68488,4.699609 5.5609,3.185755 11.01211,7.522201 16.92274,13.462051 l 8.71932,8.76244 33.78068,0.28795 c 31.2302,0.26621 34.08267,0.43644 37.78067,2.25462 6.09685,2.99763 13.03302,10.66927 15.42383,17.0593 2.0217,5.40347 2.07617,7.2191 2.07617,69.20549 v 63.65644 l 4.05649,10.37518 c 4.26654,10.91241 8.88598,27.63303 11.11633,40.23692 0.89502,5.05781 1.3114,16.29187 1.27873,34.5 -0.0562,31.29902 -0.78695,35.41543 -9.43418,53.14202 -10.28357,21.08104 -27.62462,39.00057 -47.51737,49.10247 -18.78284,9.53828 -43.40753,13.16027 -66.5611,9.79034 z m 32.81074,-22.04682 c 38.03428,-7.21498 61.36875,-30.88893 68.73837,-69.73837 8.22814,-43.37526 -20.60176,-86.21546 -65.18666,-96.86505 -11.75749,-2.80841 -32.09344,-2.2943 -42.80135,1.08204 -30.75419,9.69718 -53.78448,34.99716 -60.04962,65.96765 -2.65489,13.12396 -1.68475,29.73481 2.45681,42.06572 4.40375,13.11153 10.21685,22.88766 19.3879,32.60546 20.19493,21.39888 48.2713,30.41852 77.45455,24.88255 z m -46.16075,-59.56474 c -5.53353,-6.57623 -2.01869,-15.14118 6.74945,-16.44701 2.28891,-0.34089 15.06477,-0.475 28.3908,-0.29803 l 24.22915,0.32177 2.77085,2.77273 c 2.21803,2.21952 2.77086,3.68328 2.77086,7.33658 0,3.76063 -0.49381,4.98861 -2.80576,6.97727 L 353.88847,390 h -28.35534 -28.35534 z m 0.33419,-33.84635 c -3.32462,-3.32461 -3.99001,-9.10866 -1.46291,-12.7166 2.88344,-4.11668 5.7774,-4.47115 33.94536,-4.15792 l 26.7615,0.2976 3.02913,3.39185 c 2.63069,2.9457 2.95668,3.932 2.47832,7.49843 -0.36654,2.73274 -1.42653,4.85985 -3.16841,6.35816 C 353.92566,355.96801 353.49034,356 325.86731,356 h -28.02116 z m -53.66039,78.32706 c 0.32781,-0.32781 -0.89561,-2.69031 -2.7187,-5.25 -7.56641,-10.62349 -13.65552,-26.10045 -17.22437,-43.77998 -1.41088,-6.98928 -1.7929,-13.75889 -1.79869,-31.874 -0.008,-23.57023 1.30786,-34.5998 5.93323,-49.75 l 1.45018,-4.75 h -62.47343 -62.47342 l 0.27125,64.89547 c 0.2607,62.3695 0.34594,64.97797 2.18993,67.01511 1.05526,1.16581 3.30526,2.52226 5,3.01435 3.37691,0.98052 130.87927,1.4438 131.84402,0.47905 z M 149.29481,389.81889 C 145.064,388.69314 143,385.53623 143,380.19094 c 0,-3.97338 0.53764,-4.92395 6.00588,-10.61855 l 6.00588,-6.2545 -6.00588,-6.31171 C 143.57821,351.30211 143,350.2813 143,346.40299 c 0,-6.35411 3.3621,-9.90299 9.38178,-9.90299 4.2048,0 5.00164,0.44202 10.36558,5.75 3.19585,3.1625 6.26639,5.75 6.82343,5.75 0.55704,0 3.01899,-2.06109 5.471,-4.58021 C 179.94466,338.38276 183.78486,336 187,336 c 3.51225,0 7.64794,2.73583 8.97356,5.93618 2.07715,5.01467 0.60648,9.05931 -5.47948,15.06966 -3.02174,2.98421 -5.49408,5.85299 -5.49408,6.37507 0,0.52207 2.7,3.761 6,7.19761 7.06142,7.35373 7.83948,11.08193 3.41111,16.34475 -2.21291,2.62989 -3.2697,3.07673 -7.27658,3.07673 -4.35889,0 -5.13694,-0.42354 -11.09307,-6.03863 l -6.4054,-6.03862 -5.60617,5.54767 c -6.12733,6.06339 -9.82281,7.65556 -14.73508,6.34847 z M 272.65494,271.62241 c 34.8883,-20.44453 80.06783,-18.70538 113.95309,4.38654 L 394,281.04638 v -2.78934 c 0,-1.6028 -2.98783,-8.09973 -7.02388,-15.27319 -14.90563,-26.49245 -18.07767,-33.97848 -23.47046,-55.39036 -4.14059,-16.4401 -8.71613,-26.47428 -15.41381,-33.80261 -15.65805,-17.13241 -35.19191,-14.88109 -48.91567,5.63764 -5.21169,7.79212 -8.32827,16.00626 -12.67002,33.39342 -4.34427,17.39723 -6.5603,22.39377 -22.91977,51.67793 -7.37264,13.19733 -7.67594,19.11457 -0.69649,13.58796 1.98555,-1.57224 6.37982,-4.48168 9.76504,-6.46542 z m 27.09504,-55.70252 c -5.20447,-3.03133 -5.82382,-11.62299 -1.15411,-16.00996 L 301.16113,197.5 h 25.00602 25.00602 l 2.41341,2.80576 c 3.4579,4.02004 3.35545,10.47948 -0.22294,14.05788 L 350.72727,217 326.11364,216.9696 c -14.85043,-0.0183 -25.3078,-0.43472 -26.36366,-1.0497 z m -63.43519,55.54618 c 1.52528,-3.19856 1.68521,-9.53785 1.68521,-66.8 0,-47.87361 -0.29196,-63.55803 -1.2,-64.46607 -0.90758,-0.90758 -16.32046,-1.19962 -63.25,-1.19845 -57.07647,0.001 -62.32942,0.1417 -65.53609,1.75 -1.91735,0.96165 -4.04821,2.87345 -4.73526,4.24845 -0.9592,1.91968 -1.25259,17.29804 -1.26391,66.25 L 102,275 h 66.31479 66.31479 z M 162.92308,238.07692 C 160.1871,235.34095 160,234.64966 160,227.27692 c 0,-4.79316 -0.46979,-8.34671 -1.2,-9.07692 -0.73021,-0.73021 -4.28376,-1.2 -9.07692,-1.2 -7.37274,0 -8.06403,-0.1871 -10.8,-2.92308 C 136.76225,211.91609 136,210.20395 136,207.51118 c 0,-7.61529 2.99153,-9.70319 15,-10.46907 l 8.5,-0.54211 0.5,-9 c 0.56006,-10.08105 0.87021,-10.8644 5.18489,-13.09561 3.95579,-2.04562 8.75342,-1.16301 11.90518,2.19017 2.09819,2.23228 2.45468,3.70548 2.75585,11.38877 l 0.34592,8.82483 8.82483,0.34592 c 7.68329,0.30117 9.15649,0.65766 11.38877,2.75585 3.35318,3.15176 4.23579,7.94939 2.19017,11.90518 C 200.3644,216.12979 199.58105,216.43994 189.5,217 l -9,0.5 -0.5,8.5 c -0.70045,11.90764 -2.86741,15 -10.51118,15 -2.69277,0 -4.40491,-0.76225 -6.56574,-2.92308 z M 392.54709,145.45845 C 390.04783,139.47688 387.57312,139 359.03212,139 345.26445,139 334,139.34438 334,139.76528 c 0,0.42091 2.3625,1.59912 5.25,2.61826 10.95646,3.86707 19.95874,10.82002 27.15772,20.9754 7.88584,11.1243 10.11423,16.41577 19.6419,46.64106 3.38075,10.725 6.44012,19.95 6.7986,20.5 0.35848,0.55 0.76927,-17.565 0.91288,-40.25556 0.21852,-34.52817 0.0206,-41.83125 -1.21401,-44.78599 z m -131.00514,78.0426 c 1.33755,-3.02442 4.0411,-11.91192 6.00789,-19.75 1.9668,-7.83808 5.07547,-17.9445 6.90815,-22.45873 6.71747,-16.54634 18.17665,-29.88443 31.44646,-36.60258 3.62755,-1.83654 6.48305,-3.75554 6.34555,-4.26445 -0.1453,-0.53776 -11.45332,-0.92529 -27,-0.92529 H 258.5 l -0.2603,44.75 c -0.14316,24.6125 -0.006,44.75 0.30503,44.75 0.31093,0 1.65968,-2.47453 2.99722,-5.49895 z"
         id="path17888" />
    </g>
  </g>
</svg>
