<?xml version="1.0" encoding="UTF-8" standalone="no"?>
<svg
   viewBox="0 0 63.999998 63.999998"
   version="1.1"
   id="svg25482"
   sodipodi:docname="youtube.svg"
   width="64"
   height="64"
   inkscape:version="1.1 (c68e22c387, 2021-05-23)"
   xmlns:inkscape="http://www.inkscape.org/namespaces/inkscape"
   xmlns:sodipodi="http://sodipodi.sourceforge.net/DTD/sodipodi-0.dtd"
   xmlns="http://www.w3.org/2000/svg"
   xmlns:svg="http://www.w3.org/2000/svg">
  <defs
     id="defs25486" />
  <sodipodi:namedview
     id="namedview25484"
     pagecolor="#ffffff"
     bordercolor="#666666"
     borderopacity="1.0"
     inkscape:pageshadow="2"
     inkscape:pageopacity="0.0"
     inkscape:pagecheckerboard="0"
     showgrid="false"
     scale-x="64"
     inkscape:zoom="5.0944997"
     inkscape:cx="-14.819905"
     inkscape:cy="9.9126515"
     inkscape:window-width="1920"
     inkscape:window-height="1017"
     inkscape:window-x="-8"
     inkscape:window-y="-8"
     inkscape:window-maximized="1"
     inkscape:current-layer="svg25482" />
  <path
     style="fill:#ec6823;fill-opacity:1;stroke-width:0.199446"
     d="M 13.364104,59.196715 C 10.53976,58.801258 8.3793347,58.000417 6.329708,56.589164 4.1848759,55.112357 2.7046722,53.200034 1.6878069,50.592137 L 1.1229808,49.143561 1.0643104,32.002389 C 0.99927849,13.006017 0.97868889,13.347374 2.3465529,10.749613 3.7345803,8.1135517 5.935112,6.0531943 8.6559824,4.8420987 11.720919,3.4778519 10.699187,3.5429641 30.20873,3.4685969 c 18.667097,-0.071169 20.605266,-0.00497 22.998623,0.7841766 4.02881,1.3285618 7.172293,4.2801701 8.531732,8.0109705 l 0.48489,1.330714 V 31.46406 49.333662 l -0.560624,1.394325 c -0.812824,2.021562 -1.75364,3.360409 -3.431988,4.883966 -1.014752,0.921167 -2.003775,1.591216 -3.138749,2.126455 -3.286631,1.549938 -1.884587,1.457447 -22.686759,1.496651 -10.185243,0.01917 -18.754028,0.002 -19.041748,-0.03836 z M 44.333099,42.018512 c 3.689603,-0.528142 4.403254,-2.049562 4.549511,-9.698991 0.175126,-9.159507 -0.706313,-11.130195 -5.188018,-11.599155 -5.037968,-0.527164 -23.586897,-0.367029 -25.752109,0.222323 -0.433583,0.11802 -1.120965,0.46367 -1.527515,0.768117 -1.408364,1.054664 -2.004615,3.927385 -2.004615,9.658203 0,5.775806 0.504345,8.335051 1.876238,9.5208 0.970486,0.838806 1.975882,1.106103 4.933368,1.311598 3.343687,0.232329 21.19946,0.09103 23.11314,-0.182887 z"
     id="path31802" />
  <path
     style="fill:#ec6823;fill-opacity:1;stroke-width:0.199446"
     d="M 27.593103,31.04789 V 26.2115 l 4.028061,1.902532 c 2.215435,1.046395 4.51794,2.146582 5.116681,2.444859 l 1.088619,0.542323 -2.13487,0.982994 c -1.174178,0.540645 -3.476683,1.616838 -5.116681,2.391533 l -2.98181,1.40854 z"
     id="path31841" />
</svg>
