<?xml version="1.0" encoding="UTF-8" standalone="no"?>
<!-- Created with Inkscape (http://www.inkscape.org/) -->

<svg
   width="64"
   height="64"
   viewBox="0 0 16.933333 16.933333"
   version="1.1"
   id="svg32128"
   inkscape:version="1.1 (c68e22c387, 2021-05-23)"
   sodipodi:docname="cartilla.svg"
   xmlns:inkscape="http://www.inkscape.org/namespaces/inkscape"
   xmlns:sodipodi="http://sodipodi.sourceforge.net/DTD/sodipodi-0.dtd"
   xmlns="http://www.w3.org/2000/svg"
   xmlns:svg="http://www.w3.org/2000/svg">
  <sodipodi:namedview
     id="namedview32130"
     pagecolor="#ffffff"
     bordercolor="#666666"
     borderopacity="1.0"
     inkscape:pageshadow="2"
     inkscape:pageopacity="0.0"
     inkscape:pagecheckerboard="0"
     inkscape:document-units="mm"
     showgrid="false"
     units="px"
     inkscape:zoom="5.9295174"
     inkscape:cx="7.8421222"
     inkscape:cy="4.9751098"
     inkscape:window-width="1920"
     inkscape:window-height="1017"
     inkscape:window-x="-8"
     inkscape:window-y="-8"
     inkscape:window-maximized="1"
     inkscape:current-layer="layer1" />
  <defs
     id="defs32125" />
  <g
     inkscape:label="Capa 1"
     inkscape:groupmode="layer"
     id="layer1">
    <g
       id="g35682"
       transform="matrix(0.12459967,0,0,0.12282897,-17.763265,-56.259663)">
      <path
         style="fill:#333333;fill-opacity:1;stroke-width:0.25642"
         d="m 194.90868,573.70897 c -0.30802,-0.21502 -0.6094,-0.78088 -0.71493,-1.34231 -0.10033,-0.53383 -0.15567,-12.33522 -0.12296,-26.22534 0.0573,-24.35054 0.0743,-25.27743 0.47567,-25.8881 0.37652,-0.57295 0.65264,-0.63337 2.89496,-0.63337 h 2.47873 v -0.77213 c 4.61227,-9.52712 23.22494,-2.15431 28.0623,4.34938 l 1.07919,1.52463 1.33407,-1.76446 c 4.45292,-5.88956 10.79652,-8.82637 18.02848,-8.34646 3.93176,0.26093 8.56825,1.50325 9.4374,2.52871 0.20362,0.24024 0.40027,0.86274 0.43697,1.38333 l 0.0668,0.94653 2.47632,0.15047 c 2.12395,0.12906 2.52035,0.23359 2.78569,0.73462 0.26125,0.49326 0.30887,4.61471 0.30605,26.48253 -0.002,14.24409 -0.0755,26.04736 -0.16386,26.22948 -0.49192,1.01473 -0.77837,1.02315 -34.72166,1.01866 -26.23316,-0.004 -33.72353,-0.086 -34.1392,-0.37617 z m 29.045,-4.00251 c 0,-0.33385 -3.6381,-2.49803 -5.46217,-3.24924 -3.33404,-1.3731 -5.528,-1.79902 -9.39493,-1.82394 -1.98276,-0.0128 -4.28464,0.0915 -5.11529,0.23165 -1.41729,0.23921 -1.58351,0.3503 -2.70001,1.80473 -0.65436,0.85241 -1.38248,1.92265 -1.61804,2.37832 l -0.42831,0.82847 h 12.35938 c 6.79765,0 12.35937,-0.0765 12.35937,-0.16999 z m 34.80486,-0.24365 c -0.0961,-0.22749 -0.75082,-1.26687 -1.45492,-2.30973 -1.46881,-2.17546 -1.56148,-2.21556 -5.93095,-2.56662 -3.1506,-0.25313 -6.85997,0.21446 -9.99442,1.25984 -2.13736,0.71284 -6.80861,3.19917 -7.05903,3.75724 -0.0728,0.16203 4.90277,0.2729 12.24579,0.2729 10.43105,0 12.34088,-0.0648 12.19353,-0.41363 z m -31.09032,-21.32911 2.2e-4,-19.33525 -2.05674,-2.76545 c -1.76397,-2.3718 -2.37825,-2.98106 -4.31538,-4.2802 -3.39708,-2.27823 -5.38467,-2.85438 -9.90568,-2.87135 -3.44886,-0.013 -5.35403,0.25464 -7.5924,1.06636 l -0.81933,0.29711 v 20.31206 20.31207 l 1.14706,-0.23607 c 2.09891,-0.43196 8.62183,-0.22725 10.97895,0.34458 3.75722,0.91147 8.24437,3.1481 11.14282,5.55419 0.60085,0.49878 1.16618,0.9137 1.2563,0.92204 0.0901,0.008 0.16399,-8.68571 0.16413,-19.32008 z m -6.45378,8.48766 c -0.23584,-0.12373 -1.01873,-0.71783 -1.73974,-1.32023 -2.60418,-2.17584 -5.82725,-2.95997 -9.32669,-2.2691 l -1.99418,0.3937 -0.51181,-0.81955 c -0.59666,-0.95543 -0.64179,-1.60024 -0.17609,-2.51603 0.50761,-0.99818 1.88234,-1.37942 5.0172,-1.39136 2.28953,-0.009 3.17044,0.11831 4.54266,0.65499 3.24139,1.26772 6.05394,3.69684 6.05394,5.22862 0,1.46931 -0.957,2.51541 -1.86529,2.03896 z m -0.69039,-10.38123 c -0.94335,-1.02416 -2.71586,-2.11234 -4.43589,-2.72329 -1.15462,-0.41012 -2.0243,-0.47091 -4.65118,-0.32516 -3.01507,0.16729 -3.25967,0.13983 -3.65965,-0.4111 -0.92556,-1.27485 -0.28878,-3.05829 1.25245,-3.50775 0.45733,-0.13337 2.20798,-0.24191 3.89032,-0.2412 3.35958,0.002 5.01099,0.49887 7.57525,2.28179 2.57849,1.79281 3.42987,3.62441 2.36589,5.0899 -0.59167,0.81494 -1.49427,0.75194 -2.33719,-0.16319 z m 17.41277,16.60044 c 2.74355,-1.25389 4.75114,-1.83669 7.97476,-2.31508 2.29226,-0.34016 6.82075,-0.23158 8.68485,0.20827 l 0.81933,0.19332 v -20.3324 c 0,-19.10426 -0.0231,-20.34179 -0.38235,-20.48807 -1.27795,-0.52033 -4.45025,-1.14061 -6.62763,-1.29591 -6.89277,-0.49163 -12.43277,2.19832 -16.42273,7.97403 l -1.25629,1.81858 v 19.41975 19.41974 l 2.45799,-1.77688 c 1.35187,-0.97728 3.49032,-2.24869 4.75207,-2.82535 z m -2.33444,-6.20748 c -0.5389,-0.29906 -0.94286,-1.17693 -0.94286,-2.04897 0,-2.03455 4.45568,-5.07651 8.53026,-5.82373 2.57314,-0.47187 6.17918,0.0553 6.91811,1.01152 0.65014,0.84128 0.64192,2.06215 -0.0196,2.91824 -0.51223,0.66284 -0.55731,0.66766 -2.73612,0.29313 -3.6239,-0.62294 -6.78004,0.28622 -9.51554,2.74104 -1.43996,1.29222 -1.49955,1.31645 -2.23418,0.90877 z m -0.7085,-10.42082 c -0.63446,-1.11097 -0.56626,-1.84797 0.2714,-2.93327 0.96729,-1.25326 2.50826,-2.37383 4.62868,-3.36595 2.98392,-1.39613 9.05494,-1.35691 10.19635,0.0659 0.5023,0.62612 0.52479,2.29636 0.0384,2.85152 -0.27646,0.31552 -1.26919,0.41301 -4.20586,0.41301 -3.59527,0 -3.9444,0.0506 -5.3957,0.78195 -0.85345,0.43006 -2.0926,1.27644 -2.75371,1.88084 -1.43989,1.31643 -2.1574,1.39542 -2.77955,0.306 z m -36.20834,18.05661 1.23461,-1.84585 v -19.29502 -19.29502 h -1.42017 -1.42016 v 21.24119 c 0,11.68265 0.0835,21.19604 0.18556,21.14087 0.10206,-0.0551 0.74113,-0.93094 1.42016,-1.94617 z m 62.19238,-19.21979 v -21.2161 h -1.31091 -1.31092 v 19.25154 19.25156 l 1.25629,1.94976 c 0.69096,1.07237 1.28088,1.95643 1.31092,1.96455 0.0302,0.008 0.0546,-9.53244 0.0546,-21.20131 z"
         id="path32825"
         sodipodi:nodetypes="sssssccccsssscsscscssssssscsssssssssccsssscccssscccssscsscsssssssscsssssscsssscccssssssssssscsssssssccscccccsssccccccscsc" />
      <path
         style="fill:#ec6823;fill-opacity:1;stroke-width:0.396384"
         d="m 208.94248,592.98295 c -13.88679,-1.47118 -24.05198,-5.16797 -32.50066,-11.81974 -9.91069,-7.80282 -14.28517,-18.07703 -13.67377,-32.11515 0.5141,-11.80456 4.67382,-21.28918 14.7809,-33.70233 5.28537,-6.49123 7.46826,-9.80921 8.72161,-13.25682 2.46868,-6.79054 3.30683,-8.62162 5.42098,-11.84273 3.49189,-5.32028 10.23523,-10.34972 15.48519,-11.54952 2.58552,-0.59114 2.89522,-1.03104 1.83224,-2.60428 -1.47,-2.17557 -4.00395,-4.15357 -7.67755,-5.99312 -1.90662,-0.95472 -3.70636,-1.73584 -3.99938,-1.73584 -0.293,0 -0.77195,-0.22016 -1.06423,-0.4884 -0.41559,-0.3816 -0.21447,-1.19338 0.92215,-3.72151 0.79947,-1.77816 1.61616,-3.37325 1.81483,-3.54466 0.20567,-0.17697 1.78821,0.25604 3.6744,1.00642 8.93859,3.55591 14.12766,7.64945 16.67537,13.15491 l 1.22224,2.64121 2.91974,0.78438 c 6.04681,1.62381 10.21967,3.90496 13.81294,7.55096 3.33513,3.3841 5.08034,6.35743 9.06257,15.44021 3.29117,7.50661 3.58979,8.39487 2.76009,8.21093 -0.51173,-0.1134 -3.20717,-0.46722 -5.98995,-0.78684 l -5.05958,-0.58054 -1.37812,-3.47616 c -0.75799,-1.91186 -1.81879,-4.64457 -2.3574,-6.07252 -2.12776,-5.64138 -6.70678,-10.32362 -12.04375,-12.31524 -5.83743,-2.17843 -12.45374,-0.92511 -17.63018,3.3395 -3.27374,2.69707 -5.62631,6.46961 -7.69709,12.34288 -2.13673,6.0603 -3.78245,8.97515 -8.1431,14.42279 -8.48374,10.59848 -10.3305,13.40034 -12.92367,19.60731 -2.04496,4.89483 -2.93464,9.46611 -2.92897,15.04958 0.013,12.58056 4.59034,21.3928 14.11951,27.18119 3.6339,2.20736 11.86226,5.29931 16.6232,6.24636 1.997,0.39709 5.77544,0.80804 8.39651,0.91338 3.17414,0.12713 5.82652,0.45742 7.94263,0.9892 5.75132,1.44459 10.60628,1.94481 17.69579,1.82325 6.46478,-0.11097 6.5065,-0.10683 5.20341,0.52183 -1.89058,0.9115 -9.54843,2.9492 -14.04884,3.7383 -4.45852,0.78194 -15.34441,1.13141 -19.97004,0.64169 z m 26.55119,-81.14399 c -67.99097,-175.1154 -33.99548,-87.5577 0,0 z"
         id="path23086"
         sodipodi:nodetypes="cssssscssscsccsccsssccccssssscscccccccccc" />
      <path
         style="fill:#ec6823;fill-opacity:1;stroke-width:0.356971"
         d="m 198.85293,573.75802 c -1.95234,-0.0731 -3.75951,-0.30702 -4.01592,-0.51983 -0.37582,-0.31189 -0.46621,-5.42586 -0.46621,-26.3766 0,-23.15101 0.0613,-26.05095 0.56096,-26.55065 0.39361,-0.39359 1.24553,-0.56094 2.85577,-0.56094 1.77763,0 2.29481,-0.11787 2.29481,-0.52303 0,-0.87519 2.23153,-3.1265 3.77641,-3.80986 2.31727,-1.02508 5.0126,-1.18595 8.39732,-0.50126 6.40308,1.2953 12.99523,4.99155 15.94298,8.93932 l 0.79964,1.0709 1.51429,-1.78485 c 3.75908,-4.43074 7.3523,-6.80971 11.91088,-7.88591 3.97964,-0.93953 11.21959,-0.19296 14.48018,1.49315 0.67538,0.34925 1.04768,0.88871 1.20983,1.75303 0.2292,1.22176 0.2711,1.24851 1.95611,1.24851 0.94704,0 2.13394,0.15666 2.63756,0.34814 l 0.91566,0.34814 v 26.3865 c 0,24.78288 -0.038,26.40391 -0.6247,26.67301 -0.61969,0.28425 -57.33469,0.50724 -64.14557,0.25223 z m 24.95112,-4.00476 c 0.42194,-0.6827 -4.5794,-3.44088 -8.21213,-4.5289 -2.26561,-0.67855 -10.44897,-0.94149 -12.39313,-0.3982 -0.9133,0.25525 -4.18737,4.11705 -4.18737,4.93906 0,0.42836 24.52781,0.41653 24.79263,-0.0119 z m 35.00279,-0.089 c 0.13184,-0.13211 -0.41843,-1.20936 -1.22282,-2.39387 -1.75747,-2.588 -2.19856,-2.7295 -8.41815,-2.70052 -3.02574,0.014 -4.91261,0.20719 -6.42548,0.65756 -2.3663,0.7044 -8.38882,3.68586 -8.38882,4.1529 0,0.1628 0.36143,0.36973 0.80318,0.45982 1.26096,0.25721 23.38408,0.0927 23.65209,-0.17589 z m -31.10776,-3.73629 c 0.12486,-0.91091 0.22701,-9.64358 0.22701,-19.406 v -17.74978 l -2.04296,-2.68094 c -2.30158,-3.02033 -5.05106,-5.24063 -7.95223,-6.42176 -1.72593,-0.70263 -2.56767,-0.79584 -6.96094,-0.77078 -3.51492,0.0201 -5.42122,0.18769 -6.42548,0.56504 l -1.42789,0.53652 -0.0921,20.52215 -0.0921,20.52214 2.1731,-0.32891 c 3.49782,-0.5294 9.68067,0.18503 13.1373,1.51805 2.69936,1.04098 7.87744,4.09305 8.41221,4.95834 0.47971,0.77619 0.82112,0.36285 1.04411,-1.26407 z m 5.68297,-0.0875 c 5.57749,-3.77552 9.74186,-5.16202 15.60534,-5.19572 2.06151,-0.0119 4.39074,0.0588 5.17608,0.15697 l 1.42788,0.17846 0.0858,-6.60394 c 0.0472,-3.6322 -0.0331,-12.86195 -0.17848,-20.51061 l -0.26429,-13.9066 -1.60637,-0.51478 c -1.04139,-0.33369 -3.3013,-0.52729 -6.42548,-0.55041 -4.25827,-0.0315 -5.05694,0.0604 -6.86269,0.78952 -2.97478,1.20118 -5.95688,3.55171 -8.06207,6.35463 l -1.84602,2.45784 -0.004,19.54417 c -0.002,10.74928 0.0823,19.54416 0.1872,19.54416 0.10485,0 1.34979,-0.78465 2.76653,-1.74369 z m -33.31123,-22.6196 0.0115,-19.54416 h -1.60637 -1.60637 l 0.005,20.61509 c 0.003,11.3383 0.104,20.98519 0.22516,21.43752 0.20334,0.75922 0.32562,0.67686 1.58998,-1.0709 l 1.3697,-1.89336 z m 61.05359,1.8741 v -21.41826 h -1.60637 -1.60637 v 19.29604 19.29601 l 1.44118,2.12225 c 0.79265,1.16723 1.51552,2.12225 1.60637,2.12225 0.0909,0 0.16519,-9.63825 0.16519,-21.41829 z"
         id="path35380" />
      <path
         style="fill:#ec6823;fill-opacity:1;stroke-width:0.356971"
         d="m 219.99106,555.43391 c -2.76936,-2.28275 -6.32927,-3.2117 -9.83894,-2.56747 -1.86258,0.3419 -1.89612,0.33248 -2.42039,-0.68135 -0.59886,-1.15806 -0.27267,-2.1693 0.90263,-2.79832 1.04028,-0.55673 6.44304,-0.44275 8.25127,0.17407 1.91577,0.65352 4.93654,2.87669 5.65992,4.16547 0.42392,0.75528 0.4448,1.1226 0.10607,1.86605 -0.54538,1.19698 -1.05284,1.16674 -2.66056,-0.15845 z"
         id="path35419" />
      <path
         style="fill:#ec6823;fill-opacity:1;stroke-width:0.356971"
         d="m 220.35122,545.84882 c -2.46982,-2.16853 -4.04393,-2.70656 -8.31026,-2.84041 -4.06132,-0.12742 -4.44661,-0.27704 -4.45676,-1.73067 -0.01,-1.43687 1.24401,-1.89433 5.19303,-1.89433 3.31117,0 3.79289,0.0905 5.78829,1.08762 3.50511,1.75154 5.35371,4.56131 3.93461,5.9804 -0.61289,0.61288 -0.83568,0.55042 -2.14891,-0.60261 z"
         id="path35458" />
      <path
         style="fill:#ec6823;fill-opacity:1;stroke-width:0.356971"
         d="m 235.29932,546.22699 c -0.32493,-0.35904 -0.59078,-0.97695 -0.59078,-1.37311 0,-1.12885 2.40194,-3.31965 4.97324,-4.53615 2.08771,-0.98769 2.69677,-1.10855 5.55741,-1.10294 4.04694,0.008 4.90243,0.41219 4.75002,2.24456 l -0.1094,1.31527 -4.10516,0.20974 c -4.43097,0.2264 -5.64181,0.6309 -8.34867,2.78903 -0.76325,0.60854 -1.42106,1.1064 -1.4618,1.1064 -0.0407,0 -0.33993,-0.29374 -0.66486,-0.6528 z"
         id="path35497" />
      <path
         style="fill:#ec6823;fill-opacity:1;stroke-width:0.356971"
         d="m 235.22899,555.6528 c -0.5155,-0.78674 -0.5162,-0.9633 -0.008,-1.94652 1.26688,-2.44988 6.09274,-4.77626 10.01796,-4.82933 4.0315,-0.0545 5.93758,1.26754 4.82492,3.34655 -0.3863,0.72184 -0.58416,0.75457 -3.18815,0.52742 -3.5553,-0.31014 -6.07547,0.37915 -8.55646,2.34024 -0.9928,0.78478 -1.96676,1.42688 -2.16434,1.42688 -0.19759,0 -0.61436,-0.38937 -0.92616,-0.86524 z"
         id="path35536" />
    </g>
  </g>
</svg>
