<?xml version="1.0" encoding="UTF-8" standalone="no"?>
<svg
   width="8"
   height="7"
   fill="currentColor"
   class="bi bi-cloud-lightning-rain"
   viewBox="0 0 8 7"
   version="1.1"
   id="svg13258"
   sodipodi:docname="cloud-lightning-rain.svg"
   inkscape:version="1.1 (c68e22c387, 2021-05-23)"
   xmlns:inkscape="http://www.inkscape.org/namespaces/inkscape"
   xmlns:sodipodi="http://sodipodi.sourceforge.net/DTD/sodipodi-0.dtd"
   xmlns="http://www.w3.org/2000/svg"
   xmlns:svg="http://www.w3.org/2000/svg">
  <defs
     id="defs13262" />
  <sodipodi:namedview
     id="namedview13260"
     pagecolor="#ffffff"
     bordercolor="#666666"
     borderopacity="1.0"
     inkscape:pageshadow="2"
     inkscape:pageopacity="0.0"
     inkscape:pagecheckerboard="0"
     showgrid="false"
     width="20px"
     inkscape:zoom="32"
     inkscape:cx="9.359375"
     inkscape:cy="3.140625"
     inkscape:window-width="1920"
     inkscape:window-height="1017"
     inkscape:window-x="-8"
     inkscape:window-y="-8"
     inkscape:window-maximized="1"
     inkscape:current-layer="svg13258" />
  <path
     d="M 1.4532872,4.756247 A 0.23914977,0.20711767 0 0 1 1.6044299,5.018044 L 1.3652801,5.639397 A 0.23914977,0.20711767 0 1 1 0.9118521,5.508498 L 1.1510019,4.887145 A 0.23914977,0.20711767 0 0 1 1.4532872,4.756247 Z m 4.5438457,0 A 0.23914977,0.20711767 0 0 1 6.1482755,5.018044 L 5.9091257,5.639397 A 0.23914977,0.20711767 0 1 1 5.4556977,5.508498 L 5.6948475,4.887145 A 0.23914977,0.20711767 0 0 1 5.9971329,4.756247 Z M 2.4098863,5.3776 A 0.23914977,0.20711767 0 0 1 2.5610285,5.639397 L 2.3218792,6.26075 A 0.23914977,0.20711767 0 1 1 1.8684512,6.129853 L 2.107601,5.508498 A 0.23914977,0.20711767 0 0 1 2.4098863,5.3776 Z m 4.5438454,0 A 0.23914977,0.20711767 0 0 1 7.104874,5.639397 L 6.8657247,6.26075 A 0.23914977,0.20711767 0 1 1 6.4122967,6.129852 L 6.6514465,5.508498 A 0.23914977,0.20711767 0 0 1 6.9537317,5.3776 Z M 6.5935723,1.8570135 A 2.391976,2.0715911 0 0 0 2.050205,1.4411211 1.6740484,1.4498238 0 1 0 1.8560155,4.3312414 H 6.399861 A 1.4348986,1.2427061 0 0 0 6.5935723,1.8570135 Z M 4.2475131,0.603123 a 1.9131981,1.6569414 0 0 1 1.901719,1.4726067 0.23914977,0.20711767 0 0 0 0.2391498,0.1843348 h 0.011486 a 0.95659907,0.82847075 0 0 1 0,1.6569415 H 1.8560155 A 1.1957488,1.0355884 0 1 1 2.1453867,1.8764826 0.23914977,0.20711767 0 0 0 2.4304531,1.7401991 1.9141548,1.65777 0 0 1 4.2475131,0.603123 Z M 3.5554137,4.859806 A 0.23914977,0.20711767 0 0 1 3.7692135,4.745477 h 0.4782996 a 0.23914977,0.20711767 0 0 1 0.226714,0.272567 L 4.3403032,5.36683 H 4.7258126 A 0.23914977,0.20711767 0 0 1 4.9123495,5.703189 L 3.9557504,6.738777 A 0.23914977,0.20711767 0 0 1 3.5372383,6.559414 L 3.7022517,5.988183 H 3.2909141 a 0.23914977,0.20711767 0 0 1 -0.2138,-0.299906 z"
     id="path13256"
     style="fill:#00b0e4;fill-opacity:0.780392" />
  <path
     style="fill:#00b0e4;fill-opacity:0.780392;stroke-width:0.00480769"
     d="M 1.1033654,5.782973 C 1.0254274,5.775073 0.9540495,5.727863 0.9189856,5.661058 0.9047056,5.633848 0.9038646,5.629348 0.9041666,5.581731 L 0.9044869,5.53125 1.0324898,5.200796 C 1.1068468,5.0088361 1.1666026,4.8614616 1.1750712,4.849153 1.2050362,4.805601 1.2546062,4.771921 1.3107258,4.756984 c 0.033131,-0.00882 0.1002255,-0.00882 0.1333561,0 0.066231,0.017628 0.1238149,0.062368 0.1507849,0.1171516 0.014446,0.029343 0.015701,0.035596 0.015603,0.077686 L 1.6103624,4.9975966 1.4860279,5.3197119 C 1.4176438,5.496875 1.356439,5.652299 1.350017,5.665097 1.309155,5.746537 1.2102171,5.793817 1.1033654,5.782973 Z"
     id="path14275" />
  <path
     style="fill:#00b0e4;fill-opacity:0.780392;stroke-width:0.00480769"
     d="m 2.0473134,6.403387 c -0.072302,-0.01208 -0.141795,-0.06072 -0.1730202,-0.1211 -0.012025,-0.02325 -0.019349,-0.06917 -0.015814,-0.09915 0.00223,-0.01889 0.042011,-0.128311 0.1270094,-0.349315 0.068071,-0.176991 0.1291496,-0.3324381 0.1357305,-0.3454381 0.015905,-0.031418 0.054686,-0.069051 0.090767,-0.088079 0.122951,-0.064839 0.2828928,-0.019197 0.3409378,0.097292 0.012932,0.025953 0.014372,0.033427 0.014358,0.074519 l -1.44e-5,0.045673 -0.1270217,0.3293261 c -0.069862,0.18113 -0.1338849,0.340211 -0.1422732,0.353512 -0.031496,0.04994 -0.087788,0.08676 -0.1541615,0.10082 -0.036563,0.0077 -0.059036,0.0082 -0.096496,0.0019 z"
     id="path14314" />
  <path
     style="fill:#00b0e4;fill-opacity:0.780392;stroke-width:0.00480769"
     d="m 3.7043269,6.804849 c -0.042706,-0.01134 -0.077334,-0.03064 -0.1086068,-0.06055 -0.048447,-0.04633 -0.071542,-0.109272 -0.059942,-0.16336 0.003,-0.01398 0.042148,-0.152497 0.087,-0.307813 0.044852,-0.155316 0.081549,-0.283553 0.081549,-0.284971 0,-0.0014 -0.1001464,-0.0026 -0.2225476,-0.0026 -0.1834659,0 -0.2275796,-0.0013 -0.2512019,-0.0073 -0.072506,-0.01851 -0.1296357,-0.06243 -0.1573663,-0.120977 -0.014098,-0.02977 -0.015519,-0.03694 -0.015519,-0.07844 0,-0.0402 0.00155,-0.04869 0.012978,-0.07082 0.00714,-0.01383 0.1218013,-0.2138249 0.2548077,-0.4444265 0.2613142,-0.4530567 0.2609285,-0.4524724 0.3188878,-0.4830889 0.058771,-0.031045 0.05243,-0.030512 0.3625165,-0.03045 0.3050472,6.18e-5 0.3049666,5.57e-5 0.3602767,0.026972 0.035624,0.017336 0.081688,0.063799 0.099512,0.1003749 0.012599,0.025852 0.014036,0.033586 0.013852,0.074519 l -2.053e-4,0.045673 -0.070688,0.1826571 c -0.038878,0.1004614 -0.070688,0.1842955 -0.070688,0.1862981 0,0.002 0.094738,0.00364 0.2105284,0.00364 0.1733109,0 0.2155939,0.0013 0.2391827,0.00736 0.1118472,0.02872 0.1880578,0.1286709 0.1705733,0.2237075 -0.011013,0.05986 -0.0053,0.053146 -0.5121113,0.6017168 -0.2617789,0.283348 -0.4876238,0.526736 -0.5018776,0.540862 -0.028729,0.02847 -0.078605,0.05487 -0.1197533,0.06339 -0.034683,0.0072 -0.089181,0.0061 -0.1211576,-0.0024 z"
     id="path14353" />
  <path
     style="fill:#00b0e4;fill-opacity:0.780392;stroke-width:0.00480769"
     d="M 5.6466346,5.782973 C 5.5673166,5.774973 5.4920706,5.723333 5.4600764,5.655061 5.4488504,5.631111 5.4471154,5.621289 5.4471154,5.581731 V 5.5360577 L 5.5714715,5.2139423 C 5.6398673,5.0367789 5.7024404,4.8792516 5.7105228,4.8638818 5.7460968,4.7962329 5.8309967,4.75 5.9196498,4.75 c 0.072351,0 0.1242013,0.019478 0.1736029,0.065215 0.039788,0.036837 0.059845,0.077515 0.062313,0.1263767 9.942e-4,0.019689 -8.126e-4,0.044582 -0.00403,0.055475 C 6.1356937,5.0507587 5.8944123,5.667358 5.8824266,5.684779 5.8336836,5.755629 5.7442278,5.792877 5.6466314,5.782969 Z"
     id="path14392" />
  <path
     style="fill:#00b0e4;fill-opacity:0.780392;stroke-width:0.00480769"
     d="M 6.5905826,6.403387 C 6.5167656,6.391057 6.4524849,6.345687 6.4197982,6.282847 6.4049932,6.254387 6.4039592,6.249277 6.4039042,6.204327 L 6.4038459,6.156247 6.5282877,5.834132 C 6.5967307,5.656968 6.6581085,5.5012985 6.6646829,5.488199 6.6900629,5.43763 6.7587719,5.388874 6.8235537,5.3754632 c 0.1110556,-0.022989 0.2273546,0.029465 0.2734493,0.1233331 0.01224,0.024931 0.01354,0.03236 0.01327,0.07572 L 7.109966,5.6225933 6.9816078,5.953852 C 6.9110108,6.136044 6.8489913,6.292 6.8437866,6.300421 c -0.016277,0.02634 -0.061169,0.06483 -0.092963,0.07971 -0.05302,0.02481 -0.1054152,0.03242 -0.1602394,0.02326 z"
     id="path14431" />
  <path
     style="fill:#00b0e4;fill-opacity:0.780392;stroke-width:0.015625"
     d="M 1.640625,4.3105519 C 0.9574505,4.2317403 0.388828,3.7805811 0.2326238,3.1934087 0.1935106,3.0463822 0.1860622,2.7756622 0.2171998,2.6328125 0.3532641,2.0085923 0.9164617,1.5444596 1.6498701,1.452145 1.7323191,1.441767 1.8586673,1.43695 1.9306442,1.441441 2.048878,1.448821 2.0624086,1.446781 2.0708056,1.420321 2.0759156,1.404215 2.1206106,1.329421 2.1701226,1.2541121 2.5095984,0.7377672 3.0363387,0.3953701 3.71875,0.2474576 3.8633144,0.2161236 3.9264512,0.2118976 4.25,0.2118976 c 0.3231409,0 0.3868678,0.00425 0.53125,0.035468 0.2975489,0.064325 0.6483375,0.2034883 0.865558,0.3433802 0.3425129,0.2205813 0.6199176,0.5219971 0.7866059,0.8546917 0.060917,0.1215845 0.1447111,0.3487314 0.1447111,0.3922785 0,0.011913 0.00176,0.021752 0.00391,0.021865 0.00215,1.094e-4 0.067188,0.013335 0.1445313,0.029382 0.5041927,0.104609 0.8975687,0.4303531 1.0492447,0.8688503 0.03872,0.111935 0.0432,0.1462306 0.04289,0.328125 -3.07e-4,0.1776508 -0.0056,0.2188014 -0.04194,0.328125 C 7.719381,3.5865353 7.637819,3.7193613 7.500002,3.8647589 7.260766,4.1171506 6.9571408,4.2653141 6.5859375,4.3108037 6.4153367,4.3317105 1.8220081,4.3314764 1.640625,4.3105522 Z M 6.7358808,3.87201 C 6.9083489,3.8109053 7.0281661,3.7346325 7.141877,3.6135617 7.295015,3.4505137 7.358836,3.2952433 7.35919,3.0848672 7.359544,2.8735994 7.283249,2.7007051 7.117507,2.5371812 6.9408908,2.36293 6.736058,2.2761266 6.453125,2.2556314 6.2439762,2.2404811 6.1723323,2.1858044 6.1488769,2.0234375 6.13054,1.8965019 6.0644959,1.7044062 5.9917823,1.5665118 5.7468644,1.1020485 5.270312,0.7633201 4.686823,0.6389603 4.4531289,0.5891523 4.0456391,0.5885983 3.8173686,0.6377803 3.4047023,0.7266863 3.0692425,0.9006994 2.8047967,1.1630329 2.6566708,1.3099758 2.5699248,1.4322735 2.4612325,1.6474033 c -0.04585,0.090748 -0.096738,0.1686226 -0.1225241,0.1875 -0.048646,0.035612 -0.072112,0.036582 -0.3972968,0.016425 C 1.6252284,1.8317253 1.3708487,1.8935933 1.1373572,2.046878 0.9287839,2.1838042 0.7746764,2.3763159 0.6995808,2.59375 c -0.05152,0.1491726 -0.050491,0.4152251 0.00223,0.576183 0.099763,0.3045846 0.3718963,0.5648634 0.7122528,0.6812259 0.2030544,0.069421 0.1519716,0.068201 2.7421875,0.065485 l 2.4609375,-0.00258 z"
     id="path15379" />
  <path
     style="fill:#00b0e4;fill-opacity:0.780392;stroke-width:0.015625"
     d="M 1.5390625,4.2875716 C 0.9194082,4.1778969 0.414807,3.7602266 0.2477845,3.21875 0.2170355,3.119064 0.2116465,3.0677272 0.2117015,2.875 0.2117631,2.6588551 0.2141715,2.6414372 0.2640725,2.496195 0.4290107,2.0161284 0.8470226,1.6535093 1.4062497,1.5053729 1.5244644,1.4740589 1.6065179,1.4643199 1.8092508,1.4575419 l 0.2545637,-0.00851 0.025038,-0.048734 c 0.043182,-0.08405 0.1468661,-0.2315275 0.2520944,-0.3585758 0.306632,-0.3702148 0.7604683,-0.6354286 1.3309278,-0.7777704 0.138035,-0.034443 0.1785501,-0.037051 0.578125,-0.037214 0.4219192,-1.723e-4 0.4327948,6.287e-4 0.6015625,0.04431 0.4793208,0.124061 0.8265812,0.3080121 1.1349187,0.6011901 0.2672824,0.2541412 0.4355696,0.5127418 0.5499552,0.8450948 l 0.0506,0.1470207 0.1779971,0.043764 c 0.4536415,0.1115378 0.7866945,0.37247 0.9614025,0.7532156 0.07564,0.1648442 0.09166,0.258483 0.0824,0.4817608 -0.0065,0.1577231 -0.01547,0.2123904 -0.04904,0.3001775 C 7.623338,3.800093 7.305035,4.095933 6.9140625,4.2293176 6.6631439,4.3149212 6.742413,4.3126147 4.103422,4.3110978 2.0733608,4.3099309 1.6430888,4.3059836 1.5390625,4.2875716 Z M 6.734375,3.8776669 C 6.89897,3.8157337 6.9570194,3.7832017 7.060975,3.6946336 7.169989,3.6017562 7.255652,3.4915637 7.309457,3.375 7.366915,3.2505201 7.376358,3.0146422 7.329993,2.8619956 7.252203,2.6058892 6.9848559,2.3654467 6.6953125,2.291187 6.64375,2.2779626 6.5385326,2.259385 6.4614962,2.2499034 6.2278712,2.2211489 6.1918281,2.1906467 6.1485898,1.9850995 6.0067839,1.3109775 5.4426219,0.7933499 4.671875,0.6301905 4.4931495,0.5923565 3.983738,0.5919565 3.8189044,0.6295221 3.3851481,0.7283741 3.0350733,0.9156477 2.7748072,1.1880651 2.646113,1.3227678 2.5696859,1.4306407 2.4613147,1.6305437 2.4200617,1.7066397 2.3703047,1.7874989 2.3507439,1.8102312 l -0.035565,0.041331 -0.3646205,6.437e-4 c -0.4159242,7.344e-4 -0.460038,0.00862 -0.6927456,0.123876 -0.1479274,0.073264 -0.28231,0.1783747 -0.385682,0.3016695 -0.079254,0.094529 -0.1756777,0.2846664 -0.198279,0.3909866 -0.024009,0.1129409 -0.02167,0.3016876 0.00531,0.429032 0.080825,0.3814156 0.5069643,0.7526316 0.9258536,0.806525 0.058255,0.00749 1.2098236,0.014491 2.5590424,0.015547 l 2.453125,0.00192 0.1171875,-0.044095 z"
     id="path15418" />
  <path
     style="fill:#00b0e4;fill-opacity:0.780392;stroke-width:0.015625"
     d="M 3.7033738,6.796804 C 3.6253301,6.778019 3.546875,6.687593 3.546875,6.616426 3.546875,6.585676 3.582031,6.438363 3.625,6.289062 3.667969,6.139762 3.703125,6.010881 3.703125,6.00266 3.703125,5.99406 3.6017587,5.98508 3.4648437,5.98153 3.2156056,5.97503 3.1673024,5.96327 3.1041077,5.89344 3.0883607,5.87604 3.0719617,5.83489 3.0676647,5.802 3.0605347,5.74741 3.0802957,5.70657 3.2941474,5.3339599 3.5766419,4.8417424 3.5894951,4.8217569 3.6444292,4.7893065 c 0.053498,-0.031602 0.3607283,-0.049095 0.5642623,-0.032129 0.1290293,0.010756 0.1424903,0.015249 0.1992187,0.0665 0.082247,0.074305 0.081099,0.1304641 -0.00744,0.3638284 L 4.3322985,5.3671875 4.568493,5.375 C 4.8208084,5.38335 4.8455222,5.390144 4.9123772,5.469597 4.9847622,5.555622 4.9683132,5.6204474 4.8371552,5.766044 4.438111,6.209016 3.9100435,6.766565 3.8773051,6.77948 3.8104011,6.80587 3.7613496,6.81076 3.7033743,6.7968 Z"
     id="path15457" />
  <path
     style="fill:#00b0e4;fill-opacity:0.780392;stroke-width:0.015625"
     d="M 5.5851629,5.759272 C 5.5153989,5.728885 5.453125,5.647922 5.453125,5.5876098 c 0,-0.04999 0.2501424,-0.71419 0.2846097,-0.7557205 0.033702,-0.040608 0.1115976,-0.06987 0.1859956,-0.06987 0.1244697,0 0.22216,0.082323 0.2220633,0.187132 C 6.1457186,5.0298053 5.9016588,5.648369 5.8467259,5.70713 5.7825329,5.7758 5.6731571,5.7976 5.5851629,5.75927 Z"
     id="path15496" />
  <path
     style="fill:#00b0e4;fill-opacity:0.780392;stroke-width:0.015625"
     d="M 6.5584457,6.383892 C 6.5261377,6.372377 6.48876,6.353873 6.4753842,6.342772 6.44179,6.314891 6.40625,6.242705 6.40625,6.202352 c 0,-0.04361 0.2623108,-0.7175287 0.2929276,-0.7525717 0.039341,-0.045028 0.1516454,-0.079863 0.2175895,-0.067491 0.1038824,0.019488 0.1926079,0.1093034 0.1926079,0.1949729 0,0.052306 -0.2646503,0.7087038 -0.3017407,0.7483908 -0.064448,0.06896 -0.1578541,0.09079 -0.2491886,0.058239 z"
     id="path15535" />
  <path
     style="fill:#00b0e4;fill-opacity:0.780392;stroke-width:0.015625"
     d="M 2.0106844,6.384122 C 1.9309114,6.354992 1.8937921,6.318882 1.8733007,6.25049 1.8575107,6.19779 1.8646107,6.17161 1.9690527,5.897565 2.1331626,5.4669427 2.1440848,5.4461768 2.2277787,5.4056612 c 0.1012502,-0.049014 0.1955289,-0.032905 0.2755101,0.047076 0.042587,0.042587 0.059211,0.07256 0.059211,0.1067583 0,0.026151 -0.042013,0.1571265 -0.093362,0.2910555 C 2.3047693,6.279259 2.2835029,6.3242 2.22922,6.357561 2.159812,6.400211 2.0809874,6.409801 2.0106845,6.384121 Z"
     id="path15574" />
  <path
     style="fill:#00b0e4;fill-opacity:0.780392;stroke-width:0.015625"
     d="m 1.0541006,5.764629 c -0.026104,-0.0076 -0.066798,-0.03398 -0.09043,-0.05865 -0.074635,-0.0779 -0.070677,-0.1232398 0.034701,-0.397538 0.1695634,-0.441369 0.1861257,-0.4759095 0.2459198,-0.5128644 0.066518,-0.04111 0.1821431,-0.044554 0.253689,-0.00756 0.056255,0.02909 0.1112473,0.108259 0.1113361,0.160282 5.47e-5,0.032083 -0.2283063,0.6354566 -0.274727,0.7258804 -0.023852,0.04646 -0.1370592,0.107806 -0.1949915,0.10566 -0.02092,-7.75e-4 -0.059393,-0.0076 -0.085497,-0.01521 z"
     id="path15613" />
</svg>
