<?xml version="1.0" encoding="UTF-8" standalone="no"?>
<!-- Created with Inkscape (http://www.inkscape.org/) -->

<svg
   width="64"
   height="64"
   viewBox="0 0 16.933333 16.933333"
   version="1.1"
   id="svg32128"
   inkscape:version="1.1 (c68e22c387, 2021-05-23)"
   sodipodi:docname="costos.svg"
   xmlns:inkscape="http://www.inkscape.org/namespaces/inkscape"
   xmlns:sodipodi="http://sodipodi.sourceforge.net/DTD/sodipodi-0.dtd"
   xmlns="http://www.w3.org/2000/svg"
   xmlns:svg="http://www.w3.org/2000/svg">
  <sodipodi:namedview
     id="namedview32130"
     pagecolor="#ffffff"
     bordercolor="#666666"
     borderopacity="1.0"
     inkscape:pageshadow="2"
     inkscape:pageopacity="0.0"
     inkscape:pagecheckerboard="0"
     inkscape:document-units="mm"
     showgrid="false"
     units="px"
     inkscape:zoom="5.9295174"
     inkscape:cx="42.583567"
     inkscape:cy="59.616994"
     inkscape:window-width="1920"
     inkscape:window-height="1017"
     inkscape:window-x="-8"
     inkscape:window-y="-8"
     inkscape:window-maximized="1"
     inkscape:current-layer="layer1" />
  <defs
     id="defs32125" />
  <g
     inkscape:label="Capa 1"
     inkscape:groupmode="layer"
     id="layer1">
    <path
       style="fill:#ec6823;fill-opacity:1;stroke-width:0.0490371"
       d="M 7.0661215,16.486579 C 5.335832,16.305875 4.0692527,15.851803 3.0165499,15.034772 1.7816812,14.07636 1.2366225,12.81439 1.3128027,11.090102 1.3768594,9.6401599 1.8951591,8.4751738 3.154498,6.9504794 3.8130533,6.1531683 4.0850407,5.7456242 4.2412077,5.3221579 4.5488044,4.4880828 4.6532376,4.2631732 4.91666,3.8675275 5.3517484,3.214043 6.1919663,2.5962821 6.8461096,2.4489119 7.1682645,2.3763028 7.206853,2.3222703 7.0744061,2.1290309 6.8912446,1.8618078 6.5755152,1.6188521 6.1177859,1.3929021 5.8802217,1.2756348 5.6559747,1.1796907 5.6194645,1.1796907 c -0.036508,0 -0.096185,-0.027042 -0.1326027,-0.05999 C 5.4350794,1.0728295 5.4601389,0.97311941 5.6017613,0.66259177 5.701375,0.4441822 5.8031343,0.24825894 5.8278886,0.22720483 5.853515,0.20546779 6.0506989,0.25865396 6.2857176,0.35082236 7.399463,0.78759112 8.0460194,1.2903964 8.3634632,1.9666264 l 0.1522907,0.3244171 0.3637985,0.096345 c 0.753431,0.1994509 1.2733676,0.4796422 1.7210876,0.9274766 0.415556,0.4156655 0.633009,0.7808766 1.129193,1.8965051 0.410079,0.9220292 0.447287,1.0311333 0.343906,1.0085401 -0.06376,-0.013929 -0.399612,-0.057388 -0.746345,-0.096647 L 10.696972,6.051956 10.525258,5.6249829 C 10.430813,5.3901511 10.298638,5.0544951 10.231527,4.8791015 9.9664094,4.1861766 9.3958654,3.6110619 8.7308802,3.3664332 8.0035384,3.0988589 7.1791483,3.2528029 6.5341656,3.7766206 6.1262587,4.1078989 5.8331292,4.5712761 5.5751107,5.2926838 5.3088749,6.0370642 5.1038187,6.3950923 4.5604831,7.0642203 3.5034119,8.3660206 3.2733063,8.7101702 2.9501981,9.472566 2.6953968,10.073793 2.584543,10.635278 2.5852494,11.32109 c 0.00162,1.545257 0.5719549,2.627656 1.7592863,3.338638 0.4527828,0.271127 1.4780337,0.650909 2.0712453,0.767234 0.2488255,0.04877 0.7196179,0.09925 1.0462023,0.112189 0.3954968,0.01562 0.7259825,0.05618 0.9896491,0.121503 0.716613,0.177437 1.321539,0.238879 2.2048896,0.223948 0.805509,-0.01363 0.810707,-0.01312 0.648343,0.06409 -0.235566,0.111959 -1.189731,0.362248 -1.7504806,0.459172 -0.55553,0.09605 -1.9119085,0.13897 -2.4882605,0.07882 z M 10.374391,6.5197465 c -8.4716525,-21.5092445 -4.2358256,-10.7546221 0,0 z"
       id="path23086"
       sodipodi:nodetypes="cssssscssscsccsccsssccccssssscscccccccccc" />
    <g
       id="g51087"
       transform="matrix(0.79246258,0,0,0.87288555,-5.6144701,-0.73043665)">
      <path
         style="fill:#b9b9b9;fill-opacity:1;stroke-width:0.00947127"
         d="m 18.722714,17.902332 c -0.906745,-0.01298 -1.85742,-0.08691 -2.518424,-0.195856 -0.799533,-0.131782 -1.315002,-0.340064 -1.444846,-0.583811 -0.125704,-0.235977 0.02426,-0.478285 0.393138,-0.635232 l 0.07666,-0.03262 -0.03473,-0.04865 c -0.139894,-0.195928 -0.24386,-0.457138 -0.298887,-0.750943 -0.05008,-0.267408 -0.05788,-0.623948 -0.02053,-0.938138 0.127003,-1.068156 0.668,-2.257838 1.420721,-3.124238 0.253987,-0.292346 0.512857,-0.531934 0.797745,-0.738327 l 0.106935,-0.07747 -0.16197,-0.0026 c -0.393837,-0.0064 -0.863059,0.06214 -1.268714,0.185423 -0.204873,0.06226 -0.327049,0.107633 -0.546955,0.203115 -0.106032,0.04604 -0.211848,0.08617 -0.235148,0.08919 -0.132572,0.01715 -0.257143,-0.08383 -0.2574,-0.208664 -2.09e-4,-0.1083 0.04395,-0.151037 0.253633,-0.245391 0.599999,-0.269986 1.226068,-0.418311 1.872603,-0.443648 l 0.160099,-0.0063 -0.08505,-0.02112 c -0.174677,-0.04337 -0.301885,-0.05787 -0.565354,-0.06444 -0.227767,-0.0057 -0.25374,-0.0079 -0.290182,-0.02522 -0.08392,-0.0398 -0.125225,-0.102136 -0.124859,-0.188428 2.71e-4,-0.06592 0.02508,-0.1153484 0.07839,-0.1562334 0.0608,-0.04662 0.09518,-0.05249 0.307849,-0.05249 0.466371,0 0.883286,0.09252 1.232051,0.2734054 0.0344,0.01784 0.06254,0.03057 0.06254,0.02829 0,-0.0023 -0.02076,-0.06202 -0.04614,-0.13275 -0.131261,-0.3658164 -0.279626,-0.6218424 -0.462683,-0.7984324 -0.08836,-0.08524 -0.107818,-0.112874 -0.117443,-0.166813 -0.01695,-0.09496 0.03053,-0.161112 0.206831,-0.288163 0.212935,-0.153452 0.394321,-0.236247 0.614475,-0.28048 0.148551,-0.02985 0.390986,-0.02771 0.565443,0.005 0.144391,0.02706 0.336321,0.08023 0.498104,0.137992 l 0.112861,0.04029 0.163544,-0.05435 c 0.692705,-0.230208 1.193549,-0.236868 1.57577,-0.02095 0.258786,0.146187 0.444381,0.372565 0.629955,0.768389 0.0681,0.145254 0.20844,0.485986 0.216996,0.526847 0.01694,0.0809 -0.03994,0.1774424 -0.127596,0.2165774 -0.06849,0.03058 -0.110582,0.02944 -0.270656,-0.0073 -0.389238,-0.08936 -0.498323,-0.06385 -0.682105,0.159515 -0.108943,0.132404 -0.306881,0.402081 -0.302347,0.411929 0.0026,0.0056 0.05087,0.05868 0.107275,0.117843 1.102036,1.156078 1.791293,2.058304 2.207508,2.889593 0.306621,0.612404 0.437858,1.149254 0.404406,1.654303 -0.02681,0.404781 -0.116444,0.724453 -0.277672,0.990299 -0.02489,0.04104 -0.04371,0.07553 -0.04183,0.07665 0.0019,0.0012 0.04395,0.01548 0.09349,0.03192 0.247842,0.08226 0.435648,0.191125 0.532003,0.308389 0.09236,0.112401 0.110047,0.266967 0.04426,0.386695 -0.144495,0.262965 -0.639185,0.46016 -1.506845,0.600668 -0.77545,0.125574 -2.014728,0.20154 -3.046911,0.186771 z m 0.765481,-0.424141 c 0.916544,-0.02149 1.637945,-0.08325 2.300204,-0.196926 0.479424,-0.0823 0.870014,-0.195265 1.013036,-0.293 l 0.03646,-0.02492 -0.03527,-0.02732 c -0.09633,-0.0746 -0.344779,-0.158546 -0.742821,-0.250976 -0.143089,-0.03323 -0.262085,-0.06203 -0.264435,-0.06401 -0.0024,-0.002 0.0028,-0.0086 0.01141,-0.01471 0.03632,-0.02574 0.294276,-0.303911 0.344925,-0.371962 0.155562,-0.209013 0.255904,-0.476818 0.294745,-0.786648 0.01878,-0.149782 0.01608,-0.461927 -0.0051,-0.591679 -0.0887,-0.543218 -0.336477,-1.096093 -0.801429,-1.788307 -0.395143,-0.588284 -0.929635,-1.227575 -1.71467,-2.050874 l -0.164552,-0.172574 h -0.895895 -0.895896 l -0.09589,0.04558 c -0.128634,0.06114 -0.351224,0.19484 -0.486136,0.29199 -0.239051,0.17214 -0.547991,0.464727 -0.765268,0.72476 -0.601313,0.719643 -1.044826,1.630214 -1.224804,2.51463 -0.05823,0.286174 -0.0807,0.531546 -0.07306,0.797869 0.01027,0.357583 0.07335,0.621829 0.204375,0.856139 0.0891,0.159332 0.159215,0.242847 0.374052,0.445542 0.07777,0.07337 0.139698,0.134468 0.137625,0.135765 -0.0021,0.0013 -0.102832,0.02971 -0.223908,0.06313 -0.121075,0.03343 -0.262915,0.07495 -0.315197,0.09229 -0.09708,0.03219 -0.235261,0.09552 -0.280176,0.128404 l -0.02502,0.01832 0.03502,0.02729 c 0.07308,0.05694 0.263762,0.127286 0.520326,0.191959 0.870189,0.219354 2.297297,0.334001 3.737345,0.300241 z M 18.60264,15.659425 v -0.178263 l -0.05754,-0.0061 c -0.17437,-0.01856 -0.350467,-0.06287 -0.499039,-0.125543 -0.278216,-0.117372 -0.486593,-0.327462 -0.592191,-0.597056 -0.04148,-0.105908 -0.08561,-0.29364 -0.0695,-0.295642 0.03534,-0.0044 0.723744,-0.05975 0.725532,-0.05835 0.0014,0.0011 0.01172,0.03393 0.0229,0.07292 0.01118,0.039 0.04322,0.112561 0.07121,0.163476 0.07661,0.139389 0.189257,0.233055 0.346091,0.28777 l 0.05253,0.01833 -3.8e-5,-0.423458 -2.9e-5,-0.423456 -0.107534,-0.02579 c -0.230327,-0.05525 -0.44913,-0.136582 -0.577575,-0.214684 -0.12873,-0.07828 -0.261842,-0.217372 -0.325982,-0.34064 -0.0532,-0.102244 -0.06454,-0.157876 -0.06427,-0.315362 2.46e-4,-0.137277 0.0016,-0.146794 0.03123,-0.221631 0.131246,-0.331193 0.459581,-0.539305 0.949136,-0.601598 l 0.09006,-0.01146 0.0027,-0.176575 0.0027,-0.176574 h 0.28997 0.28997 v 0.177205 0.177206 l 0.116635,0.01612 c 0.21172,0.02926 0.413847,0.09524 0.563792,0.18404 0.133916,0.07931 0.282027,0.235452 0.345713,0.364467 0.03652,0.07398 0.07202,0.198624 0.08004,0.281047 l 0.0068,0.07018 -0.158758,0.0057 c -0.08732,0.0032 -0.257913,0.0084 -0.379102,0.01161 l -0.220342,0.0059 -0.01219,-0.05286 c -0.01554,-0.06736 -0.06819,-0.165567 -0.119635,-0.223118 -0.03913,-0.04378 -0.110082,-0.08826 -0.185473,-0.116283 l -0.03752,-0.01395 v 0.33946 0.339459 l 0.146057,0.03348 c 0.193418,0.04434 0.39331,0.103833 0.496551,0.147777 0.394752,0.168026 0.592296,0.451485 0.575258,0.825446 -0.006,0.132146 -0.02986,0.222744 -0.08658,0.329059 -0.1776,0.332863 -0.522787,0.516721 -1.073745,0.571913 l -0.05754,0.0058 v 0.174169 0.174169 H 18.89275 18.602568 Z m 0.705441,-0.734136 c 0.135205,-0.04311 0.24916,-0.127565 0.301867,-0.223731 0.02538,-0.0463 0.02834,-0.06107 0.02834,-0.141355 0,-0.08135 -0.0025,-0.09348 -0.02714,-0.131002 -0.05269,-0.08029 -0.144933,-0.132273 -0.325586,-0.18346 l -0.102558,-0.02906 v 0.371399 0.371398 l 0.02752,-0.0059 c 0.01514,-0.0033 0.05904,-0.01598 0.09756,-0.02826 z M 18.60264,13.165177 V 12.88627 l -0.03752,0.0062 c -0.0593,0.0099 -0.177827,0.05712 -0.222287,0.08864 -0.06982,0.0495 -0.09442,0.09048 -0.09877,0.164524 -0.0046,0.07761 0.01745,0.126993 0.07869,0.176559 0.05081,0.04113 0.220616,0.116685 0.272382,0.121203 0.0041,3.52e-4 0.0075,-0.124853 0.0075,-0.278252 z m 1.320729,-2.897233 c 0.387239,-0.5196544 0.558764,-0.6370824 0.931966,-0.6380394 0.132185,-3.51e-4 0.136131,-8.78e-4 0.128673,-0.01828 -0.147392,-0.34351 -0.308089,-0.564508 -0.485978,-0.668345 -0.264732,-0.154528 -0.676551,-0.122984 -1.290126,0.09882 -0.19401,0.07013 -0.211549,0.0705 -0.37769,0.0079 -0.531189,-0.200176 -0.821345,-0.22636 -1.103124,-0.09955 -0.03852,0.01734 -0.08953,0.0435 -0.113355,0.05815 l -0.04331,0.02663 0.01978,0.01926 c 0.03784,0.03684 0.150221,0.20034 0.205175,0.29851 0.146897,0.26242 0.247115,0.523169 0.396586,1.0318504 l 0.01119,0.0381 0.802619,-3.52e-4 0.802618,-3.51e-4 0.114973,-0.154288 z"
         id="path46389"
         sodipodi:nodetypes="sssscssssscssssssscssscssssssssssscssssssssssssscssssssscssscssssscccssssssssssscsssccsssssssscccssscsscccccccsssscsscssscccsssssccccccssssscccssscsssssssscssssscsssccccs" />
      <path
         style="fill:#ec6823;fill-opacity:1;stroke-width:0.0159112"
         d="m 18.40952,17.888134 c -0.267733,-0.0073 -0.811315,-0.03818 -1.118717,-0.06348 -1.620415,-0.133353 -2.505887,-0.419597 -2.564431,-0.828994 -0.02319,-0.162171 0.114737,-0.339945 0.360814,-0.465048 0.0754,-0.03833 0.139473,-0.0718 0.142375,-0.07436 0.0029,-0.0026 -0.02236,-0.04739 -0.05614,-0.09961 -0.129796,-0.200653 -0.223367,-0.45021 -0.276918,-0.738546 -0.02279,-0.122738 -0.02852,-0.227328 -0.02767,-0.505104 0.0013,-0.401241 0.03283,-0.632803 0.1445,-1.059124 0.333186,-1.272009 1.137635,-2.50477 2.078868,-3.185714 0.06169,-0.04463 0.112377,-0.0878 0.112648,-0.09593 7.07e-4,-0.02101 -0.515883,9.84e-4 -0.739382,0.03149 -0.409261,0.05584 -0.780054,0.158309 -1.196485,0.33064 -0.129238,0.05348 -0.256497,0.102197 -0.282797,0.108254 -0.06791,0.01564 -0.179807,-0.03947 -0.219793,-0.108243 -0.09738,-0.1675 0.02029,-0.26558 0.558129,-0.465202 0.467175,-0.173394 0.955952,-0.272133 1.5216,-0.30738 0.09726,-0.0061 0.167176,-0.01644 0.155377,-0.02306 -0.05415,-0.03041 -0.337286,-0.06825 -0.605125,-0.08088 -0.255588,-0.01205 -0.300763,-0.01825 -0.345815,-0.04745 -0.130586,-0.08463 -0.113471,-0.2747524 0.03041,-0.3377944 0.03435,-0.01505 0.115758,-0.02247 0.246608,-0.02247 0.434993,0 0.80286,0.07377 1.152854,0.2312034 0.08037,0.03615 0.149383,0.06232 0.153356,0.05816 0.0088,-0.0093 -0.113115,-0.3301244 -0.172109,-0.4528374 -0.07974,-0.165864 -0.181287,-0.314599 -0.31228,-0.45739 -0.126062,-0.137416 -0.139362,-0.162887 -0.130978,-0.250847 0.01067,-0.111965 0.411335,-0.382097 0.694201,-0.468038 0.106076,-0.03223 0.156482,-0.037 0.386144,-0.03652 0.289347,5.97e-4 0.359452,0.01341 0.726388,0.132777 l 0.182569,0.05939 0.182568,-0.05971 c 0.524945,-0.171693 0.942827,-0.212654 1.271162,-0.1246 0.474997,0.127386 0.754142,0.457408 1.070619,1.265749 0.06472,0.165297 0.06464,0.199029 -6.28e-4,0.2803494 -0.06793,0.08466 -0.131524,0.09369 -0.343688,0.04881 -0.102945,-0.02178 -0.238004,-0.03875 -0.307756,-0.03868 -0.197056,2.08e-4 -0.25939,0.04638 -0.51302,0.380005 -0.0705,0.09274 -0.136961,0.18581 -0.147683,0.206819 -0.01856,0.03637 -0.0024,0.05673 0.337694,0.426099 0.412667,0.448151 0.505149,0.552984 0.768956,0.871657 0.944402,1.140814 1.465916,2.106283 1.573117,2.912283 0.06891,0.518082 -0.0251,1.066959 -0.24891,1.453318 -0.03113,0.05373 -0.05409,0.09968 -0.05103,0.102118 0.0031,0.0024 0.0615,0.02471 0.129865,0.04949 0.409335,0.148406 0.606536,0.339614 0.575327,0.557847 -0.05419,0.378949 -0.817586,0.653114 -2.214558,0.795334 -0.80017,0.08146 -1.837641,0.118321 -2.680259,0.09523 z m 1.406164,-0.412886 c 0.965771,-0.03871 1.758629,-0.127303 2.353648,-0.263004 0.344333,-0.07853 0.66209,-0.197601 0.666933,-0.249919 0.0029,-0.03078 -0.188711,-0.121743 -0.37318,-0.177203 -0.101569,-0.03054 -0.286054,-0.07978 -0.409967,-0.109439 -0.123914,-0.02965 -0.228309,-0.05621 -0.231991,-0.05902 -0.0037,-0.0028 0.07032,-0.08749 0.164441,-0.188182 0.09412,-0.100691 0.192335,-0.216069 0.218247,-0.256396 0.110284,-0.171636 0.189202,-0.381822 0.232041,-0.618003 0.035,-0.192944 0.03411,-0.598154 -0.0017,-0.783255 -0.120535,-0.622862 -0.510763,-1.373415 -1.143642,-2.199649 -0.325045,-0.424351 -0.559906,-0.697821 -1.136955,-1.323863 L 19.78185,10.844046 h -0.914055 c -1.039101,0 -0.927494,-0.01397 -1.204079,0.150716 -0.318896,0.189878 -0.50605,0.340585 -0.81367,0.655211 -1.089159,1.113967 -1.745288,2.922892 -1.471186,4.05601 0.0723,0.298868 0.188309,0.492769 0.451907,0.755311 l 0.190831,0.190065 -0.293963,0.08584 c -0.274682,0.08021 -0.509243,0.174272 -0.532357,0.213491 -0.02437,0.04134 0.19383,0.137601 0.489129,0.21578 0.940654,0.249032 2.574756,0.371172 4.131284,0.308787 z m 0.155202,-7.252591 c 0.185522,-0.2430734 0.362804,-0.4254454 0.476546,-0.4902284 0.106644,-0.06074 0.251225,-0.09359 0.413165,-0.09388 0.07478,-1.33e-4 0.135955,-0.003 0.135955,-0.0063 0,-0.0205 -0.07728,-0.182691 -0.140284,-0.294434 -0.273661,-0.485324 -0.61256,-0.59464 -1.289188,-0.415842 -0.09828,0.02597 -0.251725,0.07313 -0.340998,0.104792 -0.08927,0.03167 -0.187452,0.05757 -0.218175,0.05757 -0.03073,0 -0.149121,-0.0328 -0.263105,-0.07289 -0.497388,-0.174942 -0.79917,-0.185581 -1.079851,-0.03807 -0.05196,0.02731 -0.09679,0.05182 -0.09961,0.05447 -0.0028,0.0026 0.02549,0.04427 0.06294,0.09248 0.177698,0.22878 0.32327,0.53627 0.470102,0.9929864 0.05574,0.17339 0.101359,0.317088 0.101367,0.319329 8e-6,0.0022 0.36185,0.004 0.804093,0.0038 l 0.804078,-2.59e-4 0.16297,-0.213526 z"
         id="path50926" />
      <path
         style="fill:#ec6823;fill-opacity:1;stroke-width:0.0159112"
         d="m 18.603741,15.651855 v -0.178058 l -0.08934,-0.01074 c -0.268557,-0.03229 -0.599227,-0.163269 -0.753205,-0.298357 -0.112242,-0.09847 -0.210348,-0.22715 -0.269242,-0.353141 -0.05163,-0.110456 -0.114482,-0.324683 -0.09967,-0.339716 0.0072,-0.0073 0.597065,-0.05962 0.669099,-0.05933 0.03175,1.36e-4 0.04641,0.02085 0.0973,0.137568 0.07626,0.174891 0.165626,0.272711 0.315854,0.345722 0.0614,0.02984 0.115584,0.05425 0.120417,0.05425 0.0048,0 0.0088,-0.19402 0.0088,-0.431155 v -0.431156 l -0.06603,-0.01696 c -0.296365,-0.07609 -0.532211,-0.16737 -0.657125,-0.254317 -0.112983,-0.07864 -0.243301,-0.229742 -0.296941,-0.344295 -0.04009,-0.08562 -0.04423,-0.110484 -0.04423,-0.265548 0,-0.15594 0.004,-0.179737 0.04542,-0.268846 0.05873,-0.126393 0.232708,-0.308919 0.362518,-0.380321 0.140656,-0.07737 0.295543,-0.128585 0.487689,-0.161268 l 0.168668,-0.02869 1.8e-5,-0.175157 1.9e-5,-0.175157 h 0.287448 0.287448 v 0.17763 0.177631 l 0.09711,0.01155 c 0.157835,0.01877 0.383119,0.08637 0.522013,0.156619 0.15272,0.07725 0.332045,0.250232 0.394825,0.380869 0.04654,0.09683 0.08923,0.241301 0.08923,0.301933 0,0.0434 -2.28e-4,0.04348 -0.151493,0.05399 -0.08332,0.0058 -0.249487,0.01056 -0.369258,0.0106 l -0.217766,8.7e-5 -0.02658,-0.07849 c -0.05164,-0.152457 -0.16742,-0.272051 -0.29535,-0.305068 l -0.04273,-0.01103 v 0.342836 c 0,0.31251 0.0024,0.343564 0.02719,0.351072 0.01496,0.0045 0.104102,0.02719 0.198105,0.05037 0.476616,0.117487 0.734906,0.263929 0.878023,0.497807 0.145262,0.237387 0.14539,0.576631 2.93e-4,0.813726 -0.114794,0.187596 -0.34494,0.357707 -0.59088,0.436747 -0.101128,0.0325 -0.348404,0.08154 -0.450594,0.08936 l -0.05438,0.0042 -0.0044,0.175158 -0.0044,0.175157 h -0.286923 -0.286922 z m 0.75358,-0.736603 c 0.109384,-0.04342 0.219047,-0.132881 0.255994,-0.208825 0.02031,-0.04174 0.03145,-0.09645 0.03145,-0.154353 0,-0.07741 -0.0067,-0.09772 -0.04903,-0.148252 -0.02697,-0.03221 -0.07416,-0.07196 -0.10488,-0.08835 -0.0609,-0.03249 -0.255767,-0.09864 -0.290556,-0.09864 -0.01791,0 -0.02167,0.06527 -0.02167,0.376049 v 0.376049 l 0.0505,-0.01142 c 0.02778,-0.0063 0.08546,-0.0253 0.128187,-0.04226 z m -0.75358,-1.751394 v -0.287177 l -0.04313,0.009 c -0.09341,0.01959 -0.217531,0.07898 -0.263433,0.126038 -0.09491,0.09731 -0.0766,0.25311 0.03852,0.327716 0.06229,0.04037 0.219322,0.110583 0.248625,0.111166 0.01482,2.94e-4 0.01942,-0.0677 0.01942,-0.286789 z"
         id="path50965" />
    </g>
  </g>
</svg>
