<?xml version="1.0" encoding="UTF-8" standalone="no"?>
<!-- Created with Inkscape (http://www.inkscape.org/) -->

<svg
   version="1.1"
   id="svg23072"
   width="64"
   height="64"
   viewBox="0 0 64 64"
   sodipodi:docname="GAP-color.svg"
   inkscape:version="1.1 (c68e22c387, 2021-05-23)"
   xmlns:inkscape="http://www.inkscape.org/namespaces/inkscape"
   xmlns:sodipodi="http://sodipodi.sourceforge.net/DTD/sodipodi-0.dtd"
   xmlns="http://www.w3.org/2000/svg"
   xmlns:svg="http://www.w3.org/2000/svg">
  <defs
     id="defs23076" />
  <sodipodi:namedview
     id="namedview23074"
     pagecolor="#ffffff"
     bordercolor="#666666"
     borderopacity="1.0"
     inkscape:pageshadow="2"
     inkscape:pageopacity="0.0"
     inkscape:pagecheckerboard="0"
     showgrid="false"
     inkscape:zoom="6.5"
     inkscape:cx="32.230769"
     inkscape:cy="36.230769"
     inkscape:window-width="1920"
     inkscape:window-height="1017"
     inkscape:window-x="-8"
     inkscape:window-y="-8"
     inkscape:window-maximized="1"
     inkscape:current-layer="g23078" />
  <g
     inkscape:groupmode="layer"
     inkscape:label="Image"
     id="g23078">
    <g
       id="g23082"
       transform="matrix(0.17324003,0,0,0.16046889,-10.299399,-7.9808635)"
       style="fill:#ec6823;fill-opacity:1">
      <path
         style="fill:#ec6823;fill-opacity:1"
         d="M 208.5,438.92173 C 167.62938,433.27836 136.52947,412.28795 120.45928,379.5 110.95856,360.11572 107.35191,340.11747 108.26,311.85712 c 1.1359,-35.34985 9.77005,-60.86736 33.47429,-98.93046 13.54344,-21.74738 16.29602,-27.91269 21.18514,-47.45108 4.28513,-17.1247 12.58108,-32.7048 22.74817,-42.72197 7.04022,-6.93639 11.53191,-10.06266 19.92599,-13.86872 6.1579,-2.79212 6.3258,-2.96671 5.34191,-5.55454 -2.97207,-7.817124 -12.88841,-17.256457 -23.98716,-22.8333 -2.99659,-1.505708 -5.65512,-2.927794 -5.90785,-3.160192 -0.94343,-0.867532 6.49074,-21.299112 7.75661,-21.317755 2.0601,-0.03034 16.16609,7.943716 22.29476,12.603128 11.68124,8.880829 20.17475,20.608232 22.97255,31.719289 1.08864,4.32337 1.42713,4.65884 6.29306,6.23694 12.95059,4.20008 25.55962,13.09155 33.06566,23.31682 6.13325,8.35516 11.51419,20.47214 19.06594,42.93334 4.00741,11.91926 7.63545,22.52542 8.0623,23.56926 0.6857,1.6768 0.4367,1.82345 -2.13764,1.25895 -1.60255,-0.35141 -7.74181,-1.40064 -13.6428,-2.33162 l -10.72907,-1.6927 -2.47692,-7.56625 c -1.3623,-4.16144 -3.4278,-11.39126 -4.58998,-16.06626 -3.09885,-12.46544 -8.00087,-21.92993 -15.4461,-29.82226 -6.99267,-7.4126 -12.42021,-10.62042 -20.82552,-12.30845 -10.53838,-2.11641 -23.87834,4.08547 -32.64605,15.17745 -5.65594,7.15529 -9.33337,15.43597 -13.52425,30.45326 -6.25231,22.40405 -9.14521,28.77618 -23.71056,52.2267 -23.79089,38.30384 -32.53878,68.74343 -29.72852,103.44481 1.5952,19.6976 6.7212,36.69929 14.78426,49.03575 14.34339,21.94533 41.52436,36.36056 73.12178,38.77961 7.29312,0.55835 14.58257,1.82594 19.92658,3.4651 12.23032,3.75141 20.60694,4.78249 35.69165,4.39331 7.36057,-0.18991 13.38262,-0.24036 13.38232,-0.11213 -10e-4,0.62349 -10.33516,5.32022 -17.00055,7.72685 -13.35352,4.82149 -23.32657,6.57053 -40,7.01505 -8.525,0.22728 -18.65,-0.0217 -22.5,-0.55332 z m 41.65599,-25.4576 c -11.35677,-2.46482 -16.82853,-4.39012 -26.82317,-9.43804 -22.66433,-11.44693 -39.69055,-29.41476 -49.55501,-52.29558 -3.28293,-7.61482 -7.79794,-22.8979 -7.74916,-26.23051 0.008,-0.55 1.4674,-1.675 3.24299,-2.5 1.86356,-0.86587 3.82618,-2.85785 4.64246,-4.71191 1.06862,-2.4272 2.51695,-3.58769 5.92814,-4.75 2.48272,-0.84595 5.09072,-1.53809 5.79556,-1.53809 0.70484,0 5.23718,3.00286 10.07186,6.67301 8.41829,6.39058 13.71667,9.18835 17.58018,9.2831 0.98441,0.0241 3.50749,0.92017 5.60685,1.99118 4.60088,2.3472 6.53725,6.38957 6.73147,14.05271 0.0767,3.025 0.47185,7.60764 0.87819,10.18364 0.62046,3.93345 0.3744,5.27325 -1.53624,8.36473 -1.25128,2.0246 -3.732,4.28985 -5.51272,5.03388 -3.09896,1.29483 -3.30955,1.7439 -4.91532,10.48162 -1.58152,8.60574 -1.57905,9.23779 0.0431,11.0302 2.83544,3.13312 23.30463,12.68202 32.41487,15.12156 12.48697,3.34377 34.89016,3.29036 47,-0.11203 13.03817,-3.66323 13.41652,-3.67961 14.80107,-0.64085 C 309.46048,404.91 310,406.4906 310,406.9752 c 0,1.28324 -9.51067,4.63625 -18.30017,6.45177 -9.47687,1.9575 -32.60045,1.97819 -41.54384,0.0372 z m -43.1609,-40.9354 c 1.4779,-8.6399 2.19102,-9.89073 7.00491,-12.2867 3.0915,-1.53871 3.47466,-2.15053 3.2829,-5.24203 -0.11941,-1.925 -0.27508,-6.2 -0.34595,-9.5 -0.0709,-3.3 -0.57906,-6.54839 -1.12932,-7.21865 -0.55026,-0.67025 -3.70232,-1.7502 -7.00458,-2.39988 -4.83295,-0.95082 -7.68478,-2.41987 -14.62046,-7.53135 -8.87994,-6.54436 -10.65701,-7.1265 -16.03337,-5.25229 -3.8467,1.34096 -3.8826,2.1477 -0.59971,13.47626 4.21749,14.55369 11.27455,27.26359 21.47788,38.68209 2.82898,3.1659 5.48902,5.54269 5.91121,5.28177 0.42219,-0.26093 1.34761,-3.86508 2.05649,-8.00922 z M 318.2,400.8 c -0.66,-0.66 -1.2,-1.92 -1.2,-2.8 0,-3.95767 6.1049,-5.54102 7.96482,-2.06574 1.33879,2.50156 1.32284,2.63522 -0.53625,4.49431 -1.87152,1.87152 -4.5677,2.0323 -6.22857,0.37143 z m 14.51242,-10.95285 -1.78759,-3.1402 8.36109,-8.60348 c 9.79146,-10.0753 13.36404,-15.09358 18.75471,-26.34406 6.67833,-13.93786 11.44653,-38.01864 9.54015,-48.18052 l -0.67842,-3.6163 -2.55904,3.04125 c -6.6533,7.90699 -8.56229,6.70612 -14.31308,-9.00384 -1.94062,-5.30137 -7.04738,-12 -9.14831,-12 -0.5732,0 -0.73002,0.90328 -0.3595,2.07069 0.91543,2.88426 -5.93167,9.03386 -15.10818,13.56914 -10.85878,5.3667 -11.71043,5.0171 -18.6113,-7.63983 -3.14867,-5.775 -5.74243,-11.45181 -5.7639,-12.61514 -0.0631,-3.41933 -4.00732,-7.48088 -9.71672,-10.00585 C 286.95817,265.44897 286,264.57921 286,262.54779 c 0,-3.64498 3.04911,-4.91297 8.14371,-3.38659 5.43357,1.62794 14.85629,10.1659 14.85629,13.46134 0,2.44728 7.20172,17.76606 8.82344,18.76834 0.48244,0.29816 3.30703,-0.9118 6.27686,-2.6888 5.19958,-3.11117 5.3997,-3.39084 5.3997,-7.54617 0,-5.74434 2.01766,-7.15591 10.22843,-7.15591 6.2031,0 6.4444,0.10106 10.70252,4.48234 2.39598,2.46529 5.19169,6.5136 6.21269,8.99625 1.8132,4.40897 3.35636,5.86939 3.35636,3.1764 0,-0.73976 0.9,-2.1595 2,-3.15499 2.67513,-2.42096 2.53907,-4.08693 -1.07997,-13.22397 -12.87421,-32.50369 -41.11756,-54.74979 -77.10081,-60.72906 -3.6011,-0.59838 -3.80665,-0.45399 -9.49576,6.6707 -3.19823,4.00528 -6.49188,7.73233 -7.31922,8.28233 -0.82733,0.55 -7.33962,3.07574 -14.47176,5.61275 l -12.96752,4.61276 -2.78248,6.78924 C 235.25212,249.24883 234,252.71561 234,253.21871 c 0,0.50311 1.19296,2.47879 2.65103,4.39041 l 2.65102,3.47568 2.59898,-2.42824 c 4.29266,-4.01066 8.78815,-5.78922 13.79871,-5.45922 8.26198,0.54415 8.63645,6.59242 0.49422,7.9824 -5.13084,0.87591 -7.84802,2.30535 -9.20623,4.84318 -1.00697,1.88154 -0.72129,1.97708 5.91199,1.97708 8.82341,0 11.8561,1.12605 12.69747,4.71463 0.35918,1.53195 1.60541,3.54427 2.76941,4.47182 1.96078,1.56247 2.2493,1.56615 3.92462,0.05 2.28517,-2.06805 6.63768,-2.01197 13.95037,0.17974 7.62573,2.28554 10.62726,5.54204 15.13752,16.42341 4.70837,11.35931 6.68122,13.90621 11.41422,14.73546 7.24507,1.26937 10.17292,4.75331 8.24844,9.81509 -0.55505,1.45987 -3.88716,5.71863 -7.40471,9.46392 -7.13824,7.60039 -8.15088,9.66427 -6.66253,13.57895 1.65082,4.34196 1.19694,8.03436 -1.43439,11.6691 -1.35292,1.86883 -3.43977,5.19788 -4.63745,7.39788 -1.19767,2.2 -3.01574,5.07319 -4.04014,6.38486 -1.0244,1.31167 -1.86255,3.23423 -1.86255,4.27234 0,2.51243 -7.22529,10.2473 -11.44082,12.2477 -8.973,4.25796 -12.94161,1.14185 -19.4486,-15.27088 -4.16586,-10.50764 -4.35433,-11.41691 -3.7005,-17.85277 0.98345,-9.68042 0.97765,-9.72697 -1.73617,-13.94947 -1.35449,-2.10748 -2.76393,-5.56358 -3.13209,-7.68022 l -0.66938,-3.84843 -7.77148,0.68793 c -9.44601,0.83617 -14.56038,-0.48052 -20.02063,-5.15429 -5.4222,-4.64121 -8.08555,-10.55811 -8.05837,-17.90249 0.0279,-7.54787 1.95692,-11.69567 10.3593,-22.27515 3.77956,-4.75886 6.32553,-8.83866 5.9284,-9.5 -0.38282,-0.63752 -2.85911,-4.14699 -5.50285,-7.79882 C 227.16306,259.20848 225,255.11401 225,253.7615 c 0,-2.54439 7.02064,-20.24125 8.60438,-21.68895 0.49259,-0.45029 7.07815,-2.96091 14.63458,-5.57916 12.8229,-4.44305 13.98647,-5.06251 17.45111,-9.29065 l 3.71215,-4.53019 -7.95111,0.61822 c -14.30132,1.11197 -30.53808,6.78721 -43.6087,15.24255 -7.06443,4.56996 -7.17688,4.70775 -5.15717,6.31925 5.09169,4.06261 7.88311,12.22235 6.26212,18.30511 -0.5361,2.01172 -2.78866,5.83672 -5.00569,8.5 -2.21703,2.66327 -6.25097,8.70343 -8.96433,13.42257 -5.15209,8.96067 -7.85232,12.36295 -11.89182,14.98364 l -2.41056,1.56388 2.66252,3.91825 c 3.17998,4.67976 3.40131,7.98823 0.63348,9.46952 -1.11598,0.59726 -5.82082,1.35351 -10.45521,1.68056 -8.37728,0.59119 -8.43313,0.57934 -9.62817,-2.04348 -0.6611,-1.45097 -2.87078,-3.42888 -4.91039,-4.39537 -3.52458,-1.67016 -3.68504,-1.9555 -3.23752,-5.75725 1.5576,-13.23217 8.57524,-31.56798 16.91565,-44.19754 2.10754,-3.19135 7.34623,-9.47532 11.64154,-13.96438 23.54518,-24.60722 56.37839,-35.97939 90.26881,-31.26566 46.72127,6.49833 83.05137,41.88912 90.45759,88.11881 1.98739,12.40526 0.81979,34.30443 -2.40359,45.08112 -3.20031,10.69957 -10.75025,25.97754 -17.16142,34.72765 -5.11735,6.98427 -18.04822,20.00406 -19.85712,19.99368 -0.60562,-0.003 -1.90554,-1.41942 -2.88871,-3.14653 z M 282.4337,373.87349 c 1.48688,-1.16958 3.79586,-4.43208 5.13106,-7.25 3.58482,-7.56569 7.23831,-13.78497 9.53249,-16.22701 1.7663,-1.88014 1.94011,-2.94405 1.34309,-8.22104 -0.37718,-3.33378 -0.37913,-7.2832 -0.004,-8.77649 0.37479,-1.49328 3.61244,-5.75106 7.19478,-9.46172 l 6.51335,-6.74666 -3.09602,-0.68 c -6.31477,-1.38696 -11.40243,-8.07398 -16.51878,-21.71161 -2.09201,-5.57627 -3.77918,-7.27019 -9.11701,-9.15348 -3.64282,-1.28526 -4.18964,-1.24422 -6.31114,0.47367 C 275.824,287.15362 273.58088,288 272.11679,288 c -3.89274,0 -15.05154,-6.89316 -15.76582,-9.73907 -0.5581,-2.22366 -0.87473,-2.3024 -6.71817,-1.67066 -7.13012,0.77083 -7.93654,1.36826 -15.64274,11.5887 -7.24733,9.61186 -8.22197,13.76649 -4.83235,20.59898 1.81001,3.64846 3.41498,5.25407 7.05926,7.06207 4.24927,2.10814 5.22028,2.232 9.79923,1.25 8.49072,-1.82094 10.82255,-1.4516 14.58413,2.30998 2.58642,2.58642 3.4,4.24732 3.4,6.94098 0,1.94754 0.45643,3.82308 1.01429,4.16785 1.83893,1.13652 4.98571,8.35509 4.98571,11.43698 0,1.66402 -0.52628,4.99319 -1.16951,7.39816 -1.08197,4.04537 -0.92024,5.00081 2.16075,12.76435 6.05676,15.26194 6.46431,15.68099 11.44246,11.76517 z m -98.93478,-75.87174 c 0.33932,-0.54903 -0.0841,-1.99916 -0.94099,-3.2225 -2.79053,-3.98405 -1.93868,-6.16264 4.30573,-11.01187 4.58078,-3.55729 7.02213,-6.57793 11.15863,-13.80633 2.91223,-5.08904 6.50759,-10.64965 7.98969,-12.35692 C 209.41635,253.68253 211,250.67855 211,248.14247 211,245.78181 206.38716,240 204.50378,240 c -1.93547,0 -10.11776,9.39183 -15.68184,18 -5.23921,8.10556 -9.72626,18.72703 -12.38842,29.32516 -1.81649,7.23149 -1.32901,8.95572 3.03176,10.72332 2.76515,1.12082 3.316,1.11444 4.03364,-0.0467 z m 130.17038,78.95276 c -3.76034,-2.95788 -4.80728,-7.75583 -3.0955,-14.18616 0.77136,-2.89759 1.4078,-6.53543 1.41433,-8.08409 0.0166,-3.94604 1.41416,-6.13405 5.43212,-8.5047 1.90955,-1.12667 4.62683,-3.87798 6.03838,-6.11402 1.86294,-2.9511 3.23867,-4.06554 5.01873,-4.06554 5.49329,0 6.77601,9.14002 3.08383,21.97382 -3.57494,12.42626 -6.22246,17.79965 -9.64107,19.56749 -3.75715,1.9429 -5.16184,1.843 -8.25082,-0.5868 z m 8.44023,-17.31626 c 1.00496,-3.31917 1.68085,-6.18121 1.50197,-6.36009 -0.17889,-0.17888 -1.02491,-0.0568 -1.88006,0.2714 -1.03613,0.3976 -1.70607,2.32366 -2.0082,5.77354 -0.24936,2.8473 -0.77006,6.3019 -1.15712,7.6769 -1.52855,5.4302 1.7033,-1.28427 3.54341,-7.36175 z M 271.71406,260.38073 C 271.32133,259.98799 271,258.40024 271,256.85239 c 0,-2.17179 0.57371,-2.95828 2.51299,-3.44501 3.28387,-0.82419 5.67078,1.21036 5.28757,4.50702 -0.24016,2.06599 -0.91068,2.64537 -3.3365,2.88299 -1.66977,0.16357 -3.35727,-0.0239 -3.75,-0.41666 z"
         id="path23088" />
      <path
         style="fill:#ec6823;fill-opacity:1"
         d="m 210,438.98057 c -30.59674,-4.24959 -52.99369,-14.92844 -71.60866,-34.14296 -21.83621,-22.5395 -31.47452,-52.218 -30.12741,-92.76898 1.13277,-34.0991 10.29782,-61.4967 32.56677,-97.35372 11.64522,-18.7509 16.45478,-28.33536 19.21628,-38.29415 5.43926,-19.61557 7.28595,-24.90474 11.94405,-34.20945 7.69368,-15.36838 22.55126,-29.89664 34.1185,-33.36227 5.69665,-1.70676 6.37904,-2.97838 4.03697,-7.52284 C 206.90766,95.04168 201.32459,89.327896 193.23058,84.014263 189.02969,81.256419 185.06436,79 184.41874,79 c -0.64562,0 -1.70079,-0.63492 -2.34482,-1.410933 -0.91566,-1.1033 -0.47266,-3.447172 2.03176,-10.75 1.7615,-5.136487 3.56088,-9.744109 3.99862,-10.23916 0.4531,-0.512422 3.93996,0.739691 8.09579,2.907153 19.69438,10.271545 31.12746,22.096385 36.74082,37.999756 l 2.69295,7.629474 6.43307,2.2649 c 13.32292,4.6906 22.51701,11.27996 30.43404,21.81194 7.34829,9.77539 11.19348,18.36432 19.96755,44.60116 7.25144,21.68376 7.90937,24.24982 6.08131,23.71849 -1.12741,-0.32769 -7.06635,-1.35048 -13.19765,-2.27288 l -11.14781,-1.67708 -3.03639,-10.04141 C 269.49797,178.01864 267.16065,170.125 265.97393,166 c -4.68811,-16.29585 -14.77701,-29.82103 -26.53597,-35.57415 -12.86163,-6.29262 -27.43932,-2.67241 -38.84456,9.64661 -7.21302,7.79092 -12.39645,18.68841 -16.95898,35.65404 -4.70788,17.5061 -8.33387,25.92599 -17.9417,41.66224 -18.6922,30.61517 -22.76116,38.70865 -28.47471,56.63851 -4.50565,14.13932 -6.46587,27.34411 -6.45341,43.47275 0.0281,36.34066 10.11391,61.7961 31.10952,78.51666 8.00657,6.37632 26.13608,15.30764 36.62588,18.0434 4.4,1.14752 12.725,2.33488 18.5,2.63856 6.99362,0.36776 12.83759,1.32192 17.5,2.85726 12.67187,4.17289 23.36883,5.61788 38.9891,5.26683 14.24388,-0.32012 14.33577,-0.30805 11.46471,1.50664 -4.16554,2.63287 -21.03808,8.51902 -30.95381,10.79853 -9.82345,2.25829 -33.80834,3.26821 -44,1.85269 z m 41,-25.46559 c -40.90938,-8.16355 -72.49898,-38.19541 -82.6623,-78.58604 -1.3932,-5.53679 -2.37662,-10.14835 -2.18539,-10.24791 0.19123,-0.0996 1.69769,-0.86081 3.34769,-1.69165 1.65,-0.83083 3.675,-2.91874 4.5,-4.63979 1.16129,-2.4226 2.64887,-3.49278 6.58789,-4.73939 2.79834,-0.88561 5.32939,-1.6102 5.62455,-1.6102 0.29517,0 4.90071,3.32287 10.23455,7.38415 8.21948,6.25846 10.63004,7.56753 15.81259,8.58714 4.65978,0.91675 6.90295,1.99124 9.42756,4.51585 1.82207,1.82207 3.34869,4.14536 3.39249,5.16286 0.0438,1.0175 0.28428,4.775 0.53442,8.35 0.95039,13.58323 0.89335,14.44948 -1.13327,17.20826 -1.08943,1.48301 -3.22794,3.22643 -4.75224,3.87427 -1.5243,0.64784 -2.98586,1.5248 -3.24791,1.94881 -0.58837,0.952 -3.48022,15.89843 -3.48046,17.9886 -2.1e-4,1.91327 11.49125,9.06056 20.58994,12.80622 13.20896,5.43773 20.36696,6.68196 37.90989,6.58962 14.33109,-0.0754 16.91426,-0.36227 24.76511,-2.75 10.33926,-3.14454 11.34198,-3.22103 12.00481,-0.91578 0.27674,0.9625 0.80944,2.49076 1.18376,3.39613 0.54756,1.32439 -0.55662,2.05784 -5.64939,3.75261 -11.51034,3.8304 -19.78126,5.06961 -33.30429,4.98993 -7.15,-0.0421 -15.925,-0.66029 -19.5,-1.37369 z m -44.00473,-40.48457 c 1.42291,-9.14689 2.47589,-11.00221 7.1429,-12.58557 3.17993,-1.07885 3.35195,-1.37876 3.17915,-5.5427 -0.10047,-2.42118 -0.23832,-6.99587 -0.30632,-10.16599 -0.14448,-6.73533 -1.20615,-7.74906 -10.07703,-9.62204 -4.35987,-0.92053 -7.17697,-2.46512 -13,-7.12778 -7.84876,-6.2847 -11.09004,-7.23924 -16.38692,-4.82581 -3.10933,1.4167 -3.17866,3.10042 -0.52238,12.68594 2.5926,9.35573 6.6306,18.22934 12.20908,26.8298 4.45377,6.86647 14.29822,18.32374 15.74434,18.32374 0.42758,0 1.33531,-3.58631 2.01718,-7.96959 z m 111.57616,27.39816 c -1.85909,-1.85909 -1.87504,-1.99275 -0.53625,-4.49431 1.3203,-2.467 5.5799,-2.522 6.88208,-0.0889 0.71087,1.32828 0.56472,2.44917 -0.52152,4 -1.78773,2.55234 -3.66699,2.7405 -5.82431,0.58318 z m 14.48752,-10.56271 -2.24782,-3.04033 7.61928,-7.54553 c 13.32691,-13.19793 22.37513,-29.02662 26.57304,-46.48611 2.19453,-9.12724 3.65826,-26.0213 2.61476,-30.17895 l -0.66508,-2.64988 -3.82173,4.01747 C 361.02945,306.19214 358.82214,308 358.22626,308 c -2.08858,0 -4.07216,-3.02694 -6.22709,-9.50249 -2.4592,-7.38991 -7.83874,-15.83035 -10.40991,-16.33306 -1.01356,-0.19817 -1.60997,0.21126 -1.45669,1 0.79998,4.11672 -6.56735,10.83156 -17.02927,15.52105 -8.87114,3.97643 -9.72416,3.49722 -16.35031,-9.1855 -3.16086,-6.05 -5.74836,-11.75297 -5.75,-12.67327 -0.005,-2.69671 -4.53558,-7.31556 -9.1903,-9.36899 -2.37198,-1.0464 -4.6433,-2.36496 -5.04738,-2.93014 -1.98243,-2.77281 0.19517,-5.86152 4.05512,-5.75177 6.66174,0.18941 18.17957,9.31179 18.17957,14.39863 0,2.16508 5.88602,14.96205 8.5778,18.64928 0.38191,0.52313 6.65292,-2.85832 10.13801,-5.46661 2.63889,-1.97498 3.06831,-2.80597 2.39359,-4.63195 -1.8547,-5.01931 1.24415,-7.72758 8.83173,-7.71859 8.13377,0.01 13.74229,4.50215 18.19927,14.57791 l 2.10035,4.74819 1.3608,-2.91634 c 0.74843,-1.60399 1.91078,-3.67423 2.58299,-4.60053 0.98116,-1.35204 0.86231,-2.83116 -0.60262,-7.5 -8.93861,-28.48787 -34.75179,-53.06081 -64.7936,-61.68047 -4.55858,-1.30796 -10.39399,-2.68378 -12.96758,-3.05739 l -4.67926,-0.67929 -6.57591,7.94845 -6.57591,7.94844 -11.24483,3.97281 c -6.18466,2.18505 -12.29514,4.29837 -13.57885,4.69628 -1.62595,0.50398 -3.21865,2.69511 -5.25,7.22262 -3.5638,7.94304 -3.57846,8.57761 -0.29757,12.87908 l 2.6184,3.43291 3.36502,-2.95452 c 5.84507,-5.13204 16.3505,-6.69439 18.79221,-2.79474 1.71977,2.74666 -0.46811,5.16271 -5.27033,5.81993 -4.1383,0.56636 -9.13571,3.46607 -9.89399,5.74092 -0.28126,0.84376 1.64733,1.18915 6.63989,1.18915 8.62086,0 12.06066,1.40136 12.82539,5.22502 0.31314,1.5657 1.42131,3.44347 2.4626,4.17281 1.60554,1.12457 2.45927,1.04629 5.61783,-0.51508 3.64617,-1.80241 3.87192,-1.79751 10.72457,0.23291 8.27548,2.45199 12.5485,6.06829 15.04974,12.73673 2.58967,6.90419 7.08042,15.59578 8.79186,17.01615 0.82764,0.68688 3.66515,1.78496 6.30557,2.44017 9.53528,2.36614 8.87621,8.34576 -2.18239,19.80048 -3.55563,3.68299 -6.46227,7.3026 -6.4592,8.04358 0.003,0.74098 0.48235,3.06419 1.06507,5.16269 1.368,4.9264 0.4173,9.04562 -3.00239,13.00882 -2.71322,3.14444 -4.07287,5.47776 -8.84305,15.17572 -3.0423,6.18511 -6.60316,10.10601 -11.43537,12.59158 -8.73274,4.49191 -12.19354,2.16153 -18.42738,-12.40833 -4.96341,-11.60058 -6.04828,-18.5796 -4.07749,-26.2307 0.64526,-2.50506 0.24803,-3.83993 -2.2318,-7.5 -1.65923,-2.4489 -3.02496,-5.60404 -3.03497,-7.01142 -0.0355,-4.99631 -1.7094,-5.79904 -9.67446,-4.63956 -6.12715,0.89194 -7.82253,0.78729 -11.78949,-0.7277 -6.41584,-2.45023 -10.43116,-6.11407 -13.18738,-12.033 -4.78655,-10.27906 -2.70037,-18.85512 7.74651,-31.84512 l 7.08059,-8.80425 -2.74581,-4.19575 c -1.5102,-2.30766 -4.02885,-5.83551 -5.59699,-7.83965 C 226.28303,257.85195 225,255.23598 225,254.04283 c 0,-3.45159 8.01852,-21.83283 9.84449,-22.56702 0.91053,-0.3661 6.80992,-2.45628 13.10975,-4.64485 14.21515,-4.93834 14.13653,-4.89515 18.16188,-9.97758 l 3.3111,-4.18059 -8.46361,0.62661 c -4.65499,0.34464 -11.83861,1.56547 -15.96361,2.71296 -8.73145,2.42891 -23.61712,9.44345 -29.81558,14.04992 l -4.31557,3.20719 3.00424,3.11527 c 3.68809,3.82438 5.27953,7.82 5.2875,13.27529 0.007,4.86054 -0.68179,6.33265 -5.94264,12.69901 -2.15221,2.60447 -6.04626,8.53573 -8.65345,13.18059 -2.75634,4.91056 -6.61846,10.09836 -9.22768,12.39509 l -4.48732,3.9499 2.57525,3.78983 c 5.14757,7.57533 3.2153,9.7874 -9.58893,10.97743 l -7.04048,0.65434 -3.3088,-3.61175 c -1.81984,-1.98647 -4.39308,-3.88389 -5.7183,-4.2165 -2.36179,-0.59277 -2.39201,-0.73717 -1.52597,-7.29136 1.06266,-8.04224 5.52791,-21.80464 9.86632,-30.40912 13.35586,-26.48904 38.09012,-46.46554 67.39141,-54.42833 8.73463,-2.37368 11.89806,-2.72398 25,-2.76836 8.7568,-0.0297 17.49728,0.48981 21,1.24808 38.7045,8.37876 67.58909,32.73592 80.00026,67.46086 5.30133,14.83245 6.81009,24.80547 6.2345,41.21026 -0.39359,11.21727 -1.0191,15.7889 -3.14697,23 -5.33356,18.07478 -13.75564,32.63684 -26.51245,45.84095 -9.77041,10.11298 -10.20321,10.32994 -13.01639,6.52491 z m -51.05298,-15.52434 c 1.73768,-1.46216 4.25997,-4.94966 5.60508,-7.75 3.68317,-7.66786 7.3134,-13.84069 9.55721,-16.25101 1.75121,-1.88117 1.92397,-2.97669 1.34042,-8.5 -0.86635,-8.19985 0.12084,-10.5864 7.60136,-18.37659 l 6.08303,-6.33484 -4.0438,-1.08888 c -5.35009,-1.44064 -9.04455,-6.05938 -13.67031,-17.09038 -4.0731,-9.71308 -6.23728,-12.2871 -11.5354,-13.71992 -2.96339,-0.80141 -3.96005,-0.63497 -5.97689,0.99817 -1.77683,1.43879 -3.33254,1.81196 -5.85046,1.40336 -4.37735,-0.71034 -14.18636,-7.18368 -14.87485,-9.81648 -0.47498,-1.8163 -1.06572,-1.94662 -6.13348,-1.35301 -8.16512,0.95642 -8.0544,0.88446 -14.84081,9.64551 -9.37273,12.09994 -10.48837,19.1541 -4.16776,26.35288 4.20587,4.79022 8.74425,6.11673 15.64419,4.57259 10.11344,-2.26329 15.50701,0.63192 17.10422,9.18136 0.47237,2.52848 1.79376,5.78578 2.93643,7.23844 2.97944,3.78774 3.57513,7.81685 2.198,14.86678 -1.16706,5.97451 -1.10087,6.44714 1.98586,14.1805 4.33148,10.85189 6.11005,14.5 7.06921,14.5 0.44513,0 2.23107,-1.19632 3.96875,-2.65848 z m -98.50705,-76.33977 c 0.33932,-0.54903 -0.0841,-1.99916 -0.94099,-3.2225 -2.83842,-4.05242 -1.97683,-6.36674 3.89757,-10.46927 4.41319,-3.08206 6.6068,-5.74599 11.48148,-13.94319 3.31428,-5.57327 7.60931,-12.02835 9.5445,-14.34462 3.82761,-4.58136 4.33002,-7.55223 2.02949,-12.00096 -2.23667,-4.32525 -5.10446,-4.77518 -8.72187,-1.36839 -9.79001,9.22001 -20.1084,27.50262 -23.98462,42.49707 -1.94889,7.53893 -2.05044,8.84882 -0.80256,10.35242 2.31611,2.79075 6.46259,4.17315 7.497,2.49944 z m 131.96636,80.04673 c -4.95593,-2.00884 -6.9169,-7.89749 -4.88178,-14.65967 0.77907,-2.58867 1.4165,-6.23974 1.4165,-8.11348 0,-4.53381 1.25351,-6.63734 5.42025,-9.09577 1.90955,-1.12667 4.62683,-3.87798 6.03838,-6.11402 3.12399,-4.94873 6.99605,-5.63004 8.56369,-1.50683 2.51169,6.60623 2.27605,10.08304 -1.49483,22.05601 -2.89482,9.19144 -4.4283,12.48609 -7.016,15.07379 -3.42267,3.42267 -4.58406,3.76331 -8.04621,2.35997 z m 6.62218,-17.86236 c 2.22236,-6.62461 2.17422,-7.6075 -0.3256,-6.64823 -0.98453,0.3778 -1.714,2.42246 -2.0598,5.77354 -0.29448,2.85371 -0.83695,6.31357 -1.20549,7.68857 -1.2994,4.84804 1.3918,-0.25865 3.59089,-6.81388 z M 272.08183,259.5986 c -1.59261,-1.91898 -1.07452,-4.57396 1.16817,-5.9863 2.56521,-1.61545 5.25,0.42841 5.25,3.99669 0,2.3651 -0.47035,2.94568 -2.5856,3.19157 -1.42207,0.1653 -3.14673,-0.37558 -3.83257,-1.20196 z"
         id="path23086" />
      <path
         style="fill:#ec6823;fill-opacity:1"
         d="M 215.5,439.3917 C 196.48953,437.42704 181.06088,433.13634 167,425.90389 126.26512,404.9512 106.36623,366.49141 108.32545,312.5 c 1.25899,-34.69506 10.78039,-63.22327 32.70788,-98 7.91451,-12.55231 14.60339,-24.76394 16.98014,-31 0.62886,-1.65 2.69128,-8.80115 4.58314,-15.89145 5.32513,-19.95741 13.73737,-35.95688 24.05932,-45.75905 5.92457,-5.62622 15.02188,-11.58175 20.44116,-13.38175 2.6966,-0.89567 4.89869,-2.15482 4.89353,-2.79812 -0.0217,-2.71088 -6.2382,-11.70689 -11.12723,-16.102543 -2.89906,-2.606507 -8.56913,-6.549214 -12.60016,-8.761571 -6.35644,-3.488615 -7.24139,-4.306686 -6.66788,-6.163992 C 183.53526,68.359089 188.26129,56 188.72375,56 c 0.29403,0 4.42127,2.049271 9.17164,4.553935 17.49732,9.225575 30.13158,22.645361 35.0952,37.277206 l 2.513,7.407889 7.50651,2.64955 c 4.12858,1.45725 9.17209,3.67893 11.2078,4.93707 10.32532,6.3814 19.67708,16.72781 25.99906,28.76429 4.19031,7.978 21.00663,56.70749 19.35276,56.07949 -1.06482,-0.40432 -10.56614,-2.04601 -20.04551,-3.46357 -4.85405,-0.72588 -5.02127,-0.86596 -6.83433,-5.72497 -1.0222,-2.73949 -3.20583,-10.1549 -4.85251,-16.47869 -5.42377,-20.82907 -15.5908,-35.7279 -28.49691,-41.75955 -4.72728,-2.20929 -7.26995,-2.73016 -13.34046,-2.73284 -6.63912,-0.003 -8.22222,0.38793 -13.792,3.40515 -7.92009,4.29042 -16.20275,13.1388 -20.74872,22.16591 -1.90849,3.78974 -5.32227,13.5344 -7.58619,21.65479 -5.47033,19.62142 -9.50916,28.57953 -21.76033,48.26434 -16.73399,26.88769 -24.51626,44.73304 -29.21838,67 -2.91099,13.78502 -3.17631,38.95335 -0.55345,52.5 6.19329,31.98736 19.795,50.85019 46.04946,63.86132 12.38177,6.13613 24.22105,9.3655 40.45961,11.03607 7.5075,0.77235 15.59546,2.11556 17.97324,2.98492 8.6801,3.1736 21.43485,4.97373 35.42676,4.99994 7.5625,0.0142 13.75,0.12597 13.75,0.24845 0,0.12248 -2.51247,1.37293 -5.58327,2.77879 -7.2719,3.32919 -19.00849,7.01216 -28.77337,9.02915 -7.79315,1.60972 -28.59104,2.73356 -36.14336,1.95306 z m 36.80586,-25.87718 C 238.3595,410.98471 225.35849,405.92967 214.28215,398.73018 188.58567,382.02777 173.40183,359.16489 166.64424,327 c -0.43401,-2.0658 0.0289,-2.76052 2.66526,-4 1.75478,-0.825 3.8655,-2.93005 4.6905,-4.67788 1.19086,-2.52295 2.53046,-3.47382 6.5,-4.61386 5.92317,-1.7011 5.9085,-1.70696 17.37302,6.9354 5.23641,3.94738 9.73172,6.53905 12,6.91831 6.83328,1.14255 10.06382,2.57426 12.59425,5.58151 2.10977,2.50731 2.53366,4.04089 2.53831,9.18325 0.003,3.3953 0.48048,7.88345 1.06092,9.97367 1.39854,5.03629 -0.21137,9.85889 -4.38325,13.13036 -1.75079,1.37291 -3.88488,3.10177 -4.74242,3.8419 -0.93059,0.80317 -2.10196,4.83483 -2.90551,10.0003 l -1.34633,8.65461 2.4055,2.02027 c 4.26341,3.58063 22.17055,11.96997 30.40551,14.24471 6.80375,1.8794 10.54203,2.20984 25,2.20984 14.7758,0 18.04668,-0.30185 25,-2.30706 12.122,-3.49578 12.15547,-3.49955 12.74643,-1.43512 0.28967,1.01188 0.83293,2.58055 1.20725,3.48592 0.54896,1.32777 -0.59171,2.06952 -5.89802,3.83535 -14.68476,4.88677 -35.77265,6.34052 -51.2498,3.53304 z M 207.00471,373.25 c 1.62286,-9.76767 2.18475,-10.82739 6.49529,-12.25 4.4834,-1.47966 5.72372,-3.73315 4.46683,-8.11567 C 217.43507,351.03021 217,346.91309 217,343.73516 c 0,-6.56936 -0.29081,-6.82303 -10,-8.72271 -4.32105,-0.84545 -6.95979,-2.25845 -12.31014,-6.5919 -8.85218,-7.1697 -10.64616,-7.82196 -15.81986,-5.75186 l -4.08732,1.63542 0.65677,4.95098 c 1.33308,10.04923 9.53193,28.66193 16.8468,38.24491 3.70814,4.85792 11.89232,13.5 12.7847,13.5 0.35537,0 1.22557,-3.4875 1.93376,-7.75 z m 111.56672,27.17857 c -1.90971,-1.90971 -1.94414,-2.53659 -0.2654,-4.83241 1.86442,-2.54974 6.0992,-1.76465 6.52073,1.20888 0.62702,4.42304 -3.22466,6.6542 -6.25533,3.62353 z m 14.55977,-10.46498 -2.18116,-2.95018 7.82319,-7.7567 C 351.70579,366.43403 360.3702,351.292 365.14135,333.17543 367.54594,324.04495 369.01195,299 367.14181,299 366.51382,299 366,299.41547 366,299.92327 366,301.98112 360.70473,307 358.53355,307 c -3.01836,0 -3.81053,-1.1281 -6.94835,-9.89499 C 347.58846,285.93841 340,277.60573 340,284.38364 c 0,3.25538 -6.2483,8.70907 -15.06481,13.149 -10.60392,5.34005 -11.1835,5.08282 -18.09943,-8.03264 -3.19022,-6.05 -5.80836,-11.92831 -5.81808,-13.06291 -0.0221,-2.5741 -4.18547,-6.54914 -9.8164,-9.37225 -4.78897,-2.40099 -6.03451,-4.35594 -4.19071,-6.57757 2.02181,-2.43614 7.233,-1.76119 12.2963,1.5926 5.93047,3.92818 9.69313,8.4007 9.69313,11.52182 0,1.34653 1.55607,5.4745 3.45793,9.17327 5.254,10.21808 4.57493,9.76096 10.15456,6.83566 7.47875,-3.92097 8.17628,-4.68973 7.63034,-8.40949 -0.75519,-5.14541 1.77905,-7.20113 8.87736,-7.20113 5.1274,0 6.24623,0.38194 9.52034,3.25 4.28502,3.75359 9.35947,11.31462 9.35947,13.94578 0,0.99232 0.45,1.80422 1,1.80422 0.55,0 1,-0.64047 1,-1.42327 0,-0.78281 1.09473,-2.72429 2.43273,-4.31442 l 2.43274,-2.89114 -2.31822,-6.63432 c -6.9999,-20.03249 -21.18449,-38.06861 -39.01174,-49.60456 -11.19656,-7.24525 -26.98529,-13.19825 -38.77698,-14.62051 l -5.25853,-0.63426 -6.11259,7.88204 -6.1126,7.88204 -13.59654,4.7775 c -7.4781,2.62762 -13.98625,5.29577 -14.46256,5.9292 -1.29785,1.726 -5.21571,11.7158 -5.21571,13.29908 0,1.5704 4.16401,8.32141 5.14424,8.34024 0.35434,0.007 2.08262,-1.33126 3.84062,-2.97348 5.34554,-4.99348 16.01064,-6.59485 18.40918,-2.76414 1.79335,2.86417 -0.47554,5.15871 -5.8672,5.93352 -4.28146,0.61527 -9.52684,3.85544 -9.52684,5.88491 0,0.39589 3.55414,0.8812 7.89809,1.07847 8.61573,0.39126 12.10191,2.2198 12.10191,6.34757 0,3.13518 4.62277,5.15689 6.95841,3.04317 2.16323,-1.9577 5.82537,-1.94707 12.6493,0.0367 7.97745,2.3191 10.59014,5.06813 15.36935,16.17135 4.31552,10.02595 8.45877,15.25431 12.08838,15.25431 1.11863,0 3.36153,0.68656 4.98422,1.52568 2.34947,1.21496 2.95034,2.18794 2.95034,4.77749 0,3.91894 -1.5057,6.26751 -9.28761,14.48673 -5.87421,6.20431 -5.9444,6.34719 -5.15789,10.5 1.32633,7.00313 0.77316,10.59281 -2.2382,14.52427 -4.20087,5.48443 -9.00069,13.6995 -10.29423,17.61895 C 292.16352,378.06459 282.82944,385 277.10884,385 c -4.23898,0 -7.78606,-4.71355 -12.60634,-16.75203 -4.88647,-12.20374 -5.10582,-14.04442 -2.95088,-24.76135 0.48264,-2.40026 -0.0205,-3.80162 -2.47285,-6.8875 C 257.07103,334.0727 256,331.59786 256,329.48494 c 0,-4.81428 -1.63787,-5.66884 -8.45107,-4.40935 -3.16762,0.58556 -7.4769,0.77448 -9.57617,0.41981 -5.82778,-0.9846 -12.41523,-5.68986 -15.63513,-11.1678 -2.39964,-4.08245 -2.83305,-5.90807 -2.80793,-11.8276 0.0354,-8.33883 1.52269,-11.57035 10.35569,-22.5 3.33369,-4.125 6.07326,-7.87863 6.08793,-8.34141 0.0147,-0.46277 -2.44832,-4.27336 -5.47332,-8.46797 -3.025,-4.19461 -5.5,-8.42321 -5.5,-9.39688 0,-2.63457 6.92396,-19.03854 8.8403,-20.9441 0.91284,-0.90769 7.2847,-3.54674 14.1597,-5.86454 11.22432,-3.78412 12.94856,-4.68726 16.89527,-8.84965 l 4.39527,-4.63545 -5.89527,-0.28622 c -11.89037,-0.57728 -36.14015,7.83152 -48.21218,16.71795 l -4.31691,3.17775 3.51041,3.8856 c 6.63404,7.34308 6.27001,15.64402 -1.10224,25.1348 -2.72151,3.50357 -6.93408,9.91222 -9.36127,14.24146 -2.42719,4.32924 -6.38669,9.61476 -8.79888,11.7456 l -4.38579,3.87427 2.63579,3.98295 c 5.03114,7.60257 3.38407,9.42154 -9.59625,10.59779 l -7.34911,0.66596 -2.75439,-3.61119 c -1.51491,-1.98615 -3.85915,-3.88847 -5.20942,-4.22736 -3.23618,-0.81223 -3.22764,-4.08932 0.0443,-17.02114 12.87376,-50.88086 64.24106,-84.94677 116.00063,-76.92962 25.02781,3.87661 44.37366,13.49402 61.40686,30.52722 13.21707,13.21707 22.22116,29.60646 27.3686,49.81678 3.11112,12.21513 3.08184,37.90886 -0.0563,49.38283 -2.94262,10.75918 -7.42886,21.12394 -13.20754,30.51398 -4.89671,7.95689 -16.67075,21.50753 -21.96051,25.27417 l -2.73878,1.95019 -2.18116,-2.95018 z m -50.13408,-16.57995 c 2.20158,-1.989 4.00288,-4.27049 4.00288,-5.06997 0,-1.69298 8.33713,-15.82474 11.16755,-18.92943 1.73199,-1.89982 1.80791,-2.59606 0.74386,-6.82176 -1.73481,-6.88956 -0.0851,-11.23462 7.23749,-19.0625 5.1562,-5.512 5.78545,-6.56851 4.20707,-7.0637 -8.58697,-2.69403 -9.71234,-3.98617 -16.39457,-18.82425 -4.48097,-9.9501 -4.60079,-10.10117 -9.43524,-11.89616 -4.85105,-1.80116 -4.92377,-1.79802 -7.8126,0.33778 -2.15079,1.59015 -3.72371,1.99432 -5.99417,1.54023 -4.37528,-0.87506 -12.72665,-6.48279 -13.7798,-9.25277 -0.68472,-1.80094 -1.64568,-2.33857 -4.16484,-2.3301 -8.5147,0.0286 -10.37452,0.9374 -15.81672,7.72869 -9.80195,12.2318 -11.6035,17.38637 -8.594,24.58911 1.76722,4.22956 6.80008,8.42375 11.06921,9.22464 1.8559,0.34817 5.79046,0.0923 8.74347,-0.56851 4.53489,-1.01487 5.95377,-0.95726 9.13218,0.37076 3.72673,1.55713 6.69111,6.1241 6.69111,10.30843 0,0.9506 1.18123,3.43288 2.62495,5.51617 2.84178,4.10069 3.36776,8.72597 1.93339,17.00144 -0.71716,4.13757 -0.3756,5.7648 2.93864,14 6.05282,15.03999 5.51469,14.60939 11.50014,9.2019 z m -98.69333,-75.02076 c 0.35042,-0.35042 -0.29364,-1.94426 -1.43124,-3.54186 -2.89575,-4.06671 -1.85934,-6.6679 4.36844,-10.96397 4.21404,-2.90695 6.25641,-5.38073 10.10894,-12.24422 2.65537,-4.7307 6.81293,-11.15752 9.23901,-14.28184 5.47683,-7.05307 5.86168,-11.03421 1.48933,-15.40656 -1.83939,-1.83939 -3.51451,-2.69426 -4.52193,-2.30768 -2.85727,1.09644 -14.4878,16.64258 -19.0294,25.43596 C 180.1692,273.4901 175,288.96861 175,293.57993 c 0,3.30805 7.11894,6.9678 9.30379,4.78295 z M 312.35152,375.25 c -2.2604,-2.43484 -2.48352,-3.32302 -1.94683,-7.75 0.33339,-2.75 0.84846,-7.025 1.14461,-9.5 0.95264,-7.96144 1.35283,-8.7526 5.72263,-11.31347 2.53225,-1.484 5.10943,-4.07913 6.3044,-6.34832 1.63633,-3.10731 2.57485,-3.83821 4.92848,-3.83821 2.57993,0 3.05849,0.50664 4.25067,4.5 1.61732,5.41744 1.2106,8.54883 -2.75285,21.19458 C 326.33748,373.88861 323.30981,378 318.36336,378 c -2.48773,0 -4.17565,-0.77211 -6.01184,-2.75 z m 9.56245,-14.16516 c 2.65067,-8.15157 2.68519,-9.47587 0.21256,-8.15256 -1.33581,0.71491 -2.02937,2.51867 -2.41668,6.28519 -0.29877,2.90539 -0.86692,6.40753 -1.26257,7.78253 -1.56146,5.42653 1.449,0.28983 3.46669,-5.91516 z m -49.8741,-101.5368 c -2.65646,-3.20083 1.24523,-8.11777 4.71013,-5.93574 3.46233,2.18041 2.22883,7.3877 -1.75,7.3877 -0.96531,0 -2.29737,-0.65338 -2.96013,-1.45196 z"
         id="path23084" />
    </g>
  </g>
</svg>
