<?xml version="1.0" encoding="UTF-8" standalone="no"?>
<!-- Generator: Adobe Illustrator 19.0.0, SVG Export Plug-In . SVG Version: 6.00 Build 0)  -->

<svg
   version="1.1"
   id="Capa_1"
   x="0px"
   y="0px"
   viewBox="0 0 5 8"
   xml:space="preserve"
   sodipodi:docname="humedad.svg"
   inkscape:version="1.1 (c68e22c387, 2021-05-23)"
   width="5"
   height="8"
   xmlns:inkscape="http://www.inkscape.org/namespaces/inkscape"
   xmlns:sodipodi="http://sodipodi.sourceforge.net/DTD/sodipodi-0.dtd"
   xmlns="http://www.w3.org/2000/svg"
   xmlns:svg="http://www.w3.org/2000/svg"><defs
   id="defs6597" /><sodipodi:namedview
   id="namedview6595"
   pagecolor="#ffffff"
   bordercolor="#666666"
   borderopacity="1.0"
   inkscape:pageshadow="2"
   inkscape:pageopacity="0.0"
   inkscape:pagecheckerboard="0"
   showgrid="false"
   inkscape:zoom="64"
   inkscape:cx="-0.3359375"
   inkscape:cy="3.5546875"
   inkscape:window-width="1920"
   inkscape:window-height="1017"
   inkscape:window-x="-8"
   inkscape:window-y="-8"
   inkscape:window-maximized="1"
   inkscape:current-layer="Capa_1"
   width="100px" />



<g
   id="g6564">
</g>
<g
   id="g6566">
</g>
<g
   id="g6568">
</g>
<g
   id="g6570">
</g>
<g
   id="g6572">
</g>
<g
   id="g6574">
</g>
<g
   id="g6576">
</g>
<g
   id="g6578">
</g>
<g
   id="g6580">
</g>
<g
   id="g6582">
</g>
<g
   id="g6584">
</g>
<g
   id="g6586">
</g>
<g
   id="g6588">
</g>
<g
   id="g6590">
</g>
<g
   id="g6592">
</g>
<g
   id="g6560"
   transform="matrix(0.01244147,0,0,0.01370644,-0.64243882,0.5261841)"
   style="fill:#ff7f2a"><path
     d="M 344.556,112.216 C 318.38,78.84 291.34,44.344 269.516,7.32 c -5.76,-9.76 -21.824,-9.76 -27.552,0 -21.856,37.024 -48.896,71.52 -75.072,104.896 -53.056,67.68 -103.168,131.616 -103.168,207.232 0,105.888 86.112,192 192,192 105.888,0 192,-86.112 192,-192 0,-75.616 -50.112,-139.552 -103.168,-207.232 z m -136.832,79.232 c 26.464,0 48,21.536 48,48 0,26.464 -21.536,48 -48,48 -26.464,0 -48,-21.536 -48,-48 0,-26.464 21.536,-48 48,-48 z m -20.672,219.328 c -3.136,3.104 -7.232,4.672 -11.328,4.672 -4.096,0 -8.192,-1.568 -11.328,-4.672 -6.24,-6.24 -6.24,-16.384 0,-22.624 l 160,-160 c 6.24,-6.24 16.384,-6.24 22.624,0 6.24,6.24 6.272,16.384 0.032,22.624 z m 116.672,36.672 c -26.464,0 -48,-21.536 -48,-48 0,-26.464 21.536,-48 48,-48 26.464,0 48,21.536 48,48 0,26.464 -21.536,48 -48,48 z"
     id="path6558"
     style="fill:#ff7f2a" /></g><path
   style="fill:#ff7f2a;fill-opacity:0.782222;stroke-width:0.00802743"
   d="M 1.8661185,4.0034258 C 1.7133666,3.922298 1.7090512,3.7035642 1.8584768,3.6157995 c 0.042746,-0.025107 0.1255084,-0.025107 0.1682573,0 0.070265,0.041279 0.1066701,0.1068471 0.1066701,0.1921706 0,0.065465 -0.011992,0.099114 -0.052075,0.1460813 -0.055681,0.065244 -0.1462141,0.086014 -0.2152003,0.049371 z"
   id="path6675" /><path
   style="fill:#ff7f2a;fill-opacity:0.782222;stroke-width:0.00802743"
   d="M 3.0648893,6.2009018 C 2.9718709,6.1563674 2.9204647,6.0382447 2.9510529,5.9393307 2.9860841,5.8260731 3.0880282,5.7636498 3.1864726,5.7951784 c 0.1712839,0.05486 0.1941946,0.3094642 0.035676,0.396488 -0.045793,0.025137 -0.1154961,0.029232 -0.1572655,0.00921 z"
   id="path6714" /></svg>
