<?xml version="1.0" encoding="UTF-8" standalone="no"?>
<!-- Created with Inkscape (http://www.inkscape.org/) -->

<svg
   width="8"
   height="8"
   viewBox="0 0 2.1166667 2.1166666"
   version="1.1"
   id="svg5"
   inkscape:version="1.1 (c68e22c387, 2021-05-23)"
   sodipodi:docname="humedad_suelo.svg"
   xmlns:inkscape="http://www.inkscape.org/namespaces/inkscape"
   xmlns:sodipodi="http://sodipodi.sourceforge.net/DTD/sodipodi-0.dtd"
   xmlns="http://www.w3.org/2000/svg"
   xmlns:svg="http://www.w3.org/2000/svg">
  <sodipodi:namedview
     id="namedview7"
     pagecolor="#ffffff"
     bordercolor="#666666"
     borderopacity="1.0"
     inkscape:pageshadow="2"
     inkscape:pageopacity="0.0"
     inkscape:pagecheckerboard="0"
     inkscape:document-units="mm"
     showgrid="false"
     width="6mm"
     units="px"
     inkscape:zoom="128"
     inkscape:cx="5.1835937"
     inkscape:cy="3.9101562"
     inkscape:window-width="1920"
     inkscape:window-height="1017"
     inkscape:window-x="-8"
     inkscape:window-y="-8"
     inkscape:window-maximized="1"
     inkscape:current-layer="layer1" />
  <defs
     id="defs2" />
  <g
     inkscape:label="Capa 1"
     inkscape:groupmode="layer"
     id="layer1">
    <path
       style="fill:#a0a0a0;stroke:none;stroke-width:0.021081"
       d=""
       id="path1665"
       transform="scale(0.26458333)" />
    <path
       style="fill:#00b0e4;fill-opacity:0.780392;stroke-width:0.021081"
       d=""
       id="path2209"
       transform="scale(0.26458333)" />
    <path
       style="fill:#00b0e4;fill-opacity:0.780392;stroke-width:0.021081"
       d=""
       id="path2248"
       transform="scale(0.26458333)" />
    <path
       style="fill:#00b0e4;fill-opacity:0.780392;stroke-width:0.021081"
       d=""
       id="path2287"
       transform="scale(0.26458333)" />
    <path
       style="fill:#00b0e4;fill-opacity:0.780392;stroke-width:0.021081"
       d=""
       id="path2326"
       transform="scale(0.26458333)" />
    <path
       style="fill:#ff6600;fill-opacity:0.780392;stroke:none;stroke-width:0.00557768"
       d="M 1.2734377,0.88645969 C 1.2191902,0.87407719 1.1771876,0.85125158 1.1399395,0.81393211 1.0609614,0.73480052 1.0529181,0.65028467 1.1125975,0.52664753 1.1516341,0.44577763 1.2402537,0.31653926 1.3171442,0.22835363 l 0.019024,-0.0218281 0.039293,0.0469318 c 0.1504553,0.17971294 0.2301373,0.33122658 0.2239037,0.42574104 -0.00556,0.084238 -0.075338,0.16604985 -0.1695133,0.19873647 -0.042804,0.0148696 -0.1121542,0.0186267 -0.1564243,0.00852 z m 0.1445234,-0.0772425 c 0.040756,-0.0186531 0.067781,-0.0439394 0.085347,-0.079846 0.013229,-0.0270404 0.014605,-0.0352108 0.012383,-0.0737447 C 1.5135735,0.61759275 1.5096048,0.60482925 1.484054,0.55131463 1.4518277,0.48384853 1.3964107,0.39724511 1.3590886,0.35602038 l -0.024262,-0.026797 -0.026088,0.0320146 C 1.2498796,0.43349038 1.1847998,0.5463881 1.162641,0.61467706 c -0.029244,0.0901171 0.02114,0.17638712 0.1198668,0.20519231 0.036915,0.0107685 0.099391,0.005874 0.1354561,-0.0106627 z"
       id="path1704" />
    <path
       style="fill:#ff6600;fill-opacity:0.780392;stroke-width:0.00557768"
       d="m 1.9880799,0.73982761 c -0.041513,-0.005715 -0.092747,-0.0203465 -0.1351835,-0.0385762 l -0.046091,-0.0197908 -0.046016,0.0195527 c -0.041222,0.0175154 -0.089014,0.0333957 -0.090612,0.0300937 -2.646e-4,-7.9375e-4 0.00159,-0.0169333 0.00437,-0.036105 0.00304,-0.0214842 0.00762,-0.0348588 0.011906,-0.0348588 0.00384,0 0.031385,-0.0125412 0.061241,-0.0278897 0.029853,-0.0153458 0.058126,-0.0278871 0.062828,-0.0278871 0.00471,0 0.022728,0.008625 0.040066,0.0192088 0.042278,0.025744 0.090101,0.0408649 0.1606709,0.0507709 0.070329,0.009869 0.08001,0.0142081 0.08001,0.0358854 0,0.0297206 -0.033248,0.0392589 -0.1031875,0.0296042 z"
       id="path2365" />
    <path
       style="fill:#ff6600;fill-opacity:0.780392;stroke-width:0.00557768"
       d="m 0.48247113,1.1423726 c -0.0243417,-0.0046 -0.0657569,-0.017357 -0.0920327,-0.028361 -0.0262731,-0.01098 -0.0527923,-0.021114 -0.058928,-0.022516 -0.006138,-0.00132 -0.0299799,0.00616 -0.0529881,0.016827 -0.0517948,0.023971 -0.1134401,0.037087 -0.17434454,0.037087 -0.04792927,0 -0.05991754,-0.00466 -0.05991754,-0.02331 0,-0.015531 0.02132542,-0.025426 0.06972035,-0.032425 0.0694531,-0.010028 0.10792619,-0.021193 0.15495852,-0.045014 0.0238654,-0.012091 0.049739,-0.02196 0.057486,-0.02196 0.007752,0 0.0371581,0.011245 0.0653627,0.025003 0.0590259,0.028771 0.0967502,0.036274 0.18235083,0.036274 0.0893921,0 0.12313179,-0.00704 0.18685404,-0.039031 0.0306758,-0.015399 0.060796,-0.027908 0.0669316,-0.027805 0.006138,1.058e-4 0.0220663,0.00759 0.0354066,0.016642 0.0488447,0.033099 0.13283141,0.055293 0.21069031,0.055676 0.052946,2.593e-4 0.1375887,-0.021643 0.1929474,-0.049943 0.024077,-0.012303 0.04771,-0.022384 0.05252,-0.022384 0.00482,0 0.022939,0.00873 0.040262,0.019394 0.082391,0.050694 0.2021893,0.065281 0.3121448,0.03801 0.019367,-0.00482 0.056488,-0.019685 0.082497,-0.033068 0.026009,-0.013388 0.052271,-0.024342 0.058354,-0.024342 0.00609,0 0.023733,0.00873 0.039246,0.019394 0.03392,0.023336 0.08359,0.039291 0.1578266,0.050702 0.066953,0.010292 0.075872,0.014499 0.075872,0.035708 0,0.020241 -0.010477,0.024024 -0.064712,0.023389 C 1.969313,1.1457937 1.9170975,1.1338081 1.8555739,1.108625 L 1.8067349,1.088623 1.7663329,1.105345 c -0.05973,0.024712 -0.0929,0.033271 -0.1554268,0.04015 -0.089927,0.0099 -0.1770248,-0.00373 -0.2571327,-0.040264 L 1.316279,1.0881383 1.2614045,1.110919 C 1.1943455,1.138748 1.1560077,1.145362 1.0621864,1.145294 0.9768027,1.1452279 0.93301421,1.137064 0.86791612,1.109107 L 0.82047372,1.088734 0.77111572,1.108472 C 0.74396682,1.11932 0.70548322,1.132179 0.68559712,1.137013 0.63246082,1.149925 0.53582708,1.152491 0.48247121,1.142413 Z"
       id="path2638" />
    <path
       style="fill:#ff6600;fill-opacity:0.780392;stroke-width:0.00557768"
       d="m 1.0877743,1.5350143 c -0.00942,-0.016431 -0.017145,-0.031366 -0.017171,-0.033216 -2.91e-5,-0.00185 0.01815,-0.00492 0.040386,-0.00683 0.054951,-0.00468 0.092395,-0.016219 0.1533499,-0.047178 l 0.051559,-0.026194 0.048839,0.025903 c 0.029168,0.015452 0.069056,0.030893 0.099031,0.038301 0.097637,0.02413 0.21903,0.00725 0.3004846,-0.041799 0.038772,-0.023336 0.058079,-0.024712 0.080693,-0.00569 0.034303,0.028863 0.1283494,0.058468 0.1857402,0.058468 0.029181,0 0.058235,0.012753 0.062013,0.027199 0.00185,0.0072 -0.00132,0.01741 -0.00855,0.026479 -0.011483,0.014605 -0.012224,0.014737 -0.064998,0.011562 -0.058669,-0.00355 -0.116496,-0.017992 -0.1753129,-0.043799 l -0.038317,-0.016827 -0.042585,0.019262 c -0.069853,0.031578 -0.1147604,0.040293 -0.2071291,0.040198 -0.088985,-9e-5 -0.1319371,-0.00886 -0.2044329,-0.041728 l -0.036671,-0.016642 -0.042595,0.018574 c -0.043122,0.018812 -0.09366,0.033129 -0.1411605,0.040016 l -0.026061,0.00378 z"
       id="path2911" />
    <path
       style="fill:#ff6600;fill-opacity:0.780392;stroke-width:0.00557768"
       d="m 0.05402076,1.5542151 c -0.01325563,-0.01479 -0.01256771,-0.038788 0.0013229,-0.046212 0.0060854,-0.00325 0.0318082,-0.00847 0.05717116,-0.011589 0.0671513,-0.00826 0.12788106,-0.025982 0.16450733,-0.048032 0.0459449,-0.027667 0.0574384,-0.02875 0.089236,-0.00839 0.0371369,0.02376 0.0709374,0.03738 0.11975836,0.048244 l 0.04191,0.00931 -0.0145256,0.027406 c -0.00799,0.015081 -0.0175948,0.028601 -0.0213519,0.030062 -0.0104775,0.00407 -0.0878734,-0.017753 -0.12902407,-0.036409 l -0.0368512,-0.016722 -0.0387668,0.017859 c -0.0544512,0.025109 -0.10895012,0.038582 -0.17061392,0.042209 -0.04777316,0.0028 -0.05394854,0.00212 -0.06274858,-0.00778 z"
       id="path3184" />
    <path
       style="fill:#ff6600;fill-opacity:0.780392;stroke-width:0.00557768"
       d="M 0.72588515,1.9287487 C 0.65064559,1.9085081 0.58445742,1.8572741 0.55485054,1.7963803 0.53463638,1.7548037 0.53029721,1.7031332 0.54275909,1.6528782 0.56469304,1.5645206 0.66772709,1.4001509 0.78136827,1.272201 l 0.0186531,-0.021008 0.0423836,0.051686 c 0.12416896,0.1514289 0.19974983,0.2826781 0.21668583,0.3762877 0.00749,0.041439 -0.00238,0.094049 -0.02495,0.1325166 -0.018918,0.032295 -0.066892,0.076756 -0.10199955,0.094546 -0.0587719,0.029781 -0.14451277,0.039145 -0.20626652,0.022516 z m 0.15502731,-0.075816 c 0.0396954,-0.018256 0.0634868,-0.038732 0.082378,-0.070869 0.0133879,-0.022754 0.0151606,-0.031337 0.014605,-0.070527 -5.2917e-4,-0.036494 -0.00381,-0.052282 -0.0181504,-0.086675 -0.0331549,-0.079518 -0.14173994,-0.2451973 -0.16069998,-0.2451973 -0.0177006,0 -0.10091737,0.1208273 -0.1454097,0.2111322 -0.0279479,0.056724 -0.0314616,0.067842 -0.0337079,0.1066377 -0.003069,0.052991 0.003598,0.074978 0.0327475,0.1080981 0.0423333,0.048096 0.0850609,0.065749 0.15294504,0.063193 0.0333587,-0.00132 0.0523663,-0.00524 0.0753004,-0.015796 z"
       id="path3496" />
    <path
       style="fill:#d45500;stroke-width:0.0110485"
       d=""
       id="path6310"
       transform="scale(0.26458333)" />
    <path
       style="fill:#ff6600;stroke-width:0.0110485"
       d="M 0.2520011,2.7728326 C 0.20680115,2.7587406 0.16676688,2.704172 0.17565305,2.6687667 0.184729,2.6326052 0.25475483,2.6013596 0.37565048,2.5795275 0.74597194,2.5126524 0.80938597,2.4947812 1.0330388,2.3942628 1.1432383,2.3447348 1.198722,2.325966 1.2454765,2.3224002 c 0.060199,-0.00459 0.068543,-0.00185 0.1712524,0.056247 0.2352748,0.1330838 0.5196439,0.195094 0.8316497,0.1813516 0.2415677,-0.01064 0.4062347,-0.055442 0.6794854,-0.1848717 0.2082783,-0.098655 0.1733152,-0.098692 0.3646019,3.89e-4 0.091151,0.047213 0.2079889,0.1020522 0.2596408,0.1218643 0.1221223,0.046842 0.1697055,0.091581 0.1928925,0.1813617 0.011299,0.043752 0.013294,0.069452 0.00596,0.076788 -0.017388,0.017386 -0.125191,-0.00938 -0.3811534,-0.094646 C 3.2421951,2.6183762 3.1201529,2.5836681 3.0986007,2.5837547 3.0770486,2.5838408 2.9791565,2.6140533 2.8810627,2.6508926 2.5885408,2.7607496 2.516603,2.7732329 2.1768529,2.7730937 1.8063835,2.7729419 1.7059601,2.7540012 1.4179249,2.6299528 L 1.2448594,2.5554186 1.1154657,2.609016 C 0.84593177,2.7206624 0.63979418,2.7718291 0.43089319,2.7789381 c -0.0797552,0.00271 -0.1593124,-1.1e-6 -0.17889209,-0.00611 z"
       id="path2657"
       transform="scale(0.26458333)" />
    <path
       style="fill:#ff6600;fill-opacity:1;stroke-width:0.00390625"
       d="M 4.9472656,3.3668981 C 4.8365344,3.3593427 4.7190002,3.329665 4.6113649,3.2820824 4.495211,3.2307339 4.4033248,3.1670438 4.3085937,3.0722195 4.1799489,2.9434479 4.1038201,2.8116343 4.0717351,2.6621094 c -0.00832,-0.038774 -0.0092,-0.052311 -0.00899,-0.1386719 2.101e-4,-0.087372 0.00114,-0.100354 0.010705,-0.149131 C 4.1192571,2.1406522 4.2378364,1.8939228 4.4805039,1.5273437 4.5784439,1.3793934 4.6822419,1.2348231 4.792515,1.0927734 L 4.834211,1.0390624 H 5.0486329 5.263055 l 0.066106,0.083008 c 0.2364549,0.2969093 0.42311,0.5800758 0.5439447,0.8251953 0.053595,0.108721 0.080221,0.1722512 0.1113261,0.265625 0.083408,0.2503851 0.079015,0.4244707 -0.015588,0.6177142 C 5.860972,3.0509524 5.6445914,3.2351787 5.3962988,3.3180696 5.2749969,3.3585655 5.1015562,3.3774257 4.9472656,3.3668981 Z M 5.1392584,3.115319 C 5.2594257,3.1012623 5.3399261,3.0759217 5.4322507,3.0230884 5.5630078,2.9482619 5.6563893,2.8384696 5.710944,2.6954178 5.7311463,2.6424438 5.7338569,2.6193311 5.731307,2.5217856 5.7268989,2.3531583 5.7121654,2.2974154 5.6210271,2.1045529 5.5129093,1.875759 5.3378035,1.5907079 5.1961396,1.4128872 5.1654357,1.3743468 5.0504229,1.2448683 5.045533,1.2433382 5.0426829,1.2424464 4.9598174,1.3438483 4.8964844,1.425728 4.670621,1.7177339 4.4261801,2.1659643 4.3777369,2.3769531 c -0.031882,0.138859 -0.015835,0.2756817 0.046501,0.3964844 0.045109,0.087418 0.1194162,0.1690369 0.2089002,0.2294563 0.080581,0.054408 0.1967538,0.1000858 0.2851621,0.112122 0.052691,0.00717 0.160955,0.00732 0.2209582,3.032e-4 z"
       id="path7231"
       transform="scale(0.26458333)" />
    <path
       style="fill:#ff6600;fill-opacity:1;stroke-width:0.00390625"
       d="M 4.9335937,3.3647783 C 4.674236,3.3379251 4.4474058,3.224222 4.2760196,3.0351563 4.1623762,2.9097898 4.0943933,2.7800416 4.0704702,2.6428561 4.0623878,2.5965082 4.0623003,2.4579479 4.0703199,2.4047416 4.0876985,2.2894418 4.1350045,2.1478998 4.2049394,2.0019531 4.3157859,1.7706286 4.5239971,1.4476955 4.7713786,1.1234128 l 0.064347,-0.08435 0.2129965,1.642e-4 0.2129964,1.643e-4 0.060814,0.076984 c 0.2875542,0.3640155 0.490466,0.6841874 0.6082797,0.9597967 0.050517,0.1181779 0.091834,0.259277 0.1046608,0.3574219 0.00816,0.062459 0.00558,0.1606051 -0.00565,0.2148437 -0.044417,0.2144901 -0.1905598,0.4160837 -0.4028701,0.5557298 -0.056717,0.037305 -0.1632383,0.089002 -0.2265625,0.1099549 -0.057004,0.018862 -0.1241797,0.033829 -0.1953125,0.043518 -0.043052,0.00586 -0.2350367,0.010912 -0.2714844,0.00714 z M 5.1378493,3.1169745 C 5.2660458,3.1030531 5.3742363,3.0647774 5.4764626,2.9971796 5.5290189,2.9624264 5.6085716,2.8831809 5.6422513,2.8320313 5.6703166,2.7894082 5.7035,2.7231006 5.7194688,2.6777344 l 0.011,-0.03125 -2.542e-4,-0.1113281 C 5.7299199,2.4062577 5.7239703,2.3599814 5.6976184,2.2816276 5.6571957,2.1614357 5.5414796,1.93258 5.4255387,1.7435262 5.3067684,1.5498586 5.1911212,1.394485 5.0727363,1.2695312 L 5.0449796,1.2402344 5.032855,1.2539062 C 5.0061697,1.2839972 4.8988613,1.4196169 4.8560809,1.4773189 4.6712789,1.7265786 4.4714896,2.0865568 4.3986803,2.3014583 c -0.030206,0.089155 -0.034925,0.1177194 -0.03506,0.2122136 -1.076e-4,0.075254 7.324e-4,0.085613 0.010166,0.1253795 0.039017,0.1644788 0.1442116,0.3011655 0.300517,0.3904823 0.07189,0.04108 0.1769842,0.078397 0.245915,0.087321 0.037008,0.00479 0.1739235,0.00487 0.217631,1.198e-4 z"
       id="path7270"
       transform="scale(0.26458333)" />
    <path
       style="fill:#ff6600;fill-opacity:1;stroke-width:0.00390625"
       d="M 2.0001652,4.3355716 C 1.8230734,4.3254564 1.6748591,4.2881326 1.4472656,4.1963387 1.3032248,4.1382435 1.2641299,4.1245023 1.2429662,4.1245306 1.2097437,4.1245751 1.1382441,4.148415 1.0390625,4.1925176 0.86346656,4.2705991 0.67658437,4.3139228 0.4680234,4.3248978 0.37163592,4.32997 0.26603396,4.3254135 0.2301235,4.314633 0.1898001,4.3025278 0.16994001,4.2801957 0.16992795,4.2469448 c -1.211e-5,-0.033351 0.0155315,-0.053346 0.0581932,-0.074859 0.0444869,-0.022433 0.0921945,-0.03412 0.22500385,-0.055119 0.16122883,-0.025492 0.24864406,-0.044606 0.34179687,-0.074734 0.0731538,-0.02366 0.10924172,-0.03855 0.22070313,-0.091065 0.1082115,-0.050984 0.1618981,-0.07259 0.1998454,-0.080428 0.022058,-0.00456 0.025694,-0.00419 0.058324,0.00593 0.048355,0.014992 0.1234679,0.046017 0.2086274,0.086172 0.1749012,0.082472 0.2679398,0.1091616 0.4453125,0.1277457 0.078591,0.00823 0.4337358,0.00687 0.5117187,-0.00196 0.1583839,-0.017944 0.2473686,-0.045906 0.4375,-0.137478 0.1624309,-0.07823 0.2318296,-0.1056727 0.2593817,-0.1025672 0.022245,0.00251 0.074412,0.027573 0.1257263,0.060411 0.055016,0.035206 0.099011,0.058768 0.1500483,0.080361 0.1772967,0.07501 0.3722523,0.1178706 0.5800781,0.1275294 0.1401879,0.00652 0.2621602,-0.00864 0.4388816,-0.054535 0.130461,-0.033881 0.2371934,-0.073487 0.3676614,-0.1364323 0.124239,-0.05994 0.1733476,-0.079571 0.1932687,-0.077259 0.019884,0.00231 0.075096,0.028809 0.1408133,0.067591 0.1766516,0.1042458 0.3456016,0.159347 0.5762109,0.187925 0.080179,0.00994 0.2976524,0.010005 0.3788672,1.205e-4 0.2188766,-0.02664 0.3221906,-0.058967 0.5697754,-0.1782845 0.1149422,-0.055394 0.1720887,-0.078349 0.1950488,-0.078349 0.019973,0 0.080682,0.029716 0.142829,0.069913 0.1012242,0.065472 0.2020082,0.1067937 0.3521492,0.1443832 0.077299,0.019353 0.1334648,0.030294 0.2734007,0.053261 0.060156,0.00987 0.1269532,0.022253 0.1484375,0.02751 0.041193,0.010081 0.081837,0.027706 0.093429,0.040515 0.01916,0.021171 0.023792,0.073021 0.00911,0.1019604 C 7.8537381,4.321336 7.8148921,4.329878 7.6699217,4.329651 7.540109,4.3294439 7.4596949,4.3208086 7.3417969,4.2944113 7.2262813,4.2685475 7.1283125,4.2351496 6.9339656,4.1553797 L 6.8288684,4.1122425 6.783575,4.13097 C 6.4742469,4.2588669 6.3696359,4.2909132 6.1790391,4.316162 5.8888668,4.3546017 5.6602766,4.3441256 5.4179687,4.281283 5.2991461,4.2504662 5.2190051,4.2210569 5.0713152,4.1540715 L 4.9746613,4.1102338 4.895534,4.1433795 C 4.5379215,4.2931795 4.4513328,4.3141671 4.1475055,4.3246888 3.8984957,4.3333121 3.6920289,4.3183767 3.5440518,4.2810362 3.4463467,4.2563813 3.3909549,4.2362755 3.2204875,4.163591 L 3.1011313,4.1126995 3.0017375,4.1524853 C 2.7617013,4.2485682 2.6265218,4.2919663 2.5039063,4.3123095 2.3656356,4.33525 2.160435,4.3447259 2.0001652,4.3355716 Z"
       id="path7309"
       transform="scale(0.26458333)" />
    <path
       style="fill:#ff7f2a;fill-opacity:1;stroke-width:0.00390625"
       d="M 1.9921875,4.333352 C 1.7994924,4.3176624 1.6874421,4.2886759 1.4316406,4.1883427 1.3661133,4.1626409 1.3010742,4.1376756 1.2871094,4.1328643 1.2326239,4.1140925 1.1996905,4.1224902 1.0039062,4.2050782 0.8187818,4.2831696 0.60655801,4.3242187 0.38795066,4.3242187 c -0.16568904,0 -0.21502398,-0.017925 -0.21502398,-0.078125 0,-0.033582 0.0178285,-0.054432 0.0654373,-0.076526 0.0374562,-0.017383 0.088252,-0.029605 0.2010891,-0.048385 0.18716249,-0.03115 0.26335812,-0.047864 0.35879214,-0.078705 0.062979,-0.020353 0.11165461,-0.040254 0.21152028,-0.086482 0.142398,-0.065916 0.1925446,-0.084902 0.2242533,-0.084902 0.029647,0 0.1025923,0.027433 0.2460606,0.092538 0.1374957,0.062394 0.1841281,0.079657 0.2718736,0.1006425 0.1169104,0.027961 0.2200137,0.035013 0.4707033,0.032197 0.1994525,-0.00224 0.2370066,-0.005 0.3336321,-0.02449 0.093186,-0.018798 0.1706763,-0.048185 0.3519147,-0.1334596 0.1261971,-0.059377 0.1858838,-0.083293 0.2143057,-0.08587 0.031601,-0.00287 0.061207,0.010214 0.1592248,0.070341 0.1451995,0.08907 0.3492634,0.1553108 0.5619294,0.1824075 0.2050455,0.026126 0.3499073,0.017127 0.5586807,-0.034706 0.153834,-0.038193 0.2582075,-0.076697 0.4296875,-0.1585152 0.086381,-0.041215 0.1269403,-0.057225 0.1503907,-0.059365 0.020501,-0.00187 0.023898,-7.299e-4 0.074219,0.024928 0.029004,0.014789 0.076971,0.040585 0.1065942,0.057324 0.1301465,0.073545 0.271289,0.1237013 0.4296742,0.1526892 0.1192976,0.021834 0.1385523,0.023302 0.3055285,0.023301 0.1405676,-1.5e-6 0.1626813,-8.856e-4 0.2203266,-0.00881 0.1971289,-0.027092 0.2953726,-0.058849 0.539439,-0.1743774 0.099292,-0.046999 0.1463067,-0.067106 0.1728239,-0.073912 0.034038,-0.00874 0.054024,-7.469e-4 0.1649906,0.065953 0.077666,0.046684 0.1009094,0.058754 0.157507,0.08179 0.1149774,0.046798 0.2309031,0.075242 0.4792879,0.1176006 0.058008,0.00989 0.1195312,0.021519 0.1367187,0.025836 0.059161,0.014861 0.092264,0.033177 0.101977,0.056422 0.00823,0.019685 0.00705,0.065127 -0.00214,0.083154 -0.00944,0.018504 -0.020798,0.026082 -0.05196,0.034666 -0.020732,0.00571 -0.042796,0.00672 -0.1455309,0.00665 C 7.5483551,4.3259456 7.5056297,4.3229108 7.4199219,4.3081337 7.279484,4.2839205 7.150027,4.2423691 6.918307,4.1471316 L 6.828801,4.1103446 6.801119,4.1218936 C 6.4932531,4.2503425 6.3703543,4.2882087 6.1773746,4.314075 6.0533121,4.3307039 6.0022031,4.3339844 5.8671875,4.3339844 5.7102508,4.3339844 5.6372973,4.32696 5.500132,4.2986422 5.3577258,4.2692424 5.2465348,4.2309292 5.0616211,4.1475444 l -0.086816,-0.039149 -0.094824,0.039336 c -0.255693,0.1060684 -0.3556637,0.1382094 -0.4874024,0.156702 -0.090081,0.012645 -0.1479308,0.016078 -0.3125,0.018545 -0.3096891,0.00464 -0.4835798,-0.017464 -0.671875,-0.085412 -0.024707,-0.00892 -0.1027837,-0.040527 -0.1735038,-0.070248 -0.07072,-0.02972 -0.1307697,-0.054037 -0.1334437,-0.054037 -0.00267,0 -0.047644,0.016883 -0.099934,0.037518 -0.344342,0.1358857 -0.4579528,0.1652532 -0.700474,0.1810675 -0.056105,0.00366 -0.2693672,0.00468 -0.3086604,0.00149 z"
       id="path7348"
       transform="scale(0.26458333)" />
    <path
       style="fill:#ff7f2a;fill-opacity:1;stroke-width:0.00390625"
       d="m 0.26719905,2.7733873 c -0.0235585,-0.00399 -0.0396065,-0.012592 -0.0582603,-0.031245 -0.0317379,-0.031738 -0.040017,-0.067007 -0.021027,-0.089575 0.0300701,-0.035736 0.0795046,-0.050497 0.32185391,-0.096105 0.23625368,-0.04446 0.31367977,-0.067735 0.50585934,-0.1520619 0.1491036,-0.065426 0.1952006,-0.080181 0.2504884,-0.080181 0.042673,0 0.055262,0.00464 0.1440428,0.053127 0.088447,0.048301 0.1537677,0.077193 0.2382813,0.1053919 0.1807653,0.060315 0.3432111,0.083109 0.5603584,0.078628 0.2652498,-0.00547 0.4313896,-0.048069 0.7189385,-0.1843271 0.1249269,-0.059198 0.1504798,-0.06931 0.1806607,-0.071493 0.035505,-0.00257 0.043611,6.839e-4 0.2099643,0.084241 0.076269,0.038309 0.165039,0.080704 0.1972656,0.09421 0.032227,0.013506 0.071234,0.030407 0.086684,0.037557 0.059686,0.027621 0.1021663,0.06546 0.1228729,0.1094455 0.014889,0.031626 0.027492,0.083017 0.026018,0.1060883 L 3.75,2.7558594 3.7207031,2.7553703 C 3.675337,2.754613 3.6054326,2.7351867 3.34375,2.650616 3.2312232,2.6142496 3.1366225,2.5869711 3.1114528,2.5836322 3.0818734,2.5797084 3.0216479,2.5975057 2.8359375,2.6650501 2.5759707,2.7596023 2.5141686,2.7694979 2.1835938,2.7695015 1.7833239,2.769506 1.715962,2.7558316 1.3587152,2.6020526 1.2981961,2.5760018 1.246982,2.5546875 1.2449061,2.5546875 c -0.00208,0 -0.046139,0.017485 -0.097918,0.038855 -0.27605458,0.1139322 -0.45269403,0.1626992 -0.65089395,0.1797001 -0.0535411,0.00459 -0.20204532,0.00469 -0.2288951,1.447e-4 z"
       id="path7498"
       transform="scale(0.26458333)" />
    <path
       style="fill:#ff7f2a;fill-opacity:1;stroke-width:0.00390625"
       d="M 4.9296875,3.3646666 C 4.7085741,3.3405584 4.5131312,3.2548923 4.3526619,3.1117458 4.2127436,2.9869319 4.1201052,2.8428621 4.0788182,2.6858681 L 4.0664062,2.6386719 4.066582,2.5234375 C 4.0667518,2.412103 4.0671239,2.4065663 4.0775775,2.3598364 4.1066358,2.2299397 4.1443919,2.1265779 4.2168669,1.9785156 4.3315406,1.7442438 4.5289686,1.4406022 4.7826178,1.1083984 l 0.05294,-0.069336 0.2130803,1.32e-5 0.2130802,1.32e-5 0.060984,0.077135 C 5.7348212,1.637488 5.970714,2.0650232 6.031242,2.4003903 c 0.00996,0.05519 0.012074,0.1590761 0.00431,0.2116856 -0.01186,0.080305 -0.030124,0.137978 -0.069219,0.2185679 C 5.9079167,2.9510631 5.8074625,3.0704375 5.6894531,3.1596731 5.5430445,3.2703836 5.3882767,3.3335824 5.2045274,3.3576905 c -0.04653,0.0061 -0.2382088,0.01097 -0.2748399,0.00698 z M 5.133943,3.1170569 C 5.2546959,3.104206 5.3550558,3.0711454 5.4520758,3.0122577 5.5648402,2.9438135 5.6537477,2.8377424 5.7064476,2.7087794 5.7288176,2.6540373 5.7324295,2.6331614 5.7323876,2.5588529 5.7322734,2.3564453 5.7139559,2.2891061 5.5931201,2.046875 5.4406686,1.7412661 5.2551063,1.4644988 5.0706301,1.2675781 l -0.025616,-0.027344 -0.00884,0.010128 C 5.0078446,1.2828418 4.8836345,1.4399403 4.8496123,1.4863281 4.7257013,1.6552754 4.597367,1.8689391 4.4976765,2.0722656 4.4245581,2.2213963 4.3843918,2.3278382 4.3686978,2.4140625 c -0.00816,0.044811 -0.00698,0.1690008 0.002,0.2109375 0.032442,0.1514929 0.1205743,0.280582 0.2555689,0.3743357 0.08054,0.055935 0.2207844,0.1099393 0.3092754,0.1190934 0.031597,0.00327 0.1633518,0.00236 0.1983961,-0.00137 z"
       id="path7537"
       transform="scale(0.26458333)" />
  </g>
</svg>
