<?xml version="1.0" encoding="UTF-8" standalone="no"?>
<!-- Created with Inkscape (http://www.inkscape.org/) -->

<svg
   sodipodi:docname="iot.svg"
   viewBox="0 0 400.00002 220"
   height="220"
   width="400"
   id="svg9323"
   version="1.1"
   inkscape:version="1.1 (c68e22c387, 2021-05-23)"
   xmlns:inkscape="http://www.inkscape.org/namespaces/inkscape"
   xmlns:sodipodi="http://sodipodi.sourceforge.net/DTD/sodipodi-0.dtd"
   xmlns="http://www.w3.org/2000/svg"
   xmlns:svg="http://www.w3.org/2000/svg">
  <defs
     id="defs9327">
    <rect
       x="331.23434"
       y="618.20233"
       width="206.06744"
       height="228.96384"
       id="rect26658" />
    <rect
       x="331.23434"
       y="618.20233"
       width="206.06744"
       height="228.96384"
       id="rect26658-2" />
  </defs>
  <sodipodi:namedview
     id="namedview9325"
     pagecolor="#ffffff"
     bordercolor="#666666"
     borderopacity="1.0"
     inkscape:pageshadow="2"
     inkscape:pageopacity="0.0"
     inkscape:pagecheckerboard="0"
     showgrid="false"
     inkscape:zoom="4.6222224"
     inkscape:cx="221.21393"
     inkscape:cy="179.24278"
     inkscape:window-width="1920"
     inkscape:window-height="1017"
     inkscape:window-x="-8"
     inkscape:window-y="-8"
     inkscape:window-maximized="1"
     inkscape:current-layer="g10467"
     width="200px" />
  <g
     inkscape:groupmode="layer"
     inkscape:label="Image"
     id="g9329">
    <g
       id="g10467"
       style="fill:#00b6d9;fill-opacity:1"
       transform="matrix(0.36044081,0,0,0.36767744,-5.966752,-36.886382)">
      <path
         style="fill:#ec6823;fill-opacity:1;stroke-width:0.865385"
         d=""
         id="path5525"
         transform="matrix(2.7743806,0,0,2.7197752,16.554041,100.32267)" />
      <path
         style="fill:#ec6823;fill-opacity:1;stroke-width:0.865385"
         d=""
         id="path5564"
         transform="matrix(2.7743806,0,0,2.7197752,16.554041,100.32267)" />
      <path
         style="fill:#808000;fill-opacity:1;stroke-width:0.611919"
         d=""
         id="path13643"
         transform="matrix(2.7743806,0,0,2.7197752,16.554041,100.32267)" />
      <g
         id="g131"
         transform="matrix(1.9863843,0,0,2.0355499,313.72993,185.57843)"
         style="fill:#cedf8f;fill-opacity:1">
        <path
           style="fill:#cedf8f;fill-opacity:1;stroke-width:0.264583"
           d="m 118.9133,195.37432 c -5.09631,-0.66977 -8.84658,-1.78609 -13.36146,-3.97723 -10.95016,-5.31428 -17.436312,-13.48332 -20.073045,-25.28118 -2.298618,-10.28499 -1.183364,-18.03508 4.129526,-28.69676 2.401657,-4.81954 3.669606,-7.74328 5.622398,-12.96458 2.936325,-7.85104 4.871501,-13.53803 5.987191,-17.59479 4.5938,-16.703675 8.38274,-20.966014 20.01323,-22.513743 5.70386,-0.759043 13.04279,1.042816 16.70317,4.100975 3.51424,2.936067 5.29137,6.549274 8.34044,16.957558 3.88237,13.25278 5.72385,18.23819 10.21284,27.64896 5.6042,11.74871 6.9471,16.4706 6.96035,24.47395 0.008,4.93454 -0.47052,8.16492 -1.80947,12.21087 -2.42935,7.3409 -7.25278,13.89016 -13.49057,18.31752 -4.70855,3.34197 -11.24299,6.02465 -17.12451,7.03039 -3.43725,0.58777 -8.8499,0.71652 -12.11009,0.28806 z m 12.19002,-4.35325 c 8.37175,-1.67111 16.37585,-6.72029 21.00895,-13.25296 1.01575,-1.4322 3.3096,-5.73283 4.16311,-7.80521 2.49811,-6.06558 2.74936,-16.2596 0.577,-23.41108 -0.80999,-2.66652 -2.58645,-7.0871 -4.25486,-10.58788 -3.94887,-8.28583 -5.85189,-13.60222 -9.32882,-26.06146 -1.84038,-6.59484 -2.15693,-7.51847 -3.40049,-9.92187 -3.05343,-5.901304 -7.2406,-8.336099 -14.86949,-8.646445 -3.07489,-0.125087 -3.9032,-0.06604 -5.95313,0.424402 -4.53282,1.084464 -7.6684,3.168461 -9.8141,6.522732 -1.86757,2.919481 -2.74064,5.323151 -5.13405,14.134731 -0.69171,2.54661 -1.8516,6.29708 -2.57752,8.33437 -3.741319,10.49997 -4.459234,12.38905 -5.681122,14.94896 -5.019673,10.51643 -6.129384,14.38076 -6.116389,21.29896 0.0148,7.8792 2.591901,16.05675 6.768049,21.47612 1.713178,2.22317 3.591402,4.11584 3.897002,3.92697 0.14494,-0.0896 0.2059,-0.008 0.13546,0.1816 -0.21648,0.5823 5.4027,4.46511 8.6008,5.94308 2.91853,1.34878 8.00267,2.7176 11.50937,3.09871 2.11127,0.22946 7.99618,-0.10987 10.47023,-0.60373 z m -8.27088,-18.72537 c 0.191,-0.0764 0.4192,-0.067 0.50712,0.0209 0.0879,0.0879 -0.0684,0.15045 -0.34727,0.13896 -0.30822,-0.0127 -0.37091,-0.0754 -0.15985,-0.15985 z m 2.38125,0 c 0.191,-0.0764 0.4192,-0.067 0.50712,0.0209 0.0879,0.0879 -0.0683,0.15045 -0.34727,0.13896 -0.30822,-0.0127 -0.37091,-0.0754 -0.15985,-0.15985 z m -5.47878,-0.62279 c -1.58745,-0.32804 -3.39803,-1.02562 -4.61182,-1.77684 -0.85654,-0.53012 -1.08019,-0.57312 -1.45521,-0.27978 -0.38592,0.30187 -0.40144,0.2931 -0.12023,-0.0679 0.27062,-0.34743 0.1207,-0.61029 -0.92604,-1.62364 -0.71636,-0.69351 -1.44692,-1.17538 -1.71321,-1.13004 -0.25536,0.0435 -0.39596,-0.0315 -0.31245,-0.16661 0.0835,-0.13512 0.27811,-0.16763 0.43246,-0.0722 0.16127,0.0997 0.22852,0.0171 0.1581,-0.19412 -0.0674,-0.20216 -0.2515,-0.36756 -0.40915,-0.36756 -0.15764,0 -0.38585,-0.10839 -0.50712,-0.24086 -0.13017,-0.1422 -0.0709,-0.15421 0.14457,-0.0293 0.24969,0.14468 0.32634,0.0954 0.24254,-0.15602 -0.0674,-0.20216 -0.25151,-0.36756 -0.40915,-0.36756 -0.15765,0 -0.38585,-0.10839 -0.50712,-0.24086 -0.13075,-0.14282 -0.0676,-0.15208 0.1552,-0.0228 0.29281,0.17 0.32913,0.10639 0.1646,-0.28831 -0.87879,-2.10829 -1.31772,-3.36694 -1.65291,-4.73976 -0.42181,-1.7276 -0.86334,-9.39325 -0.54102,-9.39291 0.10914,1.1e-4 0.20101,-0.38675 0.20416,-0.85969 0.008,-1.2527 0.90063,-5.06144 1.70537,-7.27942 0.38347,-1.05688 0.6132,-2.05754 0.51051,-2.22369 -0.10384,-0.16801 -0.0705,-0.23026 0.0752,-0.14025 0.29772,0.184 1.17306,-1.48217 1.04738,-1.99363 -0.0453,-0.18448 -0.0312,-0.24233 0.0314,-0.12858 0.1367,0.24852 2.21474,-2.66179 2.31383,-3.24053 0.0382,-0.22324 0.18486,-0.382 0.32585,-0.35281 0.141,0.0292 0.66096,-0.37566 1.15548,-0.89966 0.566,-0.59974 0.72248,-0.8901 0.42236,-0.7837 -0.29058,0.10301 -0.41194,0.0641 -0.31077,-0.0996 0.0913,-0.14771 0.30583,-0.24043 0.47676,-0.20604 0.44861,0.0903 1.54123,-0.56375 1.37937,-0.82565 -0.0753,-0.12179 0.0702,-0.20511 0.32332,-0.18516 0.25309,0.0199 0.43159,-0.109 0.39666,-0.28656 -0.0349,-0.17755 0.20319,-0.45201 0.52916,-0.60991 0.56964,-0.27591 0.57272,-0.27108 0.0791,0.12439 -0.67032,0.53704 -0.55942,0.52223 1.31651,-0.17589 2.3585,-0.87769 5.49748,-0.80743 7.79604,0.17451 0.94589,0.40407 1.91965,0.74731 2.16391,0.76275 0.24427,0.0155 0.42287,0.13651 0.39688,0.26904 -0.026,0.13253 0.11815,0.30106 0.32031,0.37451 0.24654,0.0896 0.29841,0.0217 0.15756,-0.20625 -0.13873,-0.22446 -0.10486,-0.27481 0.0998,-0.14833 0.17037,0.1053 0.24961,0.28879 0.17608,0.40777 -0.20864,0.33759 0.59072,0.87427 0.97337,0.65352 0.18828,-0.10862 0.25405,-0.10006 0.14618,0.019 -0.25228,0.27848 0.31081,0.96878 0.62955,0.77179 0.13264,-0.082 0.20844,0.009 0.16846,0.20135 -0.04,0.19271 0.085,0.31768 0.27769,0.27769 0.19272,-0.04 0.28333,0.0358 0.20135,0.16846 -0.082,0.13264 0.0511,0.40348 0.29571,0.60187 0.37787,0.30647 0.41107,0.30483 0.22079,-0.0109 -0.15317,-0.25414 -0.12604,-0.31109 0.0858,-0.18016 0.17037,0.1053 0.25761,0.27585 0.19386,0.37901 -0.0637,0.10315 0.12323,0.48188 0.41552,0.84161 0.29229,0.35973 0.44248,0.47547 0.33376,0.25719 -0.10872,-0.21828 -0.0958,-0.30414 0.0288,-0.19078 0.12455,0.11335 0.24992,0.36592 0.27859,0.56126 0.0955,0.65066 0.95665,1.74407 1.2371,1.57074 0.15415,-0.0953 0.1984,-0.0445 0.1,0.11474 -0.24187,0.39135 0.37216,1.67152 0.70351,1.46673 0.14673,-0.0907 0.19018,-0.0409 0.0966,0.11053 -0.0936,0.15148 0.1997,1.09124 0.65182,2.08837 3.21975,7.101 3.02664,17.11144 -0.43592,22.59648 -0.40965,0.64893 -0.74482,1.32416 -0.74482,1.50051 0,0.17635 -0.0911,0.26435 -0.20238,0.19556 -0.28705,-0.1774 -1.04376,0.97416 -0.84813,1.29069 0.0892,0.14429 0.0382,0.18573 -0.11335,0.0921 -0.15152,-0.0936 -0.4378,0.0299 -0.63619,0.27449 -0.20848,0.25705 -0.22885,0.36566 -0.0483,0.25735 0.17184,-0.10307 0.37251,-0.0902 0.44593,0.0286 0.0734,0.11879 -0.12672,0.2225 -0.44474,0.23047 -0.31803,0.008 -1.40608,0.56757 -2.4179,1.24355 -1.01182,0.67597 -2.00111,1.22904 -2.19843,1.22904 -0.2038,0 -0.27721,0.13194 -0.16996,0.30547 0.10451,0.1691 0.0737,0.23433 -0.069,0.14613 -0.28068,-0.17347 -2.56467,0.42342 -2.36947,0.61923 0.23311,0.23384 -6.86614,0.2141 -8.00996,-0.0223 z m 18.11311,-4.83027 c 0.0994,-0.26094 0.2473,-0.40779 0.32877,-0.32632 0.0815,0.0815 1.6e-4,0.29495 -0.18066,0.47443 -0.2613,0.25936 -0.2917,0.22897 -0.14811,-0.14811 z"
           id="path145" />
        <path
           style="fill:#cedf8f;fill-opacity:1;stroke-width:0.264583"
           d="m 120.5008,195.49268 c -11.65904,-0.9806 -22.40489,-6.68628 -28.776109,-15.27914 -5.090112,-6.86504 -8.071719,-17.79575 -7.208407,-26.42637 0.572413,-5.72248 1.75379,-9.36533 5.694275,-17.55864 3.180806,-6.61375 3.021691,-6.22624 6.778869,-16.50903 1.589622,-4.35054 3.487472,-10.06554 4.217452,-12.7 2.5074,-9.049158 3.9611,-12.65288 6.42726,-15.93317 5.21736,-6.939698 17.87821,-8.977381 27.41874,-4.412868 1.47994,0.708052 2.49442,1.460772 3.9908,2.961082 3.04976,3.057779 4.2883,5.825406 7.49408,16.746176 3.72967,12.70545 5.26154,16.84088 9.69052,26.16056 3.37977,7.1119 5.45064,12.38334 6.22284,15.84034 1.58625,7.10139 1.28882,15.0476 -0.79877,21.33987 -3.09885,9.34035 -9.79348,16.96353 -18.79426,21.40104 -5.35532,2.64025 -9.82757,3.88655 -15.6898,4.37234 -3.34879,0.27751 -3.34188,0.27751 -6.66749,-0.002 z m 9.45334,-2.00942 c -0.0879,-0.0879 -0.31612,-0.0973 -0.50712,-0.0209 -0.21106,0.0845 -0.14837,0.14716 0.15986,0.15985 0.27891,0.0115 0.43518,-0.051 0.34726,-0.13896 z m 0.51322,-2.0853 c 14.99129,-2.71958 26.00751,-14.21258 27.87967,-29.08631 0.73431,-5.83387 -0.15761,-13.46465 -2.13642,-18.27792 -0.11965,-0.29104 -0.52269,-1.32066 -0.89564,-2.28805 -0.37295,-0.96739 -1.34783,-3.22958 -2.16639,-5.02708 -4.79469,-10.52879 -7.09518,-17.02357 -10.3419,-29.19737 -2.19196,-8.218921 -4.78904,-12.296702 -9.18537,-14.422312 -3.41311,-1.650227 -4.99026,-1.976967 -9.54863,-1.978205 -3.33452,-9.06e-4 -4.29852,0.09429 -6.03229,0.595711 -3.21187,0.928898 -5.12862,2.022755 -7.06459,4.031657 -2.94798,3.059037 -4.60028,6.970749 -7.13075,16.881599 -0.28613,1.12068 -1.04955,3.5849 -1.69648,5.47604 -4.359232,12.7431 -5.026509,14.49124 -7.523577,19.71031 -2.598413,5.43089 -3.447402,7.65567 -4.31715,11.31314 -1.443874,6.07178 -1.0672,12.76787 1.117646,19.86825 3.728374,12.11658 14.102201,20.55512 27.868351,22.66937 2.79788,0.42971 8.01485,0.30419 11.17352,-0.26883 z m -10.9474,-19.84966 c -8.27131,-1.79754 -12.68018,-9.91532 -11.47179,-21.12229 1.19998,-11.12903 6.94037,-19.54394 14.01437,-20.54384 5.93621,-0.83908 12.071,3.49194 15.51994,10.95671 3.46711,7.50411 3.58492,16.46559 0.29938,22.77402 -1.25181,2.40355 -4.41336,5.46185 -6.83522,6.61198 -3.45965,1.64298 -7.7759,2.13855 -11.52668,1.32342 z m -15.8202,16.53856 c -0.0899,-0.14552 -0.30532,-0.26276 -0.47864,-0.26053 -0.18934,0.002 -0.1567,0.10642 0.0818,0.26053 0.5083,0.32849 0.59989,0.32849 0.39688,0 z m -4.101043,-2.74573 c 0,-0.0549 -0.208359,-0.2633 -0.463021,-0.46302 -0.419645,-0.32911 -0.429003,-0.31975 -0.0999,0.0999 0.345644,0.44073 0.562917,0.58088 0.562917,0.36312 z m 49.609373,-0.42927 c 0.26339,-0.29104 0.41936,-0.52917 0.3466,-0.52917 -0.0728,0 -0.34779,0.23813 -0.61118,0.52917 -0.26339,0.29104 -0.41936,0.52917 -0.3466,0.52917 0.0728,0 0.34779,-0.23813 0.61118,-0.52917 z m -51.461456,-1.14112 c 0,-0.0455 -0.386953,-0.43249 -0.859896,-0.8599 l -0.859896,-0.77711 0.777105,0.8599 c 0.724371,0.80155 0.942687,0.98151 0.942687,0.77711 z m -2.116667,-2.39836 c 0,-0.0549 -0.208359,-0.2633 -0.463021,-0.46302 -0.419645,-0.32911 -0.429003,-0.31975 -0.0999,0.0999 0.345644,0.44073 0.562917,0.58088 0.562917,0.36312 z m 57.448333,-0.36312 c 0.32911,-0.41965 0.31975,-0.42901 -0.0999,-0.0999 -0.44072,0.34564 -0.58088,0.56292 -0.36312,0.56292 0.0549,0 0.2633,-0.20836 0.46302,-0.46302 z M 89.312266,170.44577 c -0.311903,-0.53637 -0.387221,-0.36469 -0.131904,0.30065 0.09074,0.23646 0.220714,0.37419 0.288836,0.30607 0.06812,-0.0681 -0.0025,-0.34115 -0.156932,-0.60672 z m -2.497391,-12.8356 c -0.08446,-0.21107 -0.147157,-0.14838 -0.159853,0.15985 -0.01149,0.27891 0.05105,0.43518 0.138965,0.34727 0.08792,-0.0879 0.09732,-0.31613 0.02089,-0.50712 z m 0,-2.11667 c -0.08446,-0.21107 -0.147157,-0.14837 -0.159853,0.15985 -0.01149,0.27892 0.05105,0.43519 0.138965,0.34727 0.08792,-0.0879 0.09732,-0.31612 0.02089,-0.50712 z m 0.264583,-2.91042 c -0.08446,-0.21106 -0.147157,-0.14837 -0.159853,0.15986 -0.01149,0.27891 0.05105,0.43518 0.138965,0.34726 0.08792,-0.0879 0.09732,-0.31612 0.02089,-0.50712 z m 1.384112,-6.30039 c -0.0096,-0.26169 -0.092,-0.21662 -0.241936,0.13229 -0.312558,0.72737 -0.312558,1.14511 0,0.66146 0.141064,-0.21828 0.249935,-0.57547 0.241936,-0.79375 z m 50.55806,-53.810308 c 0,-0.05494 -0.20836,-0.263302 -0.46302,-0.463021 -0.41964,-0.329108 -0.429,-0.319749 -0.0999,0.0999 0.34564,0.440729 0.56291,0.580887 0.56291,0.363126 z m -26.68916,-2.479793 c 0.33589,-0.428296 0.32344,-0.433911 -0.16604,-0.07487 -0.29105,0.213484 -0.57878,0.421843 -0.63941,0.463021 -0.0606,0.04118 0.0141,0.07487 0.16604,0.07487 0.15195,0 0.43969,-0.20836 0.63941,-0.463021 z"
           id="path143" />
        <path
           style="fill:#cedf8f;fill-opacity:1;stroke-width:0.264583"
           d="m 117.45809,195.12349 c -12.16874,-2.00536 -22.452701,-8.7674 -27.952382,-18.3796 -4.880247,-8.52957 -6.358392,-20.77637 -3.628657,-30.06432 0.780073,-2.65421 2.569076,-6.93975 4.541331,-10.87873 0.938729,-1.87483 2.185199,-4.53987 2.769936,-5.92231 1.589167,-3.75715 6.543053,-17.49709 7.345382,-20.37292 3.69435,-13.241835 5.10632,-16.54016 8.56645,-20.01095 3.21305,-3.222939 7.66243,-4.841391 13.90794,-5.058977 8.48108,-0.29547 14.58467,2.297812 18.09724,7.68912 1.73345,2.660586 2.74821,5.335465 5.28886,13.941227 3.7643,12.75058 5.65874,17.87505 9.8301,26.59062 3.63367,7.59212 5.55456,12.5742 6.47781,16.80104 0.68719,3.14606 0.83275,10.83573 0.27296,14.41979 -1.23129,7.88344 -4.57277,14.42251 -10.29299,20.14273 -5.45746,5.45746 -11.86453,8.87815 -20.07118,10.71587 -3.14038,0.70324 -11.8804,0.92668 -15.1528,0.38741 z m 13.15926,-1.64042 c 8.12288,-1.34987 16.32873,-5.62041 21.34412,-11.10805 3.48417,-3.81223 6.73783,-9.54063 8.08505,-14.23454 2.19148,-7.63545 1.79266,-17.04565 -1.04413,-24.63591 -0.89948,-2.4067 -1.92704,-4.75418 -6.08038,-13.89063 -2.75885,-6.06887 -4.5392,-11.29341 -8.59142,-25.21194 -3.12988,-10.750467 -5.85445,-14.318596 -12.63255,-16.543733 -2.79213,-0.91661 -5.09615,-1.188841 -8.71607,-1.029845 -6.67798,0.293313 -11.36482,2.37518 -14.28867,6.346947 -2.33147,3.167078 -3.6994,6.625717 -6.14486,15.536491 -1.41697,5.16315 -6.122307,18.58921 -8.159948,23.28333 -0.663265,1.52797 -1.786956,3.93801 -2.497092,5.35564 -5.054179,10.08956 -6.334041,18.16259 -4.358486,27.49213 1.678655,7.92744 4.400036,13.19881 9.413554,18.23425 8.475702,8.51276 21.269712,12.4667 33.670882,10.40586 z M 119.7261,171.55474 c -5.4594,-1.2429 -9.14008,-4.72496 -10.82859,-10.24427 -2.14826,-7.02208 -0.69055,-17.26645 3.44605,-24.21777 1.3924,-2.33984 4.28549,-5.11618 6.43305,-6.17342 1.7638,-0.86831 1.97422,-0.90846 4.76133,-0.90846 2.81175,0 2.98692,0.0343 4.90036,0.96057 6.35622,3.07686 10.71441,10.38511 11.65417,19.54291 0.48157,4.69277 -0.41061,9.76617 -2.34755,13.3494 -0.95807,1.77237 -3.18975,4.13795 -5.11935,5.42648 -3.26403,2.17964 -8.91496,3.17168 -12.89947,2.26456 z"
           id="path141" />
        <path
           style="fill:#cedf8f;fill-opacity:1;stroke-width:0.264583"
           d="m 118.9133,195.32175 c -14.53359,-1.90742 -26.632219,-10.71446 -31.456567,-22.8984 -1.791705,-4.52497 -2.937109,-10.59179 -2.937195,-15.55732 -1.2e-4,-7.01969 1.271465,-11.50357 6.002657,-21.16667 3.623084,-7.39987 8.267757,-19.88655 11.048855,-29.70359 2.77273,-9.787476 4.61831,-13.709255 7.8902,-16.766345 2.09545,-1.957876 4.1805,-3.06902 7.4992,-3.996397 2.41798,-0.67568 2.96203,-0.729024 7.24452,-0.710318 4.23439,0.0185 4.82898,0.08085 6.95545,0.729384 3.64029,1.110226 5.88568,2.367655 7.91942,4.434916 2.76588,2.811466 4.3752,6.379243 7.08974,15.71756 3.57661,12.3039 5.34981,17.24764 8.92057,24.87083 6.97333,14.88735 7.93065,17.91847 8.18921,25.92917 0.23818,7.37915 -0.74434,12.17048 -3.74366,18.25625 -3.65941,7.42511 -9.23212,12.93392 -16.95568,16.76129 -5.92866,2.93791 -10.54435,4.01578 -17.71359,4.13651 -2.7649,0.0466 -5.44381,0.03 -5.95313,-0.0369 z m 12.72711,-1.92168 c 7.68663,-1.53205 14.24133,-4.99211 19.55966,-10.32504 6.83817,-6.85695 10.31115,-15.43696 10.31115,-25.47373 0,-7.75732 -1.54265,-13.22716 -6.88586,-24.41548 -3.66955,-7.68381 -5.62964,-13.10461 -9.27963,-25.66365 -2.55622,-8.795562 -3.76387,-11.792622 -5.86408,-14.553019 -1.9794,-2.601597 -4.16579,-4.027877 -8.05047,-5.251673 -4.44887,-1.401533 -8.73231,-1.494254 -13.50235,-0.292275 -3.19161,0.804238 -5.41008,1.890699 -7.28854,3.569453 -3.47222,3.103081 -5.21697,6.875909 -8.11544,17.548764 -1.12461,4.14108 -4.212111,13.20821 -6.944106,20.39287 -0.446063,1.17307 -1.857597,4.33552 -3.136738,7.02765 -2.926215,6.15864 -3.78728,8.33213 -4.816356,12.15739 -0.785651,2.9204 -0.823038,3.29121 -0.841698,8.34782 -0.01702,4.61193 0.06076,5.66552 0.605493,8.20208 1.738106,8.09354 4.413841,13.25171 9.550805,18.41165 5.88508,5.91141 13.8129,9.71715 22.52414,10.81271 2.84481,0.35777 9.18835,0.0996 12.17402,-0.49552 z m -10.74273,-21.70083 c -6.87645,-1.12234 -10.94275,-5.13386 -12.41144,-12.24424 -0.88977,-4.30765 -0.40771,-11.48914 1.07909,-16.07575 4.465,-13.77401 15.40418,-17.69418 23.90005,-8.56484 2.6937,2.89454 4.67525,6.67906 5.87464,11.2198 0.5031,1.9047 0.5911,2.9328 0.59872,6.99536 0.008,4.26801 -0.0554,4.96854 -0.61068,6.74687 -1.89376,6.06492 -5.84258,10.07924 -11.31946,11.50722 -1.92633,0.50225 -5.35295,0.70251 -7.11092,0.41558 z"
           id="path139" />
        <path
           style="fill:#cedf8f;fill-opacity:1;stroke-width:0.264583"
           d="m 118.51643,195.2097 c -13.10559,-1.78757 -24.157233,-9.18697 -29.621536,-19.83248 -2.835094,-5.52332 -4.246951,-11.72875 -4.241755,-18.64349 0.0053,-7.11123 1.043459,-10.89861 5.54697,-20.23721 3.141583,-6.51446 3.486507,-7.35349 7.01711,-17.06904 2.522791,-6.94224 3.164421,-8.90962 4.616461,-14.1552 1.4691,-5.307247 2.10542,-7.113894 3.58776,-10.186462 2.85458,-5.916916 6.1142,-8.501404 12.75827,-10.115786 2.96599,-0.720679 9.39016,-0.639527 12.37526,0.156328 3.54218,0.944379 6.38876,2.444612 8.29238,4.370337 3.02338,3.058494 4.33265,5.907336 7.18519,15.634243 3.85017,13.12876 5.87354,18.64965 10.01697,27.33198 6.0554,12.68876 7.17104,16.61313 7.16312,25.19686 -0.005,5.74 -0.41868,8.40512 -1.99811,12.88214 -4.36744,12.37983 -14.8992,21.17338 -28.93976,24.16339 -3.04875,0.64924 -10.65259,0.92801 -13.75833,0.50439 z m 11.18038,-1.42727 c 16.69643,-2.52486 28.94276,-14.25088 31.45612,-30.11962 0.63811,-4.02883 0.37872,-11.51117 -0.53226,-15.35341 -0.79866,-3.36853 -2.81628,-8.53082 -5.87261,-15.02565 -3.97949,-8.45659 -5.78467,-13.44088 -9.3459,-25.80502 -1.17009,-4.06243 -2.32281,-7.857886 -2.5616,-8.43436 -2.6646,-6.432817 -5.20606,-9.17449 -10.19093,-10.993742 -4.14406,-1.512396 -8.2978,-1.895453 -12.57719,-1.159868 -4.8406,0.83205 -7.36207,2.034606 -10.18524,4.857615 -1.68882,1.688731 -2.23097,2.463813 -3.35234,4.792651 -1.55898,3.237667 -2.19617,5.103044 -4.04147,11.831374 -1.2196,4.4469 -6.03062,18.40072 -7.734198,22.43217 -0.368959,0.87312 -1.525852,3.37344 -2.570872,5.55625 -5.464648,11.41442 -6.630995,17.49009 -5.130004,26.72291 2.074263,12.75911 8.842029,21.96742 20.037764,27.26363 3.74353,1.77091 8.36934,3.12197 12.47868,3.64467 2.0466,0.26032 7.8028,0.14113 10.12205,-0.2096 z m -8.40226,-22.1463 c -3.71677,-0.35706 -6.38052,-1.6054 -8.76824,-4.10914 -1.69928,-1.78186 -2.87359,-3.9292 -3.68455,-6.73756 -0.78513,-2.71887 -0.98828,-8.89777 -0.40874,-12.43133 1.3476,-8.21646 5.273,-14.77934 10.3536,-17.31022 6.84985,-3.41223 14.87862,1.05151 18.97293,10.54835 1.7552,4.07122 2.1731,6.26483 2.17817,11.43334 0.004,3.90931 -0.075,4.77334 -0.60219,6.60266 -2.42299,8.40699 -9.11728,12.86116 -18.04098,12.0039 z"
           id="path137" />
        <path
           style="fill:#cedf8f;fill-opacity:1;stroke-width:0.264583"
           d="m 122.41903,195.29967 c 0.83674,-0.0525 2.20596,-0.0525 3.04271,0 0.83674,0.0525 0.15213,0.0955 -1.52136,0.0955 -1.67349,0 -2.35809,-0.043 -1.52135,-0.0955 z m -3.56879,-0.25619 c 0.32912,-0.0633 0.80537,-0.0609 1.05833,0.005 0.25297,0.0662 -0.0163,0.118 -0.59839,0.11506 -0.58209,-0.003 -0.78906,-0.0571 -0.45994,-0.1204 z m 9.38962,0.005 c 0.25466,-0.0665 0.67138,-0.0665 0.92604,0 0.25467,0.0666 0.0463,0.121 -0.46302,0.121 -0.50932,0 -0.71768,-0.0545 -0.46302,-0.121 z m -11.24479,-0.25743 c 0.1819,-0.0734 0.47956,-0.0734 0.66146,0 0.1819,0.0734 0.0331,0.13345 -0.33073,0.13345 -0.3638,0 -0.51263,-0.06 -0.33073,-0.13345 z m 13.22917,0 c 0.1819,-0.0734 0.47956,-0.0734 0.66146,0 0.1819,0.0734 0.0331,0.13345 -0.33073,0.13345 -0.3638,0 -0.51263,-0.06 -0.33073,-0.13345 z m -15.54427,-0.35393 c -0.52377,-0.16774 -0.55131,-0.21184 -0.13229,-0.21184 0.29104,0 0.82682,0.0953 1.19062,0.21184 0.52376,0.16774 0.55131,0.21184 0.13229,0.21184 -0.29104,0 -0.82682,-0.0953 -1.19062,-0.21184 z m 17.00451,0.0812 c 0.25743,-0.0671 0.61462,-0.0627 0.79375,0.01 0.17913,0.0725 -0.0315,0.12736 -0.46805,0.12197 -0.43657,-0.005 -0.58313,-0.0647 -0.3257,-0.13178 z m -11.1139,-0.27109 c 0.40219,-0.0608 0.9975,-0.0592 1.32292,0.004 0.32542,0.0628 -0.004,0.11256 -0.73124,0.11057 -0.72761,-0.002 -0.99386,-0.0534 -0.59168,-0.11418 z m 5.02709,0 c 0.40218,-0.0608 0.99749,-0.0592 1.32291,0.004 0.32543,0.0628 -0.004,0.11256 -0.73124,0.11057 -0.7276,-0.002 -0.99385,-0.0534 -0.59167,-0.11418 z m 7.55352,0.009 c 0.191,-0.0764 0.4192,-0.067 0.50712,0.0209 0.0879,0.0879 -0.0684,0.15046 -0.34727,0.13897 -0.30822,-0.0127 -0.37091,-0.0754 -0.15985,-0.15985 z m -19.84375,-0.26459 c 0.191,-0.0764 0.4192,-0.067 0.50712,0.0209 0.0879,0.0879 -0.0683,0.15045 -0.34727,0.13896 -0.30822,-0.0127 -0.37091,-0.0754 -0.15985,-0.15985 z m 5.14787,-0.003 c 0.25744,-0.0671 0.61462,-0.0627 0.79375,0.01 0.17914,0.0725 -0.0315,0.12737 -0.46805,0.12198 -0.43656,-0.005 -0.58313,-0.0647 -0.3257,-0.13178 z m 15.93612,-0.0812 c 0.29104,-0.12506 0.76729,-0.22389 1.05833,-0.21961 0.42539,0.006 0.39945,0.0493 -0.13229,0.21961 -0.90466,0.28972 -1.60026,0.28972 -0.92604,0 z m -22.14232,-0.18074 c 0.19099,-0.0764 0.4192,-0.067 0.50712,0.0209 0.0879,0.0879 -0.0684,0.15045 -0.34727,0.13896 -0.30823,-0.0127 -0.37092,-0.0754 -0.15985,-0.15985 z m 18.78541,0 c 0.191,-0.0764 0.4192,-0.067 0.50712,0.0209 0.0879,0.0879 -0.0684,0.15045 -0.34726,0.13896 -0.30823,-0.0127 -0.37092,-0.0754 -0.15986,-0.15985 z m -20.98476,-0.61301 c -0.34892,-0.14993 -0.39398,-0.23234 -0.13229,-0.24193 0.21828,-0.008 0.57547,0.10087 0.79375,0.24193 0.48365,0.31256 0.0659,0.31256 -0.66146,0 z m 2.11667,-0.38732 c -1.04352,-0.47781 -0.80753,-0.4861 0.66145,-0.0232 0.65485,0.20634 0.9525,0.37776 0.66146,0.38093 -0.29104,0.003 -0.88635,-0.15779 -1.32291,-0.35769 z m 26.59062,-0.14184 c 0.65484,-0.27478 1.02195,-0.50626 0.8158,-0.51439 -0.20615,-0.008 -0.30438,-0.0852 -0.21828,-0.17132 0.0861,-0.0861 0.35347,-0.0463 0.59417,0.0884 0.35589,0.19916 0.22205,0.32723 -0.71661,0.68571 -1.57506,0.60152 -1.95206,0.5314 -0.47508,-0.0884 z m -30.1625,0 c -0.21828,-0.14107 -0.27781,-0.25648 -0.13229,-0.25648 0.14552,0 0.44318,0.11541 0.66146,0.25648 0.21828,0.14106 0.27781,0.25648 0.13229,0.25648 -0.14552,0 -0.44318,-0.11542 -0.66146,-0.25648 z m 27.51667,-0.1323 c 1.20801,-0.4652 1.68329,-0.45833 0.66146,0.01 -0.43657,0.1999 -0.97235,0.35976 -1.19063,0.35525 -0.21828,-0.004 0.0198,-0.16867 0.52917,-0.36481 z m -29.10417,-0.55681 c -0.63877,-0.39186 -0.4178,-0.37552 0.63872,0.0472 0.38257,0.15308 0.45345,0.11694 0.28985,-0.14779 -0.14518,-0.2349 -0.11446,-0.28731 0.0932,-0.15897 0.30686,0.18964 0.17451,0.69273 -0.17749,0.67468 -0.10055,-0.005 -0.48048,-0.19198 -0.84428,-0.41515 z m 2.36925,-0.19821 c 0.12459,-0.12474 0.43956,-0.1061 0.70353,0.0416 0.4111,0.23006 0.37955,0.26165 -0.22558,0.22585 -0.38836,-0.023 -0.60247,-0.14279 -0.47795,-0.26747 z m 28.587,0.1382 c 0.21828,-0.13486 0.69453,-0.32482 1.05833,-0.42214 0.45971,-0.12296 0.54041,-0.10214 0.26459,0.0683 -0.21828,0.13486 -0.69453,0.32482 -1.05834,0.42214 -0.4597,0.12296 -0.5404,0.10213 -0.26458,-0.0683 z m 2.69411,0.0835 c 0.25175,-0.25175 3.39131,-1.71212 3.39131,-1.57746 0,0.13844 -1.84482,1.0945 -2.84772,1.47581 -0.39217,0.1491 -0.63678,0.19484 -0.54359,0.10165 z m -36.09776,-1.0732 c -1.02584,-0.55653 -0.90966,-0.74859 0.1323,-0.21868 0.99735,0.50722 1.17386,0.63868 0.83784,0.62401 -0.13339,-0.006 -0.56995,-0.18823 -0.97014,-0.40533 z m 35.91907,0.15437 c -0.0927,-0.14999 0.0135,-0.19434 0.24896,-0.10399 0.45837,0.17589 0.54224,0.36554 0.16165,0.36554 -0.13693,0 -0.32171,-0.1177 -0.41061,-0.26155 z m -37.77115,-1.2127 c -0.98913,-0.53661 -0.92892,-0.76011 0.0661,-0.24554 0.43656,0.22575 0.79375,0.46693 0.79375,0.53596 0,0.17026 -0.0284,0.16066 -0.8599,-0.29042 z m 39.89724,0.16962 c -0.17594,-0.28468 0.34192,-0.67931 0.57957,-0.44166 0.0873,0.0873 0.0129,0.15879 -0.16551,0.15879 -0.17837,0 -0.25071,0.11906 -0.16078,0.26458 0.0899,0.14552 0.10399,0.26459 0.0312,0.26459 -0.0728,0 -0.20079,-0.11084 -0.28451,-0.2463 z m 2.61896,-0.40235 c 0.28247,-0.22533 0.61692,-0.40969 0.74322,-0.40969 0.12629,0 0.14467,-0.13746 0.0408,-0.30546 -0.11697,-0.18926 -0.0726,-0.23364 0.11667,-0.11668 0.45061,0.27849 0.39107,0.36709 -0.55443,0.82503 -0.75952,0.36786 -0.79994,0.36866 -0.3463,0.007 z m -40.99297,-0.40666 c -0.0927,-0.14998 0.0135,-0.19433 0.24897,-0.10398 0.45837,0.17589 0.54223,0.36554 0.16165,0.36554 -0.13694,0 -0.32172,-0.1177 -0.41062,-0.26156 z m -3.6399,-0.6994 c -0.5457,-0.34883 -0.992183,-0.68803 -0.992183,-0.75376 0,-0.0657 0.446483,0.1361 0.992183,0.44852 1.21825,0.69747 1.23877,0.71307 1.10244,0.83826 -0.0606,0.0557 -0.55673,-0.18418 -1.10244,-0.53302 z m 43.5695,0.37454 c 0.24145,-0.13512 0.59351,-0.13512 0.83496,0 0.31085,0.17397 0.20422,0.23364 -0.41748,0.23364 -0.6217,0 -0.72833,-0.0597 -0.41748,-0.23364 z m 2.23534,-0.40635 c -0.32857,-0.41899 -0.31914,-0.42832 0.10037,-0.0993 0.25466,0.19972 0.47213,0.31879 0.48327,0.26459 0.0111,-0.0542 0.0617,-0.31781 0.11244,-0.58581 0.0507,-0.268 0.17963,-0.56565 0.28649,-0.66146 0.10687,-0.0958 0.11954,0.0342 0.0282,0.28883 -0.24344,0.67842 -0.0433,0.59024 1.69353,-0.74623 0.89082,-0.68546 1.49472,-1.33349 1.39423,-1.49609 -0.10186,-0.16482 -0.0548,-0.21115 0.1106,-0.10892 0.39795,0.24594 3.98533,-3.37503 3.93508,-3.97193 -0.0221,-0.2624 0.13239,-0.47996 0.34326,-0.48347 0.47652,-0.008 2.18941,-2.20996 1.98116,-2.54691 -0.0837,-0.13543 -0.28141,-0.16636 -0.43936,-0.0687 -0.1786,0.11038 -0.21041,0.0533 -0.0841,-0.15103 0.14208,-0.2299 0.28661,-0.24494 0.48146,-0.0501 0.19485,0.19485 0.39008,0.14221 0.65037,-0.17538 0.20457,-0.2496 0.15514,-0.0547 -0.10985,0.43311 -1.39782,2.57317 -5.78343,7.10263 -9.51187,9.82387 -1.02247,0.74626 -1.11582,0.76775 -1.4552,0.33498 z m -44.08504,-0.36059 c -0.90184,-0.57755 -1.19369,-0.9654 -0.39688,-0.52742 0.60707,0.33368 1.55809,1.0691 1.38906,1.07415 -0.0728,0.002 -0.51924,-0.24385 -0.99218,-0.54673 z m 42.8184,0.22015 c 0.0606,-0.0412 0.34837,-0.24953 0.63941,-0.46302 0.48948,-0.35904 0.50193,-0.35342 0.16604,0.0749 -0.19972,0.25466 -0.48745,0.46302 -0.63941,0.46302 -0.15196,0 -0.22667,-0.0337 -0.16604,-0.0749 z m -48.071134,-2.55923 c -2.077194,-1.78332 -3.770744,-3.45131 -3.504208,-3.45131 0.0767,0 0.843119,0.6878 1.703147,1.52845 2.104784,2.05737 3.818263,3.38305 4.250581,3.28859 0.462495,-0.10105 0.460928,0.11309 -0.0021,0.29078 -0.198369,0.0761 -1.289418,-0.66235 -2.447396,-1.65651 z m 50.165754,1.21129 c 0,-0.0549 0.20836,-0.2633 0.46302,-0.46302 0.41964,-0.32911 0.429,-0.31975 0.0999,0.0999 -0.34564,0.44073 -0.56291,0.58088 -0.56291,0.36312 z m 1.55981,-1.28101 c 0.5541,-0.62901 1.08602,-0.76574 1.08602,-0.27917 0,0.0884 -0.0805,0.0803 -0.17881,-0.018 -0.0983,-0.0983 -0.4853,0.0902 -0.85989,0.41892 l -0.68109,0.59775 z m -51.036896,-0.97186 c 0,-0.17836 -0.137459,-0.23934 -0.305464,-0.13551 -0.173554,0.10726 -0.234204,0.0735 -0.140446,-0.0782 0.20751,-0.33576 -0.976651,-1.479 -1.249413,-1.20624 -0.110471,0.11047 -0.161171,0.0277 -0.112662,-0.18399 0.04851,-0.21167 -0.06064,-0.40514 -0.242536,-0.42995 -0.181901,-0.0248 -0.420026,-0.0741 -0.529167,-0.1095 -0.10914,-0.0354 -0.307887,-0.0436 -0.441661,-0.0182 -0.133773,0.0255 -0.08943,-0.13905 0.09854,-0.36554 0.413181,-0.49785 0.563906,-0.52356 0.475411,-0.0811 -0.03638,0.1819 0.064,0.30719 0.223076,0.27842 0.388003,-0.0702 2.637491,2.24088 2.406255,2.47211 -0.100065,0.10007 -0.181935,0.036 -0.181935,-0.14235 z m 52.546876,0.0153 c -0.075,-0.12141 0.38028,-0.72786 1.01181,-1.34766 0.63153,-0.6198 1.21383,-1.0208 1.29399,-0.89109 0.20587,0.33311 -0.23721,0.97203 -0.54302,0.78302 -0.31096,-0.19218 -1.73669,1.2446 -1.48489,1.4964 0.099,0.099 0.10775,0.18009 0.0193,0.18009 -0.0884,0 -0.22217,-0.0993 -0.29721,-0.22076 z m -57.387275,-3.15872 c -0.307271,-0.33953 -0.349564,-0.57699 -0.153156,-0.8599 0.237892,-0.34265 0.256807,-0.3419 0.153432,0.006 -0.06485,0.21828 0.0636,0.60523 0.285448,0.85989 0.529608,0.60795 0.264864,0.60235 -0.285724,-0.006 z m 59.873735,0.20988 c 0,-0.094 0.38509,-0.52068 0.85576,-0.94809 0.47067,-0.4274 0.649,-0.52931 0.3963,-0.22646 -0.25271,0.30285 -0.36991,0.64936 -0.26045,0.77002 0.10946,0.12066 0.03,0.12123 -0.17668,0.001 -0.27079,-0.15721 -0.33324,-0.10749 -0.22366,0.17807 0.0906,0.23597 0.002,0.39618 -0.21962,0.39618 -0.20441,0 -0.37165,-0.0769 -0.37165,-0.17098 z m -58.652021,-1.12988 c -0.294759,-0.32742 -0.630637,-0.77391 -0.746395,-0.99219 -0.223298,-0.42107 -0.162391,-0.36348 0.909434,0.8599 0.35061,0.40018 0.57794,0.7276 0.505179,0.7276 -0.07276,0 -0.373459,-0.26789 -0.668218,-0.59531 z m -2.361245,-0.52917 c -0.10468,-0.1819 -0.09289,-0.24246 0.02619,-0.13458 0.119081,0.10787 0.406061,0.0483 0.63773,-0.1323 0.37269,-0.29059 0.379381,-0.27508 0.05809,0.13459 -0.4328,0.55186 -0.476007,0.55978 -0.722014,0.13229 z m -0.561062,-0.79375 c -0.535888,-0.6929 -0.600592,-0.96184 -0.276344,-1.14861 0.184274,-0.10615 0.245329,-0.0941 0.135678,0.0267 -0.109651,0.12085 -0.0176,0.49713 0.204539,0.83617 0.423389,0.64617 0.37664,0.85529 -0.06387,0.2857 z m 63.690988,-0.29833 c 0,-0.0549 0.20836,-0.2633 0.46302,-0.46302 0.41965,-0.32911 0.42901,-0.31975 0.0999,0.0999 -0.34564,0.44073 -0.56292,0.58088 -0.56292,0.36312 z m -64.679322,-1.20474 c -0.08372,-0.13546 -0.05106,-0.30882 0.07258,-0.38523 0.123642,-0.0764 0.224803,0.0344 0.224803,0.2463 0,0.44613 -0.08343,0.48511 -0.297383,0.13893 z m -1.641177,-3.07949 c -0.659691,-1.39262 -1.12839,-2.60309 -1.041552,-2.68993 0.08684,-0.0868 0.159712,0.0108 0.16194,0.21694 0.0034,0.3101 0.05335,0.30629 0.289542,-0.022 0.242262,-0.33678 0.26337,-0.3279 0.139405,0.0587 -0.08035,0.25056 -0.01907,0.81992 0.136167,1.26523 0.244225,0.70059 0.340751,0.76398 0.716439,0.47048 0.381235,-0.29783 0.392658,-0.28605 0.09367,0.0966 -0.283825,0.36323 -0.243061,0.63639 0.244819,1.6406 0.321938,0.66264 0.701929,1.13275 0.844424,1.04469 0.143966,-0.089 0.1752,-0.0244 0.0703,0.14534 -0.103833,0.168 -0.248844,0.30546 -0.322245,0.30546 -0.0734,0 -0.673207,-1.13942 -1.332899,-2.53204 z m 67.907999,2.00288 c 0.15576,-0.29105 0.34274,-0.52917 0.4155,-0.52917 0.0728,0 0.005,0.23812 -0.15091,0.52917 -0.15576,0.29104 -0.34274,0.52916 -0.4155,0.52916 -0.0728,0 -0.005,-0.23812 0.15091,-0.52916 z m -65.352079,-0.2802 c 0,-0.15411 0.119062,-0.20662 0.264583,-0.11668 0.145521,0.0899 0.264583,0.21603 0.264583,0.2802 0,0.0642 -0.119062,0.11668 -0.264583,0.11668 -0.145521,0 -0.264583,-0.12609 -0.264583,-0.2802 z m 66.542709,-1.83647 c 0.3687,-0.7276 0.7299,-1.32292 0.80266,-1.32292 0.0728,0 -0.16937,0.59532 -0.53808,1.32292 -0.3687,0.7276 -0.7299,1.32292 -0.80266,1.32292 -0.0728,0 0.16937,-0.59532 0.53808,-1.32292 z m -67.215047,0.51156 c -0.09592,-0.1552 -0.117656,-0.33893 -0.0483,-0.40828 0.06936,-0.0694 0.196603,0.0576 0.282774,0.28218 0.178906,0.46623 0.02642,0.54824 -0.234473,0.1261 z m 68.691497,-0.24698 c 0.38571,-0.80989 0.50792,-0.96 0.50792,-0.62383 0,0.14196 -0.18516,0.48923 -0.41147,0.7717 -0.38798,0.48427 -0.39348,0.47583 -0.0965,-0.14787 z m 0.79126,-1.71979 c 0,-0.14552 0.17015,-0.56224 0.37812,-0.92604 0.20797,-0.3638 0.37813,-0.5424 0.37813,-0.39688 0,0.14553 -0.17016,0.56224 -0.37813,0.92605 -0.20797,0.3638 -0.37812,0.54239 -0.37812,0.39687 z m -70.805674,-0.94364 c -0.09592,-0.1552 -0.117655,-0.33893 -0.0483,-0.40829 0.06936,-0.0693 0.196603,0.0576 0.282774,0.28219 0.178907,0.46622 0.02642,0.54823 -0.234473,0.1261 z m 29.947144,-0.93066 c -5.1494,-1.24655 -8.84863,-5.19479 -10.39082,-11.09028 -0.67655,-2.5863 -0.6911,-9.92291 -0.0258,-13.0153 1.31919,-6.13199 3.67444,-10.78512 7.03284,-13.89441 2.88091,-2.66721 6.28268,-3.79163 9.6096,-3.17634 8.25045,1.52585 14.77189,11.71599 14.76717,23.07459 -0.004,9.33219 -4.51737,16.06886 -12.05809,17.99745 -2.44106,0.62432 -6.58676,0.67271 -8.93487,0.10429 z m 17.51082,-12.3488 c 0.71242,-1.37963 1.06724,-2.93071 1.23268,-5.38863 0.32074,-4.76525 -1.08274,-9.09556 -2.94793,-9.09556 -0.87962,0 -1.01853,0.93437 -0.47955,3.22552 0.57133,2.42863 0.58051,6.07099 0.022,8.73572 -0.54253,2.58855 -0.53766,2.7452 0.10542,3.38828 0.48877,0.48876 0.58365,0.49956 1.14685,0.13054 0.3377,-0.22127 0.75193,-0.66941 0.92051,-0.99587 z m 24.29301,11.77571 c 0.2119,-0.85473 0.86265,-2.41194 0.87767,-2.10024 0.0155,0.32132 -0.82761,2.82784 -0.95118,2.82784 -0.0588,0 -0.0257,-0.32742 0.0735,-0.7276 z m -74.497331,-1.80799 c 0.01269,-0.30823 0.07539,-0.37092 0.159852,-0.15985 0.07643,0.19099 0.06703,0.4192 -0.02089,0.50712 -0.08792,0.0879 -0.150453,-0.0684 -0.138964,-0.34727 z m 75.430331,-0.90399 c 0.004,-0.21828 0.1031,-0.69453 0.21961,-1.05834 0.1703,-0.53174 0.21336,-0.55768 0.21962,-0.13229 0.004,0.29104 -0.0945,0.76729 -0.21962,1.05833 -0.13931,0.3242 -0.22437,0.37544 -0.21961,0.1323 z m -1.19722,-1.05834 c 0.20939,-1.14109 0.35983,-1.35633 0.35445,-0.50712 -0.002,0.35168 -0.12113,0.81801 -0.26422,1.03629 -0.18303,0.27922 -0.20978,0.12235 -0.0902,-0.52917 z m -74.74139,0 c 0,-0.3638 0.06005,-0.51263 0.133453,-0.33073 0.0734,0.1819 0.0734,0.47956 0,0.66146 -0.0734,0.1819 -0.133453,0.0331 -0.133453,-0.33073 z m 1.566612,-0.41892 c 0.01269,-0.30823 0.07539,-0.37092 0.159853,-0.15985 0.07643,0.19099 0.06703,0.4192 -0.02089,0.50712 -0.08792,0.0879 -0.150453,-0.0684 -0.138965,-0.34727 z m -2.005263,-1.43316 c -0.101656,-0.60169 -0.129332,-1.14949 -0.0615,-1.21732 0.06783,-0.0678 0.202662,0.37281 0.299627,0.97919 0.09696,0.60639 0.124641,1.15418 0.0615,1.21732 -0.06314,0.0631 -0.197971,-0.3775 -0.299627,-0.97919 z m 76.903231,0.52917 c 0,-0.36381 0.0601,-0.51263 0.13346,-0.33073 0.0734,0.1819 0.0734,0.47955 0,0.66146 -0.0734,0.1819 -0.13346,0.0331 -0.13346,-0.33073 z m -75.141663,-0.26459 c 0,-0.3638 0.06005,-0.51263 0.133452,-0.33073 0.0734,0.1819 0.0734,0.47956 0,0.66146 -0.0734,0.1819 -0.133452,0.0331 -0.133452,-0.33073 z m 73.797863,-0.15434 c 0.0127,-0.30822 0.0754,-0.37092 0.15985,-0.15985 0.0764,0.191 0.067,0.4192 -0.0209,0.50712 -0.0879,0.0879 -0.15045,-0.0684 -0.13896,-0.34727 z m 1.61819,-1.03628 c 0.005,-0.43656 0.0647,-0.58313 0.13177,-0.3257 0.0671,0.25744 0.0627,0.61462 -0.01,0.79375 -0.0725,0.17913 -0.12736,-0.0315 -0.12197,-0.46805 z m -75.701525,-0.022 c 0.01269,-0.30823 0.07539,-0.37092 0.159853,-0.15986 0.07643,0.191 0.06703,0.41921 -0.02089,0.50712 -0.08792,0.0879 -0.150453,-0.0683 -0.138963,-0.34726 z m 74.368805,-0.37484 c 0,-0.3638 0.06,-0.51263 0.13345,-0.33073 0.0734,0.1819 0.0734,0.47956 0,0.66146 -0.0734,0.1819 -0.13345,0.0331 -0.13345,-0.33073 z m -76.190196,-0.92604 c 0.0054,-0.43656 0.06469,-0.58312 0.131774,-0.32569 0.06708,0.25743 0.06267,0.61462 -0.0098,0.79375 -0.07248,0.17913 -0.127363,-0.0315 -0.121971,-0.46806 z m 1.577696,0.13229 c 0,-0.3638 0.06005,-0.51263 0.133453,-0.33073 0.0734,0.1819 0.0734,0.47956 0,0.66146 -0.0734,0.1819 -0.133453,0.0331 -0.133453,-0.33073 z m 76.23029,-0.79375 c 0,-0.65484 0.0516,-0.92273 0.11466,-0.59531 0.0631,0.32742 0.0631,0.8632 0,1.19063 -0.0631,0.32742 -0.11466,0.0595 -0.11466,-0.59532 z m -1.3336,-0.79375 c 0,-0.50932 0.0545,-0.71768 0.121,-0.46302 0.0666,0.25466 0.0666,0.67138 0,0.92604 -0.0666,0.25467 -0.121,0.0463 -0.121,-0.46302 z m -76.748773,0 c 0,-0.3638 0.06005,-0.51263 0.133452,-0.33073 0.0734,0.1819 0.0734,0.47956 0,0.66146 -0.0734,0.1819 -0.133452,0.0331 -0.133452,-0.33073 z m 1.5875,-0.26458 c 0,-0.3638 0.06005,-0.51263 0.133452,-0.33073 0.0734,0.1819 0.0734,0.47956 0,0.66146 -0.0734,0.1819 -0.133452,0.0331 -0.133452,-0.33073 z M 163.15264,158.321 c -0.0317,-1.4552 -0.11126,-3.47927 -0.17673,-4.49791 l -0.11906,-1.85209 0.26053,1.85209 c 0.14329,1.01864 0.22282,3.04271 0.17673,4.49791 l -0.0838,2.64584 z m -78.536201,-1.5875 c 6.09e-4,-1.60072 0.04417,-2.22146 0.09684,-1.3794 0.05267,0.84206 0.05218,2.15175 -0.0011,2.91042 -0.05326,0.75867 -0.09635,0.0697 -0.09576,-1.53102 z m 1.58391,0.39688 c 0,-1.38245 0.04459,-1.948 0.0991,-1.25677 0.0545,0.69122 0.0545,1.82232 0,2.51354 -0.0545,0.69122 -0.0991,0.12568 -0.0991,-1.25677 z m 75.647511,0.52917 c 0,-0.65485 0.0516,-0.92274 0.11467,-0.59532 0.0631,0.32743 0.0631,0.86321 0,1.19063 -0.0631,0.32742 -0.11467,0.0595 -0.11467,-0.59531 z m -0.27526,-4.49792 c 0,-0.50932 0.0545,-0.71768 0.121,-0.46302 0.0666,0.25466 0.0666,0.67138 0,0.92604 -0.0666,0.25466 -0.121,0.0463 -0.121,-0.46302 z m -75.136326,-0.39688 c 0.0029,-0.58208 0.05712,-0.78905 0.120406,-0.45993 0.06329,0.32912 0.06088,0.80537 -0.0053,1.05833 -0.06622,0.25297 -0.118004,-0.0163 -0.115067,-0.5984 z m -1.592839,-0.13229 c 0,-0.50932 0.05445,-0.71768 0.121,-0.46302 0.06655,0.25466 0.06655,0.67138 0,0.92604 -0.06655,0.25467 -0.121,0.0463 -0.121,-0.46302 z m 76.454775,-1.45521 c 0.005,-0.43656 0.0647,-0.58312 0.13178,-0.32569 0.0671,0.25743 0.0627,0.61462 -0.01,0.79375 -0.0725,0.17913 -0.12736,-0.0315 -0.12197,-0.46806 z m 1.15107,-0.80577 c -0.1012,-0.67491 -0.12989,-1.28122 -0.0637,-1.34736 0.0661,-0.0661 0.20307,0.43192 0.30428,1.10683 0.1012,0.6749 0.12989,1.28121 0.0637,1.34736 -0.0661,0.0661 -0.20308,-0.43193 -0.30429,-1.10683 z m -77.36087,0.4089 c 0,-0.3638 0.06005,-0.51263 0.133453,-0.33073 0.0734,0.1819 0.0734,0.47956 0,0.66146 -0.0734,0.1819 -0.133453,0.0331 -0.133453,-0.33073 z m 1.5875,0 c 0,-0.3638 0.06005,-0.51263 0.133453,-0.33073 0.0734,0.1819 0.0734,0.47956 0,0.66146 -0.0734,0.1819 -0.133453,0.0331 -0.133453,-0.33073 z m -1.322916,-1.32292 c 0,-0.3638 0.06005,-0.51263 0.133452,-0.33073 0.0734,0.1819 0.0734,0.47956 0,0.66146 -0.0734,0.1819 -0.133452,0.0331 -0.133452,-0.33073 z m 75.649946,0.11025 c 0.0127,-0.30823 0.0754,-0.37092 0.15985,-0.15986 0.0764,0.191 0.067,0.4192 -0.0209,0.50712 -0.0879,0.0879 -0.15045,-0.0684 -0.13896,-0.34726 z m -75.406251,-1.32292 c 0.01269,-0.30823 0.07539,-0.37092 0.159852,-0.15985 0.07643,0.19099 0.06703,0.4192 -0.02089,0.50712 -0.08792,0.0879 -0.150453,-0.0684 -0.138964,-0.34727 z m 76.464581,0 c 0.0127,-0.30823 0.0754,-0.37092 0.15985,-0.15985 0.0764,0.19099 0.067,0.4192 -0.0209,0.50712 -0.0879,0.0879 -0.15045,-0.0684 -0.13897,-0.34727 z m -76.199998,-1.05833 c 0.01269,-0.30823 0.07539,-0.37092 0.159853,-0.15986 0.07643,0.191 0.06703,0.4192 -0.02089,0.50712 -0.08792,0.0879 -0.150453,-0.0684 -0.138965,-0.34726 z m 1.5875,0 c 0.01269,-0.30823 0.07539,-0.37092 0.159853,-0.15986 0.07643,0.191 0.06703,0.4192 -0.02089,0.50712 -0.08792,0.0879 -0.150453,-0.0684 -0.138965,-0.34726 z m 74.347918,0 c 0.0127,-0.30823 0.0754,-0.37092 0.15985,-0.15986 0.0764,0.191 0.067,0.4192 -0.0209,0.50712 -0.0879,0.0879 -0.15045,-0.0684 -0.13896,-0.34726 z m -74.765681,-1.16858 c 0.08994,-0.14552 0.216026,-0.26458 0.280198,-0.26458 0.06417,0 0.116677,0.11906 0.116677,0.26458 0,0.14552 -0.126089,0.26458 -0.280198,0.26458 -0.154109,0 -0.206614,-0.11906 -0.116677,-0.26458 z m 74.139811,-0.53243 c 0.10965,-0.4193 0.0648,-0.55035 -0.14406,-0.42124 -0.20353,0.12578 -0.24525,0.0363 -0.1269,-0.27212 0.15653,-0.40791 0.20574,-0.39363 0.43813,0.12719 0.18008,0.40357 0.17001,0.67848 -0.0323,0.88076 -0.2157,0.2157 -0.25164,0.13186 -0.1349,-0.31459 z m -1.2471,-0.11341 c 0,-0.2097 0.10796,-0.44798 0.23991,-0.52953 0.13195,-0.0815 0.17759,0.09 0.10143,0.38125 -0.16156,0.6178 -0.34134,0.6959 -0.34134,0.14828 z m -72.87334,-1.73541 c 0.09731,-0.3638 0.287276,-0.84005 0.422142,-1.05833 0.170421,-0.27583 0.191248,-0.19513 0.06828,0.26458 -0.09731,0.3638 -0.287275,0.84005 -0.422142,1.05833 -0.17042,0.27583 -0.191247,0.19513 -0.06828,-0.26458 z m 73.03832,-1.46544 c -0.25532,-0.66534 -0.18,-0.83702 0.1319,-0.30065 0.15443,0.26557 0.22505,0.5386 0.15693,0.60672 -0.0681,0.0681 -0.1981,-0.0696 -0.28883,-0.30607 z M 87.979231,141.3879 c 0,-0.14552 0.228144,-0.6813 0.506986,-1.19062 0.278843,-0.50933 0.506987,-0.80698 0.506987,-0.66146 0,0.14552 -0.228144,0.6813 -0.506987,1.19062 -0.278842,0.50933 -0.506986,0.80698 -0.506986,0.66146 z m 1.573423,0 c 0,-0.14552 0.115416,-0.44318 0.25648,-0.66146 0.141064,-0.21828 0.25648,-0.27781 0.25648,-0.13229 0,0.14552 -0.115416,0.44318 -0.25648,0.66146 -0.141064,0.21828 -0.25648,0.27781 -0.25648,0.13229 z m 69.687486,-1.31684 c -0.10725,-0.42733 -0.25522,-0.59636 -0.36565,-0.41768 -0.10202,0.16507 -0.18452,-0.0915 -0.18333,-0.57017 l 0.002,-0.87031 0.50327,1.14822 c 0.2768,0.63151 0.44038,1.21111 0.3635,1.28799 -0.0769,0.0769 -0.22085,-0.18324 -0.31994,-0.57805 z m -70.199962,-1.06441 c 0.0011,-0.33118 1.796888,-3.78363 1.814451,-3.48833 0.0071,0.1187 -0.117254,0.45891 -0.276256,0.75601 -0.209071,0.39065 -0.209071,0.6202 0,0.82927 0.159002,0.159 0.281547,0.47364 0.272323,0.6992 -0.0093,0.22678 -0.137019,0.11443 -0.285781,-0.25136 -0.2667,-0.65577 -0.274406,-0.65123 -0.897315,0.52917 -0.345567,0.65484 -0.627907,1.07156 -0.627422,0.92604 z m 1.562706,-0.11667 c 0,-0.13694 0.117699,-0.32172 0.261553,-0.41062 0.149983,-0.0927 0.194337,0.0135 0.103985,0.24897 -0.175894,0.45836 -0.365538,0.54223 -0.365538,0.16165 z m 0.683538,-1.77328 c -0.09176,-0.23911 -0.104492,-0.49708 -0.02831,-0.57326 0.07619,-0.0762 0.13852,0.007 0.13852,0.18577 0,0.17836 0.1177,0.25155 0.261554,0.16265 0.149982,-0.0927 0.194336,0.0135 0.103984,0.24897 -0.198946,0.51843 -0.26891,0.51489 -0.47575,-0.0241 z m 65.101338,-0.49312 c -0.0892,-0.23239 -0.0579,-0.35813 0.0694,-0.27942 0.12736,0.0787 0.36764,-0.0208 0.53395,-0.22123 0.32947,-0.39698 -0.10718,-1.74649 -0.56509,-1.74649 -0.13075,0 -0.15275,-0.13749 -0.0489,-0.30554 0.11394,-0.18436 0.48247,0.26164 0.92917,1.12448 0.7329,1.41565 1.06989,2.54246 0.39777,1.33002 l -0.34878,-0.62917 -0.40271,0.57495 c -0.34351,0.49042 -0.42655,0.51282 -0.56485,0.1524 z m -64.461959,-0.30039 c 0,-0.14196 0.18516,-0.48922 0.411472,-0.7717 0.387977,-0.48427 0.393485,-0.47582 0.09645,0.14787 -0.385712,0.8099 -0.507923,0.96 -0.507922,0.62383 z m -0.345827,-2.59405 c 0.388716,-0.79258 0.816854,-1.37301 0.951416,-1.28984 0.147195,0.091 0.142165,0.21708 -0.01262,0.31657 -0.14151,0.091 -0.513829,0.67138 -0.827376,1.28984 -0.313547,0.61847 -0.625904,1.12448 -0.694126,1.12448 -0.06822,0 0.194,-0.64847 0.582718,-1.44105 z m 64.223806,-0.9402 c 0,-0.3427 0.0894,-0.43215 0.2608,-0.2608 0.17135,0.17135 0.17135,0.35026 0,0.52161 -0.17135,0.17134 -0.2608,0.0819 -0.2608,-0.26081 z m -62.719313,-0.0364 c 0.03335,-0.17282 0.254307,-0.34265 0.491003,-0.37739 0.283961,-0.0417 0.379063,0.0705 0.279566,0.3298 -0.11086,0.28889 -0.202628,0.30908 -0.346527,0.0763 -0.143658,-0.23245 -0.234175,-0.23659 -0.340212,-0.0156 -0.101613,0.2118 -0.126484,0.20791 -0.08383,-0.0131 z m 61.447983,-0.10611 c -0.25532,-0.66534 -0.18,-0.83702 0.1319,-0.30065 0.15443,0.26557 0.22505,0.5386 0.15693,0.60672 -0.0681,0.0681 -0.1981,-0.0696 -0.28883,-0.30607 z m -61.6757,-1.62983 c 0.396537,-0.94904 0.656551,-1.37762 0.656551,-1.08218 0,0.28543 -0.8039,2.06078 -0.933143,2.06078 -0.07276,0 0.0517,-0.44037 0.276592,-0.9786 z m 62.17728,-0.0636 c -0.0965,-0.30412 -0.29395,-0.47974 -0.43872,-0.39027 -0.14478,0.0895 -0.24116,0.002 -0.21419,-0.19459 0.0871,-0.63459 -0.009,-1.05309 -0.21209,-0.92745 -0.10914,0.0674 -0.2165,-0.19348 -0.23856,-0.5797 -0.0305,-0.53364 0.1484,-0.33065 0.74523,0.84561 0.43194,0.8513 0.72876,1.60442 0.65959,1.67359 -0.0692,0.0692 -0.20473,-0.12307 -0.30126,-0.42719 z m -60.454292,-0.41298 c 0,-0.14552 0.115414,-0.44317 0.256479,-0.66145 0.141066,-0.21828 0.256479,-0.27782 0.256479,-0.1323 0,0.14553 -0.115413,0.44318 -0.256479,0.66146 -0.141065,0.21828 -0.256479,0.27782 -0.256479,0.13229 z m -0.936749,-1.38906 c 0.102465,-0.25466 0.430302,-1.0905 0.728527,-1.85742 0.298223,-0.76692 0.589627,-1.34699 0.647565,-1.28905 0.130784,0.13078 -1.247335,3.60949 -1.429932,3.60949 -0.07286,0 -0.04863,-0.20836 0.05384,-0.46302 z m 59.037371,-0.47325 c -0.25532,-0.66534 -0.18,-0.83702 0.13191,-0.30065 0.15443,0.26557 0.22505,0.5386 0.15693,0.60672 -0.0681,0.0681 -0.1981,-0.0696 -0.28884,-0.30607 z m 0.67175,-1.32402 c -0.4433,-0.97295 -0.35873,-1.18051 0.12062,-0.296 0.22384,0.41304 0.35747,0.8005 0.29696,0.86101 -0.0605,0.0605 -0.24842,-0.19374 -0.41758,-0.56501 z m -0.78059,-1.7169 c -0.1764,-0.28245 -0.31595,-0.66399 -0.31013,-0.84786 0.006,-0.18388 0.19374,0.004 0.41759,0.41667 0.46493,0.85792 0.37768,1.20802 -0.10746,0.43119 z m -57.038406,-1.31447 c 0.08925,-0.36381 0.324922,-1.01865 0.523711,-1.45521 0.290285,-0.63749 0.329493,-0.66353 0.199162,-0.13229 -0.08925,0.3638 -0.324921,1.01864 -0.523711,1.4552 -0.290285,0.63749 -0.329493,0.66354 -0.199162,0.1323 z m 55.284556,-0.17017 c -0.0917,-0.2391 -0.10449,-0.49707 -0.0283,-0.57326 0.0762,-0.0762 0.13852,0.007 0.13852,0.18578 0,0.17836 0.1177,0.25155 0.26156,0.16264 0.14998,-0.0927 0.19433,0.0135 0.10398,0.24897 -0.19894,0.51844 -0.26891,0.51489 -0.47575,-0.0241 z m 1.06894,-0.23694 c -0.25532,-0.66534 -0.18,-0.83702 0.13191,-0.30065 0.15443,0.26557 0.22505,0.5386 0.15693,0.60672 -0.0681,0.0681 -0.1981,-0.0696 -0.28884,-0.30607 z m -0.78824,-2.04324 c -0.61531,-1.61117 -0.51466,-1.91801 0.11779,-0.35909 0.2882,0.71038 0.47749,1.33811 0.42064,1.39496 -0.0568,0.0569 -0.29913,-0.40929 -0.53843,-1.03587 z m -54.666548,-0.0632 c 0,-0.14552 0.115413,-0.44317 0.256479,-0.66145 0.141065,-0.21828 0.256479,-0.27782 0.256479,-0.1323 0,0.14553 -0.115414,0.44318 -0.256479,0.66146 -0.141066,0.21828 -0.256479,0.27782 -0.256479,0.13229 z m 53.325068,-0.57341 c -0.0931,-0.24261 -0.0761,-0.53419 0.0378,-0.64795 0.11391,-0.11377 0.22428,0.0847 0.24527,0.44111 0.0446,0.75694 -0.0465,0.82347 -0.28311,0.20684 z m -51.472985,-0.7495 c 0,-0.14552 0.115414,-0.44318 0.256479,-0.66146 0.141065,-0.21828 0.256479,-0.27781 0.256479,-0.13229 0,0.14552 -0.115414,0.44318 -0.256479,0.66146 -0.141065,0.21828 -0.256479,0.27781 -0.256479,0.13229 z m 52.015205,-0.80398 c -0.25532,-0.66535 -0.18,-0.83702 0.13191,-0.30066 0.15443,0.26558 0.22505,0.5386 0.15693,0.60673 -0.0681,0.0681 -0.1981,-0.0696 -0.28884,-0.30607 z m -51.609424,-0.83826 c -0.143584,-0.37708 -0.113194,-0.40747 0.148113,-0.14811 0.180822,0.17948 0.262115,0.39297 0.180653,0.47443 -0.08146,0.0815 -0.229407,-0.0654 -0.328766,-0.32632 z m -1.055974,-0.34214 c 0.09731,-0.3638 0.287277,-0.84005 0.422143,-1.05833 0.170421,-0.27583 0.191249,-0.19513 0.06828,0.26458 -0.09731,0.36381 -0.287277,0.84006 -0.422143,1.05834 -0.170421,0.27582 -0.191249,0.19512 -0.06828,-0.26459 z m 52.136238,-0.14252 c -0.0907,-0.23646 -0.15744,-0.56901 -0.14821,-0.73901 0.009,-0.17 0.13084,-0.0239 0.27027,0.32463 0.13942,0.34855 0.20611,0.68111 0.1482,0.73902 -0.0579,0.0579 -0.17953,-0.0882 -0.27026,-0.32464 z m -0.66356,-2.00012 c -0.16234,-0.46571 -0.28678,-0.9778 -0.27653,-1.13798 0.0103,-0.16019 0.18932,0.1746 0.39793,0.74398 0.2086,0.56938 0.33304,1.08147 0.27653,1.13799 -0.0565,0.0565 -0.23558,-0.27828 -0.39793,-0.74399 z m -50.548099,-0.26527 c -0.05449,-0.48364 0.603507,-1.79964 0.829863,-1.65974 0.149259,0.0922 0.163838,0.23799 0.03305,0.33041 -0.128704,0.0909 -0.371481,0.46302 -0.539507,0.82683 -0.168026,0.3638 -0.31356,0.58992 -0.323408,0.5025 z m 49.343899,-0.42495 c -0.14359,-0.37708 -0.1132,-0.40747 0.14811,-0.14811 0.18082,0.17948 0.26211,0.39297 0.18065,0.47443 -0.0815,0.0815 -0.22941,-0.0654 -0.32876,-0.32632 z M 99.984713,115.0443 c -0.09592,-0.1552 -0.117655,-0.33893 -0.0483,-0.40829 0.06936,-0.0694 0.196597,0.0576 0.282777,0.28219 0.1789,0.46622 0.0264,0.54823 -0.234477,0.1261 z m 48.462317,-0.65409 c -0.0907,-0.23646 -0.15743,-0.56901 -0.14821,-0.73901 0.009,-0.17 0.13085,-0.0239 0.27027,0.32463 0.13942,0.34855 0.20611,0.68111 0.14821,0.73902 -0.0579,0.0579 -0.17953,-0.0882 -0.27027,-0.32464 z m -47.78188,-0.78352 c 0,-0.14552 0.11542,-0.44318 0.25648,-0.66146 0.14107,-0.21828 0.25648,-0.27781 0.25648,-0.13229 0,0.14552 -0.11541,0.44318 -0.25648,0.66146 -0.14106,0.21828 -0.25648,0.27781 -0.25648,0.13229 z m 0.54372,-1.71979 c -0.008,-0.21828 0.10087,-0.57547 0.24193,-0.79375 0.31256,-0.48365 0.31256,-0.0659 0,0.66146 -0.14993,0.34891 -0.23234,0.39398 -0.24193,0.13229 z m 46.17983,-0.93627 c -0.0907,-0.23646 -0.15475,-0.62855 -0.14224,-0.87131 0.0125,-0.24276 0.12763,-0.0902 0.25583,0.33907 0.24942,0.83509 0.16121,1.24837 -0.11359,0.53224 z m -46.95904,-0.38665 c 0,-0.21828 0.10232,-0.635 0.22739,-0.92604 0.14333,-0.33354 0.22739,-0.38245 0.22739,-0.13229 0,0.21828 -0.10232,0.635 -0.22739,0.92604 -0.14333,0.33355 -0.22739,0.38245 -0.22739,0.13229 z m 1.5712,-1.74184 c 0.0127,-0.30822 0.0754,-0.37092 0.15985,-0.15985 0.0764,0.191 0.067,0.4192 -0.0209,0.50712 -0.0879,0.0879 -0.15045,-0.0683 -0.13896,-0.34727 z m 43.92083,0.24213 c -0.0115,-0.17 -0.0894,-0.52719 -0.17316,-0.79375 -0.14474,-0.4607 -0.13727,-0.46128 0.15102,-0.0117 0.16681,0.26014 0.24473,0.61733 0.17316,0.79375 -0.0939,0.23151 -0.13594,0.23476 -0.15102,0.0117 z m 0.65758,-0.80398 c -0.14359,-0.37708 -0.11319,-0.40747 0.14811,-0.14811 0.18082,0.17947 0.26212,0.39297 0.18066,0.47443 -0.0815,0.0815 -0.22941,-0.0654 -0.32877,-0.32632 z m -45.34808,-0.47443 c -0.004,-0.29104 0.0945,-0.76729 0.21961,-1.05834 0.28972,-0.67421 0.28972,0.0214 0,0.92605 -0.17029,0.53174 -0.21336,0.55768 -0.21961,0.13229 z m 0.50684,-1.98438 c 0.008,-0.21828 0.11687,-0.635 0.24194,-0.92604 l 0.22739,-0.52917 0.0145,0.52917 c 0.008,0.29104 -0.10087,0.70776 -0.24193,0.92604 -0.22799,0.35278 -0.25487,0.35278 -0.24194,0 z m 1.33746,-0.52916 c 0,-0.21828 0.10233,-0.635 0.22739,-0.92605 0.14333,-0.33354 0.22739,-0.38244 0.22739,-0.13229 0,0.21828 -0.10232,0.635 -0.22739,0.92604 -0.14333,0.33355 -0.22739,0.38245 -0.22739,0.1323 z m 42.42844,-0.79375 c -0.10046,-0.45738 -0.1275,-0.88674 -0.0601,-0.95415 0.0674,-0.0674 0.19862,0.25778 0.2916,0.72264 0.22057,1.10285 0.007,1.3166 -0.23151,0.23151 z m -43.22219,-0.52917 c 0,-0.21828 0.10233,-0.635 0.22739,-0.92604 0.14333,-0.33355 0.22739,-0.38245 0.22739,-0.13229 0,0.21828 -0.10232,0.635 -0.22739,0.92604 -0.14333,0.33354 -0.22739,0.38245 -0.22739,0.13229 z m 1.30662,-0.68351 c 0.0127,-0.30822 0.0754,-0.37092 0.15985,-0.15985 0.0764,0.191 0.067,0.4192 -0.0209,0.50712 -0.0879,0.0879 -0.15045,-0.0683 -0.13896,-0.34727 z m -0.52917,-2.11666 c 0.0127,-0.30823 0.0754,-0.37092 0.15985,-0.15986 0.0764,0.191 0.067,0.4192 -0.0209,0.50712 -0.0879,0.0879 -0.15045,-0.0683 -0.13896,-0.34726 z m 41.04523,-1.488865 c -0.30673,-1.051468 -0.51271,-1.956736 -0.45774,-2.011708 0.055,-0.05497 0.35495,0.7563 0.66662,1.802826 0.31167,1.046527 0.51765,1.951797 0.45774,2.011707 -0.0599,0.0599 -0.35989,-0.75136 -0.66662,-1.802825 z m -40.77889,0.717155 c 0.0276,-0.501175 0.46852,-1.345097 0.48387,-0.926037 0.008,0.218281 -0.10087,0.575467 -0.24193,0.793747 -0.14107,0.21828 -0.24994,0.27782 -0.24194,0.13229 z m 39.95033,-0.551211 c 0.0127,-0.308224 0.0754,-0.370919 0.15985,-0.159852 0.0764,0.190996 0.067,0.419203 -0.0209,0.507123 -0.0879,0.0879 -0.15045,-0.0684 -0.13896,-0.347271 z m -0.46687,-1.10243 c -0.0906,-0.254662 -0.22435,-0.570714 -0.29716,-0.702339 -0.0728,-0.131625 -0.009,-0.163246 0.14115,-0.07027 0.27562,0.170344 0.65205,1.235629 0.43662,1.235629 -0.0637,0 -0.18998,-0.20836 -0.28061,-0.46302 z m -38.43967,-1.256771 c 0,-0.145521 0.11542,-0.443177 0.25648,-0.661458 0.14107,-0.218282 0.25648,-0.277813 0.25648,-0.132292 0,0.145521 -0.11541,0.443177 -0.25648,0.661458 -0.14106,0.218282 -0.25648,0.277813 -0.25648,0.132292 z m 37.60571,-0.540498 c -0.16916,-0.371264 -0.3029,-0.818252 -0.29721,-0.993306 0.006,-0.175053 0.18612,0.08669 0.40094,0.581652 0.45214,1.041779 0.35643,1.421603 -0.10373,0.411654 z m 0.95607,-0.187424 c 0.1024,-0.391567 0.18381,-0.426809 0.35652,-0.15434 0.31672,0.499632 0.2852,0.661776 -0.12864,0.661776 -0.22517,0 -0.31074,-0.190562 -0.22788,-0.507436 z m -37.90193,-0.452188 c -0.15426,-0.249598 1.32454,-3.450098 1.59412,-3.450098 0.0758,0 0.009,0.240585 -0.14833,0.534634 -0.15737,0.294049 -0.2027,0.669633 -0.10072,0.834631 0.10265,0.166091 0.0685,0.227757 -0.0765,0.138155 -0.30886,-0.190889 -1.22163,1.590577 -0.99929,1.950334 0.0838,0.135527 0.0928,0.246412 0.02,0.246412 -0.0728,0 -0.20295,-0.114331 -0.28931,-0.254068 z m 1.18413,0.0051 c 0,-0.136933 0.1177,-0.32171 0.26155,-0.410617 0.14999,-0.09269 0.19434,0.01351 0.10399,0.248968 -0.17589,0.458369 -0.36554,0.542234 -0.36554,0.161649 z m 34.26898,-2.159878 c -0.53364,-0.742781 -0.83725,-1.268313 -0.67469,-1.167847 0.32472,0.20069 1.06613,-0.301009 1.06613,-0.721434 0,-0.14552 -0.20836,-0.101176 -0.46302,0.09854 -0.41277,0.323711 -0.42628,0.316081 -0.12447,-0.07029 0.28535,-0.365298 0.22867,-0.564014 -0.36063,-1.264353 -0.50323,-0.598058 -0.78967,-0.755836 -1.02206,-0.562971 -0.2287,0.1898 -0.32288,0.156817 -0.32288,-0.113071 0,-0.20957 0.0992,-0.319715 0.22049,-0.244768 0.35271,0.217986 0.25453,-0.163294 -0.14489,-0.56272 -0.20096,-0.200957 -0.45817,-0.281749 -0.57159,-0.179538 -0.11341,0.102211 -0.10743,0.01576 0.0133,-0.192112 0.23223,-0.399856 0.87471,0.224078 2.53466,2.461524 0.68445,0.922569 0.82576,1.717357 0.24109,1.356009 -0.57826,-0.357379 -0.51126,0.530196 0.11099,1.47048 0.99277,1.500182 0.64202,1.285549 -0.50244,-0.307451 z m 1.97894,1.114412 c 0,-0.184555 -0.14252,-0.242283 -0.33073,-0.13397 -0.1819,0.10468 -0.24904,0.09946 -0.14918,-0.01159 0.0998,-0.111054 0.073,-0.48733 -0.0596,-0.83617 -0.13263,-0.348837 -0.18762,-0.634251 -0.1222,-0.634251 0.22213,0 0.96619,1.635795 0.81351,1.788476 -0.0835,0.08349 -0.1518,0.0059 -0.1518,-0.172495 z m -35.45417,-0.398914 c 0,-0.106723 0.29709,-0.583543 0.66019,-1.059599 0.36311,-0.476056 0.60123,-0.924518 0.52917,-0.996582 -0.0721,-0.07207 0.0419,-0.131026 0.25316,-0.131026 0.26272,0 0.12112,0.341555 -0.44791,1.080382 -0.45766,0.59421 -0.86866,1.129991 -0.91335,1.190625 -0.0447,0.06063 -0.0813,0.02292 -0.0813,-0.0838 z m -0.10093,-2.224659 c -0.0727,-0.117612 0.13916,-0.554108 0.47077,-0.969992 0.41326,-0.518273 0.6642,-0.657028 0.79767,-0.441062 0.1176,0.190267 0.0559,0.286289 -0.15566,0.242388 -0.19271,-0.03999 -0.33463,0.130989 -0.31537,0.379943 0.0193,0.248955 -0.0998,0.427549 -0.26459,0.396875 -0.16478,-0.03067 -0.26983,0.09306 -0.23345,0.274959 0.0746,0.372888 -0.0992,0.440745 -0.29937,0.116889 z m 31.70199,-0.910639 -0.7771,-0.859895 0.85989,0.777105 c 0.47295,0.427408 0.8599,0.814361 0.8599,0.859896 0,0.204407 -0.21831,0.02444 -0.94269,-0.777106 z m -28.62203,-0.616783 c 0.25394,-0.302851 0.40703,-0.605321 0.34019,-0.672155 -0.0668,-0.06683 0.12496,-0.140083 0.42621,-0.162775 0.30124,-0.02269 0.50449,-0.01788 0.45166,0.0107 -0.0528,0.02857 -0.45238,0.349611 -0.88791,0.713413 -0.58429,0.488078 -0.67083,0.517126 -0.33015,0.11082 z m -0.93759,-1.435484 c 0.61347,-0.639616 1.1568,-1.109244 1.2074,-1.043617 0.0506,0.06563 -0.45134,0.588949 -1.11541,1.162939 l -1.20739,1.043617 z m 28.08731,0.597059 c -0.32129,-0.409674 -0.31459,-0.42518 0.0581,-0.134587 0.23167,0.180638 0.51865,0.24017 0.63774,0.132292 0.11908,-0.107878 0.13086,-0.04731 0.0262,0.134587 -0.24601,0.427484 -0.28921,0.419568 -0.72201,-0.132292 z m -26.47419,-1.040636 c 0.19099,-0.07643 0.4192,-0.06703 0.50712,0.02089 0.0879,0.08792 -0.0684,0.150453 -0.34727,0.138964 -0.30823,-0.0127 -0.37092,-0.07539 -0.15985,-0.159852 z m 23.36804,-0.714456 c -0.57435,-0.318445 -0.58601,-0.362762 -0.14036,-0.533775 0.2673,-0.102573 0.3966,-0.09709 0.28734,0.01217 -0.10927,0.109269 0.073,0.349468 0.40494,0.533775 0.33198,0.184307 0.48454,0.335103 0.33902,0.335103 -0.14552,0 -0.54644,-0.156275 -0.89094,-0.347278 z m 3.37073,-0.09699 c -0.3291,-0.419644 -0.31975,-0.429002 0.0999,-0.0999 0.44073,0.345644 0.58089,0.562916 0.36312,0.562916 -0.0549,0 -0.2633,-0.20836 -0.46302,-0.463021 z m -23.77875,-0.06615 c -0.23846,-0.154109 -0.2711,-0.258097 -0.0818,-0.260532 0.17332,-0.0022 0.3887,0.115011 0.47864,0.260532 0.20301,0.328487 0.11142,0.328487 -0.39688,0 z m -2.7482,-0.312997 c 0.0764,-0.12364 0.24977,-0.156301 0.38524,-0.07258 0.34617,0.213949 0.30719,0.297382 -0.13894,0.297382 -0.21188,0 -0.32271,-0.101161 -0.2463,-0.224802 z m 3.68449,0.08751 c 0.32284,-0.293806 2.02567,-0.869508 2.16367,-0.731509 0.057,0.05705 -0.46367,0.297057 -1.15715,0.533349 -0.69348,0.236292 -1.14641,0.325464 -1.00652,0.19816 z m 17.45226,-0.445285 c -0.66163,-0.318677 -0.68365,-0.355406 -0.1323,-0.220645 0.7497,0.18324 1.5924,0.612754 1.19063,0.60685 -0.14552,-0.0021 -0.62177,-0.175931 -1.05833,-0.386205 z m 4.36562,0.141601 c -0.23847,-0.154109 -0.2711,-0.258097 -0.0818,-0.260531 0.17331,-0.0022 0.3887,0.11501 0.47864,0.260531 0.20301,0.328487 0.11142,0.328487 -0.39688,0 z m -24.87083,-0.116188 c 0,-0.07414 0.35399,-0.317861 0.78664,-0.541595 0.71007,-0.367189 0.77127,-0.366739 0.62877,0.0046 -0.0868,0.226273 -0.21835,0.350928 -0.29226,0.277012 -0.0739,-0.07392 -0.35687,-0.01533 -0.62877,0.13019 -0.27191,0.14552 -0.49438,0.20392 -0.49438,0.129776 z m 23.54791,-0.412978 c 0.32679,-0.211183 0.33068,-0.257196 0.022,-0.260532 -0.20615,-0.0022 -0.31249,-0.06638 -0.2363,-0.142571 0.0762,-0.07619 0.34413,-0.05962 0.59545,0.03682 0.36216,0.138973 0.38373,0.221739 0.10401,0.399052 -0.1941,0.123041 -0.47197,0.223711 -0.6175,0.223711 -0.14552,0 -0.086,-0.115416 0.1323,-0.25648 z m -17.51211,-0.180741 c 0.191,-0.07643 0.4192,-0.06703 0.50712,0.02089 0.0879,0.08792 -0.0683,0.150453 -0.34726,0.138964 -0.30823,-0.01269 -0.37092,-0.07539 -0.15986,-0.159852 z m 12.96459,0 c 0.19099,-0.07643 0.4192,-0.06703 0.50712,0.02089 0.0879,0.08792 -0.0684,0.150453 -0.34727,0.138964 -0.30823,-0.01269 -0.37092,-0.07539 -0.15985,-0.159852 z m -11.90625,-0.264583 c 0.19099,-0.07643 0.4192,-0.06703 0.50712,0.02089 0.0879,0.08792 -0.0684,0.150453 -0.34727,0.138964 -0.30823,-0.01269 -0.37092,-0.07539 -0.15985,-0.159852 z m -4.31602,-0.627489 c 0.58209,-0.275446 1.23693,-0.498364 1.45521,-0.495373 0.21828,0.003 -0.19844,0.237896 -0.92604,0.522013 -1.65604,0.646653 -1.92354,0.633187 -0.52917,-0.02664 z m 5.35781,0.368417 c 0.18191,-0.0734 0.47956,-0.0734 0.66146,0 0.1819,0.0734 0.0331,0.133453 -0.33073,0.133453 -0.3638,0 -0.51263,-0.06005 -0.33073,-0.133453 z m 8.20209,0 c 0.1819,-0.0734 0.47956,-0.0734 0.66146,0 0.1819,0.0734 0.0331,0.133453 -0.33073,0.133453 -0.3638,0 -0.51263,-0.06005 -0.33073,-0.133453 z m 4.03489,-0.08935 c -0.23846,-0.15411 -0.2711,-0.258098 -0.0818,-0.260532 0.17332,-0.0022 0.3887,0.115011 0.47864,0.260532 0.20301,0.328486 0.11142,0.328486 -0.39688,0 z m -9.7198,-0.18986 c 0.40219,-0.06082 0.9975,-0.05919 1.32292,0.0036 0.32542,0.0628 -0.004,0.11256 -0.73124,0.110574 -0.72761,-0.002 -0.99386,-0.05337 -0.59168,-0.114185 z m 2.91042,0 c 0.40218,-0.06082 0.9975,-0.05919 1.32292,0.0036 0.32542,0.0628 -0.004,0.11256 -0.73124,0.110574 -0.72761,-0.002 -0.99386,-0.05337 -0.59168,-0.114185 z m 6.41251,-0.60389 c -0.33355,-0.143329 -0.38245,-0.227391 -0.13229,-0.227391 0.21828,0 0.635,0.102326 0.92604,0.227391 0.33354,0.143328 0.38245,0.22739 0.13229,0.22739 -0.21828,0 -0.635,-0.102325 -0.92604,-0.22739 z m -14.81667,-0.264584 c 0.29104,-0.125065 0.76729,-0.223891 1.05834,-0.219613 0.42539,0.0063 0.39945,0.04932 -0.1323,0.219613 -0.90465,0.289722 -1.60025,0.289722 -0.92604,0 z m 2.24896,-0.516193 c 0.66104,-0.224666 2.30296,-0.36511 2.09462,-0.179166 -0.0606,0.05411 -0.70556,0.167146 -1.43316,0.251182 -0.89215,0.103041 -1.10754,0.07959 -0.66146,-0.07202 z m 10.26914,0.07087 c 0.191,-0.07643 0.4192,-0.06703 0.50712,0.02089 0.0879,0.08792 -0.0684,0.150453 -0.34727,0.138965 -0.30822,-0.0127 -0.37091,-0.07539 -0.15985,-0.159853 z m -2.00091,-0.266227 c 0.25466,-0.06655 0.67138,-0.06655 0.92604,0 0.25466,0.06655 0.0463,0.121001 -0.46302,0.121001 -0.50932,0 -0.71768,-0.05445 -0.46302,-0.121001 z m -4.22535,-0.277004 c 0.69562,-0.05468 1.76718,-0.05402 2.38125,0.0015 0.61407,0.05549 0.0449,0.10023 -1.26475,0.09942 -1.30969,-7.93e-4 -1.81211,-0.04621 -1.1165,-0.10089 z"
           id="path135" />
        <path
           style="fill:#cedf8f;fill-opacity:1;stroke-width:0.264583"
           d="m 122.15445,171.48821 c 0.69122,-0.0545 1.82231,-0.0545 2.51354,0 0.69122,0.0545 0.12568,0.0991 -1.25677,0.0991 -1.38245,0 -1.948,-0.0446 -1.25677,-0.0991 z m -3.63802,-0.45957 c -1.40297,-0.46238 -0.89306,-0.47267 0.92604,-0.0187 0.80036,0.19974 1.15755,0.36414 0.79375,0.36533 -0.3638,0.001 -1.13771,-0.15479 -1.71979,-0.34663 z m 8.67424,0.0633 c 1.0946,-0.22793 1.20554,-0.30775 0.81982,-0.5898 -0.35255,-0.25779 -0.37364,-0.37098 -0.10056,-0.53975 0.23887,-0.14763 0.28186,-0.1105 0.13924,0.12025 -0.15354,0.24844 -0.0456,0.28829 0.42214,0.15584 0.4846,-0.13723 0.5376,-0.11437 0.23157,0.0999 -0.51668,0.36175 0.0103,0.36954 0.94552,0.014 0.39345,-0.14959 0.7699,-0.21746 0.83654,-0.15082 0.17938,0.17938 -3.33181,1.22171 -3.99274,1.18528 -0.31209,-0.0172 0.002,-0.1499 0.69847,-0.29488 z m -11.32008,-1.12216 c -1.28286,-0.79013 -1.07285,-0.89324 0.24075,-0.11819 0.51285,0.30259 1.07384,0.46278 1.24663,0.35599 0.19776,-0.12222 0.24422,-0.081 0.12539,0.1113 -0.26212,0.42411 -0.40902,0.39231 -1.61277,-0.3491 z m 16.33391,-0.74188 c 0.2524,-0.20662 0.37146,-0.47229 0.26458,-0.59037 -0.10687,-0.11808 -0.0649,-0.14104 0.0933,-0.051 0.34911,0.19868 1.49548,-0.55612 1.30723,-0.86071 -0.0736,-0.11908 0.0339,-0.3557 0.23891,-0.52583 0.29367,-0.24372 0.3603,-0.22472 0.31417,0.0896 -0.0828,0.56436 -0.77644,1.27058 -1.79944,1.83217 -0.48271,0.26499 -0.67114,0.31275 -0.41874,0.10614 z m -17.93229,-0.20866 c -0.0959,-0.15521 -0.11765,-0.33893 -0.0483,-0.40829 0.0694,-0.0694 0.1966,0.0576 0.28278,0.28219 0.1789,0.46622 0.0264,0.54823 -0.23448,0.1261 z m -1.46544,-1.23917 c -0.50724,-0.5457 -1.09695,-1.23615 -1.31047,-1.53432 -0.31746,-0.44334 -0.28468,-0.43436 0.17989,0.0493 0.61379,0.63896 1.09502,0.53421 0.55408,-0.1206 -0.28944,-0.35039 -0.25856,-0.35408 0.26011,-0.0311 0.50751,0.31605 0.53134,0.39853 0.17305,0.59903 -0.35207,0.19703 -0.28254,0.36969 0.45555,1.13121 0.47907,0.49428 0.81232,0.89869 0.74054,0.89869 -0.0718,0 -0.54551,-0.44649 -1.05275,-0.99219 z m 1.8732,0.21405 c 0,-0.13693 0.1177,-0.32171 0.26155,-0.41062 0.14998,-0.0927 0.19434,0.0135 0.10399,0.24897 -0.1759,0.45837 -0.36554,0.54224 -0.36554,0.16165 z m -1.28632,-0.36839 c -0.21879,-0.26362 -0.20469,-0.35278 0.0558,-0.35278 0.19171,0 0.34857,0.15875 0.34857,0.35278 0,0.19403 -0.0251,0.35278 -0.0558,0.35278 -0.0307,0 -0.18755,-0.15875 -0.34858,-0.35278 z m 21.51457,-0.68553 c 0.0831,-0.13451 -0.0587,-0.30538 -0.31512,-0.37972 -0.27401,-0.0794 -0.19353,-0.11496 0.1952,-0.0862 0.47681,0.0353 0.64202,-0.0704 0.59182,-0.37874 -0.0383,-0.23525 0.14029,-0.58669 0.39688,-0.78099 0.39735,-0.30089 0.41748,-0.29828 0.13578,0.0176 -0.49313,0.55301 -0.39943,0.9114 0.13229,0.506 0.25466,-0.19417 0.11333,0.0294 -0.31408,0.49676 -0.75565,0.82633 -1.12928,1.10117 -0.82277,0.60524 z m -0.14016,-0.87992 c -0.14286,-0.46678 -0.16763,-1.00367 -0.0404,-0.87649 0.19308,0.19309 0.32791,0.94263 0.16956,0.94263 -0.0599,0 -0.11799,-0.0298 -0.12912,-0.0661 z m -22.08335,-0.48063 c -0.0959,-0.1552 -0.11765,-0.33893 -0.0483,-0.40828 0.0694,-0.0694 0.1966,0.0576 0.28278,0.28218 0.1789,0.46623 0.0264,0.54824 -0.23448,0.1261 z m -2.17443,-0.77255 c -0.40799,-0.65329 -0.40779,-0.70915 0.002,-0.70913 0.1819,1e-5 0.3479,0.27782 0.36889,0.61736 0.0463,0.74853 0.0398,0.75013 -0.37139,0.0918 z m 26.26538,-0.10331 c 0.25011,-0.38172 0.50478,-0.69403 0.56592,-0.69403 0.19139,0 -0.42463,1.01969 -0.73006,1.20846 -0.15984,0.0988 -0.086,-0.13271 0.16414,-0.51443 z m -26.9578,-1.36572 c -0.25532,-0.66535 -0.18,-0.83702 0.13191,-0.30066 0.15443,0.26558 0.22505,0.5386 0.15693,0.60673 -0.0681,0.0681 -0.1981,-0.0696 -0.28884,-0.30607 z m 0.51349,-0.72879 c 0.0994,-0.26094 0.24731,-0.40778 0.32877,-0.32632 0.0815,0.0815 1.7e-4,0.29496 -0.18065,0.47444 -0.26131,0.25936 -0.2917,0.22897 -0.14812,-0.14812 z m -1.33992,-1.50994 c -0.10046,-0.45737 -0.1275,-0.88674 -0.0601,-0.95415 0.0674,-0.0674 0.19862,0.25778 0.2916,0.72264 0.22057,1.10285 0.007,1.3166 -0.23151,0.23151 z m 0.79375,0.52917 c 0.0899,-0.14552 0.21602,-0.26459 0.28019,-0.26459 0.0642,0 0.11668,0.11907 0.11668,0.26459 0,0.14552 -0.12609,0.26458 -0.2802,0.26458 -0.15411,0 -0.20661,-0.11906 -0.11667,-0.26458 z m -1.14885,-2.38125 c 0,-0.36381 0.0601,-0.51263 0.13345,-0.33073 0.0734,0.1819 0.0734,0.47955 0,0.66146 -0.0734,0.1819 -0.13345,0.0331 -0.13345,-0.33073 z m -0.25478,-1.45521 c 0.005,-0.43656 0.0647,-0.58313 0.13177,-0.3257 0.0671,0.25744 0.0627,0.61462 -0.01,0.79375 -0.0725,0.17913 -0.12736,-0.0315 -0.12197,-0.46805 z m 31.19014,-0.8158 c 0.0127,-0.30823 0.0754,-0.37092 0.15985,-0.15985 0.0764,0.19099 0.067,0.4192 -0.0209,0.50712 -0.0879,0.0879 -0.15045,-0.0684 -0.13896,-0.34727 z m -31.45533,-2.92621 c -0.0415,-1.53909 0.0296,-1.92086 0.38332,-2.05657 0.33539,-0.1287 0.36872,-0.0876 0.14637,0.18027 -0.15836,0.19081 -0.33085,1.11627 -0.38332,2.05658 l -0.0954,1.70964 z m 31.78371,-0.8882 c 0,-0.94589 0.048,-1.33284 0.10671,-0.8599 0.0587,0.47295 0.0587,1.24685 0,1.7198 -0.0587,0.47294 -0.10671,0.086 -0.10671,-0.8599 z m -31.46476,-2.22377 c -0.0784,-0.20443 -0.101,-0.76998 -0.0501,-1.25677 0.0811,-0.77603 0.1081,-0.73023 0.21899,0.37169 0.1297,1.28885 0.082,1.53884 -0.16887,0.88508 z m 0.21082,-2.93561 c 0.005,-0.43656 0.0647,-0.58312 0.13177,-0.32569 0.0671,0.25743 0.0627,0.61462 -0.01,0.79375 -0.0725,0.17913 -0.12736,-0.0315 -0.12197,-0.46806 z m 30.66098,-0.55121 c 0.0127,-0.30823 0.0754,-0.37092 0.15985,-0.15985 0.0764,0.19099 0.067,0.41919 -0.0209,0.50712 -0.0879,0.0879 -0.15045,-0.0684 -0.13896,-0.34727 z m -30.4062,-0.90399 c 0,-0.36381 0.0601,-0.51263 0.13345,-0.33073 0.0734,0.1819 0.0734,0.47955 0,0.66146 -0.0734,0.1819 -0.13345,0.0331 -0.13345,-0.33073 z m 0.2437,-1.21268 c 0.0127,-0.30822 0.0754,-0.37092 0.15985,-0.15985 0.0764,0.191 0.067,0.4192 -0.0209,0.50712 -0.0879,0.0879 -0.15045,-0.0684 -0.13896,-0.34727 z m 0.50827,-0.079 c 0,-0.14552 0.11907,-0.33817 0.26459,-0.42811 0.14552,-0.0899 0.26458,-0.0445 0.26458,0.10107 0,0.14552 -0.11906,0.33816 -0.26458,0.4281 -0.14552,0.0899 -0.26459,0.0445 -0.26459,-0.10106 z m -0.21529,-0.82498 c -0.007,-0.21828 0.0688,-0.5998 0.16775,-0.84782 0.1536,-0.38518 0.22577,-0.35343 0.49478,0.21773 0.26232,0.55697 0.25497,0.61891 -0.044,0.37075 -0.27728,-0.23012 -0.38714,-0.18934 -0.48269,0.17914 -0.079,0.30482 -0.12807,0.33377 -0.1358,0.0802 z m 0.62112,-1.57302 c -0.085,-0.13756 0.004,-0.63964 0.19863,-1.11573 0.29024,-0.71128 0.38524,-0.78217 0.53281,-0.39761 0.10772,0.28072 0.0749,0.40332 -0.082,0.30636 -0.23896,-0.14768 -0.3642,0.27639 -0.33264,1.12635 0.0146,0.39392 -0.10448,0.42423 -0.31684,0.0806 z m 0.91709,-2.82376 c 0,-0.14552 0.17481,-0.4957 0.38846,-0.77817 0.21365,-0.28248 0.38846,-0.39453 0.38846,-0.24901 0,0.14552 -0.17481,0.4957 -0.38846,0.77818 -0.21365,0.28247 -0.38846,0.39452 -0.38846,0.249 z m 0.94305,-1.76619 c 0.0994,-0.26094 0.24731,-0.40779 0.32877,-0.32632 0.0815,0.0815 1.7e-4,0.29495 -0.18065,0.47443 -0.26131,0.25936 -0.2917,0.22897 -0.14812,-0.14811 z m 0.85398,-1.57179 c 0.24856,-0.42208 0.688,-0.96778 0.97654,-1.21268 0.4976,-0.42235 0.50559,-0.42077 0.15524,0.0308 -0.33797,0.43558 -0.30949,0.46517 0.33529,0.34825 0.38756,-0.0703 0.70465,-0.0166 0.70465,0.11928 0,0.13589 -0.10583,0.24707 -0.23518,0.24707 -0.12936,0 -0.21865,0.14882 -0.19844,0.33073 0.0202,0.1819 -0.0823,0.35268 -0.22784,0.37952 -0.14552,0.0268 -0.22423,-0.14535 -0.17491,-0.38265 0.0693,-0.33335 0.009,-0.3646 -0.26459,-0.13744 -0.19484,0.1617 -0.47331,0.33389 -0.61883,0.38265 -0.14552,0.0487 -0.25136,0.21763 -0.23519,0.37528 0.0162,0.15765 -0.12767,0.28663 -0.31963,0.28663 -0.26535,0 -0.24068,-0.18401 0.10289,-0.7674 z m 2.01793,-1.61856 c -0.0914,-0.23827 -0.30259,-0.35718 -0.46924,-0.26423 -0.16666,0.0929 0.22779,-0.38399 0.87656,-1.05986 0.64876,-0.67586 1.21787,-1.22884 1.26469,-1.22884 0.22655,0 -1.11949,1.58094 -1.45597,1.71006 -0.31371,0.12038 -0.32394,0.22359 -0.0543,0.54842 0.18264,0.22008 0.25839,0.47383 0.16831,0.56391 -0.0901,0.0901 -0.23857,-0.0312 -0.33001,-0.26946 z m 2.579,-1.991 c -0.27971,-0.17731 -0.25814,-0.26007 0.10402,-0.39905 0.25131,-0.0964 0.51926,-0.113 0.59544,-0.0368 0.0762,0.0762 -0.007,0.13852 -0.18577,0.13852 -0.17836,0 -0.25071,0.11907 -0.16077,0.26459 0.19788,0.32017 0.11293,0.32806 -0.35292,0.0328 z m 13.68062,-0.2312 c -0.3291,-0.41965 -0.31975,-0.429 0.0999,-0.0999 0.25466,0.19972 0.46302,0.40808 0.46302,0.46302 0,0.21777 -0.21727,0.0776 -0.56292,-0.36312 z m -12.47556,-0.89599 c -0.2527,-0.14142 -0.57758,-0.18413 -0.72195,-0.0949 -0.14437,0.0892 -0.26249,0.0998 -0.26249,0.0236 0,-0.0762 0.2525,-0.27372 0.5611,-0.43888 0.31219,-0.16708 0.48892,-0.18351 0.39839,-0.037 -0.0895,0.14479 0.008,0.32858 0.21557,0.40841 0.20804,0.0798 0.43608,0.003 0.50675,-0.17071 0.0991,-0.24352 0.13329,-0.24369 0.14939,-8e-4 0.0311,0.46889 -0.32811,0.6005 -0.84676,0.31026 z m 10.26223,-0.49004 c -0.0927,-0.14999 0.0135,-0.19434 0.24897,-0.10399 0.45837,0.17589 0.54223,0.36554 0.16165,0.36554 -0.13694,0 -0.32172,-0.1177 -0.41062,-0.26155 z m -9.13,-0.79678 c 0.21828,-0.14107 0.57547,-0.24994 0.79375,-0.24194 0.26169,0.01 0.21663,0.092 -0.13229,0.24194 -0.72736,0.31255 -1.14511,0.31255 -0.66146,0 z m 1.80247,-0.44533 c 0.191,-0.0764 0.4192,-0.067 0.50712,0.0209 0.0879,0.0879 -0.0683,0.15045 -0.34726,0.13896 -0.30823,-0.0127 -0.37092,-0.0754 -0.15986,-0.15985 z"
           id="path133" />
      </g>
      <path
         style="fill:#4f6f26;fill-opacity:1;stroke-width:2.4685"
         d="m 528.07242,577.02362 c -17.48192,-7.4474 -35.31506,-25.92775 -41.01378,-42.50209 -4.78251,-13.90956 -5.74613,-40.63109 -1.88516,-52.27568 1.29176,-3.89567 5.97151,-15.35378 10.39946,-25.46244 4.42804,-10.10866 12.2434,-31.35781 17.36751,-47.2204 5.12401,-15.86259 10.98331,-31.80982 13.02076,-35.43825 5.74614,-10.23302 17.97923,-15.81348 34.68778,-15.82369 21.19194,-0.009 30.40469,6.3774 37.53781,26.03799 3.04745,8.39909 10.16607,28.0206 15.81917,43.60337 5.6532,15.58268 13.45387,36.27617 17.33488,45.98545 13.63993,34.12434 5.29844,70.76299 -20.91666,91.87295 -14.47712,11.6578 -30.54428,16.7952 -52.43419,16.76536 -12.32241,-0.0181 -20.50446,-1.5325 -29.91758,-5.54257 z m 62.22822,-6.97079 c 11.6168,-5.57295 26.01949,-20.48701 32.35455,-33.50348 4.383,-9.00548 5.74718,-16.28439 5.75233,-30.69326 0.01,-16.49802 -1.3325,-22.04131 -10.57779,-43.80541 -5.82161,-13.70444 -12.47383,-31.76624 -14.78274,-40.13738 -10.9066,-39.54265 -18.04077,-49.09294 -38.22873,-51.17458 -24.01601,-2.47641 -35.30828,8.311 -45.45135,43.41896 -3.06195,10.59839 -10.74926,32.91002 -17.08307,49.5815 -12.63032,33.24492 -13.94994,44.58852 -7.49915,64.46064 7.89895,24.33277 25.16207,40.51551 49.16911,46.0919 13.52075,3.14059 35.07327,1.16938 46.34684,-4.23889 z"
         id="path12390" />
      <path
         style="fill:#6e2b1a;fill-opacity:1;stroke-width:2.4685"
         d="m 544.28747,531.67297 c -10.55203,-5.2378 -15.11098,-15.41212 -15.17472,-33.86534 -0.12013,-34.69809 22.5713,-57.23635 43.87888,-43.5832 15.33406,9.82559 23.32785,44.45712 14.6482,63.46093 -6.88551,15.0754 -27.65828,21.77777 -43.35236,13.98761 z"
         id="path15157" />
      <path
         style="fill:#cedf8f;fill-opacity:1;stroke-width:1.23424"
         d="m 550.70726,574.69119 c -20.76743,-3.17667 -39.59349,-16.22253 -49.07894,-34.01003 -12.00123,-22.5048 -11.80085,-45.56228 0.63529,-73.19165 5.75148,-12.77762 15.06556,-39.29232 20.11257,-57.2548 8.60838,-30.63801 17.23383,-38.66721 40.3469,-37.55743 12.57355,0.60413 17.46684,2.69347 23.63711,10.09401 5.11056,6.1297 6.57865,9.87741 14.50775,37.03577 3.52749,12.08222 9.95214,30.26404 14.27703,40.40418 10.60947,24.87485 12.1081,30.60445 12.09331,46.23515 -0.01,14.74041 -1.97562,22.45687 -8.91343,35.06012 -12.43728,22.59352 -42.00239,37.10305 -67.61807,33.18468 z m 25.80852,-43.4215 c 8.53127,-4.75764 13.17553,-12.15322 15.58864,-24.8233 3.98177,-20.90656 -6.71348,-47.43013 -22.05079,-54.68435 -4.6934,-2.21992 -7.19152,-2.63594 -13.12325,-2.18555 -8.66848,0.65839 -11.9789,2.66606 -18.26662,11.07979 -10.23773,13.6992 -14.02151,37.56982 -8.7036,54.90737 3.09572,10.09293 6.82693,14.47996 15.08655,17.73821 10.87893,4.29152 21.34126,3.61585 31.46907,-2.03217 z"
         id="path25063" />
      <path
         style="fill:#cedf8f;fill-opacity:1;stroke-width:1.79541"
         d="m 366.72938,567.50001 c 0,-0.86099 1.22449,-11.9614 2.72102,-24.66685 2.86834,-24.35185 6.3194,-75.05677 11.35086,-166.77454 1.67133,-30.46572 3.23026,-55.57869 3.46432,-55.80661 0.23406,-0.2279 12.43739,0.0932 27.11851,0.71448 l 26.69295,1.12868 -1.22297,46.73682 c -0.67241,25.70527 -1.22297,81.27366 -1.22297,123.48535 v 76.74863 h -34.45086 c -19.30429,0 -34.45086,-0.68825 -34.45086,-1.56587 z"
         id="path45507" />
      <path
         style="fill:#cedf8f;fill-opacity:1;stroke-width:1.79673"
         d="m 708.36871,568.91524 -20.12011,-0.56398 1.1472,-39.63874 c 0.63176,-21.80123 1.67887,-67.31951 2.32876,-101.15187 l 1.18175,-61.51318 h -30.98254 -30.98263 l 1.09158,-9.16146 c 0.60008,-5.03886 1.64462,-15.73173 2.32074,-23.76208 l 1.22936,-14.60055 8.32508,1.07631 c 4.57871,0.59265 43.1726,1.07648 85.764,1.07648 h 77.43873 v 24.23243 24.23251 l -27.44817,-0.91767 -27.44837,-0.91768 -1.29863,91.38901 c -0.71535,50.26386 -1.80053,95.91937 -2.41416,101.45649 l -1.11533,10.06758 -9.44872,-0.37062 c -5.19672,-0.20413 -18.5025,-0.62394 -29.56854,-0.93389 z"
         id="path45583" />
      <text
         xml:space="preserve"
         style="font-style:normal;font-weight:normal;font-size:121.431px;line-height:1.25;font-family:sans-serif;fill:#4f6f26;fill-opacity:1;stroke:none;stroke-width:3.0358"
         x="372.77698"
         y="623.20508"
         id="text69579"
         transform="scale(0.99348355,1.0065592)"><tspan
           sodipodi:role="line"
           id="tspan69577"
           style="font-style:normal;font-variant:normal;font-weight:normal;font-stretch:normal;font-size:64.7637px;font-family:sans-serif;-inkscape-font-specification:'sans-serif, Normal';font-variant-ligatures:normal;font-variant-caps:normal;font-variant-numeric:normal;font-variant-east-asian:normal;fill:#4f6f26;fill-opacity:1;stroke-width:3.0358"
           x="372.77698"
           y="623.20508">senavocado</tspan></text>
      <g
         id="g78069"
         transform="matrix(8.2719001,0,0,6.7393514,-156.68089,-1571.4437)"
         style="fill:#d45500;fill-opacity:1">
        <path
           style="fill:#d45500;fill-opacity:1;stroke-width:0.264583"
           d="m 45.305756,334.29914 c -3.622911,-0.61841 -7.861253,-2.27525 -10.562831,-4.1292 -4.63813,-3.18289 -8.359415,-8.54976 -9.851915,-14.20851 -0.759549,-2.8798 -0.824256,-8.3415 -0.134426,-11.34647 1.615017,-7.03519 6.469013,-13.22802 12.876255,-16.4278 1.091406,-0.54505 2.596388,-1.19154 3.344402,-1.43665 l 1.36003,-0.44565 0.187449,-1.5003 c 1.08389,-8.67515 8.296127,-16.2784 17.025665,-17.94872 3.509145,-0.67144 8.499469,-0.35882 11.190443,0.70104 l 1.225701,0.48275 1.387949,-2.27129 c 3.001242,-4.91136 8.516122,-9.49377 13.755443,-11.42963 6.255282,-2.31125 13.832099,-2.36089 19.760479,-0.12945 6.73198,2.53391 12.22531,7.49589 15.49351,13.99488 1.08266,2.15292 2.18988,5.51403 2.44047,7.40833 0.38034,2.87519 0.24208,2.68831 2.13218,2.88195 5.60972,0.57473 11.76586,3.64177 16.19014,8.06605 5.85971,5.85971 8.63195,13.61648 7.96996,22.30006 -0.93332,12.24272 -10.56796,22.45377 -23.39257,24.79206 -2.78325,0.50747 -4.3609,0.53145 -42.31396,0.64329 -21.682604,0.0639 -39.720572,0.0654 -40.084374,0.003 z m 77.937774,-5.62629 c 9.83977,-0.8069 17.39335,-5.87804 20.83769,-13.98952 1.61734,-3.80884 2.0852,-9.07587 1.17043,-13.17618 -2.21921,-9.9472 -10.6642,-17.08457 -20.96777,-17.72113 -1.30969,-0.0809 -2.70032,-0.26741 -3.09029,-0.41443 -1.03107,-0.38872 -1.4579,-1.59617 -1.62047,-4.58412 -0.22863,-4.20202 -1.68063,-8.0615 -4.42577,-11.76386 -6.81481,-9.19114 -19.724498,-11.66738 -29.624775,-5.6824 -3.830759,2.31579 -6.509443,5.30426 -8.71469,9.72253 -1.318106,2.64086 -1.572958,2.98697 -2.438783,3.31213 -0.920798,0.34579 -1.071232,0.31597 -3.157429,-0.62598 -3.025238,-1.36593 -4.474578,-1.70251 -7.346894,-1.70615 -4.581906,-0.006 -8.139229,1.44862 -11.284606,4.61378 -2.95075,2.96932 -4.429641,6.2854 -4.785109,10.72954 -0.09891,1.23658 -0.286276,2.45546 -0.416375,2.70861 -0.303228,0.59006 -1.390422,1.13782 -2.734392,1.37766 -2.774815,0.49519 -6.487218,2.50968 -9.146791,4.96339 -4.516712,4.16711 -6.670033,10.98022 -5.420061,17.14909 0.489998,2.41824 1.705822,5.30585 3.067058,7.28434 1.812682,2.63464 5.453605,5.51381 8.457086,6.6877 3.520884,1.37611 1.922185,1.32469 41.671874,1.34045 20.372917,0.008 38.359447,-0.0934 39.970067,-0.22545 z"
           id="path78083" />
        <path
           style="fill:#d45500;fill-opacity:1;stroke-width:0.264583"
           d="m 44.592931,334.0876 c -9.95748,-1.79771 -17.435905,-8.90766 -19.834404,-18.85713 -0.671941,-2.78735 -0.59515,-8.06067 0.160589,-11.02775 2.063686,-8.10216 7.869126,-14.51523 15.605677,-17.23904 l 1.701332,-0.59899 0.450572,-2.20111 c 0.997757,-4.87418 2.627656,-7.93503 6.045247,-11.35263 2.667,-2.667 4.995106,-4.12011 8.444561,-5.27075 4.141126,-1.38137 9.394814,-1.3779 13.425524,0.009 l 1.419273,0.48831 0.98062,-1.63641 c 5.686935,-9.49007 16.230396,-14.84133 26.964462,-13.68564 6.643946,0.71534 11.894796,3.16275 16.741386,7.80314 4.15851,3.98159 7.10849,9.48007 8.00413,14.91894 0.15964,0.96941 0.33761,2.01489 0.39549,2.32329 0.0885,0.47163 0.35817,0.58935 1.69697,0.74081 3.78669,0.42842 8.30408,2.07889 11.64473,4.25452 2.37838,1.54894 6.63884,5.73576 8.07317,7.93362 4.16996,6.38975 5.60779,13.8927 4.0898,21.34158 -2.28516,11.21352 -11.85754,19.934 -23.89567,21.76908 -3.51178,0.53534 -79.271389,0.8004 -82.113459,0.28729 z m 83.395119,-6.01818 c 12.46978,-3.38873 19.76808,-14.38774 17.33893,-26.13091 -1.50801,-7.29015 -6.02266,-12.9966 -12.75013,-16.11597 -2.81816,-1.30672 -5.22176,-1.89429 -8.61979,-2.10715 -2.41746,-0.15143 -2.77921,-0.24076 -3.37092,-0.83248 -0.58261,-0.58261 -0.68297,-0.96667 -0.82911,-3.17289 -0.56703,-8.56073 -5.08492,-15.56855 -12.42203,-19.26815 -3.60907,-1.81981 -5.71674,-2.29292 -10.170912,-2.2831 -3.223358,0.007 -4.17472,0.10723 -5.953125,0.62656 -4.397102,1.28405 -8.830627,4.17443 -11.496542,7.49503 -0.73264,0.91256 -1.999261,3.00063 -2.814715,4.64015 -0.815453,1.63952 -1.701421,3.09804 -1.96882,3.24114 -0.875199,0.4684 -2.359337,0.27474 -3.91578,-0.51095 -2.461736,-1.24268 -4.396848,-1.70043 -7.188517,-1.70043 -4.482016,0 -8.095967,1.53649 -11.380843,4.83862 -3.030281,3.04621 -4.75874,7.21369 -4.75874,11.47379 0,1.86757 -0.678985,2.6477 -2.670853,3.06874 -7.008415,1.48141 -12.416374,6.41481 -14.579975,13.30058 -0.512969,1.63254 -0.606727,2.49772 -0.596958,5.5086 0.01037,3.20038 0.08786,3.79202 0.7449,5.68854 2.209802,6.37851 7.029418,10.89578 13.398719,12.55821 1.932435,0.50437 3.023163,0.5164 41.671874,0.45951 l 39.687497,-0.0584 z"
           id="path78081" />
        <path
           style="fill:#d45500;fill-opacity:1;stroke-width:0.264583"
           d="m 45.281046,334.15728 c -6.824916,-0.75386 -13.829321,-5.43305 -17.668929,-11.80347 -3.829437,-6.35353 -4.36571,-14.97314 -1.369604,-22.01388 2.528163,-5.9411 7.994611,-11.11604 13.970207,-13.22523 1.785456,-0.6302 2.053815,-0.81044 2.203225,-1.47971 0.09358,-0.41915 0.374361,-1.68001 0.623972,-2.80191 1.624732,-7.30251 7.559953,-13.42039 15.151264,-15.61754 2.917446,-0.8444 8.591719,-0.82775 11.323949,0.0332 1.018646,0.32099 2.030677,0.63828 2.248958,0.70508 0.271645,0.0831 0.743527,-0.48436 1.495468,-1.79849 2.536198,-4.43239 6.646672,-8.20598 11.601407,-10.65058 13.136867,-6.48157 28.872937,-1.7937 36.453047,10.85957 1.74716,2.91649 3.15128,6.97568 3.56919,10.3182 l 0.19443,1.55506 2.64583,0.44352 c 6.12799,1.02724 10.96603,3.57754 15.47813,8.15909 3.90385,3.96394 6.30952,8.48742 7.46672,14.03997 0.68591,3.29116 0.54566,9.11609 -0.29385,12.20449 -1.34671,4.95428 -3.58367,8.82891 -7.16469,12.40994 -4.0921,4.09209 -8.63708,6.54783 -15.00365,8.10676 -1.91933,0.46997 1.40813,0.43439 -63.850365,0.68267 -9.531614,0.0363 -18.115232,-0.0208 -19.074709,-0.12676 z m 81.782534,-5.82343 c 9.45179,-2.36635 15.90812,-8.23713 18.00213,-16.36947 2.06889,-8.03472 -0.2866,-16.22763 -6.32378,-21.99552 -4.24352,-4.05423 -9.70559,-6.27813 -15.43549,-6.2846 -1.47321,-0.002 -1.89213,-0.10603 -2.49016,-0.62043 -0.66296,-0.57026 -0.74639,-0.8715 -1.07079,-3.86638 -0.72271,-6.67205 -2.84417,-11.10629 -7.27714,-15.21053 -4.28735,-3.96943 -9.41457,-5.96924 -15.304262,-5.96924 -5.779995,0 -10.982018,2.04265 -15.346489,6.02602 -1.845276,1.68415 -4.381659,5.15787 -5.179039,7.09299 -0.899131,2.18205 -1.216567,2.69213 -1.856962,2.98391 -1.091854,0.49748 -2.099974,0.3482 -3.995142,-0.59161 -2.3988,-1.18956 -4.226092,-1.60324 -7.092159,-1.60561 -8.671187,-0.007 -16.007291,7.3813 -16.007291,16.12151 0,2.07486 -0.739016,2.85643 -3.233603,3.41978 -3.930713,0.88767 -8.007739,3.44232 -10.602978,6.6438 -4.902886,6.04817 -5.522202,15.02913 -1.494653,21.67456 2.540207,4.19132 6.585143,7.23689 11.492759,8.65331 1.481466,0.42757 4.305337,0.45433 41.541599,0.39361 35.89668,-0.0585 40.12681,-0.10888 41.67345,-0.4961 z"
           id="path78079" />
        <path
           style="fill:#d45500;fill-opacity:1;stroke-width:0.264583"
           d="M 42.624495,333.58755 C 27.388208,329.55332 19.946813,312.90813 27.05351,298.75778 c 1.792417,-3.56893 5.1397,-7.17854 8.865911,-9.56074 1.312397,-0.83902 4.590362,-2.29339 5.643952,-2.50411 0.695084,-0.13902 0.799086,-0.29018 0.952817,-1.38492 1.886445,-13.43365 15.199066,-21.9016 27.875738,-17.73133 0.9188,0.30226 1.701284,0.50756 1.738849,0.45622 0.03757,-0.0513 0.406403,-0.68866 0.819632,-1.41626 3.586763,-6.31548 9.928952,-11.1248 17.334512,-13.14487 1.953231,-0.53279 2.85781,-0.61332 6.879167,-0.61241 4.001352,7.9e-4 4.953622,0.0853 7.011462,0.62138 4.86168,1.26651 10.23768,4.46936 13.51547,8.0521 3.76745,4.11797 6.63416,10.20323 7.15525,15.18866 l 0.16899,1.61686 1.48639,0.17427 c 6.27942,0.73619 12.93891,4.11593 17.12737,8.69226 6.84305,7.47675 9.2279,17.86121 6.26846,27.29507 -3.30492,10.53518 -12.88305,18.1193 -24.55527,19.44328 -1.51863,0.17225 -16.51859,0.26631 -41.407288,0.25963 l -39.026041,-0.0105 -2.284386,-0.60485 z m 85.576155,-5.51151 c 8.54031,-2.35163 14.64755,-8.13112 16.91179,-16.0042 0.4946,-1.71977 0.59247,-2.70265 0.58753,-5.89999 -0.005,-3.45797 -0.0794,-4.0712 -0.75109,-6.21582 -0.40984,-1.30865 -1.04666,-2.97553 -1.41515,-3.70417 -3.89374,-7.69938 -11.65842,-12.55869 -20.08176,-12.5676 -1.69655,-0.002 -1.97026,-0.0767 -2.671,-0.73133 -0.728,-0.68005 -0.79368,-0.90542 -0.97206,-3.33547 -0.46219,-6.29646 -2.75368,-11.28672 -7.08103,-15.42059 -4.63717,-4.42984 -9.93037,-6.37902 -16.602702,-6.11382 -2.773797,0.11024 -3.744479,0.26867 -5.840257,0.9532 -6.213821,2.02956 -11.088406,6.44004 -13.874345,12.55338 -1.384847,3.03884 -2.392261,3.44352 -5.130887,2.06107 -2.576764,-1.30075 -4.387379,-1.71814 -7.4531,-1.71814 -2.999762,0 -4.878533,0.41896 -7.264742,1.62001 -1.600038,0.80536 -4.233552,2.89424 -5.227936,4.14677 -2.120688,2.67122 -3.646905,6.90729 -3.646905,10.12212 0,2.26717 -0.695754,3.03115 -3.307292,3.63158 -1.018646,0.23421 -2.983177,0.98069 -4.365625,1.65885 -2.064917,1.01295 -2.893338,1.61554 -4.641453,3.37618 -3.810778,3.83807 -5.41347,7.44256 -5.618853,12.6369 -0.155424,3.93092 0.339016,6.28715 2.010862,9.58264 0.975969,1.9238 1.681724,2.87081 3.480073,4.66966 2.518624,2.51934 4.858094,3.92483 8.208954,4.93171 l 1.984375,0.59627 40.084374,-0.0575 40.084379,-0.0575 z"
           id="path78077" />
        <path
           style="fill:#d45500;fill-opacity:1;stroke-width:0.264583"
           d="m 43.718256,333.80682 c -8.941292,-1.91737 -16.018539,-8.56606 -18.573196,-17.44851 -0.522045,-1.81514 -0.608614,-2.71974 -0.607686,-6.35 0.0012,-4.63844 0.23766,-5.92723 1.757351,-9.5777 1.613956,-3.87689 4.699665,-7.68883 8.336808,-10.29889 1.748671,-1.25487 5.504545,-3.1059 6.89552,-3.39836 0.731541,-0.15381 0.8728,-0.31612 1.002657,-1.15205 1.562741,-10.05981 8.236474,-17.04586 17.884746,-18.72172 3.533796,-0.6138 6.348552,-0.33996 11.265744,1.09603 0.489169,0.14285 0.678129,-0.0277 1.234598,-1.11432 1.018162,-1.98817 2.366214,-3.74392 4.593291,-5.98245 4.024292,-4.045 8.785606,-6.57133 14.600769,-7.74712 3.0728,-0.62131 9.060822,-0.42419 12.066692,0.3972 8.09957,2.21334 14.8792,7.86061 18.28423,15.23034 1.34088,2.90215 2.48556,6.97246 2.48556,8.83826 0,0.73421 0.0413,0.75465 2.18281,1.07954 4.95673,0.752 9.77245,2.85323 13.58072,5.92562 6.9131,5.57728 10.80882,14.24232 10.35179,23.02495 -0.72313,13.89619 -11.37915,24.69789 -25.98303,26.33823 -1.50497,0.16904 -16.59646,0.26053 -41.010417,0.24861 -31.977274,-0.0156 -38.925311,-0.0824 -40.348957,-0.38766 z m 84.183914,-5.59437 c 8.64613,-2.45918 14.34189,-7.57022 16.92724,-15.18952 0.79972,-2.35685 0.84433,-2.69766 0.86215,-6.5865 0.0222,-4.84572 -0.27395,-6.19945 -2.22853,-10.18646 -1.57041,-3.20338 -3.80018,-5.95074 -6.41574,-7.90502 -3.87521,-2.89547 -7.7364,-4.31637 -12.60784,-4.63961 -3.01217,-0.19986 -4.16366,-0.6497 -4.37522,-1.70919 -0.0618,-0.30956 -0.17838,-1.58129 -0.25903,-2.82607 -1.03639,-15.99537 -17.95439,-25.97871 -32.298404,-19.05932 -5.035333,2.42898 -8.560538,6.04116 -11.022112,11.29402 -0.568365,1.21286 -1.294189,2.38786 -1.612948,2.61113 -0.817906,0.57289 -2.006441,0.49902 -3.239939,-0.20135 -3.826333,-2.17257 -8.627099,-2.57696 -13.033261,-1.09786 -6.407743,2.15101 -10.893129,8.3278 -10.90762,15.02081 -0.0035,1.61603 -0.08055,1.88252 -0.731515,2.52994 -0.50782,0.50506 -1.327015,0.86856 -2.711979,1.20338 -7.369114,1.78156 -12.698468,7.35164 -14.408459,15.0593 -0.38762,1.74717 -0.171138,6.36823 0.391906,8.36573 1.610654,5.71405 5.969654,10.68243 11.171293,12.73299 3.373387,1.32984 1.293257,1.27272 44.252551,1.21512 l 40.216667,-0.0539 z"
           id="path78075" />
        <path
           style="fill:#d45500;fill-opacity:1;stroke-width:0.264583"
           d="m 43.453672,333.72394 c -4.505936,-1.01664 -8.36735,-3.13125 -11.660171,-6.38543 -1.251617,-1.23692 -2.635628,-2.78474 -3.075581,-3.43958 -4.390827,-6.53548 -5.483422,-14.45554 -3.005478,-21.78627 1.223372,-3.61921 2.720635,-6.04551 5.552244,-8.99733 2.81673,-2.93632 6.089819,-4.91494 10.932215,-6.60867 0.30126,-0.10538 0.463021,-0.43761 0.463021,-0.95098 0,-2.32559 1.529625,-6.60776 3.325067,-9.30849 5.161594,-7.76414 14.520851,-11.28879 23.530141,-8.86132 2.457143,0.66205 2.664703,0.6807 2.910417,0.26158 2.221984,-3.79006 5.103979,-7.15301 8.045106,-9.38768 2.205963,-1.67608 6.336392,-3.71282 9.417393,-4.64375 2.221418,-0.67121 2.709794,-0.7195 7.276042,-0.7195 4.558072,0 5.058602,0.0493 7.276042,0.71622 4.68305,1.40854 8.75925,3.73301 11.99649,6.84107 4.49559,4.31618 7.33106,9.75154 8.2837,15.87917 0.33478,2.1534 0.47733,2.31009 2.10932,2.31859 1.43922,0.007 5.89693,1.34417 8.33625,2.49969 7.81331,3.7012 13.32123,10.64852 15.34722,19.35797 0.66084,2.84082 0.67194,8.70295 0.0218,11.49194 -1.29663,5.5621 -3.3467,9.22818 -7.46559,13.35053 -4.05883,4.06222 -8.11523,6.36485 -13.75019,7.80533 -4.0092,1.02488 -5.53244,1.05979 -45.251897,1.03689 -35.278273,-0.0203 -38.801301,-0.0611 -40.613541,-0.46998 z m 82.153128,-5.0893 c 9.17743,-1.18509 17.25565,-7.9967 19.57962,-16.50967 0.58439,-2.14071 0.81914,-7.59847 0.41798,-9.71792 -1.25175,-6.61343 -5.08066,-12.16727 -10.76896,-15.62037 -3.12516,-1.89714 -6.08818,-2.77689 -10.40749,-3.09006 -2.89789,-0.21012 -3.06152,-0.254 -3.72769,-0.99957 -0.61888,-0.69265 -0.71605,-1.073 -0.86941,-3.40302 -0.38911,-5.9121 -2.60446,-10.77295 -6.80276,-14.92635 -10.85206,-10.73599 -29.16999,-7.69789 -36.079737,5.98397 -0.523013,1.0356 -0.950931,1.96972 -0.950931,2.07582 0,0.1061 -0.243049,0.53423 -0.540108,0.95141 -0.887132,1.24586 -2.013603,1.28227 -4.325746,0.13982 -7.115921,-3.51604 -15.517979,-1.53268 -20.308438,4.79394 -1.803662,2.38204 -2.835002,5.27548 -3.102618,8.70443 -0.265308,3.39939 -0.444844,3.63207 -3.361766,4.35705 -5.699189,1.41647 -10.37018,5.1208 -12.820782,10.16752 -1.401088,2.88537 -1.923881,5.22307 -1.92304,8.59896 0.0013,5.76685 2.416128,10.88593 6.894788,14.61678 2.511293,2.09198 6.336453,3.77942 9.589794,4.23048 1.696026,0.23514 77.560994,-0.10189 79.507294,-0.35322 z"
           id="path78073" />
        <path
           style="fill:#d45500;fill-opacity:1;stroke-width:0.264583"
           d="m 43.785611,333.79991 c -7.365098,-1.64229 -13.692235,-6.58673 -16.901912,-13.20827 -1.876349,-3.8709 -2.314723,-5.90479 -2.30958,-10.71563 0.004,-3.70353 0.07449,-4.33185 0.727667,-6.48229 2.409927,-7.93413 8.345592,-14.08977 15.836782,-16.42369 1.493097,-0.46518 1.521354,-0.4922 1.521354,-1.4544 0,-1.32865 1.15434,-5.22185 2.096619,-7.07121 2.841141,-5.57614 7.701727,-9.47978 13.931882,-11.189 2.842556,-0.77984 8.260632,-0.64144 11.334779,0.28954 1.997458,0.60492 2.108948,0.61235 2.38125,0.15875 2.466673,-4.10898 5.160859,-7.25184 8.041862,-9.3811 12.54326,-9.27034 29.952466,-6.70367 39.207286,5.7804 2.4834,3.34991 4.55774,8.5091 5.15949,12.83238 0.20736,1.48985 0.42198,1.70998 1.67287,1.71574 1.26457,0.006 5.14046,1.00409 7.28156,1.87542 6.82644,2.77803 13.03126,9.13008 15.48822,15.85571 1.36337,3.73208 1.71509,5.78266 1.70184,9.92188 -0.0109,3.41189 -0.11031,4.33999 -0.70833,6.61458 -2.76753,10.52648 -11.00759,18.09465 -22.3935,20.56755 -2.46874,0.53618 -3.22561,0.54712 -42.46562,0.61401 -33.361227,0.0569 -40.224683,0.007 -41.604519,-0.30037 z m 59.463889,-4.86473 c 20.61625,-0.17056 23.32486,-0.24078 24.73855,-0.64135 9.19131,-2.60431 15.2525,-8.47224 17.35556,-16.80216 0.47765,-1.89188 0.54387,-2.77362 0.44712,-5.95313 -0.10211,-3.35588 -0.20147,-3.99168 -0.98519,-6.30385 -1.14078,-3.36561 -2.78506,-6.12717 -5.09807,-8.56217 -4.15868,-4.37801 -9.28838,-6.68182 -15.89779,-7.13988 -2.52103,-0.17472 -2.60838,-0.20254 -3.24114,-1.03213 -0.50931,-0.66774 -0.65029,-1.16946 -0.65029,-2.31429 0,-3.68176 -1.29437,-8.06583 -3.48442,-11.80178 -1.3149,-2.24305 -5.25527,-6.0379 -7.70893,-7.42424 -9.331549,-5.27239 -20.441337,-3.78166 -27.751695,3.72377 -2.08869,2.14442 -3.555392,4.30887 -4.702228,6.93918 -0.836483,1.9185 -1.726771,2.79941 -2.82792,2.79813 -0.268589,-2.6e-4 -1.176395,-0.36325 -2.017344,-0.80653 -3.404029,-1.79432 -7.846666,-2.29513 -11.674763,-1.31607 -2.986511,0.76383 -5.01831,1.93931 -7.313091,4.23093 -3.127076,3.12278 -4.737571,6.79232 -4.746943,10.816 -0.0042,1.81996 -0.49181,2.98556 -1.437772,3.43717 -0.302781,0.14455 -1.383951,0.45881 -2.402597,0.69834 -3.858707,0.90736 -7.990554,3.6314 -10.367891,6.83534 -5.590581,7.53442 -5.25307,17.31204 0.842891,24.41839 2.338176,2.72572 6.695419,5.27039 10.31875,6.02625 2.147173,0.44792 19.335551,0.49897 58.605203,0.17408 z"
           id="path78071" />
      </g>
      <path
         style="fill:#d45500;stroke-width:1.92089"
         d="m 380.85651,567.69934 -13.71168,-0.64043 1.0493,-5.8504 c 3.00546,-16.75613 6.41597,-63.11372 14.11234,-191.81996 1.5514,-25.94518 3.19172,-47.50833 3.64505,-47.91813 0.45342,-0.40978 12.39396,-0.21512 26.53464,0.43278 19.02902,0.87177 25.46368,1.75857 24.7616,3.41249 -0.52184,1.22906 -1.61131,56.57321 -2.42112,122.98702 l -1.47239,120.75241 -19.39303,-0.3577 c -10.66615,-0.19668 -25.5633,-0.64588 -33.10471,-0.99808 z"
         id="path175" />
      <path
         style="fill:#d45500;stroke-width:1.92089"
         d="m 539.54675,570.77631 c -15.30258,-5.47966 -30.96956,-19.15991 -37.96251,-33.14859 -4.45085,-8.90337 -5.93306,-14.98447 -6.58419,-27.01324 -0.92975,-17.17653 -0.0239,-20.93454 14.54697,-60.2669 5.02306,-13.56004 11.93892,-33.13604 15.3687,-43.50223 4.68691,-14.16541 7.92862,-20.51705 13.0493,-25.56777 6.68876,-6.59739 7.09009,-6.72019 21.9588,-6.72019 13.36561,0 15.78148,0.5366 20.55598,4.56567 7.39972,6.24436 11.71479,14.58789 17.0012,32.87286 2.46845,8.53781 9.97494,30.25936 16.68108,48.27007 11.98424,32.18578 12.17899,33.03052 11.36708,49.30929 -0.64369,12.90652 -1.99136,18.8503 -6.10519,26.92685 -15.14934,29.74196 -50.35171,44.84683 -79.87722,34.27418 z m 35.9015,-38.27117 c 12.48041,-5.75519 17.08784,-15.35126 17.10568,-35.62607 0.0134,-14.94368 -0.6018,-17.60651 -6.6172,-28.65134 -7.32873,-13.4562 -15.74589,-19.70642 -26.53875,-19.70642 -11.18112,0 -17.56188,4.4966 -24.52621,17.28388 -8.26964,15.18392 -10.2278,38.37345 -4.47422,52.98525 6.47513,16.44405 26.14601,22.43243 45.0507,13.7147 z"
         id="path214" />
      <path
         style="fill:#ffffff;stroke-width:0.216346"
         d="m 192.4642,159.32151 c -4.94042,-1.32865 -7.24106,-4.92555 -7.53048,-11.77344 -0.2721,-6.43839 1.34401,-11.99707 4.4844,-15.42426 3.05441,-3.33335 6.37747,-4.18299 9.90468,-2.53241 4.4215,2.06907 7.61229,9.16574 7.61229,16.93059 0,4.68327 -1.13261,7.84396 -3.62944,10.12842 -2.75744,2.5229 -7.26395,3.63321 -10.84145,2.6711 z"
         id="path553"
         transform="matrix(2.7743806,0,0,2.7197752,16.554041,100.32267)" />
      <path
         style="fill:#d45500;fill-opacity:1;stroke-width:0.216346"
         d="m 252.6923,172.30676 c -4.16467,-0.14809 -8.24036,-0.27877 -9.0571,-0.29041 l -1.48498,-0.0212 0.13673,-3.40746 c 0.26901,-6.70398 0.85044,-31.25557 1.20273,-50.78725 0.11804,-6.54447 0.27132,-13.77314 0.34062,-16.06371 l 0.126,-4.164658 h -11.18463 -11.18462 l 0.13932,-1.185407 c 0.21956,-1.868109 1.16621,-11.909267 1.33114,-14.119473 0.14183,-1.900569 0.17219,-1.994262 0.61316,-1.891977 2.03848,0.472839 6.64593,0.569624 32.64543,0.685757 l 28.5036,0.127317 v 8.732757 8.732756 l -1.78486,-0.0094 c -0.98167,-0.0051 -5.38701,-0.140679 -9.78966,-0.301187 -4.40264,-0.160508 -8.04306,-0.255964 -8.08982,-0.212124 -0.0468,0.04384 -0.16418,5.655629 -0.26094,12.470659 -0.59631,41.99765 -0.88855,55.33526 -1.3037,59.50032 l -0.25338,2.54206 -1.53646,-0.0341 c -0.84506,-0.0187 -4.94392,-0.15526 -9.10858,-0.30335 z"
         id="path2564"
         transform="matrix(2.7743806,0,0,2.7197752,16.554041,100.32267)" />
    </g>
  </g>
</svg>
