<?xml version="1.0" encoding="UTF-8" standalone="no"?>
<svg
   width="8"
   height="8"
   fill="currentColor"
   class="bi bi-cloud-lightning-rain"
   viewBox="0 0 8 8"
   version="1.1"
   id="svg13258"
   sodipodi:docname="rain.svg"
   inkscape:version="1.1 (c68e22c387, 2021-05-23)"
   xmlns:inkscape="http://www.inkscape.org/namespaces/inkscape"
   xmlns:sodipodi="http://sodipodi.sourceforge.net/DTD/sodipodi-0.dtd"
   xmlns="http://www.w3.org/2000/svg"
   xmlns:svg="http://www.w3.org/2000/svg">
  <defs
     id="defs13262" />
  <sodipodi:namedview
     id="namedview13260"
     pagecolor="#ffffff"
     bordercolor="#666666"
     borderopacity="1.0"
     inkscape:pageshadow="2"
     inkscape:pageopacity="0.0"
     inkscape:pagecheckerboard="0"
     showgrid="false"
     width="20px"
     inkscape:zoom="64.000001"
     inkscape:cx="-2.1640625"
     inkscape:cy="3.6171874"
     inkscape:window-width="1920"
     inkscape:window-height="1017"
     inkscape:window-x="-8"
     inkscape:window-y="-8"
     inkscape:window-maximized="1"
     inkscape:current-layer="svg13258" />
  <path
     style="fill:#ff7f2a;stroke-width:0.03125"
     d="M 3.6526518,7.6891382 C 3.5512764,7.6093962 3.5510132,7.5804539 3.6483587,7.2170989 c 0.042925,-0.1602247 0.078082,-0.3088957 0.078125,-0.3303801 5.59e-5,-0.027721 -0.066745,-0.039063 -0.2300819,-0.039063 -0.2623254,0 -0.3948393,-0.06899 -0.3948393,-0.205562 0,-0.091855 0.4533849,-0.9687797 0.5521098,-1.0678755 0.062284,-0.062518 0.1012232,-0.070312 0.3512493,-0.070312 0.4718373,0 0.5469367,0.078303 0.4234136,0.4414759 -0.042225,0.1241466 -0.076773,0.2302893 -0.076773,0.2358726 0,0.00558 0.106108,0.010152 0.2357955,0.010152 0.208684,0 0.2446148,0.00882 0.3125,0.076704 0.042187,0.042187 0.076704,0.1047465 0.076704,0.13902 0,0.055097 -0.9361248,1.2077547 -1.061245,1.3067192 -0.072115,0.05704 -0.1705031,0.047783 -0.2626649,-0.024712 z"
     id="path2442" />
  <path
     style="fill:#ff7f2a;stroke-width:0.03125"
     d="M 1.620209,4.997575 C 0.51692159,4.8095762 -0.0766263,3.7029106 0.41037796,2.7418539 0.52397675,2.5176774 0.86201453,2.1873672 1.1016176,2.0664159 1.342968,1.9445826 1.6250554,1.8761798 1.890625,1.8750911 L 2.09375,1.8742583 2.2000895,1.6793166 C 2.3299828,1.441196 2.770796,0.99590572 3.023087,0.84796047 3.4216713,0.61422779 4.0143206,0.47584502 4.453125,0.51404854 5.4386406,0.59985024 6.2304275,1.1993236 6.5386406,2.0930228 l 0.083808,0.2430106 0.1513088,0.034926 C 7.4676366,2.5311262 7.9571337,3.2301945 7.8299222,3.8793063 7.72965,4.3909566 7.41768,4.7498872 6.9037272,4.9449212 L 6.71875,5.0151162 4.25,5.0200662 C 2.8921875,5.0227881 1.7087815,5.0126675 1.620209,4.997575 Z M 6.875,4.4948875 C 7.2143897,4.3140875 7.3888037,4.0347587 7.3899387,3.6701981 7.3904825,3.4954778 7.3740547,3.4165192 7.3107119,3.2894065 7.1613134,2.9896034 6.8610037,2.7896392 6.5127234,2.7580583 6.2785997,2.7368287 6.2223906,2.6828013 6.1743666,2.4328349 6.0728259,1.9043107 5.6924653,1.4049239 5.2060044,1.1614424 4.8560681,0.98629378 4.5554897,0.92455956 4.1591231,0.94642897 3.4399728,0.98610784 2.8504493,1.3644815 2.5438977,1.9831284 2.3745322,2.3249223 2.3333067,2.3552375 2.0898296,2.3170283 1.4619969,2.2185016 0.88631206,2.5760718 0.71701059,3.1697157 0.61659069,3.5218312 0.72737116,3.9393625 0.99377344,4.2128337 1.1593951,4.3828503 1.28703,4.4622175 1.5105116,4.5341569 c 0.1659757,0.053428 0.333517,0.056569 2.6926134,0.050471 l 2.515625,-0.0065 z"
     id="path2481" />
  <path
     style="fill:#ff7f2a;stroke-width:0.03125"
     d="M 5.5610795,6.5482955 C 5.518892,6.506108 5.484375,6.4513737 5.484375,6.4266637 c 0,-0.02471 0.058069,-0.2116774 0.1290427,-0.415483 C 5.7847696,5.5191309 5.8973382,5.4135855 6.0895357,5.5647681 6.1972567,5.6495015 6.1938705,5.7122669 6.0616194,6.0822097 5.8969927,6.542716 5.8925803,6.5515769 5.8089174,6.5896962 5.694802,6.6416907 5.6463872,6.6336031 5.5610795,6.5482955 Z"
     id="path2520" />
  <path
     style="fill:#ff7f2a;stroke-width:0.03125"
     d="M 6.53771,7.2494983 C 6.4239677,7.1600287 6.4299867,7.089846 6.5899273,6.640625 6.6929309,6.3513216 6.7412544,6.2556002 6.8013866,6.2217574 6.9026112,6.1647875 7.0314271,6.1973725 7.096282,6.2963536 7.143868,6.368979 7.1396971,6.3933175 7.0161146,6.7641559 6.9444138,6.979311 6.8622371,7.1830755 6.8334997,7.216966 6.7513867,7.3138032 6.6356438,7.3265331 6.53771,7.2494983 Z"
     id="path2559" />
  <path
     style="fill:#ff7f2a;stroke-width:0.03125"
     d="M 2.0117335,7.2654302 C 1.9666244,7.2409181 1.9221153,7.1917939 1.9128243,7.1562653 1.8883821,7.0627981 2.1356535,6.3458806 2.2221758,6.2593584 c 0.08886,-0.08886 0.1976101,-0.091939 0.2875567,-0.00814 0.089579,0.083455 0.086375,0.1531162 -0.021592,0.4694831 C 2.340433,7.1535143 2.2984212,7.2392633 2.2155845,7.2770062 2.1194323,7.3208161 2.1129853,7.32045 2.0117335,7.2654302 Z"
     id="path2598" />
  <path
     style="fill:#ff7f2a;stroke-width:0.03125"
     d="M 1.0354643,6.5602319 C 0.93394178,6.4803742 0.93272391,6.4138698 1.0277374,6.138286 1.199816,5.6391771 1.233371,5.5704984 1.3233574,5.5332248 c 0.1117454,-0.046286 0.2428453,1.678e-4 0.2895101,0.1025859 0.028142,0.061765 0.010826,0.1410003 -0.1008697,0.4615649 -0.1786,0.5125779 -0.2836304,0.6145938 -0.4765335,0.4628563 z"
     id="path2637" />
</svg>
