<?xml version="1.0" encoding="UTF-8" standalone="no"?>
<!-- Created with Inkscape (http://www.inkscape.org/) -->

<svg
   width="210mm"
   height="297mm"
   viewBox="0 0 210 297"
   version="1.1"
   id="svg5"
   inkscape:version="1.1 (c68e22c387, 2021-05-23)"
   sodipodi:docname="senavocado.svg"
   xmlns:inkscape="http://www.inkscape.org/namespaces/inkscape"
   xmlns:sodipodi="http://sodipodi.sourceforge.net/DTD/sodipodi-0.dtd"
   xmlns="http://www.w3.org/2000/svg"
   xmlns:svg="http://www.w3.org/2000/svg">
  <sodipodi:namedview
     id="namedview7"
     pagecolor="#ffffff"
     bordercolor="#666666"
     borderopacity="1.0"
     inkscape:pageshadow="2"
     inkscape:pageopacity="0.0"
     inkscape:pagecheckerboard="0"
     inkscape:document-units="mm"
     showgrid="false"
     inkscape:zoom="3.7059483"
     inkscape:cx="329.60524"
     inkscape:cy="145.30694"
     inkscape:window-width="1920"
     inkscape:window-height="1017"
     inkscape:window-x="-8"
     inkscape:window-y="-8"
     inkscape:window-maximized="1"
     inkscape:current-layer="layer1" />
  <defs
     id="defs2">
    <rect
       x="667.81117"
       y="673.91688"
       width="22.13317"
       height="80.137341"
       id="rect35428" />
    <rect
       x="331.23434"
       y="618.20234"
       width="206.06745"
       height="228.96383"
       id="rect26658" />
    <rect
       x="331.23434"
       y="618.20233"
       width="206.06744"
       height="228.96384"
       id="rect26658-2" />
  </defs>
  <g
     inkscape:label="Capa 1"
     inkscape:groupmode="layer"
     id="layer1">
    <path
       style="fill:#008000;fill-opacity:1;stroke-width:0.259501"
       d="m 68.471114,58.432101 c -1.74726,-0.82347 -3.52962,-2.86687 -4.09919,-4.69952 -0.47799,-1.538 -0.5743,-4.49264 -0.18841,-5.7802 0.1291,-0.43075 0.59683,-1.69769 1.03939,-2.81542 0.44257,-1.11773 1.22369,-3.46728 1.73582,-5.22123 0.51213,-1.75395 1.09775,-3.51726 1.30139,-3.91846 0.5743,-1.13148 1.79696,-1.74852 3.46693,-1.74965 2.11806,-0.001 3.03884,0.70516 3.75178,2.87906 0.30458,0.9287 1.01606,3.09828 1.58107,4.82129 0.56502,1.723 1.34467,4.01111 1.73256,5.08468 1.36327,3.77318 0.52957,7.82437 -2.09055,10.15853 -1.44694,1.28902 -3.0528,1.85707 -5.24062,1.85377 -1.23159,-0.002 -2.04935,-0.16945 -2.99017,-0.61285 z m 6.21951,-0.77077 c 1.16106,-0.61621 2.60056,-2.26528 3.23373,-3.70453 0.43807,-0.99575 0.57441,-1.80059 0.57493,-3.3938 6.8e-4,-1.82421 -0.13318,-2.43714 -1.05722,-4.84363 -0.58185,-1.51532 -1.24672,-3.51244 -1.47748,-4.43805 -1.09008,-4.37229 -1.80312,-5.42828 -3.82084,-5.65845 -2.40032,-0.27382 -3.52895,0.91896 -4.54271,4.8009 -0.30603,1.17188 -1.07436,3.63891 -1.7074,5.4823 -1.26236,3.67594 -1.39425,4.93022 -0.74951,7.12751 0.78947,2.69051 2.51486,4.47986 4.91429,5.09645 1.35135,0.34726 3.50545,0.1293 4.63221,-0.4687 z"
       id="path12390" />
    <path
       style="fill:#cedf8f;fill-opacity:1;stroke-width:0.12975"
       d="m 70.733394,58.174201 c -2.07563,-0.35125 -3.95724,-1.79375 -4.90528,-3.76054 -1.19948,-2.48839 -1.17945,-5.03789 0.0635,-8.09291 0.57484,-1.41284 1.50575,-4.34461 2.01018,-6.33075 0.86038,-3.38769 1.72247,-4.27549 4.03254,-4.15278 1.25669,0.0668 1.74576,0.29782 2.36246,1.11611 0.51078,0.67777 0.65751,1.09216 1.45,4.0951 0.35256,1.33595 0.99468,3.34634 1.42694,4.46755 1.06038,2.75045 1.21016,3.38398 1.20869,5.11229 -0.001,1.62987 -0.19746,2.48309 -0.89087,3.87665 -1.24307,2.4982 -4.198,4.10254 -6.75821,3.66928 z m 2.57948,-4.80118 c 0.85267,-0.52606 1.31685,-1.3438 1.55803,-2.74475 0.39797,-2.31167 -0.67099,-5.24442 -2.2039,-6.04653 -0.46909,-0.24546 -0.71877,-0.29146 -1.31163,-0.24166 -0.86638,0.0728 -1.19725,0.29479 -1.82569,1.22511 -1.02322,1.51474 -1.4014,4.15415 -0.86989,6.07119 0.30941,1.11599 0.68233,1.60107 1.50785,1.96134 1.08731,0.47452 2.13299,0.39981 3.14523,-0.2247 z"
       id="path25063" />
    <text
       xml:space="preserve"
       transform="matrix(1.0657919,0,0,0.89763512,-275.85238,-532.13842)"
       id="text26656-7"
       style="font-style:normal;font-weight:normal;font-size:40px;line-height:1.25;font-family:sans-serif;white-space:pre;shape-inside:url(#rect26658-2);fill:#ff6600;fill-opacity:1;stroke:none"><tspan
         x="331.23438"
         y="657.57812"
         id="tspan1245"><tspan
           style="font-family:DFPOP1-W9;-inkscape-font-specification:'DFPOP1-W9, Normal'"
           id="tspan1243">T </tspan></tspan></text>
    <text
       xml:space="preserve"
       transform="scale(0.26458333)"
       id="text35426"
       style="font-style:normal;font-weight:normal;font-size:40px;line-height:1.25;font-family:sans-serif;white-space:pre;shape-inside:url(#rect35428);fill:#000000;fill-opacity:1;stroke:none"><tspan
         x="667.81055"
         y="790.5479"
         id="tspan1247">T</tspan></text>
    <path
       style="fill:#cedf8f;fill-opacity:1;stroke-width:0.188742"
       d="m 52.345414,57.379061 c 0,-0.0952 0.12238,-1.32259 0.27196,-2.72745 0.28668,-2.69262 0.6316,-8.29914 1.13448,-18.44051 0.16704,-3.36864 0.32285,-6.14542 0.34624,-6.17062 0.0234,-0.0252 1.24308,0.0103 2.71041,0.079 l 2.66787,0.1248 -0.12223,5.16776 c -0.0672,2.84227 -0.12223,8.98655 -0.12223,13.65396 v 8.48621 h -3.44325 c -1.9294,0 -3.44325,-0.0761 -3.44325,-0.17314 z"
       id="path45507" />
    <text
       xml:space="preserve"
       style="font-style:normal;font-weight:normal;font-size:12.7655px;line-height:1.25;font-family:sans-serif;fill:#008000;fill-opacity:1;stroke:none;stroke-width:0.319138"
       x="55.801441"
       y="60.441944"
       id="text69579"
       transform="scale(0.94454653,1.0587091)"><tspan
         sodipodi:role="line"
         id="tspan69577"
         style="font-style:normal;font-variant:normal;font-weight:normal;font-stretch:normal;font-size:6.80829px;font-family:sans-serif;-inkscape-font-specification:'sans-serif, Normal';font-variant-ligatures:normal;font-variant-caps:normal;font-variant-numeric:normal;font-variant-east-asian:normal;fill:#008000;fill-opacity:1;stroke-width:0.319138"
         x="55.801441"
         y="60.441944">senavocado</tspan></text>
    <g
       id="g78069"
       transform="matrix(0.8267492,0,0,0.74518016,0.03227915,-179.12715)"
       style="fill:#ff6600;fill-opacity:1">
      <path
         style="fill:#ff6600;fill-opacity:1;stroke-width:0.264583"
         d="m 45.305756,334.29914 c -3.622911,-0.61841 -7.861253,-2.27525 -10.562831,-4.1292 -4.63813,-3.18289 -8.359415,-8.54976 -9.851915,-14.20851 -0.759549,-2.8798 -0.824256,-8.3415 -0.134426,-11.34647 1.615017,-7.03519 6.469013,-13.22802 12.876255,-16.4278 1.091406,-0.54505 2.596388,-1.19154 3.344402,-1.43665 l 1.36003,-0.44565 0.187449,-1.5003 c 1.08389,-8.67515 8.296127,-16.2784 17.025665,-17.94872 3.509145,-0.67144 8.499469,-0.35882 11.190443,0.70104 l 1.225701,0.48275 1.387949,-2.27129 c 3.001242,-4.91136 8.516122,-9.49377 13.755443,-11.42963 6.255282,-2.31125 13.832099,-2.36089 19.760479,-0.12945 6.73198,2.53391 12.22531,7.49589 15.49351,13.99488 1.08266,2.15292 2.18988,5.51403 2.44047,7.40833 0.38034,2.87519 0.24208,2.68831 2.13218,2.88195 5.60972,0.57473 11.76586,3.64177 16.19014,8.06605 5.85971,5.85971 8.63195,13.61648 7.96996,22.30006 -0.93332,12.24272 -10.56796,22.45377 -23.39257,24.79206 -2.78325,0.50747 -4.3609,0.53145 -42.31396,0.64329 -21.682604,0.0639 -39.720572,0.0654 -40.084374,0.003 z m 77.937774,-5.62629 c 9.83977,-0.8069 17.39335,-5.87804 20.83769,-13.98952 1.61734,-3.80884 2.0852,-9.07587 1.17043,-13.17618 -2.21921,-9.9472 -10.6642,-17.08457 -20.96777,-17.72113 -1.30969,-0.0809 -2.70032,-0.26741 -3.09029,-0.41443 -1.03107,-0.38872 -1.4579,-1.59617 -1.62047,-4.58412 -0.22863,-4.20202 -1.68063,-8.0615 -4.42577,-11.76386 -6.81481,-9.19114 -19.724498,-11.66738 -29.624775,-5.6824 -3.830759,2.31579 -6.509443,5.30426 -8.71469,9.72253 -1.318106,2.64086 -1.572958,2.98697 -2.438783,3.31213 -0.920798,0.34579 -1.071232,0.31597 -3.157429,-0.62598 -3.025238,-1.36593 -4.474578,-1.70251 -7.346894,-1.70615 -4.581906,-0.006 -8.139229,1.44862 -11.284606,4.61378 -2.95075,2.96932 -4.429641,6.2854 -4.785109,10.72954 -0.09891,1.23658 -0.286276,2.45546 -0.416375,2.70861 -0.303228,0.59006 -1.390422,1.13782 -2.734392,1.37766 -2.774815,0.49519 -6.487218,2.50968 -9.146791,4.96339 -4.516712,4.16711 -6.670033,10.98022 -5.420061,17.14909 0.489998,2.41824 1.705822,5.30585 3.067058,7.28434 1.812682,2.63464 5.453605,5.51381 8.457086,6.6877 3.520884,1.37611 1.922185,1.32469 41.671874,1.34045 20.372917,0.008 38.359447,-0.0934 39.970067,-0.22545 z"
         id="path78083" />
      <path
         style="fill:#ff6600;fill-opacity:1;stroke-width:0.264583"
         d="m 44.592931,334.0876 c -9.95748,-1.79771 -17.435905,-8.90766 -19.834404,-18.85713 -0.671941,-2.78735 -0.59515,-8.06067 0.160589,-11.02775 2.063686,-8.10216 7.869126,-14.51523 15.605677,-17.23904 l 1.701332,-0.59899 0.450572,-2.20111 c 0.997757,-4.87418 2.627656,-7.93503 6.045247,-11.35263 2.667,-2.667 4.995106,-4.12011 8.444561,-5.27075 4.141126,-1.38137 9.394814,-1.3779 13.425524,0.009 l 1.419273,0.48831 0.98062,-1.63641 c 5.686935,-9.49007 16.230396,-14.84133 26.964462,-13.68564 6.643946,0.71534 11.894796,3.16275 16.741386,7.80314 4.15851,3.98159 7.10849,9.48007 8.00413,14.91894 0.15964,0.96941 0.33761,2.01489 0.39549,2.32329 0.0885,0.47163 0.35817,0.58935 1.69697,0.74081 3.78669,0.42842 8.30408,2.07889 11.64473,4.25452 2.37838,1.54894 6.63884,5.73576 8.07317,7.93362 4.16996,6.38975 5.60779,13.8927 4.0898,21.34158 -2.28516,11.21352 -11.85754,19.934 -23.89567,21.76908 -3.51178,0.53534 -79.271389,0.8004 -82.113459,0.28729 z m 83.395119,-6.01818 c 12.46978,-3.38873 19.76808,-14.38774 17.33893,-26.13091 -1.50801,-7.29015 -6.02266,-12.9966 -12.75013,-16.11597 -2.81816,-1.30672 -5.22176,-1.89429 -8.61979,-2.10715 -2.41746,-0.15143 -2.77921,-0.24076 -3.37092,-0.83248 -0.58261,-0.58261 -0.68297,-0.96667 -0.82911,-3.17289 -0.56703,-8.56073 -5.08492,-15.56855 -12.42203,-19.26815 -3.60907,-1.81981 -5.71674,-2.29292 -10.170912,-2.2831 -3.223358,0.007 -4.17472,0.10723 -5.953125,0.62656 -4.397102,1.28405 -8.830627,4.17443 -11.496542,7.49503 -0.73264,0.91256 -1.999261,3.00063 -2.814715,4.64015 -0.815453,1.63952 -1.701421,3.09804 -1.96882,3.24114 -0.875199,0.4684 -2.359337,0.27474 -3.91578,-0.51095 -2.461736,-1.24268 -4.396848,-1.70043 -7.188517,-1.70043 -4.482016,0 -8.095967,1.53649 -11.380843,4.83862 -3.030281,3.04621 -4.75874,7.21369 -4.75874,11.47379 0,1.86757 -0.678985,2.6477 -2.670853,3.06874 -7.008415,1.48141 -12.416374,6.41481 -14.579975,13.30058 -0.512969,1.63254 -0.606727,2.49772 -0.596958,5.5086 0.01037,3.20038 0.08786,3.79202 0.7449,5.68854 2.209802,6.37851 7.029418,10.89578 13.398719,12.55821 1.932435,0.50437 3.023163,0.5164 41.671874,0.45951 l 39.687497,-0.0584 z"
         id="path78081" />
      <path
         style="fill:#ff6600;fill-opacity:1;stroke-width:0.264583"
         d="m 45.281046,334.15728 c -6.824916,-0.75386 -13.829321,-5.43305 -17.668929,-11.80347 -3.829437,-6.35353 -4.36571,-14.97314 -1.369604,-22.01388 2.528163,-5.9411 7.994611,-11.11604 13.970207,-13.22523 1.785456,-0.6302 2.053815,-0.81044 2.203225,-1.47971 0.09358,-0.41915 0.374361,-1.68001 0.623972,-2.80191 1.624732,-7.30251 7.559953,-13.42039 15.151264,-15.61754 2.917446,-0.8444 8.591719,-0.82775 11.323949,0.0332 1.018646,0.32099 2.030677,0.63828 2.248958,0.70508 0.271645,0.0831 0.743527,-0.48436 1.495468,-1.79849 2.536198,-4.43239 6.646672,-8.20598 11.601407,-10.65058 13.136867,-6.48157 28.872937,-1.7937 36.453047,10.85957 1.74716,2.91649 3.15128,6.97568 3.56919,10.3182 l 0.19443,1.55506 2.64583,0.44352 c 6.12799,1.02724 10.96603,3.57754 15.47813,8.15909 3.90385,3.96394 6.30952,8.48742 7.46672,14.03997 0.68591,3.29116 0.54566,9.11609 -0.29385,12.20449 -1.34671,4.95428 -3.58367,8.82891 -7.16469,12.40994 -4.0921,4.09209 -8.63708,6.54783 -15.00365,8.10676 -1.91933,0.46997 1.40813,0.43439 -63.850365,0.68267 -9.531614,0.0363 -18.115232,-0.0208 -19.074709,-0.12676 z m 81.782534,-5.82343 c 9.45179,-2.36635 15.90812,-8.23713 18.00213,-16.36947 2.06889,-8.03472 -0.2866,-16.22763 -6.32378,-21.99552 -4.24352,-4.05423 -9.70559,-6.27813 -15.43549,-6.2846 -1.47321,-0.002 -1.89213,-0.10603 -2.49016,-0.62043 -0.66296,-0.57026 -0.74639,-0.8715 -1.07079,-3.86638 -0.72271,-6.67205 -2.84417,-11.10629 -7.27714,-15.21053 -4.28735,-3.96943 -9.41457,-5.96924 -15.304262,-5.96924 -5.779995,0 -10.982018,2.04265 -15.346489,6.02602 -1.845276,1.68415 -4.381659,5.15787 -5.179039,7.09299 -0.899131,2.18205 -1.216567,2.69213 -1.856962,2.98391 -1.091854,0.49748 -2.099974,0.3482 -3.995142,-0.59161 -2.3988,-1.18956 -4.226092,-1.60324 -7.092159,-1.60561 -8.671187,-0.007 -16.007291,7.3813 -16.007291,16.12151 0,2.07486 -0.739016,2.85643 -3.233603,3.41978 -3.930713,0.88767 -8.007739,3.44232 -10.602978,6.6438 -4.902886,6.04817 -5.522202,15.02913 -1.494653,21.67456 2.540207,4.19132 6.585143,7.23689 11.492759,8.65331 1.481466,0.42757 4.305337,0.45433 41.541599,0.39361 35.89668,-0.0585 40.12681,-0.10888 41.67345,-0.4961 z"
         id="path78079" />
      <path
         style="fill:#ff6600;fill-opacity:1;stroke-width:0.264583"
         d="M 42.624495,333.58755 C 27.388208,329.55332 19.946813,312.90813 27.05351,298.75778 c 1.792417,-3.56893 5.1397,-7.17854 8.865911,-9.56074 1.312397,-0.83902 4.590362,-2.29339 5.643952,-2.50411 0.695084,-0.13902 0.799086,-0.29018 0.952817,-1.38492 1.886445,-13.43365 15.199066,-21.9016 27.875738,-17.73133 0.9188,0.30226 1.701284,0.50756 1.738849,0.45622 0.03757,-0.0513 0.406403,-0.68866 0.819632,-1.41626 3.586763,-6.31548 9.928952,-11.1248 17.334512,-13.14487 1.953231,-0.53279 2.85781,-0.61332 6.879167,-0.61241 4.001352,7.9e-4 4.953622,0.0853 7.011462,0.62138 4.86168,1.26651 10.23768,4.46936 13.51547,8.0521 3.76745,4.11797 6.63416,10.20323 7.15525,15.18866 l 0.16899,1.61686 1.48639,0.17427 c 6.27942,0.73619 12.93891,4.11593 17.12737,8.69226 6.84305,7.47675 9.2279,17.86121 6.26846,27.29507 -3.30492,10.53518 -12.88305,18.1193 -24.55527,19.44328 -1.51863,0.17225 -16.51859,0.26631 -41.407288,0.25963 l -39.026041,-0.0105 -2.284386,-0.60485 z m 85.576155,-5.51151 c 8.54031,-2.35163 14.64755,-8.13112 16.91179,-16.0042 0.4946,-1.71977 0.59247,-2.70265 0.58753,-5.89999 -0.005,-3.45797 -0.0794,-4.0712 -0.75109,-6.21582 -0.40984,-1.30865 -1.04666,-2.97553 -1.41515,-3.70417 -3.89374,-7.69938 -11.65842,-12.55869 -20.08176,-12.5676 -1.69655,-0.002 -1.97026,-0.0767 -2.671,-0.73133 -0.728,-0.68005 -0.79368,-0.90542 -0.97206,-3.33547 -0.46219,-6.29646 -2.75368,-11.28672 -7.08103,-15.42059 -4.63717,-4.42984 -9.93037,-6.37902 -16.602702,-6.11382 -2.773797,0.11024 -3.744479,0.26867 -5.840257,0.9532 -6.213821,2.02956 -11.088406,6.44004 -13.874345,12.55338 -1.384847,3.03884 -2.392261,3.44352 -5.130887,2.06107 -2.576764,-1.30075 -4.387379,-1.71814 -7.4531,-1.71814 -2.999762,0 -4.878533,0.41896 -7.264742,1.62001 -1.600038,0.80536 -4.233552,2.89424 -5.227936,4.14677 -2.120688,2.67122 -3.646905,6.90729 -3.646905,10.12212 0,2.26717 -0.695754,3.03115 -3.307292,3.63158 -1.018646,0.23421 -2.983177,0.98069 -4.365625,1.65885 -2.064917,1.01295 -2.893338,1.61554 -4.641453,3.37618 -3.810778,3.83807 -5.41347,7.44256 -5.618853,12.6369 -0.155424,3.93092 0.339016,6.28715 2.010862,9.58264 0.975969,1.9238 1.681724,2.87081 3.480073,4.66966 2.518624,2.51934 4.858094,3.92483 8.208954,4.93171 l 1.984375,0.59627 40.084374,-0.0575 40.084379,-0.0575 z"
         id="path78077" />
      <path
         style="fill:#ff6600;fill-opacity:1;stroke-width:0.264583"
         d="m 43.718256,333.80682 c -8.941292,-1.91737 -16.018539,-8.56606 -18.573196,-17.44851 -0.522045,-1.81514 -0.608614,-2.71974 -0.607686,-6.35 0.0012,-4.63844 0.23766,-5.92723 1.757351,-9.5777 1.613956,-3.87689 4.699665,-7.68883 8.336808,-10.29889 1.748671,-1.25487 5.504545,-3.1059 6.89552,-3.39836 0.731541,-0.15381 0.8728,-0.31612 1.002657,-1.15205 1.562741,-10.05981 8.236474,-17.04586 17.884746,-18.72172 3.533796,-0.6138 6.348552,-0.33996 11.265744,1.09603 0.489169,0.14285 0.678129,-0.0277 1.234598,-1.11432 1.018162,-1.98817 2.366214,-3.74392 4.593291,-5.98245 4.024292,-4.045 8.785606,-6.57133 14.600769,-7.74712 3.0728,-0.62131 9.060822,-0.42419 12.066692,0.3972 8.09957,2.21334 14.8792,7.86061 18.28423,15.23034 1.34088,2.90215 2.48556,6.97246 2.48556,8.83826 0,0.73421 0.0413,0.75465 2.18281,1.07954 4.95673,0.752 9.77245,2.85323 13.58072,5.92562 6.9131,5.57728 10.80882,14.24232 10.35179,23.02495 -0.72313,13.89619 -11.37915,24.69789 -25.98303,26.33823 -1.50497,0.16904 -16.59646,0.26053 -41.010417,0.24861 -31.977274,-0.0156 -38.925311,-0.0824 -40.348957,-0.38766 z m 84.183914,-5.59437 c 8.64613,-2.45918 14.34189,-7.57022 16.92724,-15.18952 0.79972,-2.35685 0.84433,-2.69766 0.86215,-6.5865 0.0222,-4.84572 -0.27395,-6.19945 -2.22853,-10.18646 -1.57041,-3.20338 -3.80018,-5.95074 -6.41574,-7.90502 -3.87521,-2.89547 -7.7364,-4.31637 -12.60784,-4.63961 -3.01217,-0.19986 -4.16366,-0.6497 -4.37522,-1.70919 -0.0618,-0.30956 -0.17838,-1.58129 -0.25903,-2.82607 -1.03639,-15.99537 -17.95439,-25.97871 -32.298404,-19.05932 -5.035333,2.42898 -8.560538,6.04116 -11.022112,11.29402 -0.568365,1.21286 -1.294189,2.38786 -1.612948,2.61113 -0.817906,0.57289 -2.006441,0.49902 -3.239939,-0.20135 -3.826333,-2.17257 -8.627099,-2.57696 -13.033261,-1.09786 -6.407743,2.15101 -10.893129,8.3278 -10.90762,15.02081 -0.0035,1.61603 -0.08055,1.88252 -0.731515,2.52994 -0.50782,0.50506 -1.327015,0.86856 -2.711979,1.20338 -7.369114,1.78156 -12.698468,7.35164 -14.408459,15.0593 -0.38762,1.74717 -0.171138,6.36823 0.391906,8.36573 1.610654,5.71405 5.969654,10.68243 11.171293,12.73299 3.373387,1.32984 1.293257,1.27272 44.252551,1.21512 l 40.216667,-0.0539 z"
         id="path78075" />
      <path
         style="fill:#ff6600;fill-opacity:1;stroke-width:0.264583"
         d="m 43.453672,333.72394 c -4.505936,-1.01664 -8.36735,-3.13125 -11.660171,-6.38543 -1.251617,-1.23692 -2.635628,-2.78474 -3.075581,-3.43958 -4.390827,-6.53548 -5.483422,-14.45554 -3.005478,-21.78627 1.223372,-3.61921 2.720635,-6.04551 5.552244,-8.99733 2.81673,-2.93632 6.089819,-4.91494 10.932215,-6.60867 0.30126,-0.10538 0.463021,-0.43761 0.463021,-0.95098 0,-2.32559 1.529625,-6.60776 3.325067,-9.30849 5.161594,-7.76414 14.520851,-11.28879 23.530141,-8.86132 2.457143,0.66205 2.664703,0.6807 2.910417,0.26158 2.221984,-3.79006 5.103979,-7.15301 8.045106,-9.38768 2.205963,-1.67608 6.336392,-3.71282 9.417393,-4.64375 2.221418,-0.67121 2.709794,-0.7195 7.276042,-0.7195 4.558072,0 5.058602,0.0493 7.276042,0.71622 4.68305,1.40854 8.75925,3.73301 11.99649,6.84107 4.49559,4.31618 7.33106,9.75154 8.2837,15.87917 0.33478,2.1534 0.47733,2.31009 2.10932,2.31859 1.43922,0.007 5.89693,1.34417 8.33625,2.49969 7.81331,3.7012 13.32123,10.64852 15.34722,19.35797 0.66084,2.84082 0.67194,8.70295 0.0218,11.49194 -1.29663,5.5621 -3.3467,9.22818 -7.46559,13.35053 -4.05883,4.06222 -8.11523,6.36485 -13.75019,7.80533 -4.0092,1.02488 -5.53244,1.05979 -45.251897,1.03689 -35.278273,-0.0203 -38.801301,-0.0611 -40.613541,-0.46998 z m 82.153128,-5.0893 c 9.17743,-1.18509 17.25565,-7.9967 19.57962,-16.50967 0.58439,-2.14071 0.81914,-7.59847 0.41798,-9.71792 -1.25175,-6.61343 -5.08066,-12.16727 -10.76896,-15.62037 -3.12516,-1.89714 -6.08818,-2.77689 -10.40749,-3.09006 -2.89789,-0.21012 -3.06152,-0.254 -3.72769,-0.99957 -0.61888,-0.69265 -0.71605,-1.073 -0.86941,-3.40302 -0.38911,-5.9121 -2.60446,-10.77295 -6.80276,-14.92635 -10.85206,-10.73599 -29.16999,-7.69789 -36.079737,5.98397 -0.523013,1.0356 -0.950931,1.96972 -0.950931,2.07582 0,0.1061 -0.243049,0.53423 -0.540108,0.95141 -0.887132,1.24586 -2.013603,1.28227 -4.325746,0.13982 -7.115921,-3.51604 -15.517979,-1.53268 -20.308438,4.79394 -1.803662,2.38204 -2.835002,5.27548 -3.102618,8.70443 -0.265308,3.39939 -0.444844,3.63207 -3.361766,4.35705 -5.699189,1.41647 -10.37018,5.1208 -12.820782,10.16752 -1.401088,2.88537 -1.923881,5.22307 -1.92304,8.59896 0.0013,5.76685 2.416128,10.88593 6.894788,14.61678 2.511293,2.09198 6.336453,3.77942 9.589794,4.23048 1.696026,0.23514 77.560994,-0.10189 79.507294,-0.35322 z"
         id="path78073" />
      <path
         style="fill:#ff6600;fill-opacity:1;stroke-width:0.264583"
         d="m 43.785611,333.79991 c -7.365098,-1.64229 -13.692235,-6.58673 -16.901912,-13.20827 -1.876349,-3.8709 -2.314723,-5.90479 -2.30958,-10.71563 0.004,-3.70353 0.07449,-4.33185 0.727667,-6.48229 2.409927,-7.93413 8.345592,-14.08977 15.836782,-16.42369 1.493097,-0.46518 1.521354,-0.4922 1.521354,-1.4544 0,-1.32865 1.15434,-5.22185 2.096619,-7.07121 2.841141,-5.57614 7.701727,-9.47978 13.931882,-11.189 2.842556,-0.77984 8.260632,-0.64144 11.334779,0.28954 1.997458,0.60492 2.108948,0.61235 2.38125,0.15875 2.466673,-4.10898 5.160859,-7.25184 8.041862,-9.3811 12.54326,-9.27034 29.952466,-6.70367 39.207286,5.7804 2.4834,3.34991 4.55774,8.5091 5.15949,12.83238 0.20736,1.48985 0.42198,1.70998 1.67287,1.71574 1.26457,0.006 5.14046,1.00409 7.28156,1.87542 6.82644,2.77803 13.03126,9.13008 15.48822,15.85571 1.36337,3.73208 1.71509,5.78266 1.70184,9.92188 -0.0109,3.41189 -0.11031,4.33999 -0.70833,6.61458 -2.76753,10.52648 -11.00759,18.09465 -22.3935,20.56755 -2.46874,0.53618 -3.22561,0.54712 -42.46562,0.61401 -33.361227,0.0569 -40.224683,0.007 -41.604519,-0.30037 z m 59.463889,-4.86473 c 20.61625,-0.17056 23.32486,-0.24078 24.73855,-0.64135 9.19131,-2.60431 15.2525,-8.47224 17.35556,-16.80216 0.47765,-1.89188 0.54387,-2.77362 0.44712,-5.95313 -0.10211,-3.35588 -0.20147,-3.99168 -0.98519,-6.30385 -1.14078,-3.36561 -2.78506,-6.12717 -5.09807,-8.56217 -4.15868,-4.37801 -9.28838,-6.68182 -15.89779,-7.13988 -2.52103,-0.17472 -2.60838,-0.20254 -3.24114,-1.03213 -0.50931,-0.66774 -0.65029,-1.16946 -0.65029,-2.31429 0,-3.68176 -1.29437,-8.06583 -3.48442,-11.80178 -1.3149,-2.24305 -5.25527,-6.0379 -7.70893,-7.42424 -9.331549,-5.27239 -20.441337,-3.78166 -27.751695,3.72377 -2.08869,2.14442 -3.555392,4.30887 -4.702228,6.93918 -0.836483,1.9185 -1.726771,2.79941 -2.82792,2.79813 -0.268589,-2.6e-4 -1.176395,-0.36325 -2.017344,-0.80653 -3.404029,-1.79432 -7.846666,-2.29513 -11.674763,-1.31607 -2.986511,0.76383 -5.01831,1.93931 -7.313091,4.23093 -3.127076,3.12278 -4.737571,6.79232 -4.746943,10.816 -0.0042,1.81996 -0.49181,2.98556 -1.437772,3.43717 -0.302781,0.14455 -1.383951,0.45881 -2.402597,0.69834 -3.858707,0.90736 -7.990554,3.6314 -10.367891,6.83534 -5.590581,7.53442 -5.25307,17.31204 0.842891,24.41839 2.338176,2.72572 6.695419,5.27039 10.31875,6.02625 2.147173,0.44792 19.335551,0.49897 58.605203,0.17408 z"
         id="path78071" />
    </g>
    <path
       style="fill:#4f6f26;fill-opacity:1;stroke-width:0.539673"
       d=""
       id="path105694"
       transform="scale(0.26458333)" />
    <path
       style="fill:#cedf8f;fill-opacity:1;stroke-width:0.381606"
       d=""
       id="path109358"
       transform="scale(0.26458333)" />
    <path
       style="fill:#cedf8f;fill-opacity:1;stroke-width:0.381606"
       d=""
       id="path109553"
       transform="scale(0.26458333)" />
    <path
       style="fill:#ff6600;stroke-width:0.763213"
       d="m 203.17748,216.94905 -5.17961,-0.26764 0.39639,-2.44493 c 1.13529,-7.00252 2.42363,-26.37573 5.33093,-80.1631 0.58606,-10.8427 1.20569,-19.85411 1.37694,-20.02537 0.17126,-0.17125 4.68182,-0.0899 10.02347,0.18086 7.18824,0.36432 9.61896,0.73492 9.35373,1.42611 -0.1971,0.51363 -0.60865,23.6424 -0.91456,51.39726 l -0.5562,50.4634 -7.32574,-0.14948 c -4.02916,-0.0822 -9.65657,-0.26992 -12.50535,-0.41711 z"
       id="path175"
       transform="scale(0.26458333)" />
    <path
       style="fill:#ff6600;stroke-width:0.763213"
       d="m 263.12292,218.23494 c -5.78058,-2.28999 -11.69879,-8.00708 -14.3404,-13.85306 -1.68131,-3.72079 -2.24121,-6.26213 -2.48717,-11.28905 -0.35123,-7.17821 -0.009,-8.74871 5.49515,-25.18602 1.89744,-5.66685 4.50994,-13.84782 5.80555,-18.17993 1.77046,-5.91984 2.99503,-8.57424 4.92938,-10.68498 2.52669,-2.7571 2.67827,-2.80842 8.29497,-2.80842 5.04885,0 5.96146,0.22425 7.76505,1.90803 2.79524,2.60957 4.42528,6.0964 6.42223,13.73783 0.93243,3.56802 3.76802,12.64563 6.3013,20.17245 4.52705,13.4507 4.60062,13.80372 4.29391,20.60675 -0.24316,5.39374 -0.75224,7.87769 -2.30625,11.25295 -5.72266,12.4294 -19.02043,18.74185 -30.17372,14.32345 z m 13.56185,-15.99383 c 4.71447,-2.40514 6.45496,-6.41541 6.4617,-14.88842 0.005,-6.24508 -0.22736,-7.3579 -2.49966,-11.97362 -2.76843,-5.62346 -5.94803,-8.23547 -10.02506,-8.23547 -4.22367,0 -6.63401,1.87916 -9.26481,7.22307 -3.12386,6.34548 -3.86357,16.03657 -1.69013,22.14296 2.44598,6.8721 9.87668,9.37469 17.01796,5.73148 z"
       id="path214"
       transform="scale(0.26458333)" />
  </g>
</svg>
