<?xml version="1.0" encoding="UTF-8" standalone="no"?>
<!-- Created with Inkscape (http://www.inkscape.org/) -->

<svg
   width="8"
   height="8"
   viewBox="0 0 2.1166667 2.1166666"
   version="1.1"
   id="svg5"
   inkscape:version="1.1 (c68e22c387, 2021-05-23)"
   sodipodi:docname="sensacion_termica.svg"
   xmlns:inkscape="http://www.inkscape.org/namespaces/inkscape"
   xmlns:sodipodi="http://sodipodi.sourceforge.net/DTD/sodipodi-0.dtd"
   xmlns="http://www.w3.org/2000/svg"
   xmlns:svg="http://www.w3.org/2000/svg">
  <sodipodi:namedview
     id="namedview7"
     pagecolor="#ffffff"
     bordercolor="#666666"
     borderopacity="1.0"
     inkscape:pageshadow="2"
     inkscape:pageopacity="0.0"
     inkscape:pagecheckerboard="0"
     inkscape:document-units="mm"
     showgrid="false"
     width="6mm"
     units="px"
     inkscape:zoom="90.509668"
     inkscape:cx="3.5742038"
     inkscape:cy="5.1872912"
     inkscape:window-width="1920"
     inkscape:window-height="1017"
     inkscape:window-x="-8"
     inkscape:window-y="-8"
     inkscape:window-maximized="1"
     inkscape:current-layer="layer1" />
  <defs
     id="defs2" />
  <g
     inkscape:label="Capa 1"
     inkscape:groupmode="layer"
     id="layer1">
    <path
       style="fill:#a0a0a0;stroke:none;stroke-width:0.021081"
       d=""
       id="path1665"
       transform="scale(0.26458333)" />
    <path
       style="fill:#00b0e4;fill-opacity:0.780392;stroke-width:0.021081"
       d=""
       id="path2209"
       transform="scale(0.26458333)" />
    <path
       style="fill:#00b0e4;fill-opacity:0.780392;stroke-width:0.021081"
       d=""
       id="path2248"
       transform="scale(0.26458333)" />
    <path
       style="fill:#00b0e4;fill-opacity:0.780392;stroke-width:0.021081"
       d=""
       id="path2287"
       transform="scale(0.26458333)" />
    <path
       style="fill:#00b0e4;fill-opacity:0.780392;stroke-width:0.021081"
       d=""
       id="path2326"
       transform="scale(0.26458333)" />
    <g
       id="g5306"
       transform="translate(0.02338607,-1.3037742)"
       style="fill:#ff7f2a">
      <path
         style="fill:#ff7f2a;stroke-width:0.00292325"
         d="M 0.19001193,3.2829684 C 0.08449117,3.2811539 0.08591165,3.281458 0.0746933,3.2582839 0.06939,3.2473289 0.0683358,3.2364729 0.0654193,3.1627889 0.0619516,3.0751759 0.0637851,2.9065641 0.0684155,2.8872582 0.0721118,2.8718472 0.08484152,2.8544302 0.096427,2.8489322 c 0.0067979,-0.00323 0.01837383,-0.0046 0.03874796,-0.0046 0.0492278,0 0.0840553,0.012062 0.15962883,0.055285 0.0195384,0.011175 0.0460484,0.025341 0.0589107,0.031481 l 0.023386,0.011163 0.0496954,-1.4e-6 c 0.0494368,-1.5e-6 0.0497947,-4.84e-5 0.068748,-0.00901 0.0104788,-0.00495 0.0383562,-0.020472 0.0619496,-0.034483 0.0669034,-0.039731 0.0987884,-0.050791 0.15440721,-0.053559 0.0189812,-9.446e-4 0.0462425,-1.987e-4 0.062407,0.00171 0.049969,0.00589 0.0760573,0.017149 0.1623065,0.070026 0.0135064,0.00828 0.0292921,0.016401 0.0350791,0.018046 0.0171363,0.00487 0.081316,0.00682 0.1094011,0.00333 0.028343,-0.00352 0.035916,-0.00697 0.094056,-0.042759 0.063314,-0.038978 0.091078,-0.047816 0.157856,-0.050254 0.073311,-0.00268 0.1084897,0.00767 0.1893062,0.05566 0.067882,0.040312 0.068974,0.040694 0.1205594,0.042119 0.054787,0.00151 0.063164,-9.711e-4 0.1286235,-0.038139 0.086126,-0.048903 0.1101029,-0.057719 0.162241,-0.059651 0.042424,-0.00157 0.05057,0.0011 0.065005,0.02134 0.00771,0.010806 0.00888,0.015473 0.011219,0.044526 0.00318,0.039612 -0.00182,0.3170895 -0.00609,0.3380024 -0.0039,0.019055 -0.00974,0.024371 -0.030807,0.027999 -0.032723,0.00564 -0.388557,0.00833 -1.03908114,0.00787 -0.357734,-2.523e-4 -0.69252039,-0.00118 -0.74396977,-0.00207 z"
         id="path4786" />
      <path
         style="fill:#ff7f2a;stroke-width:0.00292325"
         d="M 1.1160804,2.6963838 C 1.076685,2.682083 1.0693553,2.6303657 1.0981678,2.5699945 c 0.0075,-0.015706 0.01792,-0.028001 0.05912,-0.069733 0.052175,-0.052848 0.063174,-0.06774 0.063174,-0.085536 0,-0.015934 -0.011183,-0.031111 -0.062414,-0.084712 -0.052341,-0.054761 -0.061,-0.066537 -0.069958,-0.095141 -0.00851,-0.027169 -0.00897,-0.074262 -9.664e-4,-0.097969 0.01248,-0.036954 0.021309,-0.049106 0.072206,-0.099391 0.04702,-0.046455 0.05807,-0.060722 0.062329,-0.080481 0.00273,-0.012678 -0.0077,-0.02706 -0.057395,-0.079081 -0.0477,-0.049937 -0.059837,-0.065501 -0.073051,-0.093673 -0.0081,-0.017263 -0.00958,-0.024039 -0.010568,-0.048142 -0.00134,-0.032776 0.00608,-0.067953 0.018973,-0.089948 0.00432,-0.00737 0.027754,-0.033866 0.052076,-0.058878 0.047903,-0.049261 0.060281,-0.065034 0.06599,-0.084091 l 0.0037,-0.012357 h 0.052156 0.052156 v 0.011225 c 0,0.018495 -0.011059,0.055968 -0.021197,0.071823 -0.00522,0.00817 -0.030154,0.036175 -0.055401,0.062234 -0.046516,0.048012 -0.063641,0.071384 -0.063691,0.086925 -5.37e-5,0.016796 0.012473,0.034797 0.054015,0.077619 0.053972,0.055635 0.06723,0.074302 0.080901,0.1139062 0.00645,0.018688 0.00758,0.054166 0.00234,0.073614 -0.00977,0.036282 -0.033696,0.070574 -0.086889,0.1245307 -0.067598,0.068569 -0.06733,0.076121 0.00538,0.1513794 0.073811,0.076397 0.082696,0.092365 0.08293,0.1490323 2.364e-4,0.057216 -0.00895,0.07498 -0.07418,0.1434237 -0.046288,0.04857 -0.0587,0.065456 -0.065534,0.089159 -0.00555,0.019262 -0.014212,0.032769 -0.028241,0.044054 -0.012908,0.010383 -0.024407,0.012277 -0.040057,0.0066 z"
         id="path4825" />
      <path
         style="fill:#ff7f2a;stroke-width:0.00292325"
         d="m 1.4439697,2.6955979 c -0.024066,-0.010932 -0.032446,-0.028536 -0.03154,-0.066257 0.00106,-0.043985 0.017763,-0.072018 0.084047,-0.1410305 0.050229,-0.052296 0.057917,-0.064853 0.051893,-0.084756 -0.00402,-0.013285 -0.020817,-0.033642 -0.051394,-0.062287 -0.033697,-0.031569 -0.059079,-0.062431 -0.070612,-0.085857 -0.020613,-0.041871 -0.020394,-0.098982 5.426e-4,-0.1415973 0.00903,-0.018382 0.01828,-0.029486 0.061631,-0.073991 0.050281,-0.051619 0.062124,-0.067663 0.062124,-0.084161 0,-0.016015 -0.011944,-0.032518 -0.058819,-0.081271 -0.068686,-0.071438 -0.079667,-0.092269 -0.079667,-0.1511278 0,-0.058376 0.010536,-0.077941 0.080459,-0.1494018 0.044245,-0.045218 0.057912,-0.063542 0.058092,-0.077882 5.86e-5,-0.00467 0.00447,-0.00512 0.051221,-0.00512 h 0.051157 l -3.47e-5,0.015347 c -1.9e-5,0.00844 -0.00183,0.022098 -0.00403,0.030348 -0.00827,0.031066 -0.021467,0.049727 -0.072173,0.1020721 -0.063942,0.066008 -0.070522,0.0799 -0.052626,0.1111005 0.00466,0.00813 0.029563,0.036706 0.055338,0.06351 0.041355,0.043006 0.048344,0.051723 0.059463,0.074163 l 0.012601,0.025429 v 0.042608 c 0,0.042107 -1.131e-4,0.042846 -0.00961,0.062904 -0.012143,0.025644 -0.021281,0.036908 -0.072901,0.089868 -0.070425,0.072253 -0.070601,0.081031 -0.00303,0.1507098 0.058167,0.059984 0.073857,0.081947 0.083027,0.1162259 0.0052,0.019451 0.00502,0.057635 -3.81e-4,0.078363 -0.00979,0.037581 -0.026073,0.061314 -0.080813,0.1177785 -0.041134,0.04243 -0.047405,0.051385 -0.057994,0.082817 -0.0085,0.02522 -0.012844,0.030927 -0.030123,0.039537 -0.017705,0.00882 -0.020396,0.00897 -0.035843,0.00195 z"
         id="path4864" />
      <path
         style="fill:#ff7f2a;stroke-width:0.00292325"
         d="m 0.78944935,2.6967308 c -0.0279608,-0.00996 -0.0382279,-0.025428 -0.0378546,-0.057027 3.2932e-4,-0.027878 0.007906,-0.054453 0.0215326,-0.075526 0.005888,-0.00911 0.0291178,-0.035697 0.0516212,-0.059092 0.0225034,-0.023394 0.0449813,-0.048445 0.0499511,-0.055668 0.0157741,-0.022927 0.0176371,-0.04044 0.006536,-0.061438 -0.002031,-0.00384 -0.0261828,-0.030005 -0.0536704,-0.058142 -0.0307408,-0.031466 -0.0530479,-0.056891 -0.0579543,-0.066055 -0.0175248,-0.03273 -0.0234706,-0.091707 -0.0126167,-0.1251471 0.008914,-0.027462 0.031191,-0.05805 0.0745583,-0.1023726 0.0457348,-0.046742 0.0585807,-0.064568 0.0585807,-0.081292 0,-0.018704 -0.0106138,-0.033976 -0.0533572,-0.076778 -0.0591007,-0.059181 -0.0772601,-0.087047 -0.0845931,-0.1298093 -0.003472,-0.020249 -8.7958e-4,-0.051321 0.006408,-0.076794 0.005285,-0.018474 0.0242804,-0.043148 0.0709751,-0.092196 0.0416895,-0.04379 0.0556934,-0.062692 0.0617999,-0.083417 0.001363,-0.00463 0.006538,-0.00512 0.0541618,-0.00512 h 0.0526545 l -0.001664,0.013885 c -0.006413,0.053486 -0.0296399,0.091111 -0.0929521,0.1505657 -0.0247289,0.023222 -0.035541,0.03565 -0.041356,0.047535 -0.0143357,0.029301 -0.007941,0.041521 0.0558065,0.1066488 0.0550214,0.056212 0.0634829,0.069045 0.0726618,0.1101994 0.00942,0.042236 0.005182,0.073901 -0.0151821,0.11343 -0.008663,0.016815 -0.0192148,0.02906 -0.0592001,0.068697 -0.0267621,0.026528 -0.0509874,0.052744 -0.053834,0.058258 -0.006762,0.013097 -0.00686,0.034103 -2.1783e-4,0.04698 0.002903,0.00563 0.0253328,0.030621 0.0498443,0.055542 0.0647965,0.065878 0.0798623,0.092044 0.0825467,0.1433634 0.001863,0.035595 -0.005983,0.069636 -0.0213982,0.092853 -0.005713,0.0086 -0.0304652,0.036291 -0.0550059,0.061528 -0.0467659,0.048092 -0.0572851,0.062566 -0.0629842,0.086665 -0.004691,0.019834 -0.0153369,0.035151 -0.0316039,0.045467 -0.0152855,0.00969 -0.0179766,0.010029 -0.0341929,0.00425 z"
         id="path4903" />
      <path
         style="fill:#ff7f2a;stroke-width:0.00292325"
         d="M 0.45949263,2.6953248 C 0.44631652,2.691165 0.43092208,2.677799 0.4261309,2.666359 0.4228589,2.658549 0.4220889,2.64929 0.4231849,2.630934 0.4259749,2.584216 0.4393161,2.562088 0.5062206,2.4932095 0.5426175,2.4557385 0.5542119,2.4419445 0.5566305,2.4332335 0.5652815,2.4020785 0.5585565,2.3893255 0.5062349,2.3376625 0.4831513,2.3148695 0.4591705,2.2883385 0.4529442,2.2787055 0.4277613,2.2397425 0.4191192,2.2033175 0.4246543,2.1594658 0.4299793,2.1172788 0.4380777,2.1039488 0.4924642,2.0478518 0.545199,1.9934578 0.5570847,1.9777648 0.5591022,1.9598658 0.5614402,1.9391208 0.5519692,1.9246218 0.503034,1.8740288 0.4339034,1.8025568 0.4238449,1.7837338 0.4240318,1.7261853 c 1.0084e-4,-0.031053 0.00102,-0.037381 0.008007,-0.055135 0.012487,-0.031728 0.032491,-0.058961 0.0725783,-0.098808 0.0444011,-0.044135 0.0551869,-0.058126 0.0551869,-0.071586 v -0.00979 h 0.0526187 0.0526187 v 0.013686 c 0,0.02143 -0.0110887,0.057554 -0.023617,0.076937 -0.006184,0.00957 -0.0313931,0.038147 -0.0560195,0.063508 -0.0504905,0.051997 -0.058738,0.063355 -0.058716,0.080862 2.368e-5,0.018778 0.007617,0.029614 0.050419,0.071948 0.0219449,0.021705 0.0456377,0.046699 0.0526506,0.055542 0.0262458,0.033094 0.0376511,0.071149 0.0343097,0.1144787 -0.003787,0.049115 -0.0176653,0.072922 -0.0797362,0.1367861 -0.0259005,0.026649 -0.0499078,0.053972 -0.0533495,0.060718 -0.0141569,0.02775 -0.007636,0.039812 0.0547611,0.1012891 0.0687236,0.067711 0.0774075,0.084285 0.0775385,0.1479938 6.784e-5,0.033015 -9.2019e-4,0.042155 -0.006046,0.05593 -0.009639,0.025903 -0.0269,0.048518 -0.071027,0.09306 C 0.5380456,2.612221 0.5282426,2.625377 0.525804,2.644668 0.521256,2.68065 0.4896017,2.704832 0.4594925,2.695326 Z"
         id="path4942" />
    </g>
  </g>
</svg>
