<?xml version="1.0" encoding="UTF-8" standalone="no"?>
<svg
   aria-hidden="true"
   focusable="false"
   data-prefix="fas"
   data-icon="thermometer-half"
   class="svg-inline--fa fa-thermometer-half fa-w-8"
   role="img"
   viewBox="0 0 5 8"
   version="1.1"
   id="svg4"
   sodipodi:docname="termometro.svg"
   inkscape:version="1.1 (c68e22c387, 2021-05-23)"
   width="5"
   height="8"
   xmlns:inkscape="http://www.inkscape.org/namespaces/inkscape"
   xmlns:sodipodi="http://sodipodi.sourceforge.net/DTD/sodipodi-0.dtd"
   xmlns="http://www.w3.org/2000/svg"
   xmlns:svg="http://www.w3.org/2000/svg">
  <defs
     id="defs8" />
  <sodipodi:namedview
     id="namedview6"
     pagecolor="#ffffff"
     bordercolor="#666666"
     borderopacity="1.0"
     inkscape:pageshadow="2"
     inkscape:pageopacity="0.0"
     inkscape:pagecheckerboard="0"
     showgrid="false"
     inkscape:zoom="36.769553"
     inkscape:cx="3.1275877"
     inkscape:cy="3.2907661"
     inkscape:window-width="1347"
     inkscape:window-height="716"
     inkscape:window-x="557"
     inkscape:window-y="0"
     inkscape:window-maximized="0"
     inkscape:current-layer="svg4"
     width="50px" />
  <path
     fill="currentColor"
     d="m 3.5865538,5.7142224 c 0,0.4825067 -0.454849,0.8736608 -1.0159258,0.8736608 -0.5610767,0 -1.0159256,-0.3911541 -1.0159256,-0.8736608 0,-0.3233221 0.2043915,-0.6054051 0.5079628,-0.7564939 V 3.530072 c 0,-0.241253 0.2274246,-0.4368294 0.5079628,-0.4368294 0.2805384,0 0.5079629,0.1955764 0.5079629,0.4368294 V 4.9577285 C 3.3821623,5.1088173 3.5865538,5.3909003 3.5865538,5.7142224 Z M 4.0945167,4.5586298 c 0.3160802,0.3080065 0.5079626,0.7124966 0.5079626,1.1555926 0,0.965067 -0.9096185,1.747321 -2.0318513,1.747321 -0.00475,0 -0.00967,-1.4e-5 -0.014428,-4.23e-5 C 1.4402371,7.4548346 0.53311066,6.6648202 0.53880946,5.7051177 0.54141226,5.2655847 0.73283536,4.8645194 1.0467405,4.5586298 V 1.7827519 c 0,-0.7237595 0.6822735,-1.31049044 1.5238885,-1.31049044 0.8416152,0 1.5238888,0.58673094 1.5238888,1.31049044 z M 3.8405351,5.7142224 c 0,-0.4687594 -0.3074761,-0.7124423 -0.5079626,-0.9078142 V 1.7827519 c 0,-0.3612997 -0.3418115,-0.6552451 -0.7619445,-0.6552451 -0.4201328,0 -0.7619443,0.2939454 -0.7619443,0.6552451 V 4.8064082 C 1.606578,5.0033635 1.3034989,5.2446032 1.3007368,5.708462 1.2971768,6.3074113 1.8652582,6.8021212 2.5614846,6.806271 l 0.00914,2.06e-5 c 0.7002269,0 1.2699071,-0.4899051 1.2699071,-1.0920749 z"
     id="path2"
     style="fill:#ff7f2a;fill-opacity:1;stroke-width:0.0147205"
     inkscape:export-filename="C:\xampp2\htdocs\servidoriot\img\termometro.png"
     inkscape:export-xdpi="96"
     inkscape:export-ydpi="96" />
  <g
     id="g6562"
     style="fill:#00ffff"
     transform="translate(6.1806406,-2.0039661)" />
  <path
     style="fill:#ff6600;stroke-width:0.0271964"
     d=""
     id="path305" />
</svg>
