<?xml version="1.0" encoding="UTF-8" standalone="no"?>
<!-- Generator: Adobe Illustrator 19.0.0, SVG Export Plug-In . SVG Version: 6.00 Build 0)  -->

<svg
   version="1.1"
   id="Capa_1"
   x="0px"
   y="0px"
   viewBox="0 0 8.0000001 8"
   xml:space="preserve"
   sodipodi:docname="windmill.svg"
   width="8"
   height="8"
   inkscape:version="1.1 (c68e22c387, 2021-05-23)"
   xmlns:inkscape="http://www.inkscape.org/namespaces/inkscape"
   xmlns:sodipodi="http://sodipodi.sourceforge.net/DTD/sodipodi-0.dtd"
   xmlns="http://www.w3.org/2000/svg"
   xmlns:svg="http://www.w3.org/2000/svg"><defs
   id="defs16064" /><sodipodi:namedview
   id="namedview16062"
   pagecolor="#ffffff"
   bordercolor="#666666"
   borderopacity="1.0"
   inkscape:pageshadow="2"
   inkscape:pageopacity="0.0"
   inkscape:pagecheckerboard="0"
   showgrid="false"
   height="10px"
   inkscape:zoom="181.01934"
   inkscape:cx="4.0354805"
   inkscape:cy="6.3998688"
   inkscape:window-width="1920"
   inkscape:window-height="1017"
   inkscape:window-x="-8"
   inkscape:window-y="-8"
   inkscape:window-maximized="1"
   inkscape:current-layer="Capa_1" />









<g
   id="g15975"
   transform="matrix(0.02057002,0,0,0.01650989,-0.31035853,0.41104404)"
   style="fill:#ff7f2a">
	<g
   id="g15973"
   style="fill:#ff7f2a">
		<path
   d="m 347.967,240.322 -95.232,-79.36 c -3.072,-2.56 -7.168,-4.096 -11.776,-4.096 -1.536,0 -3.072,0.512 -4.096,0.512 -0.512,-4.096 -2.048,-8.192 -4.608,-11.264 0.512,0 1.024,-0.512 1.024,-0.512 3.584,-2.56 6.144,-6.144 6.656,-10.24 L 267.071,14.018 C 268.607,7.874 264.511,1.73 258.367,0.194 252.735,-0.83 246.079,2.242 244.031,8.386 l -37.888,117.76 c -1.024,4.096 -1.024,8.192 1.024,12.288 0,0.512 0.512,1.024 0.512,1.024 -2.56,1.024 -5.12,2.56 -7.168,4.608 -3.584,3.072 -5.632,7.168 -6.656,11.776 -0.512,0 -0.512,-0.512 -1.024,-0.512 -3.584,-2.048 -8.192,-2.56 -12.288,-1.536 L 59.711,182.466 c -6.144,1.536 -10.24,7.68 -8.704,13.824 1.024,5.632 6.144,9.728 11.776,9.728 0.512,0 1.024,0 1.536,0 l 122.88,-17.408 c 4.096,-0.512 7.68,-2.56 10.752,-6.144 1.536,-1.536 2.56,-3.584 3.072,-5.632 0,0 0,0 0.512,0.512 -0.512,0.512 -1.024,1.536 -1.024,2.56 l -13.312,237.056 h -15.872 c -3.072,0 -5.12,2.048 -5.12,5.12 0,3.072 2.048,5.12 5.12,5.12 h 84.48 c 3.072,0 5.12,-2.048 5.12,-5.12 0,-3.072 -2.048,-5.12 -5.12,-5.12 h -15.872 l -12.8,-233.472 c 1.024,2.048 2.56,3.584 4.608,5.12 l 101.888,70.656 c 2.048,1.536 4.608,2.048 6.656,2.048 3.584,0 7.168,-1.536 9.728,-4.608 3.584,-5.12 3.072,-12.288 -2.048,-16.384 z m -157.696,-64 c -1.024,1.536 -2.56,2.048 -4.096,2.56 l -122.88,16.896 c -1.024,0 -1.536,-0.512 -2.048,-1.536 0,-0.512 0.512,-1.536 1.024,-1.536 l 120.832,-28.672 c 0.512,0 1.024,0 1.536,0 1.024,0 2.56,0.512 3.584,1.024 2.048,1.024 3.072,3.072 3.584,5.12 0.512,2.048 0,4.096 -1.536,6.144 z m 17.408,-24.576 c 2.048,-2.048 5.12,-3.072 8.192,-3.072 6.144,0.512 11.264,5.632 10.752,11.776 0,3.072 -1.536,5.632 -3.584,7.68 -2.048,2.048 -5.12,3.072 -8.192,3.072 -3.072,0 -5.632,-1.536 -7.68,-3.584 -2.048,-2.048 -3.072,-5.12 -3.072,-8.192 0,-2.56 1.024,-5.632 3.584,-7.68 z m 22.016,265.216 h -32.256 l 12.8,-232.448 h 6.144 z m 0.512,-283.648 c -0.512,1.536 -1.536,3.072 -3.072,4.096 -1.536,1.024 -4.096,1.536 -6.144,1.024 -2.048,-0.512 -3.584,-2.048 -4.608,-4.096 -0.512,-1.536 -0.512,-3.072 0,-5.12 l 37.888,-117.76 c 0,-0.512 1.024,-1.024 1.536,-1.024 h 0.512 c 1.024,0 1.536,1.024 1.024,2.048 z m 111.104,117.248 c -0.512,0.512 -1.536,1.024 -2.048,0.512 L 237.375,180.418 c -1.536,-1.024 -2.56,-2.56 -2.56,-4.096 -0.512,-2.048 0,-4.096 1.536,-6.144 1.024,-1.536 2.56,-2.56 5.12,-2.56 2.048,0 3.584,0.512 4.608,1.536 l 95.232,78.848 c 0.512,0.512 1.024,1.536 0,2.56 z"
   id="path15971"
   style="fill:#ff7f2a" />
	</g>
</g><g
   id="g15981"
   transform="matrix(0.02057002,0,0,0.01650989,-0.31035853,0.41104404)"
   style="fill:#ff7f2a">
	<g
   id="g15979"
   style="fill:#ff7f2a">
		<path
   d="M 211.263,26.818 C 144.191,28.866 88.383,81.09 81.727,147.65 c -0.512,2.56 1.536,5.12 4.608,5.632 h 0.512 c 2.56,0 4.608,-2.048 5.12,-4.608 6.144,-61.952 57.856,-109.568 119.808,-111.616 3.072,0 5.12,-2.56 5.12,-5.12 -0.512,-3.072 -3.072,-5.12 -5.632,-5.12 z"
   id="path15977"
   style="fill:#ff7f2a" />
	</g>
</g><g
   id="g15987"
   transform="matrix(0.02057002,0,0,0.01650989,-0.31035853,0.41104404)"
   style="fill:#ff7f2a">
	<g
   id="g15985"
   style="fill:#ff7f2a">
		<path
   d="m 214.847,0.706 c -54.272,-3.072 -105.984,23.04 -136.704,68.608 -1.536,2.56 -1.024,5.632 1.536,7.168 0.512,0.512 1.536,1.024 2.56,1.024 1.536,0 3.072,-1.024 4.096,-2.048 29.184,-43.008 77.312,-67.072 128.512,-64.512 3.072,0 5.12,-2.048 5.12,-5.12 0,-3.072 -2.048,-5.12 -5.12,-5.12 z"
   id="path15983"
   style="fill:#ff7f2a" />
	</g>
</g><g
   id="g15999"
   transform="matrix(0.02057002,0,0,0.01650989,-0.31035853,0.41104404)"
   style="fill:#ff7f2a">
	<g
   id="g15997"
   style="fill:#ff7f2a">
		<path
   d="m 344.895,125.122 c -1.024,-3.072 -4.096,-4.608 -6.656,-4.096 -2.56,0.512 -4.608,3.584 -3.584,6.144 6.144,25.6 3.584,51.712 -7.168,75.776 -1.024,2.56 0,5.632 2.56,6.656 0.512,0.512 1.536,0.512 2.048,0.512 2.048,0 3.584,-1.024 4.608,-3.072 11.776,-26.112 14.336,-54.272 8.192,-81.92 z"
   id="path15995"
   style="fill:#ff7f2a" />
	</g>
</g><g
   id="g16005"
   transform="matrix(0.02057002,0,0,0.01650989,-0.31035853,0.41104404)"
   style="fill:#ff7f2a">
	<g
   id="g16003"
   style="fill:#ff7f2a">
		<path
   d="M 336.191,101.058 C 325.439,77.506 308.543,58.05 286.527,44.226 c -2.56,-1.536 -5.632,-0.512 -7.168,1.536 -1.024,2.56 0,5.632 2.048,7.168 19.968,12.288 35.84,30.72 45.568,52.224 1.024,2.048 2.56,3.072 4.608,3.072 0.512,0 1.536,0 2.048,-0.512 2.56,-1.024 3.584,-4.096 2.56,-6.656 z"
   id="path16001"
   style="fill:#ff7f2a" />
	</g>
</g><g
   id="g16011"
   transform="matrix(0.02057002,0,0,0.01650989,-0.31035853,0.41104404)"
   style="fill:#ff7f2a">
	<g
   id="g16009"
   style="fill:#ff7f2a">
		<path
   d="m 356.159,74.946 c -1.536,-2.56 -4.608,-3.072 -7.168,-2.048 -2.56,1.536 -3.072,4.608 -2.048,7.168 24.576,42.496 25.088,93.696 1.536,137.216 -1.536,2.56 -0.512,5.632 2.048,7.168 1.024,0.512 1.536,0.512 2.56,0.512 2.048,0 3.584,-1.024 4.608,-2.56 25.6,-46.592 25.088,-101.376 -1.536,-147.456 z"
   id="path16007"
   style="fill:#ff7f2a" />
	</g>
</g><g
   id="g16017"
   transform="matrix(0.02057002,0,0,0.01650989,-0.31035853,0.41104404)"
   style="fill:#ff7f2a">
	<g
   id="g16015"
   style="fill:#ff7f2a">
		<path
   d="m 340.287,51.906 c -10.752,-12.8 -28.16,-26.624 -45.568,-35.84 -2.56,-1.536 -5.632,-0.512 -7.168,2.048 -2.048,2.048 -1.024,5.12 1.536,6.656 16.384,8.704 32.768,22.016 43.008,33.792 1.024,1.024 2.56,1.536 4.096,1.536 1.024,0 2.56,-0.512 3.584,-1.024 2.048,-2.048 2.56,-5.12 0.512,-7.168 z"
   id="path16013"
   style="fill:#ff7f2a" />
	</g>
</g><g
   id="g16023"
   transform="matrix(0.02057002,0,0,0.01650989,-0.31035853,0.41104404)"
   style="fill:#ff7f2a">
	<g
   id="g16021"
   style="fill:#ff7f2a">
		<path
   d="m 296.255,251.074 c -1.536,-2.048 -5.12,-2.56 -7.168,-1.024 l -2.048,1.536 c -3.072,2.56 -4.096,3.072 -8.192,5.632 -2.56,1.536 -3.072,4.608 -2.048,7.168 1.024,1.024 2.56,2.048 4.608,2.048 1.024,0 1.536,0 2.56,-0.512 4.608,-2.56 6.144,-4.096 9.216,-6.144 l 2.048,-1.536 c 2.048,-1.536 2.56,-5.12 1.024,-7.168 z"
   id="path16019"
   style="fill:#ff7f2a" />
	</g>
</g><g
   id="g16029"
   transform="matrix(0.02057002,0,0,0.01650989,-0.31035853,0.41104404)"
   style="fill:#ff7f2a">
	<g
   id="g16027"
   style="fill:#ff7f2a">
		<path
   d="m 320.319,266.434 c -2.048,-2.048 -5.12,-2.56 -7.168,-0.512 -3.584,3.584 -8.192,6.656 -12.288,9.728 -5.12,3.584 -10.24,7.168 -15.36,9.728 -6.656,3.584 -12.8,6.656 -18.432,9.216 -2.56,2.048 -4.096,5.12 -3.072,7.68 1.024,2.048 2.56,3.072 4.608,3.072 0.512,0 1.024,0 2.048,-0.512 6.144,-2.56 12.8,-5.632 19.968,-9.728 5.632,-3.072 10.752,-6.656 15.872,-10.752 4.608,-3.584 9.216,-7.168 13.312,-10.752 2.048,-2.048 2.56,-5.12 0.512,-7.168 z"
   id="path16025"
   style="fill:#ff7f2a" />
	</g>
</g><path
   style="fill:#00b0e4;fill-opacity:0.780392;stroke-width:0.0226921"
   d=""
   id="path16612" /><path
   style="fill:#00b0e4;fill-opacity:0.780392;stroke-width:0.0226921"
   d=""
   id="path16805" /><path
   style="fill:#00b0e4;fill-opacity:0.780392;stroke-width:0.0226921"
   d=""
   id="path16844" /><path
   style="fill:#00b0e4;fill-opacity:0.780392;stroke-width:0.00567303"
   d=""
   id="path17950" /><path
   style="fill:#00b0e4;fill-opacity:0.780392;stroke-width:0.00567303"
   d=""
   id="path18184" /><path
   style="fill:#00b0e4;fill-opacity:0.780392;stroke-width:0.0110485"
   d=""
   id="path21617" /><path
   style="fill:#00b0e4;fill-opacity:0.780392;stroke-width:0.0110485"
   d=""
   id="path21656" /><path
   style="fill:#00b0e4;fill-opacity:0.780392;stroke-width:0.0110485"
   d=""
   id="path21695" />
<g
   id="g16031">
</g>
<g
   id="g16033">
</g>
<g
   id="g16035">
</g>
<g
   id="g16037">
</g>
<g
   id="g16039">
</g>
<g
   id="g16041">
</g>
<g
   id="g16043">
</g>
<g
   id="g16045">
</g>
<g
   id="g16047">
</g>
<g
   id="g16049">
</g>
<g
   id="g16051">
</g>
<g
   id="g16053">
</g>
<g
   id="g16055">
</g>
<g
   id="g16057">
</g>
<g
   id="g16059">
</g>
<path
   style="fill:#00b0e4;fill-opacity:0.780392;stroke-width:0.0078125"
   d=""
   id="path27877" /><path
   style="fill:#00b0e4;fill-opacity:0.780392;stroke-width:0.0078125"
   d=""
   id="path27916" /><path
   style="fill:#00b0e4;fill-opacity:0.780392;stroke-width:0.0078125"
   d="m 4.1023315,2.35216 c 0.0139,-0.0017 0.0385,-0.0018 0.0547,-6.3e-5 0.0162,0.0017 0.005,0.0031 -0.0252,0.0031 -0.0301,3.5e-5 -0.0433,-0.0013 -0.0295,-0.0031 z"
   id="path28216" /><path
   style="fill:#00b0e4;fill-opacity:0.780392;stroke-width:0.0078125"
   d="m 4.1181215,2.344266 c 0.0183,-0.0016 0.0481,-0.0016 0.0664,0 0.0183,0.0016 0.003,0.003 -0.0332,0.003 -0.0365,0 -0.0515,-0.0013 -0.0332,-0.003 z"
   id="path28333" /></svg>
